
<svg version="1.1" id="errorsvg" class="errorman"  x="0px" y="0px"
	 width="315px" height="154px" viewBox="0 0 330 154" enable-background="new 0 0 330 154" xml:space="preserve">
<g id="man-size">
<g>
	<path fill="#313131" d="M6.612,108.683c5.978-7.8,12.251-15.795,18.817-23.985c6.563-8.19,13.163-16.444,19.792-24.765
		c6.63-8.318,13.226-16.575,19.792-24.765c6.563-8.19,12.836-16.185,18.817-23.985v78.194h19.305v19.305H83.832v32.76H63.747v-32.76
		H6.612z M63.747,65.393c-1.042,1.301-2.407,3.022-4.095,5.167c-1.691,2.145-3.413,4.387-5.168,6.728
		c-1.755,2.34-3.479,4.616-5.167,6.825c-1.691,2.212-2.992,3.967-3.9,5.265h18.33V65.393z"/>
	<path fill="#313131" d="M228.392,107.201c5.978-7.8,12.251-15.795,18.816-23.985c6.563-8.19,13.162-16.444,19.793-24.765
		c6.63-8.318,13.226-16.575,19.793-24.765c6.562-8.19,12.835-16.185,18.816-23.985v78.194h19.305v19.305H305.61v32.76h-20.085
		v-32.76H228.392z M285.525,63.911c-1.042,1.301-2.406,3.022-4.095,5.167c-1.69,2.145-3.412,4.387-5.167,6.728
		c-1.755,2.34-3.479,4.616-5.168,6.825c-1.69,2.212-2.992,3.967-3.9,5.265h18.33V63.911z"/>
</g>
<ellipse opacity="0.2" fill="#313131" cx="168.524" cy="145.167" rx="30.157" ry="2.833"/>
<path fill="#F7C8B0" stroke="#313131" stroke-linejoin="round" stroke-miterlimit="10" d="M126.001,21.671
	c0,0,4.157-4.549,6.882-0.394c2.562,3.909-1.653,5.862-3.703,5.006C127.13,25.427,125.411,23.384,126.001,21.671z"/>
<path fill="#539FD3" stroke="#313131" stroke-miterlimit="10" d="M130.248,40.416c0,0-4.47,6.064-5.79,6.813
	c-1.775,1.009-7.329,4.824-21.188,11.214c-4.148,2.221-32.746,11.82-29.067,23.346c3.678,11.527,17.671,15.925,40.217,12.669
	c-2.066-3.364-2.688-9.739-2.688-9.739s-24.662,3.979-25.419-4.281c-0.757-8.26,27.037-11.583,33.146-6.038
	c6.111,5.546,14.144,8.801,14.144,8.801s0.783-30.224,23.481-39.804c0.578-5.465,15.013-20.662,26.235-22.319
	c2.083-0.284,0.425-9.114-3.657-12.817c-4.605-4.175-17.936-0.708-26.88,14C142.828,28.63,130.248,40.416,130.248,40.416"/>
<path fill="#313131" d="M209.72,42.213c-4.14-7.53-9.056-13.646-14.756-18.353c-5.699-4.704-12.034-7.925-19.003-9.664
	c-6.97-1.735-14.279-1.851-21.932-0.339c-7.015,1.386-13.42,4.011-19.216,7.871c-5.796,3.862-10.557,8.943-14.282,15.244
	c-3.724,6.301-6.198,13.747-7.415,22.335c-1.219,8.589-0.77,18.24,1.347,28.953c2.091,10.587,5.282,19.697,9.571,27.329
	c4.291,7.633,9.303,13.734,15.043,18.296c5.737,4.565,12.047,7.657,18.927,9.28s13.89,1.729,21.032,0.318
	c7.395-1.461,13.999-4.256,19.81-8.386c5.81-4.128,10.501-9.394,14.072-15.798c3.573-6.401,5.905-13.887,6.995-22.452
	c1.091-8.563,0.693-17.957-1.193-28.188C216.855,58.562,213.857,49.744,209.72,42.213z M154.741,102.305
	c-2.529-2.452-4.713-5.453-6.548-8.999c-1.837-3.543-3.168-7.416-3.999-11.614c-0.483-2.447-0.751-5.53-0.804-9.247
	c-0.053-3.714,0.427-7.377,1.442-10.985c1.013-3.607,2.73-6.878,5.151-9.81c2.42-2.931,5.902-4.846,10.452-5.745
	c4.283-0.846,8.069-0.434,11.353,1.233c3.281,1.669,6.047,3.941,8.296,6.813c2.25,2.875,4.059,6.06,5.434,9.559
	c1.371,3.5,2.336,6.65,2.888,9.448c0.829,4.199,1.029,8.317,0.6,12.354c-0.43,4.038-1.37,7.679-2.818,10.917
	c-1.453,3.241-3.369,5.96-5.75,8.156c-2.385,2.198-5.107,3.599-8.167,4.203c-3.063,0.605-6.118,0.322-9.164-0.848
	C160.058,106.571,157.27,104.759,154.741,102.305z"/>
<path opacity="0.2" fill="#313131" d="M93.796,62.591c0,0,2.013,3.504,7.012,3.196c4.999-0.308,4.997,5.921,4.997,5.921
	s7.621-0.344,9.188,0.707c0.515-3.839,0.105-16.985,0.105-16.985S98.33,60.416,93.796,62.591z"/>
<path fill="#539FD3" stroke="#313131" stroke-miterlimit="10" d="M158.844,46.273c0,0,13.569-2.68,24.038,1.944
	c3.818,5.138-19.774,59.524-19.774,59.524s-20.639-6.85-19.577-39.153C143.836,66.045,145.509,49.95,158.844,46.273z"/>
<path fill="#F7C8B0" stroke="#313131" stroke-linejoin="round" stroke-miterlimit="10" d="M178.839,11.151
	c0,0-2.826-1.04-5.691,0.633c-2.154,1.257-1.579,3.118,0.169,3.792c1.747,0.674,2.643-0.39,4.465-0.97
	c1.747-0.556,3.425,1.617,1.832,5.5c-1.592,3.881,2.664,5.018,5.105-0.688c-1.047,3.307-0.695,7.23,3.274,4.323
	c1.629-1.427,1.943-3.509,1.943-3.509s-0.68,4.729,1.432,4.245c2.112-0.485,5.551-5.097,3.65-10.214
	c-1.678-4.518-4.212-2.672-4.212-2.672s-2.207-5.425-5.639-1.841C183.978,8.766,180.995,6.583,178.839,11.151z"/>
<path fill="#F7C8B0" stroke="#313131" stroke-linejoin="round" stroke-miterlimit="10" d="M109.37,83.621
	c0,0,0.832-2.841,0.188-6.096c-0.662-3.352,3.309-1.75,4.07-0.039c0.761,1.711,0.283,2.901-0.205,4.749
	c-0.469,1.772,1.493,2.573,5.291,0.787c3.798-1.785,5.985,1.918,0.503,5.125c3.257-2.003,8.177-0.48,4.241,3.409
	c-1.548,1.374-3.807,2.537-3.807,2.537s4.684-1.371,4.306,0.763c-0.379,2.133-5.453,5.727-10.764,4.463
	c-5.311-1.264-2.509-4.661-2.509-4.661s-5.787-0.813-1.741-4.802C107.899,88.715,104.915,86.002,109.37,83.621z"/>
<path fill="#F7C8B0" stroke="#313131" stroke-linejoin="round" stroke-miterlimit="10" d="M131.639,25.245
	c-1.86-3.037-12.41-12.577-22.822-13.053c0,0-34.992,1.429-24.21,30.335c1.458,3.909,8.327,10.699,11.56,13.135
	c-1.811,1.272-3.369,4.822-0.137,6.422c3.792,1.878,5.717-0.723,6.259-2.784c3.598,1.008,18.111-0.924,26.031-11.975
	C135.579,37.195,134.149,29.345,131.639,25.245z"/>
<path fill="none" stroke="#313131" stroke-linecap="round" stroke-linejoin="round" stroke-miterlimit="10" d="M112.756,38.674
	c0,0,1.434,0.805,2.902-0.437s1.151-2.718,0.127-3.557"/>
<path fill="#414042" stroke="#313131" stroke-width="0.5" stroke-linecap="round" stroke-linejoin="round" stroke-miterlimit="10" d="
	M102.344,41.099c0,0,3.826-3.081,6.183-3.496c-0.183-1.189-0.539-1.372-0.539-1.372s-3.221,0.945-5.526,2.792
	C101.683,39.967,102.344,41.099,102.344,41.099z"/>
<path fill="#414042" stroke="#313131" stroke-width="0.5" stroke-linecap="round" stroke-linejoin="round" stroke-miterlimit="10" d="
	M116.373,24.372c0,0-2.229,4.933-2.046,7.318c-1.198,0.119-1.461-0.181-1.461-0.181s-0.162-3.359,1.055-6.051
	C114.738,23.848,116.373,24.372,116.373,24.372z"/>
<circle fill="#313131" cx="106.826" cy="40.356" r="0.713"/>
<path fill="#313032" stroke="#313131" stroke-linecap="round" stroke-linejoin="round" stroke-miterlimit="10" d="M110.193,9.541
	c0,0-0.993,1.384-1.376,2.651c-1.212,0.092-3.931,0.229-3.931,0.229S105.468,10.253,110.193,9.541"/>
<circle fill="#313131" cx="116.341" cy="29.98" r="0.713"/>
<path fill="#5A565E" stroke="#313131" stroke-linecap="round" stroke-linejoin="round" stroke-miterlimit="10" d="M89.938,49.878
	c0,0,0.935-9.951-3.486-14.868c12.907-8.167,10.512-17.861,23.742-25.469c-5.368-3.769-24.661,0.45-29.292,14.137
	c-2.86,8.654,0.097,15.035,0.097,15.035S83.789,45.501,89.938,49.878z"/>
<path fill="#414042" stroke="#313131" stroke-width="0.5" stroke-linecap="round" stroke-linejoin="round" stroke-miterlimit="10" d="
	M115.795,42.294c-1.129,0.796-2.66,2.131-2.582,3.49c0.124,1.458,1.176,2.431,2.617,2.134c1.641-0.39,2.964-2.361,3.652-3.769
	c0.583-1.237,1.26-3.772-0.666-3.827C118.174,40.304,116.412,41.778,115.795,42.294"/>
<path fill="#E56865" stroke="#313131" stroke-width="0.5" stroke-miterlimit="10" d="M116.56,45.116
	c-2.088,0.559-1.837,1.89-1.322,2.847c0.189,0.008,0.386-0.002,0.592-0.045c1.641-0.39,2.964-2.361,3.652-3.769
	c0.076-0.162,0.153-0.346,0.226-0.542C117.871,43.136,116.763,44.418,116.56,45.116z"/>
<path opacity="0.2" fill="#313131" d="M143.538,76.313c0,0,6.143,19.372,15.503,17.629c0.284,4.861,1.348,8.179,3.443,13.347
	C160.377,106.516,145.61,98.199,143.538,76.313"/>
<path fill="none" stroke="#313131" stroke-linecap="round" stroke-linejoin="round" stroke-miterlimit="10" d="M119.65,94.092
	c0,0-2.283,1.093-4.694,0.928"/>
<path fill="none" stroke="#313131" stroke-linecap="round" stroke-linejoin="round" stroke-miterlimit="10" d="M119.216,88.147
	c0,0-2.747,2.067-5.458,1.669"/>
<path fill="none" stroke="#313131" stroke-linecap="round" stroke-linejoin="round" stroke-miterlimit="10" d="M97.61,57.844
	c0,0-0.631,1.075,0.347,1.754c0.727,0.506,1.538-0.459,1.538-0.459"/>
<path fill="none" stroke="#313131" stroke-linecap="round" stroke-linejoin="round" stroke-miterlimit="10" d="M184.72,19.418
	c0,0,1.175-2.5,0.912-5.123"/>
<path fill="none" stroke="#313131" stroke-linecap="round" stroke-linejoin="round" stroke-miterlimit="10" d="M189.937,20.328
	c0,0,0.487-1.986,0.224-4.609"/>
<path opacity="0.2" fill="#313131" d="M114.204,55.09c-14.729,5.378-24.266-9.785-24.266-9.785l0.182,4.182
	c0,0,2.099,2.606,5.75,5.563c0.905,0.733,0.63,0.641,1.372,1.153c-1.492,1.234-1.521,2.932-0.367,4.015
	c1.766,1.656,3.961-0.126,4.063-1.626c1.677,0.883,2.352,0.668,3.717,0.615c20.352-2.108,27.381-16.621,28.444-21.72
	C130.975,40.981,130.288,49.218,114.204,55.09z"/>
<path opacity="0.2" fill="#313131" d="M102.608,40.246c0,0-3.078,2.265-0.484,4.215c2.594,1.951,7.377,2.086,8.818-3.305
	c1.441-5.39,0.57-6.407,7.188-9.54c6.617-3.134,0.596-8.273-2.648-5.976c-3.245,2.297-1.859,6.186-3.713,8.039
	C108.171,37.661,106.45,36.684,102.608,40.246z"/>
<g id="leg-top">
	<path fill="#D1D3D4" stroke="#313131" stroke-miterlimit="10" d="M238.273,62.996c-0.236,1.165,0.365,1.943,1.89,1.454
		c1.037-0.333,1.606-0.579,2.573-1.111c0.909-0.517,1.567-0.857,2.297-1.582c0.761-0.751,1.53-1.792,1.843-2.259
		c0.565-0.87,0.995-1.636,1.277-2.623c0.268-1.046,0.422-1.543,0.57-2.56c0.251-1.358,0.397-2.441,0.241-3.79
		c-0.141-1.289-0.7-3.156-1.606-4.212c-1.262-1.475-3.223-1.454-4.112-0.375c1.239,0.565,0.679,1.54,1.128,2.559
		c0.634,1.479,0.16,2.705-0.179,4.21c-0.456,1.789-0.841,3.574-2.009,5.041c-0.787,0.991-0.986,1.989-1.868,2.912
		C238.889,62.159,238.766,62.334,238.273,62.996"/>
	<path fill="#D65F43" stroke="#313131" stroke-miterlimit="10" d="M234.197,58.063c0,0,0.374,2.387,4.229,4.803
		c1.101-0.054,8.958-1.929,8.617-12.291c-0.014-0.572-0.934-3.728-3.039-4.326c-2.102-0.596-2.842,0.137-4.03,2.411
		c-1.186,2.277-1.438,2.068-2.396,2.936C237.678,52.427,236.366,57.175,234.197,58.063z"/>
	<path fill="#5A565E" stroke="#313131" stroke-linecap="round" stroke-linejoin="round" stroke-miterlimit="10" d="M192.667,63.762
		c0,0,5.827-32.685,45.18-12.046c1.468,0.988,1.558,5.609-3.219,6.55c-31.417-16.559-36.187,8.97-36.438,9.191"/>
	<path opacity="0.3" fill="#313131" d="M238.074,56.13c0,0,4.734,2.456,8.647-2.89c-0.308,1.667-1.175,8.082-8.313,9.364
		c-1.345-1.008-2.893-2.072-3.636-4.059C235.497,58.338,237.04,57.726,238.074,56.13z"/>
</g>
<path opacity="0.3" fill="#313131" d="M97.188,9.413c0,0-9.922,4.771-12.45,12.829c-2.527,8.06,2.236,10.248,7.834,3.754
	c5.598-6.492,6.311-9.187,11.354-11.711c-3.146,3.768-8.49,12.719-11.239,15.458c-2.75,2.739-6.236,5.268-6.236,5.268
	s3.669,5.664,3.106,13.993c-1.338-0.755-8.142-5.527-9.515-15.704C79.661,31.757,77.17,16.375,97.188,9.413z"/>
<path opacity="0.2" fill="#313131" d="M103.151,34.824c-0.319,0.241,4.585,0.361,6.578-2.587c1.244-1.84,1.282-3.439,0.978-5.219
	c-0.431,1.562-0.826,2.686-2.559,4.399C106.699,32.851,105.092,33.358,103.151,34.824z"/>
<path opacity="0.2" fill="#313131" d="M113.313,90.021c0,0,1.396,1.729,3.771,0.667s6.896-3.542,7.229-0.821
	c1.146-1.388,0.031-2.867-2.969-2.71c-1.156,0.375-3.579,1.851-3.579,1.851S114.492,90.485,113.313,90.021z"/>
<path opacity="0.2" fill="#313131" d="M114.5,95.037c0,0-0.156,1.744,2.542,1.15S123,93.635,123,96.021
	c0.375-0.928,2.156-2.586-2.5-1.929S115.406,95.262,114.5,95.037z"/>
<path opacity="0.2" fill="#313131" d="M185.67,16.857c0,0-0.487,5.266,0,5.955c0.674,0.953,1.894,0.271,3.372-0.958
	c-0.479,0.792-2.313,3.875-4.146,2.438C184.393,23.688,183.694,20.798,185.67,16.857z"/>
<path opacity="0.2" fill="#313131" d="M180.521,15.719c1.792,2.156-0.358,4.821,0.129,5.51c0.674,0.953,1.893,0.271,3.372-0.958
	c-0.479,0.792-2.313,3.875-4.146,2.438C178.5,21.542,180.688,18.167,180.521,15.719z"/>
<path opacity="0.2" fill="#313131" d="M190.563,16.857c0,0,0.271,1.35,0.521,5.142c0.126,1.917,2.332,1.062,3.209-1.041
	c-0.109,1.08-2.168,4.335-4.001,2.898C189.788,23.253,189.875,21.125,190.563,16.857z"/>
<path opacity="0.2" fill="#313131" d="M75.063,76.313c0,0-0.313,9.49,10.688,12.776s22.691,0.227,22.691,0.227l3.184,5.559
	c0,0-15.125,1.997-23.063-0.783S70.625,84.188,75.063,76.313z"/>
<path fill="#5A565E" stroke="#313131" stroke-linecap="round" stroke-linejoin="round" stroke-miterlimit="10" d="M182.882,48.217
	c0,0-35.631,25.385-19.774,59.524c4.27,1.706,30.886,2.329,38.459-20.403C209.14,64.606,196.139,50.822,182.882,48.217z"/>
<g id="leg-bottom">
	<path fill="#D1D3D4" stroke="#313131" stroke-miterlimit="10" d="M218.023,117.173c-0.674,0.919-0.123,2.132,1.03,2.558
		c1.05,0.385,1.318,0.363,2.438,0.516c1.063,0.129,1.711,0.104,2.753-0.048c1.087-0.152,2.235-0.588,2.777-0.782
		c0.998-0.371,1.671-0.685,2.628-1.223c0.966-0.542,1.568-1.062,2.313-1.807c1.036-0.966,1.82-1.768,2.515-2.973
		c0.672-1.147,1.353-3.027,1.254-4.451c-0.139-1.984-1.632-3.822-3.626-3.027c0.673,1.222,0.087,1.888-0.165,3.002
		c-0.384,1.604-1.523,2.322-2.723,3.355c-1.47,1.194-2.877,2.429-4.736,2.921c-1.253,0.335-2.344,0.376-3.636,0.597
		c-2.092,0.359-2.628-0.689-3.438-0.444"/>
	<path fill="#D65F43" stroke="#313131" stroke-miterlimit="10" d="M217.715,110.59c0,0-1.151,2.195,0.546,6.541
		c0.94,0.627,8.554,3.889,14.608-4.85c0.862-1.353,1.508-3.64,0.142-5.419c-1.365-1.776-2.424-1.625-4.791-0.479
		c-2.369,1.149-2.449,0.822-3.769,0.951C224.024,108.079,220.045,111.187,217.715,110.59z"/>
	<path fill="#5A565E" stroke="#313131" stroke-linecap="round" stroke-linejoin="round" stroke-miterlimit="10" d="M180.043,89.893
		c0,0,24.629-23.606,44.408,17.441c0.589,1.254-1.272,6.081-6.466,3.764c-15.74-32.837-35.312-14.816-35.654-14.786"/>
	<path opacity="0.3" fill="#313131" d="M221.647,111.752c0,0,0.952,6.756,10.508,1.11c-0.965,1.242-6.271,7.768-13.652,4.098
		c-0.468-1.564-1.285-3.441-0.648-5.701C218.142,111.426,220.004,112.46,221.647,111.752z"/>
</g>
<path fill="none" stroke="#313131" stroke-linecap="round" stroke-linejoin="round" stroke-miterlimit="10" d="M151.456,50.385
	c0,0,3.336-2.676,9.253-2.168"/>
<path fill="none" stroke="#313131" stroke-linecap="round" stroke-linejoin="round" stroke-miterlimit="10" d="M149.116,52.994
	c0,0,1.629-1.461,3.884-0.628"/>
<path fill="none" stroke="#313131" stroke-linecap="round" stroke-linejoin="round" stroke-miterlimit="10" d="M154.75,52.994
	c0,0,0-0.162,1.021,0.482"/>
<path fill="none" stroke="#313131" stroke-linecap="round" stroke-linejoin="round" stroke-miterlimit="10" d="M143.688,76.077
	c0,0,1.062,2.735,3.124,3.923"/>
    </g>
</svg>