<svg id="Livello_1" data-name="Livello 1" xmlns="http://www.w3.org/2000/svg" viewBox="0 0 240.16 53.59" width="300" height="67"><defs><style>.cls-1{fill:#47b2e4;}.cls-2{fill:#fff;}</style></defs><title>logo-light</title><path class="cls-1" d="M14.73,28.15a3.92,3.92,0,0,0,1.52,1.22h1.6l1.26-.83h0a2.86,2.86,0,0,0,.11-3.45,3.1,3.1,0,0,1-.6-1.11,1.23,1.23,0,0,1-.45-1.15h0a0.53,0.53,0,0,1,0-.13,5.11,5.11,0,0,1,0-4.34h0A7.27,7.27,0,0,1,21,14.1a5,5,0,0,1,3.18-1.45,4.77,4.77,0,0,1,3.51,0,3.76,3.76,0,0,1,2.4,1h0L30.77,14h0a1.66,1.66,0,0,1,.93.85h0a2.34,2.34,0,0,1,.34.32q3.08,4.34,6.16,8.69c1.87,2.64,3.69,5.32,5.6,7.93a2.63,2.63,0,0,0,3.77.65,2.69,2.69,0,0,0,.52-3.94c-0.77-1-1.45-2.1-2.2-3.14-2.86-4-5.6-8-8.44-12C35.56,10.74,35,8,36.26,4.89A7.59,7.59,0,0,1,42.62.08a7.64,7.64,0,0,1,7.51,3.15c2,2.74,3.93,5.6,5.89,8.4L66.44,26.49c3,4.22,5.9,8.46,8.9,12.66,1.52,2.12,2.85,4.27,2.5,7a7.87,7.87,0,0,1-4.76,6.57,7.2,7.2,0,0,1-6.56,0h0l-0.92-.49a1.7,1.7,0,0,1-1.12-.8h0a5,5,0,0,1-.48-0.4,35.39,35.39,0,0,1-2.84-3.87q-3.37-4.76-6.69-9.56A2.83,2.83,0,0,0,50.56,37,2.76,2.76,0,0,0,50,40.73a8.84,8.84,0,0,1,1.29,3c0.82,3.63-1.42,7.89-4.76,9a1.72,1.72,0,0,1-1.45.47,4.56,4.56,0,0,1-3.37,0H41.63l-0.06,0a1.85,1.85,0,0,1-1.46-.46h0a7.23,7.23,0,0,1-3.47-2.87,9.4,9.4,0,0,1-1.76-2.56h0l-0.45-.66h0a2.56,2.56,0,0,1-1-1.39h0c-0.78-1.09-1.58-2.17-2.35-3.26-1.91-2.7-3.79-5.41-5.71-8.09a2.49,2.49,0,0,0-3-.88c-1.33.47-1.87,1.4-1.83,3.13a11.39,11.39,0,0,1,1,1.75,2.6,2.6,0,0,1,.93,1.3h0c0.34,0.47.67,1,1,1.42a8,8,0,0,1-3.37,12.1,1.73,1.73,0,0,1-1.45.47,4.5,4.5,0,0,1-3.38,0H15.21l-0.06,0a1.69,1.69,0,0,1-1.46-.47h0a7.32,7.32,0,0,1-3.56-2.88Q5.85,43.84,1.63,37.74a7.73,7.73,0,0,1-.47-8.81A8.09,8.09,0,0,1,14.73,28.15Z"/><path class="cls-2" d="M104.08,27.11a5.69,5.69,0,0,0,1.73,4.37,6,6,0,0,0,4.25,1.62,8.25,8.25,0,0,0,3.83-.9,6.14,6.14,0,0,0,2.61-2.38v6a7.53,7.53,0,0,1-2.83,1.55,13.13,13.13,0,0,1-4,.56,12.74,12.74,0,0,1-5.94-1.35,10.27,10.27,0,0,1-4.12-3.8,10.56,10.56,0,0,1-1.51-5.65,10.53,10.53,0,0,1,1.51-5.67,10.32,10.32,0,0,1,4.12-3.78,13.84,13.84,0,0,1,9.94-.77,8.69,8.69,0,0,1,2.83,1.48v6A6,6,0,0,0,113.82,22a8.57,8.57,0,0,0-3.76-.88,5.86,5.86,0,0,0-4.25,1.69A5.74,5.74,0,0,0,104.08,27.11Z"/><path class="cls-2" d="M120.19,27.11a10.53,10.53,0,0,1,1.51-5.67,10.35,10.35,0,0,1,4.09-3.78,13.45,13.45,0,0,1,11.75,0,10.37,10.37,0,0,1,4.1,3.78,10.54,10.54,0,0,1,1.51,5.67,10.57,10.57,0,0,1-1.51,5.65,10.32,10.32,0,0,1-4.1,3.8,13.45,13.45,0,0,1-11.75,0,10.3,10.3,0,0,1-4.09-3.8A10.56,10.56,0,0,1,120.19,27.11Zm6,0a5.75,5.75,0,0,0,1.6,4.25,5.3,5.3,0,0,0,3.89,1.6,5.37,5.37,0,0,0,3.92-1.6,5.7,5.7,0,0,0,1.62-4.25,5.78,5.78,0,0,0-1.62-4.27,5.33,5.33,0,0,0-3.92-1.62,5.26,5.26,0,0,0-3.89,1.62A5.83,5.83,0,0,0,126.18,27.11Z"/><path class="cls-2" d="M146.11,27.11a11.54,11.54,0,0,1,1.4-5.87,9.57,9.57,0,0,1,3.67-3.67,9.92,9.92,0,0,1,4.88-1.26,8,8,0,0,1,7.06,3.78V2.36H169v35.1h-5.85V34.13a8,8,0,0,1-7.06,3.78,9.92,9.92,0,0,1-4.88-1.26A9.52,9.52,0,0,1,147.51,33,11.56,11.56,0,0,1,146.11,27.11Zm6.08,0a5.85,5.85,0,0,0,1.64,4.37,5.41,5.41,0,0,0,3.94,1.62,4.88,4.88,0,0,0,2.52-.72,5.88,5.88,0,0,0,2-2,6.06,6.06,0,0,0,.81-3.22,6.06,6.06,0,0,0-.81-3.22,5.89,5.89,0,0,0-2-2,4.88,4.88,0,0,0-2.52-.72,5.45,5.45,0,0,0-3.94,1.6A5.83,5.83,0,0,0,152.19,27.11Z"/><path class="cls-2" d="M186.38,22.88a5.83,5.83,0,0,0-1.17-.85,3.12,3.12,0,0,0-1.48-.31A2.83,2.83,0,0,0,181.21,23a6.31,6.31,0,0,0-.85,3.53V37.46h-5.76V16.76h5.76v2.52a7.48,7.48,0,0,1,2.25-2.2,5.05,5.05,0,0,1,2.7-.81,5.7,5.7,0,0,1,2.14.4,3.85,3.85,0,0,1,1.64,1.21Z"/><path class="cls-2" d="M190.07,27.11a10.53,10.53,0,0,1,1.51-5.67,10.35,10.35,0,0,1,4.09-3.78,13.45,13.45,0,0,1,11.75,0,10.37,10.37,0,0,1,4.1,3.78A10.54,10.54,0,0,1,213,27.11a10.57,10.57,0,0,1-1.51,5.65,10.32,10.32,0,0,1-4.1,3.8,13.45,13.45,0,0,1-11.75,0,10.3,10.3,0,0,1-4.09-3.8A10.56,10.56,0,0,1,190.07,27.11Zm6,0a5.75,5.75,0,0,0,1.6,4.25,5.3,5.3,0,0,0,3.89,1.6,5.37,5.37,0,0,0,3.92-1.6,5.7,5.7,0,0,0,1.62-4.25,5.78,5.78,0,0,0-1.62-4.27,5.33,5.33,0,0,0-3.92-1.62,5.26,5.26,0,0,0-3.89,1.62A5.83,5.83,0,0,0,196.06,27.11Z"/><path class="cls-2" d="M223.1,47.36h-5.85V16.76h5.85v3.42a8.12,8.12,0,0,1,2.92-3,8,8,0,0,1,4.14-1.06,9.92,9.92,0,0,1,4.88,1.26,9.65,9.65,0,0,1,3.69,3.71,11.83,11.83,0,0,1,1.42,6,11.83,11.83,0,0,1-1.42,6,9.65,9.65,0,0,1-3.69,3.71,9.92,9.92,0,0,1-4.88,1.26A8,8,0,0,1,226,37a8.11,8.11,0,0,1-2.92-3V47.36Zm11-20.25a5.43,5.43,0,0,0-1.67-4.27,5.75,5.75,0,0,0-4-1.48A5.31,5.31,0,0,0,226,22a5.37,5.37,0,0,0-2,1.94,5.83,5.83,0,0,0-.81,3.17,5.83,5.83,0,0,0,.81,3.17,5.36,5.36,0,0,0,2,1.94,5.3,5.3,0,0,0,2.5.65,5.7,5.7,0,0,0,4-1.51A5.44,5.44,0,0,0,234.08,27.11Z"/></svg>