<?xml version="1.0" encoding="utf-8"?>
<!-- Generator: Adobe Illustrator 19.2.1, SVG Export Plug-In . SVG Version: 6.00 Build 0)  -->
<svg version="1.1" xmlns="http://www.w3.org/2000/svg" xmlns:xlink="http://www.w3.org/1999/xlink" x="0px" y="0px" width="300" height="57"
	 viewBox="0 0 840.5 159.1" style="enable-background:new 0 0 840.5 159.1;" xml:space="preserve">
<style type="text/css">
	.st0{display:none;}
	.st1{display:inline;fill:none;}
	.st2{display:inline;fill:#FF6600;}
	.st3{display:inline;fill:#262E3A;}
	.st4{display:inline;}
	.st5{fill:none;}
	.st6{fill:#FF6600;}
	.st7{display:inline;fill:#FFFBF8;}
	.st8{fill:#FFFFFF;}
	.st9{fill:#00BDC7;}
	.st10{display:none;fill:#5E3838;}
	.st11{font-family:'Montserrat-Black';}
	.st12{font-size:97px;}
</style>
<g id="Background">
</g>
<g id="Objects">
	<g class="st0">
		<g>
			<polygon class="st1" points="80.9,928.6 79.6,932.7 82.2,932.7 80.9,928.6 			"/>
			<path class="st1" d="M286.5,929.3c0-0.5-0.2-0.8-0.5-1c-0.2-0.2-0.6-0.3-1-0.3h-2.2v2.8h2.1c0.5,0,0.9-0.2,1.2-0.5
				C286.4,930,286.5,929.7,286.5,929.3z"/>
			<path class="st1" d="M110.8,900c-3.6,0-6.6,2.9-6.6,6.5c0,3.6,2.9,6.6,6.6,6.6c3.6,0,6.5-2.9,6.5-6.6
				C117.3,902.9,114.4,900,110.8,900z"/>
			<path class="st1" d="M188.4,900h-1.8v4.3h1.8c1.2,0,2.2-1,2.2-2.2C190.6,900.9,189.6,900,188.4,900z"/>
			<polygon class="st1" points="147,813.1 186.5,813.1 128.3,749 88.7,749 			"/>
			<polygon class="st1" points="219.7,748.7 180.2,748.7 238.4,812.8 277.9,812.8 			"/>
			<polygon class="st1" points="219.8,906.9 223.3,906.9 221.5,902 			"/>
			<path class="st1" d="M197.8,928.7c-0.1-0.2-0.3-0.3-0.6-0.5c-0.2-0.1-0.5-0.2-0.9-0.2c-0.3,0-0.6,0.1-0.8,0.2
				c-0.2,0.1-0.4,0.3-0.6,0.5c-0.2,0.2-0.3,0.5-0.4,0.8c-0.1,0.3-0.1,0.9-0.1,1.9c0,0.9,0,1.5,0.1,1.8c0.1,0.3,0.2,0.6,0.4,0.8
				c0.1,0.2,0.3,0.3,0.6,0.5c0.2,0.1,0.5,0.2,0.8,0.2c0.3,0,0.6-0.1,0.9-0.2c0.2-0.1,0.4-0.3,0.6-0.5c0.2-0.2,0.3-0.5,0.4-0.8
				c0.1-0.3,0.1-0.9,0.1-1.8c0-0.9,0-1.5-0.1-1.9C198.1,929.2,198,928.9,197.8,928.7z"/>
			<path class="st2" d="M131.8,741H70.9l72.6,79.9h60.9L131.8,741z M88.7,748.9h39.5l58.2,64.1H147L88.7,748.9z"/>
			<path class="st3" d="M193.1,689.8L131.8,738H70.9l13.4-10.5C115.3,703,153.6,689.8,193.1,689.8z"/>
			<path class="st2" d="M223.2,740.8h-60.9l72.6,79.9h60.9L223.2,740.8z M180.2,748.7h39.5l58.2,64.1h-39.5L180.2,748.7z"/>
			<path class="st3" d="M295.8,823.8l-13.4,10.5c-15.5,12.2-32.8,21.6-51.2,28c-18.4,6.4-37.8,9.7-57.6,9.7l61.3-48.2H295.8z"/>
			<path class="st2" d="M79,911.3c-1.1,1.1-2.7,1.7-4.4,1.7c-3.6,0-6.6-2.9-6.6-6.5c0-3.6,2.9-6.5,6.6-6.5c1.7,0,3.3,0.7,4.4,1.8
				l3.1-3.1c-2-1.9-4.6-3-7.5-3c-6,0-10.9,4.9-10.9,10.9c0,6,4.9,10.9,10.9,10.9c2.9,0,5.5-1.1,7.5-3L79,911.3z"/>
			<path class="st2" d="M110.8,895.6c-6,0-10.9,4.9-10.9,10.9c0,6,4.9,10.9,10.9,10.9c6,0,10.9-4.9,10.9-10.9
				C121.7,900.5,116.8,895.6,110.8,895.6z M110.8,913.1c-3.6,0-6.6-2.9-6.6-6.6c0-3.6,2.9-6.5,6.6-6.5c3.6,0,6.5,2.9,6.5,6.5
				C117.3,910.1,114.4,913.1,110.8,913.1z"/>
			<polygon class="st2" points="152,911.5 145.6,895.6 141,895.6 141,917.4 145.3,917.4 145.3,906.5 149.7,917.4 154.4,917.4 
				158.7,906.5 158.7,917.4 163.1,917.4 163.1,895.6 158.4,895.6 			"/>
			<path class="st2" d="M188.4,895.6h-6.1v21.8h4.3v-8.7h1.8c3.6,0,6.5-2.9,6.5-6.5C194.9,898.5,192,895.6,188.4,895.6z
				 M188.4,904.3h-1.8V900h1.8c1.2,0,2.2,1,2.2,2.2C190.6,903.3,189.6,904.3,188.4,904.3z"/>
			<path class="st2" d="M219.2,895.6l-7.9,21.8h4.6l2.2-6.1h6.7l2.2,6.1h4.6l-7.9-21.8H219.2z M219.8,906.9l1.8-4.9l1.8,4.9H219.8z"
				/>
			<polygon class="st2" points="268.5,895.6 264.2,895.6 264.2,910.1 255.5,895.6 250.4,895.6 250.4,917.4 254.7,917.4 254.7,902.9 
				263.5,917.4 268.5,917.4 			"/>
			<polygon class="st2" points="297.3,917.4 297.3,907 303,895.6 298.1,895.6 295.1,901.6 292.1,895.6 287.2,895.6 292.9,907 
				292.9,917.4 			"/>
			<polygon class="st2" points="63.7,928 66.2,928 66.2,936 67.6,936 67.6,928 70.1,928 70.1,926.7 63.7,926.7 			"/>
			<path class="st2" d="M80.3,926.7L77,936h1.5l0.7-2.1h3.5l0.7,2.1h1.5l-3.4-9.2H80.3z M79.6,932.7l1.3-4h0l1.3,4H79.6z"/>
			<path class="st2" d="M96.4,932.2h1.9v0.5c0,0.6-0.2,1-0.5,1.4c-0.4,0.4-0.8,0.6-1.3,0.6c-0.3,0-0.6-0.1-0.8-0.2
				c-0.2-0.1-0.4-0.3-0.6-0.5c-0.2-0.2-0.3-0.5-0.4-0.8c-0.1-0.3-0.1-0.9-0.1-1.8c0-0.9,0-1.5,0.1-1.9c0.1-0.3,0.2-0.6,0.4-0.8
				c0.1-0.2,0.3-0.3,0.6-0.5c0.2-0.1,0.5-0.2,0.8-0.2c0.4,0,0.8,0.1,1.1,0.4c0.3,0.3,0.5,0.6,0.6,0.9h1.5c-0.1-0.8-0.5-1.4-1.1-1.9
				c-0.6-0.5-1.3-0.8-2.2-0.8c-0.7,0-1.3,0.2-1.8,0.5c-0.5,0.3-0.9,0.7-1.1,1.1c-0.1,0.2-0.2,0.5-0.3,0.9c-0.1,0.4-0.1,1.1-0.1,2.2
				c0,1.1,0,1.8,0.1,2.1c0,0.2,0.1,0.4,0.1,0.5c0.1,0.1,0.1,0.3,0.2,0.4c0.2,0.4,0.6,0.8,1.1,1.1c0.5,0.3,1.1,0.5,1.8,0.5
				c0.9,0,1.7-0.3,2.3-1c0.6-0.6,0.9-1.4,0.9-2.3v-1.9h-3.3V932.2z"/>
			<polygon class="st2" points="110.5,926.7 109.1,926.7 109.1,936 115,936 115,934.6 110.5,934.6 			"/>
			<rect x="124.1" y="926.7" class="st2" width="1.4" height="9.2"/>
			<polygon class="st2" points="140.7,933.3 140.7,933.3 136.5,926.7 135.2,926.7 135.2,936 136.6,936 136.6,929.4 136.6,929.4 
				140.8,936 142.1,936 142.1,926.7 140.7,926.7 			"/>
			<polygon class="st2" points="151.8,936 157.7,936 157.7,934.6 153.2,934.6 153.2,931.9 157.1,931.9 157.1,930.7 153.2,930.7 
				153.2,928.1 157.7,928.1 157.7,926.7 151.8,926.7 			"/>
			<path class="st2" d="M180.7,932.2h1.9v0.5c0,0.6-0.2,1-0.5,1.4c-0.4,0.4-0.8,0.6-1.3,0.6c-0.3,0-0.6-0.1-0.8-0.2
				c-0.2-0.1-0.4-0.3-0.6-0.5c-0.2-0.2-0.3-0.5-0.4-0.8c-0.1-0.3-0.1-0.9-0.1-1.8c0-0.9,0-1.5,0.1-1.9c0.1-0.3,0.2-0.6,0.4-0.8
				c0.1-0.2,0.3-0.3,0.6-0.5c0.2-0.1,0.5-0.2,0.8-0.2c0.4,0,0.8,0.1,1.1,0.4c0.3,0.3,0.5,0.6,0.6,0.9h1.5c-0.1-0.8-0.5-1.4-1.1-1.9
				c-0.6-0.5-1.3-0.8-2.2-0.8c-0.7,0-1.3,0.2-1.8,0.5c-0.5,0.3-0.9,0.7-1.1,1.1c-0.1,0.2-0.2,0.5-0.3,0.9c-0.1,0.4-0.1,1.1-0.1,2.2
				c0,1.1,0,1.8,0.1,2.1c0,0.2,0.1,0.4,0.1,0.5c0.1,0.1,0.1,0.3,0.2,0.4c0.2,0.4,0.6,0.8,1.1,1.1c0.5,0.3,1.1,0.5,1.8,0.5
				c0.9,0,1.7-0.3,2.3-1c0.6-0.6,0.9-1.4,0.9-2.3v-1.9h-3.3V932.2z"/>
			<path class="st2" d="M199.3,928.3c-0.2-0.4-0.6-0.8-1.1-1.1c-0.5-0.3-1.1-0.5-1.8-0.5c-0.7,0-1.3,0.2-1.8,0.5
				c-0.5,0.3-0.9,0.7-1.1,1.1c-0.1,0.2-0.2,0.5-0.3,0.9c-0.1,0.4-0.1,1.1-0.1,2.2c0,1.1,0,1.8,0.1,2.1c0,0.2,0.1,0.4,0.1,0.5
				c0.1,0.1,0.1,0.3,0.2,0.4c0.2,0.4,0.6,0.8,1.1,1.1c0.5,0.3,1.1,0.5,1.8,0.5c0.7,0,1.3-0.2,1.8-0.5c0.5-0.3,0.8-0.7,1.1-1.1
				c0.2-0.2,0.3-0.5,0.3-0.9c0.1-0.4,0.1-1.1,0.1-2.1c0-1.1,0-1.8-0.1-2.2C199.6,928.8,199.4,928.5,199.3,928.3z M198.2,933.2
				c-0.1,0.3-0.2,0.6-0.4,0.8c-0.1,0.2-0.3,0.3-0.6,0.5c-0.2,0.1-0.5,0.2-0.9,0.2c-0.3,0-0.6-0.1-0.8-0.2c-0.2-0.1-0.4-0.3-0.6-0.5
				c-0.2-0.2-0.3-0.5-0.4-0.8c-0.1-0.3-0.1-0.9-0.1-1.8c0-0.9,0-1.5,0.1-1.9c0.1-0.3,0.2-0.6,0.4-0.8c0.1-0.2,0.3-0.3,0.6-0.5
				c0.2-0.1,0.5-0.2,0.8-0.2c0.3,0,0.6,0.1,0.9,0.2c0.2,0.1,0.4,0.3,0.6,0.5c0.2,0.2,0.3,0.5,0.4,0.8c0.1,0.3,0.1,0.9,0.1,1.9
				C198.3,932.3,198.3,932.9,198.2,933.2z"/>
			<polygon class="st2" points="209.1,936 215,936 215,934.6 210.5,934.6 210.5,931.9 214.3,931.9 214.3,930.7 210.5,930.7 
				210.5,928.1 215,928.1 215,926.7 209.1,926.7 			"/>
			<path class="st2" d="M227.5,930.7c-0.4-0.1-0.8-0.1-1-0.1c-0.5-0.1-0.8-0.2-1-0.5c-0.2-0.2-0.3-0.5-0.3-0.7c0-0.4,0.2-0.8,0.5-1
				c0.3-0.2,0.6-0.3,1.1-0.3c0.8,0,1.6,0.3,2.3,0.7l0.8-1.2c-0.8-0.6-1.8-0.9-3-1c-1,0-1.7,0.3-2.2,0.7c-0.5,0.5-0.8,1.1-0.8,2
				c0,0.7,0.2,1.2,0.6,1.7c0.4,0.5,1,0.7,1.8,0.9c0.4,0.1,0.9,0.1,1.2,0.2c0.8,0.1,1.2,0.6,1.2,1.2c0,0.8-0.6,1.3-1.8,1.3
				c-1,0-1.9-0.3-2.6-0.9l-0.9,1.1c1,0.8,2.2,1.3,3.5,1.3c2.1,0,3.2-0.9,3.2-2.7c0-0.7-0.2-1.2-0.6-1.7
				C229,931.1,228.4,930.8,227.5,930.7z"/>
			<polygon class="st2" points="255.3,930.7 251.6,930.7 251.6,926.7 250.2,926.7 250.2,936 251.6,936 251.6,931.9 255.3,931.9 
				255.3,936 256.7,936 256.7,926.7 255.3,926.7 			"/>
			<polygon class="st2" points="266.4,936 272.3,936 272.3,934.6 267.8,934.6 267.8,931.9 271.6,931.9 271.6,930.7 267.8,930.7 
				267.8,928.1 272.3,928.1 272.3,926.7 266.4,926.7 			"/>
			<path class="st2" d="M287.8,929.3c0-0.9-0.3-1.5-0.9-2c-0.5-0.4-1.1-0.6-1.9-0.6h-3.6v9.2h1.4V932h1.8l1.9,3.9h1.7l-2.1-4.1
				C287.2,931.4,287.8,930.6,287.8,929.3z M282.8,930.8V928h2.2c0.4,0,0.8,0.1,1,0.3c0.3,0.2,0.5,0.6,0.5,1c0,0.4-0.1,0.7-0.4,1
				c-0.3,0.3-0.7,0.4-1.2,0.5H282.8z"/>
			<polygon class="st2" points="297.1,936 303,936 303,934.6 298.5,934.6 298.5,931.9 302.3,931.9 302.3,930.7 298.5,930.7 
				298.5,928.1 303,928.1 303,926.7 297.1,926.7 			"/>
		</g>
		<g>
			<path class="st1" d="M172.4,84.6l5.2,9.1l17.2,29.8c1,0,2,0,3,0c1.9,0,3.8,0,5.8,0l-31.2-54l-34,58.9c3.2-0.6,6.4-1.1,9.6-1.5
				l19.2-33.2L172.4,84.6z"/>
			<path class="st1" d="M211.3,164.1l-11.8-20.4c-26.6,4-49.5,11.2-66,20.4H211.3z"/>
			<path class="st1" d="M117.2,255.4c-0.7,0-1.3,0.2-1.8,0.7c-0.5,0.4-0.8,1.1-0.8,2.1v14.2c0,0.9,0.3,1.6,0.8,2.1
				c0.5,0.4,1.1,0.7,1.8,0.7c0.7,0,1.3-0.2,1.8-0.7c0.5-0.4,0.8-1.1,0.8-2.1v-14.2c0-0.9-0.3-1.6-0.8-2.1
				C118.5,255.6,117.9,255.4,117.2,255.4z"/>
			<polygon class="st1" points="213,259.5 211.1,269.2 214.9,269.2 213,259.5 			"/>
			<path class="st1" d="M191,294.8c0.1,0.2,0.3,0.3,0.5,0.4c0.2,0.1,0.4,0.2,0.7,0.2c0.3,0,0.5-0.1,0.7-0.2c0.2-0.1,0.4-0.2,0.5-0.4
				c0.2-0.2,0.3-0.4,0.3-0.7c0.1-0.3,0.1-0.8,0.1-1.6c0-0.8,0-1.3-0.1-1.6c-0.1-0.3-0.2-0.5-0.3-0.6c-0.1-0.2-0.3-0.3-0.5-0.4
				c-0.2-0.1-0.5-0.2-0.7-0.2c-0.3,0-0.5,0.1-0.7,0.2c-0.2,0.1-0.4,0.2-0.5,0.4c-0.2,0.2-0.3,0.4-0.3,0.6c-0.1,0.3-0.1,0.8-0.1,1.6
				c0,0.8,0,1.3,0.1,1.6C190.8,294.4,190.9,294.7,191,294.8z"/>
			<path class="st1" d="M186.6,256.7c-0.2-0.4-0.5-0.8-0.9-1c-0.4-0.2-1-0.3-1.7-0.3h-2v9.1h1.8c0.8,0,1.4-0.1,1.8-0.3
				c0.4-0.2,0.7-0.5,0.9-0.9c0.2-0.4,0.3-0.8,0.4-1.4c0-0.6,0.1-1.2,0.1-1.8c0-0.6,0-1.2,0-1.8C186.9,257.6,186.8,257.1,186.6,256.7
				z"/>
			<path class="st1" d="M268.2,290.9c0-0.4-0.1-0.7-0.4-0.9c-0.2-0.2-0.5-0.2-0.9-0.2h-1.8v2.4h1.8c0.4,0,0.8-0.1,1-0.4
				C268.1,291.5,268.2,291.2,268.2,290.9z"/>
			<polygon class="st1" points="94.8,290.3 93.6,293.7 95.9,293.7 94.8,290.3 			"/>
			<path class="st3" d="M172.4,96.7l19,32.8c2.1,0,4.3-0.1,6.5-0.1c5.5,0,11,0.1,16.4,0.4l-41.8-72.4L126.4,137
				c8-1.8,16.4-3.3,25.3-4.5L172.4,96.7z M138.3,128.4l34-58.9l31.2,54c-1.9,0-3.8,0-5.8,0c-1,0-2,0-3,0l-17.2-29.8l-5.2-9.1
				l-5.2,9.1l-19.2,33.2C144.7,127.3,141.5,127.9,138.3,128.4z"/>
			<path class="st2" d="M144.2,238.1c-23.7-10.4-38.2-24.3-38.2-39.7c0-5.1,1.6-10,4.6-14.8h134.7l-24.5-42.5
				c9.3-0.8,19-1.2,28.9-1.2c13.3,0,26.2,0.7,38.5,2.1c-0.7-0.2-1.4-0.4-2.2-0.7c0.7,0.2,1.4,0.4,2.2,0.7c0.8,0.1,1.6,0.2,2.5,0.3
				c-2.2-0.5-4.4-1.1-6.6-1.6c0,0,0,0,0,0c-20-4.5-43-7-67.5-7c-0.1,0-0.3,0-0.4,0c-5.6,0-11.1,0.1-16.5,0.4
				c-1.8,0.1-3.6,0.2-5.4,0.3h0h0c-17.1,1.1-33.1,3.4-47.5,6.7c-1.2,0.3-2.5,0.6-3.7,0.9c-8.6,2.1-16.5,4.6-23.7,7.3
				C92.6,159.6,76.1,174,76.1,190C76.1,210.4,103.4,228.3,144.2,238.1z M199.5,143.7l11.8,20.4h-77.7
				C150,154.9,172.9,147.7,199.5,143.7z"/>
			<path class="st3" d="M89,278.3c0.7-0.3,1.4-0.8,1.9-1.4c0.6-0.6,1-1.2,1.3-2c0.3-0.7,0.5-1.5,0.5-2.4V271h-3.8v1.3
				c0,0.5-0.1,1-0.2,1.3c-0.2,0.4-0.3,0.6-0.6,0.8c-0.3,0.2-0.5,0.3-0.8,0.4c-0.3,0.1-0.6,0.1-0.8,0.1c-0.9,0-1.5-0.3-1.8-0.8
				c-0.3-0.5-0.5-1.2-0.5-2v-13.7c0-0.9,0.2-1.7,0.5-2.2c0.3-0.6,0.9-0.9,1.9-0.9c0.7,0,1.3,0.3,1.7,0.8c0.4,0.6,0.6,1.2,0.6,2v1.3
				h3.8V258c0-0.9-0.2-1.8-0.5-2.6c-0.3-0.8-0.7-1.5-1.3-2.1c-1.1-1.2-2.6-1.8-4.4-1.8c-0.9,0-1.8,0.2-2.5,0.5
				c-0.8,0.3-1.4,0.7-2,1.3c-0.6,0.6-1,1.2-1.3,2c-0.3,0.8-0.5,1.6-0.5,2.4v14.8c0,1.2,0.2,2.2,0.6,3c0.4,0.8,0.9,1.4,1.5,1.9
				c0.6,0.5,1.3,0.9,2,1.1c0.8,0.2,1.5,0.3,2.2,0.3C87.5,278.8,88.3,278.7,89,278.3z"/>
			<path class="st3" d="M123.6,258.1c0-1.1-0.2-2-0.6-2.9c-0.4-0.8-0.9-1.5-1.5-2.1c-0.6-0.5-1.3-0.9-2.1-1.2
				c-0.8-0.3-1.5-0.4-2.3-0.4c-0.8,0-1.6,0.1-2.3,0.4c-0.8,0.3-1.5,0.7-2.1,1.2c-0.6,0.6-1.1,1.2-1.5,2.1c-0.4,0.8-0.6,1.8-0.6,2.9
				v14.2c0,1.1,0.2,2.1,0.6,2.9c0.4,0.8,0.9,1.5,1.5,2c0.6,0.6,1.3,1,2.1,1.2c0.8,0.3,1.5,0.4,2.3,0.4c0.8,0,1.6-0.1,2.3-0.4
				c0.8-0.3,1.5-0.7,2.1-1.2c0.6-0.5,1.1-1.2,1.5-2c0.4-0.8,0.6-1.8,0.6-2.9V258.1z M119.8,272.3c0,0.9-0.3,1.6-0.8,2.1
				c-0.5,0.4-1.1,0.7-1.8,0.7c-0.7,0-1.3-0.2-1.8-0.7c-0.5-0.4-0.8-1.1-0.8-2.1v-14.2c0-0.9,0.3-1.6,0.8-2.1
				c0.5-0.4,1.1-0.7,1.8-0.7c0.7,0,1.3,0.2,1.8,0.7c0.5,0.4,0.8,1.1,0.8,2.1V272.3z"/>
			<polygon class="st3" points="150.8,266 150.7,266 145.8,251.8 142.1,251.8 142.1,278.6 145.9,278.6 145.9,262.3 146,262.3 
				149.8,273.8 151.7,273.8 155.5,262.3 155.6,262.3 155.6,278.6 159.4,278.6 159.4,251.8 155.7,251.8 			"/>
			<path class="st3" d="M188.9,253.7c-0.7-0.7-1.4-1.2-2.2-1.5c-0.8-0.3-1.7-0.4-2.8-0.4h-5.8v26.8h3.8v-10.5h2
				c1.4,0,2.6-0.2,3.5-0.7c0.9-0.5,1.6-1.2,2.1-2.1c0.5-0.7,0.7-1.5,0.9-2.3c0.1-0.8,0.2-1.8,0.2-3.1c0-1.6-0.1-2.9-0.4-3.8
				C190,255.2,189.5,254.4,188.9,253.7z M186.9,261.8c0,0.6-0.2,1-0.4,1.4c-0.2,0.4-0.5,0.7-0.9,0.9c-0.4,0.2-1,0.3-1.8,0.3H182
				v-9.1h2c0.8,0,1.3,0.1,1.7,0.3c0.4,0.2,0.7,0.6,0.9,1c0.2,0.4,0.3,0.9,0.3,1.5c0,0.6,0,1.2,0,1.8
				C187,260.7,187,261.3,186.9,261.8z"/>
			<path class="st3" d="M211.4,251.8l-6,26.8h3.8l1.1-5.8h5.2l1.1,5.8h3.8l-6-26.8H211.4z M211.1,269.2l1.9-9.7h0.1l1.9,9.7H211.1z"
				/>
			<polygon class="st3" points="250.8,278.6 250.8,251.8 247,251.8 247,268 246.9,268 241.1,251.8 237.4,251.8 237.4,278.6 
				241.3,278.6 241.3,262.5 241.3,262.5 247.2,278.6 			"/>
			<polygon class="st3" points="276.8,278.6 276.8,267.3 282.1,251.8 278,251.8 274.9,262.5 274.8,262.5 271.8,251.8 267.7,251.8 
				273,267.3 273,278.6 			"/>
			<polygon class="st3" points="83.5,296.5 83.5,289.8 85.7,289.8 85.7,288.7 80.2,288.7 80.2,289.8 82.4,289.8 82.4,296.5 			"/>
			<path class="st3" d="M94.3,288.7l-2.8,7.8h1.3l0.6-1.7h3l0.6,1.7h1.2l-2.8-7.8H94.3z M93.6,293.7l1.1-3.4h0l1.1,3.4H93.6z"/>
			<path class="st3" d="M106.6,290.4c0.1-0.2,0.3-0.3,0.5-0.4c0.2-0.1,0.4-0.2,0.7-0.2c0.4,0,0.7,0.1,1,0.3c0.3,0.2,0.4,0.5,0.5,0.8
				h1.3c-0.1-0.7-0.4-1.2-0.9-1.6c-0.5-0.4-1.1-0.7-1.8-0.7c-0.6,0-1.1,0.2-1.5,0.4c-0.4,0.3-0.7,0.6-0.9,1
				c-0.1,0.2-0.2,0.4-0.3,0.7c-0.1,0.3-0.1,0.9-0.1,1.8c0,0.9,0,1.5,0.1,1.8c0,0.2,0.1,0.3,0.1,0.4c0,0.1,0.1,0.2,0.2,0.3
				c0.2,0.4,0.5,0.7,0.9,1c0.4,0.3,0.9,0.4,1.5,0.4c0.8,0,1.5-0.3,2-0.8c0.5-0.5,0.8-1.2,0.8-2v-1.6h-2.8v1.1h1.6v0.4
				c0,0.5-0.2,0.9-0.5,1.2c-0.3,0.3-0.7,0.5-1.1,0.5c-0.3,0-0.5-0.1-0.7-0.2c-0.2-0.1-0.4-0.2-0.5-0.4c-0.2-0.2-0.3-0.4-0.3-0.7
				c-0.1-0.3-0.1-0.8-0.1-1.6c0-0.8,0-1.3,0.1-1.6C106.4,290.8,106.5,290.6,106.6,290.4z"/>
			<polygon class="st3" points="118.5,288.7 118.5,296.5 123.5,296.5 123.5,295.4 119.7,295.4 119.7,288.7 			"/>
			<rect x="131.2" y="288.7" class="st3" width="1.2" height="7.8"/>
			<polygon class="st3" points="140.6,288.7 140.6,296.5 141.8,296.5 141.8,291 141.8,291 145.3,296.5 146.4,296.5 146.4,288.7 
				145.2,288.7 145.2,294.3 145.2,294.3 141.7,288.7 			"/>
			<polygon class="st3" points="159.6,289.8 159.6,288.7 154.6,288.7 154.6,296.5 159.6,296.5 159.6,295.4 155.8,295.4 155.8,293.1 
				159.1,293.1 159.1,292.1 155.8,292.1 155.8,289.8 			"/>
			<path class="st3" d="M176.6,290.1c-0.1,0.2-0.2,0.4-0.3,0.7c-0.1,0.3-0.1,0.9-0.1,1.8c0,0.9,0,1.5,0.1,1.8c0,0.2,0.1,0.3,0.1,0.4
				c0,0.1,0.1,0.2,0.2,0.3c0.2,0.4,0.5,0.7,0.9,1c0.4,0.3,0.9,0.4,1.5,0.4c0.8,0,1.5-0.3,2-0.8c0.5-0.5,0.8-1.2,0.8-2v-1.6H179v1.1
				h1.6v0.4c0,0.5-0.2,0.9-0.5,1.2c-0.3,0.3-0.7,0.5-1.1,0.5c-0.3,0-0.5-0.1-0.7-0.2c-0.2-0.1-0.4-0.2-0.5-0.4
				c-0.2-0.2-0.3-0.4-0.3-0.7c-0.1-0.3-0.1-0.8-0.1-1.6c0-0.8,0-1.3,0.1-1.6c0-0.3,0.2-0.5,0.3-0.6c0.1-0.2,0.3-0.3,0.5-0.4
				c0.2-0.1,0.4-0.2,0.7-0.2c0.4,0,0.7,0.1,1,0.3c0.3,0.2,0.4,0.5,0.5,0.8h1.3c-0.1-0.7-0.4-1.2-0.9-1.6c-0.5-0.4-1.1-0.7-1.8-0.7
				c-0.6,0-1.1,0.2-1.5,0.4C177.1,289.4,176.7,289.7,176.6,290.1z"/>
			<path class="st3" d="M189.8,290.1c-0.1,0.2-0.2,0.4-0.3,0.7c-0.1,0.3-0.1,0.9-0.1,1.8c0,0.9,0,1.5,0.1,1.8c0,0.2,0.1,0.3,0.1,0.4
				c0,0.1,0.1,0.2,0.2,0.3c0.2,0.4,0.5,0.7,0.9,1c0.4,0.3,0.9,0.4,1.5,0.4c0.6,0,1.1-0.2,1.5-0.4c0.4-0.3,0.7-0.6,0.9-1
				c0.1-0.2,0.2-0.4,0.3-0.8c0-0.3,0.1-0.9,0.1-1.8c0-0.9,0-1.5-0.1-1.8c-0.1-0.3-0.1-0.6-0.3-0.7c-0.2-0.4-0.5-0.7-0.9-1
				c-0.4-0.3-0.9-0.4-1.5-0.4c-0.6,0-1.1,0.2-1.5,0.4C190.3,289.4,190,289.7,189.8,290.1z M190.7,291.1c0-0.3,0.2-0.5,0.3-0.6
				c0.1-0.2,0.3-0.3,0.5-0.4c0.2-0.1,0.4-0.2,0.7-0.2c0.3,0,0.5,0.1,0.7,0.2c0.2,0.1,0.4,0.2,0.5,0.4c0.2,0.2,0.3,0.4,0.3,0.6
				c0.1,0.3,0.1,0.8,0.1,1.6c0,0.8,0,1.3-0.1,1.6c-0.1,0.3-0.2,0.5-0.3,0.7c-0.1,0.2-0.3,0.3-0.5,0.4c-0.2,0.1-0.5,0.2-0.7,0.2
				c-0.3,0-0.5-0.1-0.7-0.2c-0.2-0.1-0.4-0.2-0.5-0.4c-0.2-0.2-0.3-0.4-0.3-0.7c-0.1-0.3-0.1-0.8-0.1-1.6
				C190.6,291.9,190.7,291.3,190.7,291.1z"/>
			<polygon class="st3" points="203,296.5 207.9,296.5 207.9,295.4 204.1,295.4 204.1,293.1 207.4,293.1 207.4,292.1 204.1,292.1 
				204.1,289.8 207.9,289.8 207.9,288.7 203,288.7 			"/>
			<path class="st3" d="M217.9,295.4c-0.9,0-1.6-0.3-2.2-0.8l-0.8,0.9c0.8,0.7,1.8,1.1,3,1.1c1.8,0,2.7-0.8,2.7-2.3
				c0-0.6-0.2-1-0.5-1.5c-0.3-0.4-0.9-0.7-1.6-0.8c-0.4,0-0.7-0.1-0.9-0.1c-0.4-0.1-0.7-0.2-0.8-0.4c-0.2-0.2-0.3-0.4-0.3-0.6
				c0-0.4,0.1-0.7,0.4-0.8c0.2-0.2,0.5-0.3,0.9-0.3c0.7,0,1.3,0.2,1.9,0.6l0.7-1c-0.7-0.5-1.6-0.8-2.5-0.8c-0.8,0-1.4,0.2-1.9,0.6
				c-0.5,0.4-0.7,1-0.7,1.6c0,0.6,0.2,1,0.5,1.4c0.3,0.4,0.9,0.6,1.5,0.7c0.4,0.1,0.7,0.1,1,0.1c0.7,0.1,1,0.5,1,1
				C219.5,295,218.9,295.4,217.9,295.4z"/>
			<polygon class="st3" points="243.1,296.5 243.1,288.7 241.9,288.7 241.9,292.1 238.8,292.1 238.8,288.7 237.7,288.7 237.7,296.5 
				238.8,296.5 238.8,293.1 241.9,293.1 241.9,296.5 			"/>
			<polygon class="st3" points="256.3,289.8 256.3,288.7 251.3,288.7 251.3,296.5 256.3,296.5 256.3,295.4 252.5,295.4 252.5,293.1 
				255.7,293.1 255.7,292.1 252.5,292.1 252.5,289.8 			"/>
			<path class="st3" d="M267.9,293.1c1-0.4,1.5-1.1,1.5-2.2c0-0.7-0.3-1.3-0.8-1.7c-0.4-0.3-0.9-0.5-1.6-0.5h-3v7.8h1.2v-3.3h1.5
				l1.6,3.3h1.4L267.9,293.1z M265.1,292.1v-2.4h1.8c0.4,0,0.7,0.1,0.9,0.2c0.3,0.2,0.4,0.5,0.4,0.9c0,0.3-0.1,0.6-0.3,0.9
				c-0.2,0.2-0.6,0.4-1,0.4H265.1z"/>
			<polygon class="st3" points="282.2,289.8 282.2,288.7 277.2,288.7 277.2,296.5 282.2,296.5 282.2,295.4 278.4,295.4 278.4,293.1 
				281.6,293.1 281.6,292.1 278.4,292.1 278.4,289.8 			"/>
		</g>
		<g>
			<path class="st1" d="M470.9,212.1c3.7-8.5,2-18.8-4.9-25.8l-37.7-37.7c6.7,20.5,17.1,38,31.1,52L470.9,212.1z"/>
			<path class="st1" d="M533.9,97.7l37.7,37.7c-6.7-20.5-17.1-38-31.1-52L529,71.9C525.3,80.4,526.9,90.7,533.9,97.7z"/>
			<path class="st1" d="M455.5,108l37.7-37.7c-20.5,6.7-38,17.1-52,31.1l-11.6,11.6c2.9,1.3,6,1.9,9.3,1.9
				C445.2,114.9,451.1,112.4,455.5,108z"/>
			<path class="st1" d="M544.4,176l-37.7,37.7c20.5-6.7,38-17.1,52-31.1l11.6-11.6c-2.9-1.3-6-1.9-9.3-1.9
				C554.6,169.2,548.8,171.6,544.4,176z"/>
			<path class="st2" d="M461.5,114.1l60.9-60.9l-24.2,6.6c-25.2,6.9-46.4,18.8-63,35.5l-18.8,18.8c6.2,6.2,14.4,9.3,22.6,9.3
				C447.1,123.4,455.3,120.3,461.5,114.1z M441.2,101.4c14-14,31.4-24.4,52-31.1L455.5,108c-4.4,4.4-10.3,6.8-16.5,6.8
				c-3.2,0-6.4-0.7-9.3-1.9L441.2,101.4z"/>
			<path class="st3" d="M453.3,206.6l18.8,18.8c6.2-6.2,9.3-14.4,9.3-22.6c0-8.2-3.1-16.3-9.3-22.6l-60.9-60.9l6.6,24.2
				C424.7,168.8,436.6,190,453.3,206.6z M466,186.3c7,7,8.6,17.3,4.9,25.8l-11.5-11.5c-14-14-24.4-31.4-31.1-52L466,186.3z"/>
			<path class="st2" d="M560.9,160.6c-8.2,0-16.3,3.1-22.6,9.3l-60.9,60.9l24.2-6.6c25.2-6.9,46.4-18.8,63-35.5l18.8-18.8
				c-3.1-3.1-6.7-5.5-10.6-7C569,161.4,564.9,160.6,560.9,160.6z M558.6,182.6c-14,14-31.4,24.4-52,31.1l37.7-37.7
				c4.4-4.4,10.3-6.8,16.5-6.8c3.3,0,6.4,0.7,9.3,1.9L558.6,182.6z"/>
			<path class="st3" d="M527.8,103.8l60.9,60.9l-6.6-24.2c-6.9-25.2-18.8-46.4-35.5-63l-18.8-18.8
				C515.3,71.1,515.3,91.3,527.8,103.8z M529,71.9l11.5,11.5c14,14,24.4,31.4,31.1,52l-37.7-37.7C526.9,90.7,525.3,80.4,529,71.9z"
				/>
			<g class="st4">
				<path class="st5" d="M438,260.9c-0.7,0-1.3,0.2-1.8,0.6c-0.5,0.4-0.7,1.1-0.7,2v13.7c0,0.9,0.2,1.6,0.7,2
					c0.5,0.4,1.1,0.6,1.8,0.6c0.7,0,1.3-0.2,1.8-0.6c0.5-0.4,0.7-1.1,0.7-2v-13.7c0-0.9-0.2-1.6-0.7-2
					C439.3,261.2,438.7,260.9,438,260.9z"/>
				<polygon class="st5" points="530.6,264.9 528.8,274.3 532.5,274.3 530.7,264.9 				"/>
				<path class="st5" d="M582.9,294.2h-1.8v2.3h1.7c0.4,0,0.7-0.1,1-0.4c0.2-0.2,0.3-0.5,0.3-0.8c0-0.4-0.1-0.7-0.4-0.9
					C583.6,294.3,583.3,294.2,582.9,294.2z"/>
				<path class="st5" d="M509.4,299.1c0.1,0.2,0.3,0.3,0.5,0.4c0.2,0.1,0.4,0.2,0.7,0.2c0.3,0,0.5-0.1,0.7-0.2
					c0.2-0.1,0.3-0.2,0.5-0.4c0.1-0.2,0.2-0.4,0.3-0.6c0.1-0.3,0.1-0.8,0.1-1.5c0-0.7,0-1.2-0.1-1.5c-0.1-0.3-0.2-0.5-0.3-0.6
					c-0.1-0.2-0.3-0.3-0.5-0.4c-0.2-0.1-0.4-0.2-0.7-0.2c-0.3,0-0.5,0.1-0.7,0.2c-0.2,0.1-0.4,0.2-0.5,0.4c-0.1,0.2-0.2,0.4-0.3,0.6
					c-0.1,0.3-0.1,0.8-0.1,1.5c0,0.7,0,1.2,0.1,1.5C509.2,298.7,509.3,298.9,509.4,299.1z"/>
				<path class="st5" d="M505.1,262.2c-0.2-0.4-0.5-0.7-0.9-0.9c-0.4-0.2-0.9-0.3-1.7-0.3h-1.9v8.8h1.8c0.8,0,1.3-0.1,1.8-0.3
					c0.4-0.2,0.7-0.5,0.9-0.9c0.2-0.4,0.3-0.8,0.3-1.3c0-0.5,0.1-1.1,0.1-1.8c0-0.6,0-1.2,0-1.7
					C505.5,263.1,505.3,262.6,505.1,262.2z"/>
				<polygon class="st5" points="416.3,294.7 416.3,294.7 415.2,298 417.4,298 				"/>
				<path class="st6" d="M404.3,282.3c0.6,0.5,1.2,0.8,2,1c0.7,0.2,1.4,0.3,2.2,0.3c0.8,0,1.6-0.2,2.3-0.5s1.3-0.8,1.9-1.3
					c0.5-0.6,1-1.2,1.3-1.9c0.3-0.7,0.5-1.5,0.5-2.3V276h-3.7v1.3c0,0.5-0.1,0.9-0.2,1.3c-0.1,0.3-0.3,0.6-0.5,0.8
					c-0.2,0.2-0.5,0.3-0.8,0.4c-0.3,0.1-0.5,0.1-0.8,0.1c-0.9,0-1.4-0.3-1.8-0.8c-0.3-0.5-0.5-1.1-0.5-1.9V264
					c0-0.9,0.2-1.6,0.5-2.2c0.3-0.6,0.9-0.9,1.8-0.9c0.7,0,1.3,0.3,1.7,0.8c0.4,0.5,0.6,1.2,0.6,1.9v1.2h3.7v-1.5
					c0-0.9-0.2-1.7-0.5-2.5c-0.3-0.8-0.7-1.4-1.3-2c-1.1-1.1-2.5-1.7-4.3-1.7c-0.9,0-1.7,0.2-2.5,0.5c-0.7,0.3-1.4,0.7-1.9,1.3
					c-0.5,0.5-0.9,1.2-1.2,1.9c-0.3,0.7-0.4,1.5-0.4,2.4v14.3c0,1.2,0.2,2.2,0.6,2.9C403.3,281.2,403.7,281.8,404.3,282.3z"/>
				<path class="st6" d="M444.2,263.6c0-1-0.2-2-0.5-2.8c-0.4-0.8-0.8-1.5-1.4-2c-0.6-0.5-1.3-0.9-2-1.2c-0.7-0.3-1.5-0.4-2.2-0.4
					c-0.8,0-1.5,0.1-2.2,0.4c-0.7,0.3-1.4,0.7-2,1.2c-0.6,0.5-1.1,1.2-1.5,2c-0.4,0.8-0.5,1.7-0.5,2.8v13.7c0,1.1,0.2,2,0.5,2.8
					c0.4,0.8,0.9,1.4,1.5,1.9c0.6,0.5,1.2,0.9,2,1.2c0.7,0.3,1.5,0.4,2.2,0.4c0.8,0,1.5-0.1,2.2-0.4c0.7-0.3,1.4-0.7,2-1.2
					c0.6-0.5,1.1-1.2,1.4-1.9c0.4-0.8,0.5-1.7,0.5-2.8V263.6z M440.5,277.3c0,0.9-0.2,1.6-0.7,2c-0.5,0.4-1.1,0.6-1.8,0.6
					c-0.7,0-1.3-0.2-1.8-0.6c-0.5-0.4-0.7-1.1-0.7-2v-13.7c0-0.9,0.2-1.6,0.7-2c0.5-0.4,1.1-0.6,1.8-0.6c0.7,0,1.3,0.2,1.8,0.6
					c0.5,0.4,0.7,1.1,0.7,2V277.3z"/>
				<polygon class="st6" points="470.5,271.2 470.4,271.2 465.7,257.4 462.1,257.4 462.1,283.4 465.8,283.4 465.8,267.6 
					465.9,267.6 469.5,278.8 471.4,278.8 475.1,267.6 475.1,267.6 475.1,283.4 478.9,283.4 478.9,257.4 475.2,257.4 				"/>
				<path class="st6" d="M507.3,259.3c-0.6-0.7-1.3-1.2-2.1-1.4c-0.8-0.3-1.7-0.4-2.7-0.4h-5.6v26h3.7v-10.1h1.9
					c1.4,0,2.5-0.2,3.4-0.7c0.9-0.5,1.5-1.1,2-2c0.4-0.7,0.7-1.5,0.9-2.3c0.1-0.8,0.2-1.8,0.2-3c0-1.6-0.1-2.8-0.4-3.7
					C508.4,260.7,508,259.9,507.3,259.3z M505.5,267.2c0,0.5-0.2,1-0.3,1.3c-0.2,0.4-0.5,0.7-0.9,0.9c-0.4,0.2-1,0.3-1.8,0.3h-1.8
					v-8.8h1.9c0.7,0,1.3,0.1,1.7,0.3c0.4,0.2,0.7,0.5,0.9,0.9c0.2,0.4,0.3,0.9,0.3,1.4c0,0.5,0,1.1,0,1.7
					C505.5,266,505.5,266.6,505.5,267.2z"/>
				<path class="st6" d="M529.1,257.4l-5.8,26h3.7l1.1-5.6h5.1l1.1,5.6h3.7l-5.8-26H529.1z M528.8,274.3l1.8-9.4h0.1l1.8,9.4H528.8z
					"/>
				<polygon class="st6" points="567.3,283.4 567.3,257.4 563.6,257.4 563.6,273.1 563.5,273.1 557.9,257.4 554.3,257.4 
					554.3,283.4 558,283.4 558,267.8 558.1,267.8 563.8,283.4 				"/>
				<polygon class="st6" points="583.6,257.4 588.7,272.4 588.7,283.4 592.4,283.4 592.4,272.4 597.5,257.4 593.6,257.4 
					590.6,267.8 590.5,267.8 587.5,257.4 				"/>
				<polygon class="st6" points="404.3,300.7 405.4,300.7 405.4,294.2 407.5,294.2 407.5,293.2 402.2,293.2 402.2,294.2 
					404.3,294.2 				"/>
				<path class="st6" d="M417.7,299l0.6,1.7h1.2l-2.7-7.5h-1l-2.7,7.5h1.2l0.6-1.7H417.7z M416.3,294.7L416.3,294.7l1.1,3.3h-2.2
					L416.3,294.7z"/>
				<path class="st6" d="M427.8,294.8c0.1-0.2,0.3-0.3,0.5-0.4c0.2-0.1,0.4-0.2,0.7-0.2c0.4,0,0.7,0.1,0.9,0.3
					c0.2,0.2,0.4,0.5,0.5,0.8h1.2c-0.1-0.6-0.4-1.2-0.9-1.6c-0.5-0.4-1.1-0.6-1.8-0.6c-0.6,0-1.1,0.1-1.5,0.4
					c-0.4,0.3-0.7,0.6-0.9,0.9c-0.1,0.2-0.2,0.4-0.3,0.7c-0.1,0.3-0.1,0.9-0.1,1.8c0,0.9,0,1.4,0.1,1.7c0,0.2,0.1,0.3,0.1,0.4
					c0,0.1,0.1,0.2,0.1,0.3c0.2,0.3,0.5,0.7,0.9,0.9c0.4,0.3,0.9,0.4,1.5,0.4c0.8,0,1.4-0.3,1.9-0.8c0.5-0.5,0.8-1.1,0.8-1.9v-1.5
					h-2.7v1.1h1.5v0.4c0,0.5-0.2,0.9-0.4,1.1c-0.3,0.3-0.7,0.5-1.1,0.5c-0.3,0-0.5-0.1-0.7-0.2c-0.2-0.1-0.4-0.2-0.5-0.4
					c-0.1-0.2-0.2-0.4-0.3-0.6c-0.1-0.3-0.1-0.8-0.1-1.5c0-0.7,0-1.2,0.1-1.5C427.5,295.2,427.6,295,427.8,294.8z"/>
				<polygon class="st6" points="439.3,293.2 439.3,300.7 444.1,300.7 444.1,299.6 440.4,299.6 440.4,293.2 				"/>
				<rect x="451.5" y="293.2" class="st6" width="1.1" height="7.5"/>
				<polygon class="st6" points="460.6,293.2 460.6,300.7 461.8,300.7 461.8,295.4 461.8,295.4 465.2,300.7 466.3,300.7 
					466.3,293.2 465.1,293.2 465.1,298.5 465.1,298.5 461.7,293.2 				"/>
				<polygon class="st6" points="479,294.3 479,293.2 474.2,293.2 474.2,300.7 479,300.7 479,299.6 475.4,299.6 475.4,297.4 
					478.5,297.4 478.5,296.4 475.4,296.4 475.4,294.3 				"/>
				<path class="st6" d="M495.4,294.5c-0.1,0.2-0.2,0.4-0.3,0.7c-0.1,0.3-0.1,0.9-0.1,1.8c0,0.9,0,1.4,0.1,1.7
					c0,0.2,0.1,0.3,0.1,0.4c0,0.1,0.1,0.2,0.1,0.3c0.2,0.3,0.5,0.7,0.9,0.9c0.4,0.3,0.9,0.4,1.5,0.4c0.8,0,1.4-0.3,1.9-0.8
					c0.5-0.5,0.8-1.1,0.8-1.9v-1.5h-2.7v1.1h1.5v0.4c0,0.5-0.2,0.9-0.4,1.1c-0.3,0.3-0.7,0.5-1.1,0.5c-0.3,0-0.5-0.1-0.7-0.2
					c-0.2-0.1-0.4-0.2-0.5-0.4c-0.1-0.2-0.2-0.4-0.3-0.6c-0.1-0.3-0.1-0.8-0.1-1.5c0-0.7,0-1.2,0.1-1.5c0-0.3,0.1-0.5,0.3-0.6
					c0.1-0.2,0.3-0.3,0.5-0.4c0.2-0.1,0.4-0.2,0.7-0.2c0.4,0,0.7,0.1,0.9,0.3c0.2,0.2,0.4,0.5,0.5,0.8h1.2c-0.1-0.6-0.4-1.2-0.9-1.6
					c-0.5-0.4-1.1-0.6-1.8-0.6c-0.6,0-1.1,0.1-1.5,0.4C495.9,293.8,495.6,294.1,495.4,294.5z"/>
				<path class="st6" d="M508.2,294.5c-0.1,0.2-0.2,0.4-0.3,0.7c-0.1,0.3-0.1,0.9-0.1,1.8c0,0.9,0,1.4,0.1,1.7
					c0,0.2,0.1,0.3,0.1,0.4c0,0.1,0.1,0.2,0.1,0.3c0.2,0.3,0.5,0.7,0.9,0.9c0.4,0.3,0.9,0.4,1.5,0.4c0.6,0,1.1-0.2,1.5-0.4
					c0.4-0.3,0.7-0.6,0.9-0.9c0.1-0.2,0.2-0.4,0.3-0.7c0-0.3,0.1-0.9,0.1-1.7c0-0.9,0-1.5-0.1-1.8c0-0.3-0.1-0.5-0.3-0.7
					c-0.2-0.3-0.5-0.7-0.9-0.9c-0.4-0.3-0.9-0.4-1.5-0.4c-0.6,0-1.1,0.1-1.5,0.4C508.7,293.8,508.4,294.1,508.2,294.5z M509.1,295.4
					c0-0.3,0.1-0.5,0.3-0.6c0.1-0.2,0.3-0.3,0.5-0.4c0.2-0.1,0.4-0.2,0.7-0.2c0.3,0,0.5,0.1,0.7,0.2c0.2,0.1,0.3,0.2,0.5,0.4
					c0.1,0.2,0.2,0.4,0.3,0.6c0.1,0.3,0.1,0.8,0.1,1.5c0,0.7,0,1.2-0.1,1.5c-0.1,0.3-0.2,0.5-0.3,0.6c-0.1,0.2-0.3,0.3-0.5,0.4
					c-0.2,0.1-0.4,0.2-0.7,0.2c-0.3,0-0.5-0.1-0.7-0.2c-0.2-0.1-0.4-0.2-0.5-0.4c-0.1-0.2-0.2-0.4-0.3-0.6c-0.1-0.3-0.1-0.8-0.1-1.5
					C509,296.2,509.1,295.7,509.1,295.4z"/>
				<polygon class="st6" points="521,300.7 525.8,300.7 525.8,299.6 522.1,299.6 522.1,297.4 525.2,297.4 525.2,296.4 522.1,296.4 
					522.1,294.3 525.8,294.3 525.8,293.2 521,293.2 				"/>
				<path class="st6" d="M535.4,299.6c-0.8,0-1.5-0.3-2.1-0.7l-0.7,0.9c0.8,0.7,1.8,1,2.9,1c1.7,0,2.6-0.8,2.6-2.2
					c0-0.5-0.2-1-0.5-1.4c-0.3-0.4-0.9-0.7-1.6-0.8c-0.4,0-0.6-0.1-0.8-0.1c-0.4-0.1-0.6-0.2-0.8-0.4c-0.2-0.2-0.3-0.4-0.3-0.6
					c0-0.4,0.1-0.6,0.4-0.8c0.2-0.2,0.5-0.3,0.9-0.3c0.7,0,1.3,0.2,1.9,0.6l0.6-0.9c-0.7-0.5-1.5-0.8-2.4-0.8
					c-0.8,0-1.4,0.2-1.8,0.6c-0.4,0.4-0.7,0.9-0.7,1.6c0,0.5,0.2,1,0.5,1.4c0.3,0.4,0.8,0.6,1.5,0.7c0.4,0.1,0.7,0.1,1,0.1
					c0.7,0.1,1,0.5,1,1C536.9,299.3,536.4,299.6,535.4,299.6z"/>
				<polygon class="st6" points="559.8,300.7 559.8,293.2 558.7,293.2 558.7,296.4 555.7,296.4 555.7,293.2 554.5,293.2 
					554.5,300.7 555.7,300.7 555.7,297.4 558.7,297.4 558.7,300.7 				"/>
				<polygon class="st6" points="572.6,294.3 572.6,293.2 567.7,293.2 567.7,300.7 572.6,300.7 572.6,299.6 568.9,299.6 
					568.9,297.4 572,297.4 572,296.4 568.9,296.4 568.9,294.3 				"/>
				<path class="st6" d="M585.2,295.3c0-0.7-0.3-1.2-0.7-1.6c-0.4-0.3-0.9-0.5-1.5-0.5H580v7.5h1.1v-3.2h1.5l1.6,3.2h1.4l-1.7-3.3
					C584.7,297,585.2,296.3,585.2,295.3z M583.8,296.1c-0.2,0.2-0.5,0.4-1,0.4h-1.7v-2.3h1.8c0.4,0,0.6,0.1,0.8,0.2
					c0.2,0.2,0.4,0.5,0.4,0.9C584.1,295.6,584,295.9,583.8,296.1z"/>
				<polygon class="st6" points="597.6,294.3 597.6,293.2 592.8,293.2 592.8,300.7 597.6,300.7 597.6,299.6 593.9,299.6 
					593.9,297.4 597.1,297.4 597.1,296.4 593.9,296.4 593.9,294.3 				"/>
			</g>
		</g>
		<g>
			<polygon class="st1" points="218.1,586.7 221.5,586.7 219.8,582 			"/>
			<path class="st1" d="M281.5,609.1c0.2-0.3,0.4-0.6,0.4-1c0-0.5-0.2-0.8-0.4-1c-0.2-0.2-0.6-0.3-1-0.3h-2.1v2.7h2
				C280.9,609.5,281.3,609.4,281.5,609.1z"/>
			<path class="st1" d="M114,580.1c-3.5,0-6.3,2.8-6.3,6.2c0,3.5,2.8,6.3,6.3,6.3c3.4,0,6.2-2.8,6.2-6.3
				C120.3,582.9,117.5,580.1,114,580.1z"/>
			<path class="st1" d="M197.5,608.3c-0.1-0.3-0.2-0.5-0.4-0.7c-0.1-0.2-0.3-0.3-0.5-0.5c-0.2-0.1-0.5-0.2-0.8-0.2
				c-0.3,0-0.6,0.1-0.8,0.2c-0.2,0.1-0.4,0.3-0.6,0.5c-0.2,0.2-0.3,0.4-0.3,0.7c-0.1,0.3-0.1,0.9-0.1,1.8c0,0.9,0,1.5,0.1,1.8
				c0.1,0.3,0.2,0.6,0.3,0.7c0.1,0.2,0.3,0.3,0.6,0.4c0.2,0.1,0.5,0.2,0.8,0.2c0.3,0,0.6-0.1,0.8-0.2c0.2-0.1,0.4-0.3,0.5-0.4
				c0.2-0.2,0.3-0.4,0.4-0.7c0.1-0.3,0.1-0.9,0.1-1.8C197.6,609.2,197.6,608.6,197.5,608.3z"/>
			<path class="st1" d="M190.3,582.2c0-1.2-0.9-2.1-2.1-2.1h-1.7v4.1h1.7C189.4,584.2,190.3,583.3,190.3,582.2z"/>
			<polygon class="st1" points="85.4,607.4 84.1,611.3 86.7,611.3 85.5,607.4 			"/>
			<path class="st2" d="M79.4,596.7c2.8,0,5.3-1.1,7.2-2.9l-2.9-2.9c-1.1,1-2.6,1.6-4.2,1.6c-3.5,0-6.3-2.8-6.3-6.2
				c0-3.4,2.8-6.2,6.3-6.2c1.6,0,3.1,0.6,4.2,1.7l2.9-3c-1.9-1.8-4.4-2.9-7.2-2.9c-5.7,0-10.4,4.7-10.4,10.4
				C69,592,73.7,596.7,79.4,596.7z"/>
			<path class="st2" d="M124.4,586.3c0-5.7-4.7-10.4-10.4-10.4c-5.7,0-10.4,4.7-10.4,10.4c0,5.7,4.7,10.4,10.4,10.4
				C119.8,596.7,124.4,592,124.4,586.3z M114,592.6c-3.5,0-6.3-2.8-6.3-6.3c0-3.4,2.8-6.2,6.3-6.2c3.4,0,6.2,2.8,6.2,6.2
				C120.3,589.8,117.5,592.6,114,592.6z"/>
			<polygon class="st2" points="164,596.7 164,575.9 159.5,575.9 153.4,591.1 147.3,575.9 142.8,575.9 142.8,596.7 147,596.7 
				147,586.3 151.2,596.7 155.6,596.7 159.8,586.3 159.8,596.7 			"/>
			<path class="st2" d="M186.5,588.4h1.7c3.4,0,6.2-2.8,6.2-6.2c0-3.5-2.8-6.3-6.2-6.3h-5.8v20.8h4.1V588.4z M186.5,580.1h1.7
				c1.2,0,2.1,0.9,2.1,2.1c0,1.1-0.9,2.1-2.1,2.1h-1.7V580.1z"/>
			<path class="st2" d="M222,575.9h-4.4l-7.5,20.8h4.4l2.1-5.8h6.4l2.1,5.8h4.4L222,575.9z M218.1,586.7l1.7-4.7l1.7,4.7H218.1z"/>
			<polygon class="st2" points="264.8,596.7 264.8,575.9 260.6,575.9 260.6,589.8 252.3,575.9 247.4,575.9 247.4,596.7 251.6,596.7 
				251.6,582.8 259.9,596.7 			"/>
			<polygon class="st2" points="287.3,575.9 282.6,575.9 288.1,586.8 288.1,596.7 292.2,596.7 292.2,586.8 297.7,575.9 293,575.9 
				290.2,581.7 			"/>
			<polygon class="st2" points="71.4,614.5 72.7,614.5 72.7,606.8 75.1,606.8 75.1,605.6 69,605.6 69,606.8 71.4,606.8 			"/>
			<path class="st2" d="M84.9,605.6l-3.2,8.8h1.4l0.7-2h3.3l0.7,2h1.4l-3.2-8.8H84.9z M84.1,611.3l1.3-3.9h0l1.3,3.9H84.1z"/>
			<path class="st2" d="M98.8,607.5c0.1-0.2,0.3-0.3,0.6-0.5c0.2-0.1,0.5-0.2,0.8-0.2c0.4,0,0.8,0.1,1.1,0.4
				c0.3,0.3,0.5,0.6,0.6,0.9h1.4c-0.1-0.7-0.5-1.4-1-1.9c-0.5-0.5-1.2-0.7-2.1-0.8c-0.7,0-1.3,0.2-1.7,0.5c-0.5,0.3-0.8,0.7-1,1.1
				c-0.1,0.2-0.2,0.5-0.3,0.8c-0.1,0.3-0.1,1-0.1,2.1c0,1,0,1.7,0.1,2c0,0.2,0.1,0.3,0.1,0.5c0.1,0.1,0.1,0.2,0.2,0.4
				c0.2,0.4,0.6,0.8,1,1.1c0.5,0.3,1,0.5,1.7,0.5c0.9,0,1.6-0.3,2.2-0.9c0.6-0.6,0.9-1.3,0.9-2.2v-1.8h-3.1v1.3h1.8v0.5
				c0,0.6-0.2,1-0.5,1.3c-0.3,0.4-0.8,0.5-1.3,0.5c-0.3,0-0.6-0.1-0.8-0.2c-0.2-0.1-0.4-0.3-0.6-0.4c-0.2-0.2-0.3-0.4-0.3-0.7
				c-0.1-0.3-0.1-0.9-0.1-1.8c0-0.9,0-1.5,0.1-1.8C98.6,608,98.7,607.7,98.8,607.5z"/>
			<polygon class="st2" points="112.4,605.6 112.4,614.5 118,614.5 118,613.2 113.7,613.2 113.7,605.6 			"/>
			<rect x="126.7" y="605.6" class="st2" width="1.3" height="8.8"/>
			<polygon class="st2" points="142.6,611.9 142.6,611.9 138.6,605.6 137.3,605.6 137.3,614.5 138.7,614.5 138.7,608.2 138.7,608.2 
				142.7,614.5 143.9,614.5 143.9,605.6 142.6,605.6 			"/>
			<polygon class="st2" points="158.9,606.9 158.9,605.6 153.2,605.6 153.2,614.5 158.9,614.5 158.9,613.2 154.6,613.2 154.6,610.6 
				158.2,610.6 158.2,609.4 154.6,609.4 154.6,606.9 			"/>
			<path class="st2" d="M179.1,606.1c-0.5,0.3-0.8,0.7-1,1.1c-0.1,0.2-0.2,0.5-0.3,0.8c-0.1,0.3-0.1,1-0.1,2.1c0,1,0,1.7,0.1,2
				c0,0.2,0.1,0.3,0.1,0.5c0.1,0.1,0.1,0.2,0.2,0.4c0.2,0.4,0.6,0.8,1,1.1c0.5,0.3,1,0.5,1.7,0.5c0.9,0,1.6-0.3,2.2-0.9
				c0.6-0.6,0.9-1.3,0.9-2.2v-1.8h-3.1v1.3h1.8v0.5c0,0.6-0.2,1-0.5,1.3c-0.3,0.4-0.8,0.5-1.3,0.5c-0.3,0-0.6-0.1-0.8-0.2
				c-0.2-0.1-0.4-0.3-0.6-0.4c-0.2-0.2-0.3-0.4-0.3-0.7c-0.1-0.3-0.1-0.9-0.1-1.8c0-0.9,0-1.5,0.1-1.8c0.1-0.3,0.2-0.5,0.3-0.7
				c0.1-0.2,0.3-0.3,0.6-0.5c0.2-0.1,0.5-0.2,0.8-0.2c0.4,0,0.8,0.1,1.1,0.4c0.3,0.3,0.5,0.6,0.6,0.9h1.4c-0.1-0.7-0.5-1.4-1-1.9
				c-0.5-0.5-1.2-0.7-2.1-0.8C180.1,605.6,179.6,605.7,179.1,606.1z"/>
			<path class="st2" d="M198.6,613c0.1-0.2,0.3-0.5,0.3-0.9c0.1-0.4,0.1-1,0.1-2c0-1,0-1.7-0.1-2.1c-0.1-0.3-0.2-0.6-0.3-0.8
				c-0.2-0.4-0.5-0.8-1-1.1c-0.5-0.3-1.1-0.5-1.8-0.5c-0.7,0-1.3,0.2-1.7,0.5c-0.5,0.3-0.8,0.7-1,1.1c-0.1,0.2-0.2,0.5-0.3,0.8
				c-0.1,0.3-0.1,1-0.1,2.1c0,1,0,1.7,0.1,2c0,0.2,0.1,0.3,0.1,0.5c0.1,0.1,0.1,0.2,0.2,0.4c0.2,0.4,0.6,0.8,1,1.1
				c0.5,0.3,1,0.5,1.7,0.5c0.7,0,1.3-0.2,1.8-0.5C198,613.7,198.4,613.4,198.6,613z M197.2,612.6c-0.1,0.2-0.3,0.3-0.5,0.4
				c-0.2,0.1-0.5,0.2-0.8,0.2c-0.3,0-0.6-0.1-0.8-0.2c-0.2-0.1-0.4-0.3-0.6-0.4c-0.2-0.2-0.3-0.4-0.3-0.7c-0.1-0.3-0.1-0.9-0.1-1.8
				c0-0.9,0-1.5,0.1-1.8c0.1-0.3,0.2-0.5,0.3-0.7c0.1-0.2,0.3-0.3,0.6-0.5c0.2-0.1,0.5-0.2,0.8-0.2c0.3,0,0.6,0.1,0.8,0.2
				c0.2,0.1,0.4,0.3,0.5,0.5c0.2,0.2,0.3,0.4,0.4,0.7c0.1,0.3,0.1,0.9,0.1,1.8c0,0.9,0,1.5-0.1,1.8
				C197.5,612.1,197.4,612.4,197.2,612.6z"/>
			<polygon class="st2" points="213.6,606.9 213.6,605.6 208,605.6 208,614.5 213.6,614.5 213.6,613.2 209.3,613.2 209.3,610.6 
				213,610.6 213,609.4 209.3,609.4 209.3,606.9 			"/>
			<path class="st2" d="M224.9,613.2c-1,0-1.8-0.3-2.5-0.9l-0.9,1c0.9,0.8,2.1,1.2,3.4,1.2c2,0,3.1-0.9,3.1-2.6
				c0-0.6-0.2-1.2-0.6-1.6c-0.4-0.5-1-0.8-1.8-0.9c-0.4-0.1-0.8-0.1-1-0.1c-0.4-0.1-0.8-0.2-1-0.4c-0.2-0.2-0.3-0.4-0.3-0.7
				c0-0.4,0.2-0.7,0.4-1c0.3-0.2,0.6-0.3,1-0.3c0.8,0,1.5,0.2,2.2,0.7l0.7-1.1c-0.8-0.6-1.8-0.9-2.9-0.9c-0.9,0-1.6,0.2-2.1,0.7
				c-0.5,0.5-0.8,1.1-0.8,1.9c0,0.6,0.2,1.2,0.6,1.6c0.4,0.4,1,0.7,1.7,0.8c0.4,0.1,0.8,0.1,1.2,0.2c0.8,0.1,1.2,0.5,1.1,1.2
				C226.6,612.8,226.1,613.2,224.9,613.2z"/>
			<polygon class="st2" points="253.4,614.5 253.4,605.6 252.1,605.6 252.1,609.4 248.6,609.4 248.6,605.6 247.3,605.6 247.3,614.5 
				248.6,614.5 248.6,610.6 252.1,610.6 252.1,614.5 			"/>
			<polygon class="st2" points="268.4,606.9 268.4,605.6 262.7,605.6 262.7,614.5 268.4,614.5 268.4,613.2 264.1,613.2 264.1,610.6 
				267.7,610.6 267.7,609.4 264.1,609.4 264.1,606.9 			"/>
			<path class="st2" d="M278.4,610.7h1.7l1.8,3.8h1.6l-2-3.9c1.1-0.4,1.7-1.2,1.7-2.4c0-0.8-0.3-1.4-0.9-1.9
				c-0.5-0.4-1.1-0.6-1.8-0.6h-3.4v8.8h1.3V610.7z M278.4,606.8h2.1c0.4,0,0.8,0.1,1,0.3c0.3,0.2,0.4,0.5,0.4,1c0,0.4-0.1,0.7-0.4,1
				c-0.3,0.3-0.6,0.4-1.1,0.4h-2V606.8z"/>
			<polygon class="st2" points="297.7,606.9 297.7,605.6 292.1,605.6 292.1,614.5 297.7,614.5 297.7,613.2 293.4,613.2 293.4,610.6 
				297.1,610.6 297.1,609.4 293.4,609.4 293.4,606.9 			"/>
			<path class="st7" d="M237.6,394.6L237.6,394.6L237.6,394.6c-0.1-0.1-0.3-0.2-0.4-0.4l0,0l0,0
				C237.4,394.4,237.5,394.5,237.6,394.6z"/>
			<path class="st7" d="M235.7,393.1L235.7,393.1L235.7,393.1c0.5,0.4,1,0.8,1.5,1.1l0,0l0,0C236.7,393.9,236.2,393.5,235.7,393.1
				L235.7,393.1L235.7,393.1c-0.1-0.1-0.3-0.2-0.4-0.3l-0.2-0.1l0.2,0.1C235.5,392.9,235.6,393,235.7,393.1z"/>
			<path class="st7" d="M235,392.6C235,392.5,235,392.5,235,392.6L235,392.6L235,392.6L235,392.6C235,392.5,235,392.5,235,392.6z"/>
			<polygon class="st7" points="234.9,392.5 234.9,392.5 234.6,392.3 234.9,392.5 			"/>
			<path class="st7" d="M233.8,391.7c0.1,0.1,0.1,0.1,0.2,0.2C234,391.8,233.9,391.8,233.8,391.7l-0.2-0.1v0l0,0L233.8,391.7z"/>
			<path class="st7" d="M233.7,391.6L233.7,391.6c-0.2-0.1-0.3-0.2-0.4-0.3C233.4,391.4,233.5,391.5,233.7,391.6L233.7,391.6z"/>
			<path class="st7" d="M232,390.4L232,390.4c-0.2-0.1-0.3-0.2-0.5-0.3C231.6,390.1,231.8,390.3,232,390.4L232,390.4z"/>
			<path class="st7" d="M197.5,376.5L197.5,376.5L197.5,376.5c-0.3-0.1-0.7-0.1-1-0.2c-0.2,0-0.3,0-0.5-0.1c0.2,0,0.3,0,0.5,0.1
				C196.8,376.4,197.2,376.5,197.5,376.5z"/>
			<path class="st7" d="M230.6,389.5C230.6,389.5,230.6,389.4,230.6,389.5L230.6,389.5L230.6,389.5
				C230.6,389.4,230.6,389.5,230.6,389.5z"/>
			<path class="st7" d="M219.9,383.5L219.9,383.5L219.9,383.5c-0.9-0.4-1.7-0.8-2.5-1.1l0,0l0,0C218.2,382.7,219,383.1,219.9,383.5z
				"/>
			<path class="st7" d="M229.8,389c0.2,0.1,0.4,0.2,0.5,0.3C230.2,389.2,230,389.1,229.8,389L229.8,389L229.8,389L229.8,389
				L229.8,389z"/>
			<path class="st7" d="M209.5,379.4c-0.2-0.1-0.4-0.1-0.6-0.2c-0.2-0.1-0.4-0.1-0.6-0.2c0.2,0.1,0.4,0.1,0.6,0.2
				C209.1,379.3,209.3,379.3,209.5,379.4z"/>
			<path class="st7" d="M206.2,378.4c-0.1,0-0.2-0.1-0.3-0.1l-0.1,0l0.1,0C206,378.4,206.1,378.4,206.2,378.4z"/>
			
				<ellipse transform="matrix(0.2859 -0.9583 0.9583 0.2859 -215.2921 468.1073)" class="st7" cx="206.4" cy="378.5" rx="0" ry="0"/>
			<path class="st7" d="M216.7,382.1L216.7,382.1c0.3,0.1,0.5,0.2,0.6,0.3l0,0l0,0C217.2,382.3,217,382.2,216.7,382.1L216.7,382.1
				L216.7,382.1L216.7,382.1L216.7,382.1L216.7,382.1z"/>
			<polygon class="st7" points="227.2,387.3 227.2,387.3 227.2,387.3 			"/>
			<path class="st7" d="M227.6,387.6l0.4,0.3c0.3,0.2,0.6,0.3,0.8,0.5l0,0l0,0l0,0l0,0c-0.3-0.2-0.5-0.3-0.8-0.5L227.6,387.6
				L227.6,387.6c-0.1,0-0.1-0.1-0.2-0.1C227.5,387.5,227.6,387.6,227.6,387.6L227.6,387.6z"/>
			<path class="st7" d="M238.3,395.2L238.3,395.2L238.3,395.2c-0.2-0.2-0.4-0.3-0.6-0.5l0,0l0,0C237.9,394.8,238.1,395,238.3,395.2z
				"/>
			<path class="st7" d="M226.4,386.9c0.2,0.1,0.4,0.2,0.6,0.3C226.8,387.1,226.6,387,226.4,386.9l-0.1-0.1c-0.1,0-0.1-0.1-0.2-0.1
				c0.1,0,0.1,0.1,0.2,0.1L226.4,386.9z"/>
			<path class="st7" d="M220,383.5l0.7,0.4c0.3,0.1,0.6,0.3,0.8,0.4l0,0l0,0l0,0l0,0c-0.3-0.1-0.6-0.3-0.8-0.4L220,383.5L220,383.5
				C220,383.5,220,383.5,220,383.5C220,383.5,220,383.5,220,383.5L220,383.5z"/>
			<path class="st7" d="M213.6,380.8c0.6,0.2,1.3,0.5,2.1,0.8c0.1,0,0.1,0,0.2,0.1c-0.1,0-0.1,0-0.2-0.1
				C214.9,381.3,214.3,381.1,213.6,380.8l-0.4-0.1l-0.1,0l0.1,0L213.6,380.8z"/>
			<polygon class="st7" points="97.8,449.9 97.8,449.9 97.8,449.9 97.8,449.9 			"/>
			<polygon class="st7" points="97.8,450 97.8,450.1 97.8,450.1 97.8,450.1 			"/>
			<path class="st7" d="M97.9,449.1c0-0.1,0-0.3,0.1-0.4l0-0.1l0,0.1C98,448.8,97.9,449,97.9,449.1L97.9,449.1L97.9,449.1
				L97.9,449.1L97.9,449.1z"/>
			<path class="st7" d="M97.9,449.2c0,0.1,0,0.2,0,0.3l0,0.2l0-0.2C97.9,449.4,97.9,449.3,97.9,449.2z"/>
			<path class="st7" d="M97.6,452c0-0.1,0-0.2,0-0.3C97.6,451.9,97.6,452,97.6,452L97.6,452L97.6,452L97.6,452L97.6,452z"/>
			<path class="st7" d="M97.2,456.9c0,0.2,0,0.3,0,0.5l0,0l0,0C97.1,457.2,97.1,457.1,97.2,456.9z"/>
			<path class="st7" d="M97.3,454.3c0,0.1,0,0.2,0,0.3c0,0.1,0,0.1,0,0.2c0-0.1,0-0.1,0-0.2C97.3,454.4,97.3,454.4,97.3,454.3z"/>
			<path class="st7" d="M97.3,455.3c0,0,0-0.1,0-0.1C97.3,455.3,97.3,455.3,97.3,455.3c0,0.3-0.1,0.7-0.1,1l0,0l0,0
				C97.2,456,97.2,455.7,97.3,455.3z"/>
			<path class="st7" d="M177.3,375.6c0.2,0,0.4,0,0.6,0C177.6,375.6,177.5,375.6,177.3,375.6z"/>
			<path class="st7" d="M170.1,376.4L170.1,376.4C170.1,376.4,170.1,376.4,170.1,376.4C170.1,376.4,170.1,376.4,170.1,376.4z"/>
			<path class="st7" d="M142.1,490.7c0,0.1,0.1,0.2,0.1,0.2C142.2,490.8,142.1,490.8,142.1,490.7z"/>
			<path class="st7" d="M186.6,375.4c1.9,0.1,3.9,0.2,5.8,0.4C190.5,375.6,188.5,375.5,186.6,375.4z"/>
			<path class="st7" d="M201.4,377.3c0.6,0.1,1.1,0.2,1.6,0.4C202.5,377.5,201.9,377.4,201.4,377.3z"/>
			<path class="st7" d="M221.7,384.4c1.3,0.6,2.5,1.3,3.7,2C224.2,385.7,223,385,221.7,384.4z"/>
			<path class="st7" d="M239.5,396.2c-0.2-0.1-0.3-0.3-0.5-0.4l-0.3-0.3l0.3,0.3C239.2,395.9,239.4,396.1,239.5,396.2z"/>
			<path class="st7" d="M155.1,413c7.4-7.9,16.4-14.1,26.6-18c3.1-1.2,6.2-2.2,9.4-2.9c-3.2,0.8-6.3,1.7-9.4,2.9
				C171.5,398.9,162.4,405.1,155.1,413z"/>
			<path class="st7" d="M170.4,522.8C170.4,522.8,170.4,522.8,170.4,522.8c-8.5-5.1-15.9-12-21.7-20.3c-2.1-3-3.9-6.1-5.5-9.4
				c1.6,3.2,3.4,6.4,5.5,9.4C154.6,510.8,161.9,517.7,170.4,522.8z"/>
			<path class="st7" d="M97,461L97,461c0,0.1,0,0.2,0,0.3c0,0.1,0,0.2,0,0.3c0-0.1,0-0.2,0-0.3V461z"/>
			<path class="st7" d="M115.5,505.9C103.8,494.4,97.3,479,97,462.6l0-0.2v-0.3c0-0.1,0-0.2,0-0.2c0,0.1,0,0.2,0,0.2
				c0,0.1,0,0.2,0,0.3l0,0.2C97.3,479,103.8,494.4,115.5,505.9c11.7,11.5,27.2,17.9,43.7,17.9c2.6,0,5.2-0.2,7.8-0.5
				c-2.6,0.3-5.2,0.5-7.8,0.5C142.8,523.9,127.3,517.5,115.5,505.9z"/>
			<path class="st7" d="M241.5,397.9L241.5,397.9c0.2,0.2,0.3,0.3,0.5,0.4C241.8,398.2,241.7,398.1,241.5,397.9L241.5,397.9
				l-0.2-0.2c0,0-0.1-0.1-0.1-0.1c0,0,0.1,0.1,0.1,0.1L241.5,397.9z"/>
			<polygon class="st7" points="242.9,399.3 242.9,399.2 242.9,399.2 242.9,399.2 			"/>
			<path class="st7" d="M243.8,400.1C243.8,400.1,243.8,400.1,243.8,400.1C243.8,400.1,243.8,400.1,243.8,400.1
				C243.8,400.1,243.8,400.1,243.8,400.1c-0.1-0.1-0.2-0.2-0.3-0.3c-0.1-0.1-0.3-0.3-0.4-0.4c0.1,0.1,0.3,0.3,0.4,0.4
				C243.6,399.9,243.7,400,243.8,400.1z"/>
			<path class="st7" d="M242.5,398.9c-0.1-0.1-0.3-0.2-0.4-0.4l0,0l0,0C242.2,398.6,242.4,398.7,242.5,398.9z"/>
			<path class="st7" d="M97.1,457.5L97.1,457.5C97.1,457.5,97.1,457.5,97.1,457.5C97.1,457.5,97.1,457.5,97.1,457.5L97.1,457.5z"/>
			
				<ellipse transform="matrix(5.368591e-002 -0.9986 0.9986 5.368591e-002 -365.1336 530.1011)" class="st7" cx="97.1" cy="457.7" rx="0" ry="0"/>
			<path class="st7" d="M97,459.9v-0.1c0-0.1,0-0.1,0-0.2c0-0.3,0-0.7,0-1c0-0.1,0-0.2,0-0.2c0,0.1,0,0.2,0,0.2c0,0.4,0,0.7,0,1
				c0,0.1,0,0.1,0,0.2L97,459.9L97,459.9L97,459.9c0,0.3,0,0.6,0,0.8l0,0.2l0-0.2C97,460.4,97,460.2,97,459.9z"/>
			<path class="st2" d="M98,448.5L98,448.5l0,0.2c0,0.1,0,0.3-0.1,0.4v0l0,0l0,0c0,0,0,0.1,0,0.1c0,0.1,0,0.2,0,0.3l0,0.2l0,0l0,0.1
				l0,0l0,0l0,0l0,0l0,0.1l0,0.1l0,0l0,0c0,0.3-0.1,0.6-0.1,0.9c0,0.3-0.1,0.5-0.1,0.8c0,0.1,0,0.2,0,0.3v0l0,0l0,0
				c0,0.3-0.1,0.6-0.1,0.9c0,0.2,0,0.5-0.1,0.7v0l0,0.2c0,0.1,0,0.2,0,0.3c0,0.1,0,0.2,0,0.3c0,0.1,0,0.1,0,0.2c0,0.1,0,0.1,0,0.2
				c0,0.1,0,0.2,0,0.3c0,0,0,0.1,0,0.1c0,0.3-0.1,0.7-0.1,1l0,0l0,0v0c0,0.2,0,0.3,0,0.5c0,0.2,0,0.3,0,0.5l0,0l0,0v0v0
				c0,0,0,0,0,0.1c0,0,0,0.1,0,0.1v0.1v0l0,0l0,0.1c0,0.2,0,0.4,0,0.6c0,0.1,0,0.2,0,0.2c0,0.4,0,0.7,0,1c0,0.1,0,0.1,0,0.2v0.1
				c0,0.3,0,0.6,0,0.8l0,0.2l0,0.1v0v0.3c0,0.1,0,0.2,0,0.3c0,0.1,0,0.1,0,0.2c0,0.1,0,0.1,0,0.2c0,0.1,0,0.2,0,0.2v0.3l0,0.2
				c0.2,16.4,6.8,31.8,18.5,43.3c11.7,11.5,27.2,17.9,43.7,17.9c2.6,0,5.2-0.2,7.8-0.5c1.2-0.1,2.3-0.3,3.5-0.5c0,0,0,0,0,0
				c-8.5-5.1-15.9-12-21.7-20.3c-2.1-3-3.9-6.1-5.5-9.4c-0.4-0.7-0.7-1.5-1-2.2c0-0.1-0.1-0.2-0.1-0.2c-4-9.1-6.1-18.9-6.1-29
				c0-14.7,4.4-28.8,12.8-40.9c1.9-2.8,4-5.4,6.3-7.8c7.4-7.9,16.4-14.1,26.6-18c3.1-1.2,6.2-2.2,9.4-2.9c5.3-1.3,10.8-1.9,16.4-1.9
				c13,0,25.5,3.5,36.4,9.9c0,0,0,0,0,0c0,0,0,0,0,0c-0.1-0.1-0.2-0.2-0.3-0.3c-0.1-0.1-0.3-0.3-0.4-0.4c0,0-0.1-0.1-0.1-0.1l0,0
				l0,0l0,0l0,0c-0.1-0.1-0.3-0.2-0.4-0.4c-0.1-0.1-0.3-0.2-0.4-0.4l0,0l0,0l0,0c0,0,0,0-0.1-0.1c-0.2-0.1-0.3-0.3-0.5-0.4l0,0
				l-0.2-0.2c0,0-0.1-0.1-0.1-0.1c-0.2-0.2-0.4-0.4-0.7-0.6c-0.3-0.2-0.5-0.4-0.7-0.6c-0.1-0.1-0.2-0.1-0.2-0.2
				c-0.2-0.1-0.3-0.3-0.5-0.4l-0.3-0.3l-0.2-0.2l0,0l-0.1-0.1l-0.1-0.1c-0.2-0.2-0.4-0.3-0.6-0.5l0,0l0,0l0,0l0,0
				c-0.1-0.1-0.3-0.2-0.4-0.4l0,0l0,0l0,0l0,0c-0.5-0.4-1-0.8-1.4-1.1l0,0l0,0c-0.1-0.1-0.3-0.2-0.4-0.3l-0.2-0.1l-0.1-0.1
				c0,0,0,0-0.1,0c0,0,0,0,0,0l0,0l0,0l0,0l0,0l-0.3-0.2l-0.1-0.1l-0.4-0.3c0,0-0.1-0.1-0.1-0.1c-0.1-0.1-0.1-0.1-0.2-0.2l-0.1-0.1
				l0,0l0,0l0,0l0,0c-0.1-0.1-0.3-0.2-0.4-0.3c0,0-0.1-0.1-0.1-0.1l0,0l0,0c-0.4-0.3-0.7-0.5-1.1-0.8l0,0l0,0l0,0
				c-0.2-0.1-0.3-0.2-0.5-0.3c0,0-0.1-0.1-0.1-0.1l0,0l0,0c-0.2-0.2-0.5-0.3-0.7-0.5c0,0,0,0,0,0l0,0l0,0l0,0
				c-0.1,0-0.1-0.1-0.2-0.1c-0.2-0.1-0.4-0.2-0.5-0.3l0,0l0,0l0,0c-0.3-0.2-0.5-0.3-0.8-0.5l0,0l0,0l0,0c-0.3-0.2-0.5-0.3-0.8-0.5
				l-0.4-0.3l0,0c-0.1,0-0.1-0.1-0.2-0.1c-0.1,0-0.2-0.1-0.3-0.1l0,0l0,0l0,0l0,0c-0.1,0-0.1-0.1-0.2-0.1c-0.2-0.1-0.4-0.2-0.6-0.3
				l-0.1-0.1c-0.1,0-0.1-0.1-0.2-0.1c-0.2-0.1-0.4-0.2-0.5-0.3c0,0,0,0-0.1,0c-1.2-0.7-2.5-1.3-3.7-2c0,0-0.1,0-0.1,0l0,0l0,0l0,0
				c-0.3-0.1-0.6-0.3-0.8-0.4l-0.7-0.4l0,0c0,0,0,0-0.1,0c0,0,0,0,0,0l0,0l0,0l0,0c-0.9-0.4-1.7-0.8-2.5-1.1l0,0l0,0l0,0l0,0
				c-0.2-0.1-0.4-0.2-0.6-0.2l-0.1,0l-0.1,0l0,0l0,0l-0.3-0.1c-0.1,0-0.2-0.1-0.4-0.1c-0.1,0-0.1,0-0.2-0.1
				c-0.8-0.3-1.5-0.6-2.1-0.8l-0.4-0.1l-0.1,0l-0.4-0.1c-1.1-0.4-2.1-0.8-3.3-1.1l0,0l0,0c0,0,0,0-0.1,0c-0.2-0.1-0.4-0.1-0.6-0.2
				c-0.2-0.1-0.4-0.1-0.6-0.2c-0.1,0-0.3-0.1-0.4-0.1c-0.5-0.1-0.9-0.3-1.4-0.4l0,0l0,0l0,0l0,0c-0.1,0-0.1,0-0.2,0
				c-0.1,0-0.2-0.1-0.3-0.1l-0.1,0l-0.1,0c-0.9-0.2-1.8-0.5-2.8-0.7c-0.5-0.1-1.1-0.2-1.6-0.4c-0.9-0.2-1.9-0.4-2.8-0.6
				c-0.3-0.1-0.7-0.1-1-0.2l0,0h0h0c-0.3-0.1-0.7-0.1-1-0.2c-0.2,0-0.3,0-0.5-0.1c-0.2,0-0.4-0.1-0.6-0.1c-1-0.1-2-0.3-3-0.4
				c-1.9-0.2-3.9-0.3-5.8-0.4c-1.1,0-2.2-0.1-3.3-0.1c-1.8,0-3.7,0.1-5.5,0.2c-0.2,0-0.4,0-0.6,0c-2,0.1-4,0.3-6,0.6
				c-0.4,0.1-0.7,0.1-1.1,0.2c0,0,0,0,0,0c0,0,0,0,0,0l0,0L98,448.5L98,448.5z"/>
			<path class="st3" d="M268.6,474.7L268.6,474.7l0-0.1c0-0.1,0-0.2,0.1-0.4l0,0l0,0l0-0.1c0-0.2,0.1-0.3,0.1-0.5l0-0.1l0-0.1
				c0-0.1,0-0.1,0-0.1l0.1-0.5l0.1-0.4c0-0.4,0.1-0.7,0.1-1l0,0c0-0.3,0.1-0.6,0.1-0.9c0-0.3,0.1-0.5,0.1-0.7v0l0-0.2
				c0-0.2,0-0.3,0-0.5l0-0.1l0-0.1c0-0.2,0-0.4,0.1-0.7v0l0-0.1c0-0.3,0.1-0.6,0.1-1v0c0-0.3,0-0.7,0.1-1l0-0.1v-0.1l0-0.1
				c0-0.3,0-0.6,0-0.8c0-0.4,0-0.7,0-1.1l0,0v-0.2c0-0.3,0-0.5,0-0.8v-0.3l0,0c0-0.2,0-0.4,0-0.7c0-0.2,0-0.5,0-0.7v0l0-0.2
				c-0.2-16.4-6.8-31.8-18.5-43.3c-11.7-11.5-27.2-17.9-43.7-17.9c-3.8,0-7.6,0.3-11.2,1c8.5,5.1,15.9,12,21.7,20.3
				c8.4,12,12.8,26.1,12.8,40.9c0,14.7-4.4,28.8-12.8,40.9c-8.2,11.7-19.6,20.7-32.9,25.8c-8.2,3.2-16.9,4.8-25.8,4.8
				c-13,0-25.5-3.5-36.4-9.9l0,0l0.1,0l0,0c0.1,0.1,0.1,0.1,0.2,0.2l0.2,0.2c0.1,0.1,0.3,0.3,0.4,0.4l0,0l0,0
				c0.2,0.2,0.5,0.5,0.8,0.7l0,0l0,0c0.2,0.2,0.4,0.3,0.5,0.5l0,0l0,0c0.3,0.3,0.6,0.6,1,0.9l0,0l0,0c0.2,0.2,0.4,0.4,0.6,0.6l0,0
				l0.1,0.1l0,0l0.6,0.5l0.1,0.1l0,0c0.2,0.1,0.3,0.3,0.5,0.4l0.1,0.1l0.1,0.1c0.1,0.1,0.3,0.3,0.5,0.4l0.1,0l0.1,0
				c0.1,0.1,0.3,0.2,0.4,0.3l0,0l0,0c0.5,0.4,0.9,0.7,1.4,1.1c0.1,0.1,0.2,0.2,0.3,0.2c0.1,0.1,0.2,0.2,0.4,0.3
				c0.1,0.1,0.1,0.1,0.2,0.1l0.1,0.1c0.2,0.1,0.4,0.3,0.6,0.4l0.2,0.1c0.1,0.1,0.2,0.1,0.3,0.2l0,0l0,0c0.1,0.1,0.3,0.2,0.4,0.3
				l0.2,0.1c0.4,0.3,0.7,0.5,1.1,0.8l0,0l0,0c0.2,0.1,0.3,0.2,0.5,0.3l0.1,0.1l0.4,0.3l0.4,0.3c0.2,0.1,0.4,0.3,0.7,0.4
				c0.2,0.1,0.5,0.3,0.7,0.4h0.5l1,0.9c0.1,0.1,0.3,0.2,0.5,0.3c0.3,0.2,0.6,0.4,0.9,0.5l0,0l0,0c0.2,0.1,0.5,0.3,0.7,0.4
				c1.3,0.7,2.6,1.4,3.9,2c0.3,0.1,0.6,0.3,0.9,0.4c0,0,0.1,0,0.1,0.1c0.3,0.1,0.5,0.3,0.8,0.4c0.8,0.4,1.6,0.8,2.5,1.1l0,0l0,0
				c0.2,0.1,0.4,0.2,0.6,0.3c0.1,0,0.1,0.1,0.2,0.1c0.3,0.1,0.5,0.2,0.8,0.3c0.7,0.3,1.4,0.5,2.1,0.8l0,0l0,0
				c0.2,0.1,0.5,0.2,0.7,0.3l0,0l0,0c1.1,0.4,2.2,0.8,3.2,1.1l0,0l0,0c0.2,0.1,0.4,0.1,0.6,0.2l0,0l0,0c0.3,0.1,0.6,0.2,1,0.3
				l0.3,0.1c0.4,0.1,0.8,0.2,1.1,0.3c0.2,0.1,0.4,0.1,0.6,0.2l0,0c2.4,0.6,4.8,1.2,7.2,1.6l0,0l0,0c0.3,0.1,0.6,0.1,1,0.2h0l0,0
				c0.4,0.1,0.7,0.1,1,0.2l0,0l0,0c0.3,0.1,0.7,0.1,1,0.1l0,0c4,0.6,8,0.8,12.1,0.8c4,0,8.1-0.3,12.1-0.8l0.1,0c0.3,0,0.6-0.1,1-0.1
				l0,0l0,0l72.1-72.1C268.6,474.8,268.6,474.8,268.6,474.7z"/>
		</g>
		<g>
			<path class="st3" d="M886.6,831.2c-2.5,4.4-5.4,8.5-8.8,12.3l0.1,0.1l-3.1,3.1c-13.9,14-32.4,21.7-52.1,21.7
				c-19.6,0-38.1-7.6-51.9-21.5c-13.9-13.9-21.5-32.3-21.5-51.9c0-1.4,0-2.9,0.1-4.4c0-0.2,0-0.4,0-0.6l0-0.1c0-0.1,0-0.3,0-0.4
				l0-0.1c0-0.3,0-0.6,0.1-0.9c0-0.2,0-0.5,0.1-0.8c0-0.4,0.1-0.8,0.1-1.2c0-0.2,0.1-0.5,0.1-0.7c0-0.3,0.1-0.7,0.1-1
				c0-0.2,0.1-0.4,0.1-0.6c0-0.3,0.1-0.7,0.2-1.1c0-0.2,0.1-0.4,0.1-0.6c0-0.2,0.1-0.4,0.1-0.5c0-0.2,0.1-0.5,0.1-0.8
				c0-0.2,0.1-0.5,0.1-0.7c0.1-0.3,0.1-0.6,0.2-0.9c0.4-2,0.9-4,1.5-6l0-0.1c0.1-0.3,0.2-0.5,0.2-0.8c0.1-0.2,0.1-0.4,0.2-0.7
				c0.4-1.3,0.9-2.6,1.4-3.8c0.1-0.2,0.1-0.4,0.2-0.5c0.1-0.2,0.2-0.4,0.2-0.6c0.1-0.2,0.2-0.5,0.3-0.8c0.1-0.2,0.2-0.4,0.3-0.7
				l0-0.1c0.1-0.3,0.3-0.6,0.4-0.9c0.1-0.2,0.2-0.4,0.3-0.7c1.9-4,4.1-7.9,6.7-11.5l0.4-0.6c0.3-0.4,0.6-0.8,0.9-1.2
				c0.1-0.2,0.3-0.4,0.4-0.6c0.3-0.4,0.6-0.8,1-1.2c0.2-0.2,0.4-0.5,0.6-0.7c0.2-0.2,0.4-0.5,0.6-0.7c0.2-0.2,0.4-0.5,0.6-0.7
				c0.2-0.3,0.5-0.5,0.7-0.8l-8.6-8.6c-14.3,15.8-22.2,36.1-22.2,57.5c0,22.9,8.9,44.4,25.1,60.5c16.2,16.2,37.7,25.1,60.5,25.1
				c22.9,0,44.5-9,60.7-25.2c4.6-4.6,8.7-9.8,12.1-15.3L886.6,831.2z"/>
			<path class="st2" d="M777,840.7c12.2,12.2,28.4,18.9,45.7,18.9c0.5,0,1.1,0,1.6,0c0.3,0,0.5,0,0.8,0h0c0.4,0,0.8,0,1.2-0.1
				c0.3,0,0.6,0,0.9-0.1c0.2,0,0.3,0,0.4,0l0.2,0c0.3,0,0.6,0,0.9-0.1c0.3,0,0.5,0,0.8-0.1c0.2,0,0.3,0,0.5-0.1l0.3,0
				c0.2,0,0.4-0.1,0.6-0.1c0.8-0.1,1.6-0.2,2.3-0.3c0.2,0,0.4-0.1,0.6-0.1l0.1,0c0.2,0,0.3-0.1,0.5-0.1l0.1,0c0.2,0,0.4-0.1,0.7-0.1
				c0.6-0.1,1.1-0.2,1.7-0.4c0.4-0.1,0.8-0.2,1.1-0.3l0,0c0.1,0,0.2,0,0.3-0.1c0.3-0.1,0.5-0.1,0.8-0.2c0.2-0.1,0.4-0.1,0.6-0.2
				c0.2,0,0.3-0.1,0.5-0.1c0.1,0,0.3-0.1,0.4-0.1l0.1,0c0.2,0,0.3-0.1,0.5-0.1c0.3-0.1,0.5-0.1,0.7-0.2c0.2-0.1,0.4-0.1,0.5-0.2
				c0.5-0.2,1.1-0.4,1.6-0.5c0.2-0.1,0.3-0.1,0.4-0.2l0.1,0c0.2-0.1,0.4-0.1,0.5-0.2c0.3-0.1,0.5-0.2,0.7-0.3
				c0.2-0.1,0.4-0.1,0.5-0.2c0.3-0.1,0.6-0.3,0.9-0.4l0.9-0.4c0.3-0.1,0.6-0.2,0.8-0.4c0.2-0.1,0.3-0.1,0.4-0.2l0.1-0.1
				c0.2-0.1,0.4-0.2,0.7-0.3c1.4-0.6,2.7-1.3,4-2.1c0.1-0.1,0.3-0.2,0.4-0.2c0.3-0.2,0.6-0.3,0.9-0.5l1.5-0.9
				c0.7-0.4,1.3-0.9,2.1-1.4c0.2-0.1,0.4-0.3,0.6-0.4l0.1-0.1c0.2-0.1,0.3-0.2,0.4-0.3l0,0c0.1-0.1,0.2-0.2,0.3-0.2l0,0
				c0.2-0.1,0.4-0.3,0.6-0.4c0.2-0.2,0.4-0.3,0.6-0.5c0.1-0.1,0.3-0.2,0.4-0.3l0.1-0.1c0.2-0.2,0.4-0.3,0.6-0.5
				c0.2-0.2,0.4-0.3,0.6-0.5l0.1,0c0.4-0.3,0.8-0.6,1.2-1c0.1-0.1,0.2-0.2,0.4-0.3l-8.6-8.6c-9.5,8.1-21.4,12.5-33.9,12.5
				c-28.9,0-52.4-23.5-52.4-52.4c0-14.1,5.5-27.3,15.5-37.2c4.7-4.6,10.3-8.4,16.4-11l-9.2-9.2c-5.8,3-11.2,6.9-15.9,11.6
				c-12.3,12.2-19.1,28.5-19.1,45.8C758.1,812.2,764.8,828.5,777,840.7z"/>
			<path class="st2" d="M895.9,778.9c0-22.9-8.9-44.4-25.1-60.5c-16.2-16.2-37.7-25.1-60.5-25.1c-22.9,0-44.5,9-60.7,25.2
				c-4.6,4.6-8.7,9.8-12.1,15.3l8.9,8.9c2.5-4.4,5.5-8.5,8.8-12.3l-0.1-0.1l3.1-3.1c13.9-14,32.4-21.7,52.1-21.7
				c19.6,0,38.1,7.6,51.9,21.5c13.9,13.9,21.5,32.3,21.5,51.9c0,1.5,0,2.9-0.1,4.4c0,0.2,0,0.4,0,0.6c0,0.1,0,0.3,0,0.5l0,0.1
				c0,0.3,0,0.6-0.1,0.9c0,0.3,0,0.5-0.1,0.8c0,0.4-0.1,0.8-0.1,1.2c0,0.2-0.1,0.5-0.1,0.7c0,0.3-0.1,0.7-0.1,1
				c0,0.2-0.1,0.4-0.1,0.6c0,0.3-0.1,0.7-0.2,1.1c0,0.2-0.1,0.4-0.1,0.6c0,0.2-0.1,0.4-0.1,0.5c0,0.2-0.1,0.5-0.1,0.8
				c0,0.2-0.1,0.5-0.1,0.7c-0.1,0.3-0.1,0.6-0.2,0.9c-0.4,2-0.9,4-1.5,6c-0.1,0.3-0.2,0.5-0.3,0.8c-0.1,0.2-0.1,0.4-0.2,0.7
				c-0.4,1.3-0.9,2.6-1.4,3.8c-0.1,0.2-0.1,0.4-0.2,0.5c-0.1,0.2-0.2,0.4-0.2,0.6c-0.1,0.2-0.2,0.5-0.3,0.8
				c-0.1,0.2-0.2,0.4-0.3,0.7l0,0.1c-0.1,0.3-0.3,0.6-0.4,0.9c-0.1,0.2-0.2,0.5-0.3,0.7c-1.9,4-4.1,7.9-6.7,11.5l-0.4,0.6
				c-0.3,0.4-0.6,0.8-0.9,1.2c-0.1,0.2-0.3,0.4-0.4,0.6c-0.3,0.4-0.6,0.8-1,1.2c-0.2,0.2-0.4,0.5-0.6,0.7c-0.2,0.2-0.4,0.4-0.5,0.6
				l0,0c-0.2,0.2-0.4,0.5-0.6,0.7c-0.2,0.3-0.5,0.5-0.7,0.8l8.6,8.6C888.1,820.7,895.9,800.3,895.9,778.9z"/>
			<path class="st3" d="M830.8,827.1l9.2,9.2c5.8-3,11.2-6.9,15.9-11.6c12.3-12.2,19.1-28.5,19.1-45.8c0-17.2-6.7-33.5-18.9-45.7
				c-12.2-12.2-28.4-18.9-45.7-18.9c-0.5,0-1.1,0-1.6,0c-0.3,0-0.5,0-0.8,0h0c-0.4,0-0.8,0-1.2,0.1c-0.3,0-0.6,0-0.9,0.1
				c-0.2,0-0.3,0-0.4,0l-0.2,0c-0.3,0-0.6,0-0.9,0.1c-0.3,0-0.5,0-0.8,0.1c-0.2,0-0.3,0-0.5,0.1l-0.3,0c0,0-0.1,0-0.1,0
				c-0.2,0-0.4,0-0.6,0.1c-0.8,0.1-1.6,0.2-2.3,0.3c-0.2,0-0.4,0.1-0.6,0.1l-0.1,0c-0.2,0-0.3,0.1-0.5,0.1l-0.1,0
				c-0.2,0-0.4,0.1-0.6,0.1c-0.6,0.1-1.2,0.2-1.7,0.4c-0.4,0.1-0.8,0.2-1.1,0.3l0,0c-0.1,0-0.2,0-0.3,0.1c-0.3,0.1-0.5,0.1-0.8,0.2
				c-0.2,0.1-0.4,0.1-0.6,0.2c-0.2,0-0.3,0.1-0.5,0.1c-0.2,0-0.3,0.1-0.4,0.1l-0.1,0c-0.2,0-0.3,0.1-0.5,0.1
				c-0.3,0.1-0.5,0.1-0.7,0.2c-0.2,0.1-0.4,0.1-0.5,0.2c-0.5,0.2-1.1,0.4-1.6,0.5c-0.1,0-0.3,0.1-0.4,0.1l-0.1,0
				c-0.2,0.1-0.3,0.1-0.5,0.2c-0.3,0.1-0.5,0.2-0.8,0.3c-0.2,0.1-0.4,0.1-0.5,0.2c-0.3,0.1-0.6,0.3-0.9,0.4l-0.9,0.4
				c-0.3,0.1-0.6,0.2-0.8,0.4c-0.2,0.1-0.3,0.1-0.4,0.2l-0.1,0.1c-0.2,0.1-0.4,0.2-0.7,0.3c-1.4,0.6-2.7,1.3-4,2.1
				c-0.1,0.1-0.3,0.2-0.4,0.2c-0.3,0.2-0.6,0.3-0.8,0.5l-0.9,0.6c-0.2,0.1-0.4,0.2-0.6,0.4c-0.7,0.4-1.3,0.9-2.1,1.4
				c-0.2,0.1-0.4,0.3-0.6,0.4l-0.1,0.1c-0.2,0.1-0.3,0.2-0.5,0.3l-0.1,0c-0.1,0.1-0.2,0.2-0.3,0.2l0,0c-0.2,0.1-0.4,0.3-0.6,0.4
				c-0.2,0.2-0.4,0.3-0.6,0.5c-0.1,0.1-0.3,0.2-0.4,0.3l-0.1,0.1c-0.2,0.2-0.4,0.3-0.6,0.5c-0.2,0.2-0.5,0.4-0.7,0.5
				c-0.4,0.3-0.8,0.6-1.2,1c-0.1,0.1-0.2,0.2-0.4,0.3l8.6,8.6c9.5-8.1,21.4-12.5,33.9-12.5c28.9,0,52.4,23.5,52.4,52.4
				c0,14.1-5.5,27.3-15.5,37.2C842.5,820.8,836.9,824.6,830.8,827.1z"/>
			<g class="st4">
				<polygon class="st6" points="744.4,927.3 743.5,930.1 745.4,930.1 744.4,927.3 				"/>
				<path class="st6" d="M745.8,911.2c-0.3,1.4-0.9,2.5-1.8,3.3c-0.9,0.7-2,1.1-3.3,1.1c-1.1,0-2-0.3-3-0.8c-0.9-0.5-1.6-1.4-2-2.4
					c-0.5-1.1-0.7-2.4-0.7-3.9c0-1.1,0.2-2.3,0.6-3.3c0.4-1.1,1-1.9,1.9-2.5c0.9-0.6,2-0.9,3.4-0.9c1.2,0,2.1,0.3,2.9,0.8
					c0.8,0.6,1.4,1.5,1.8,2.7l0.1,0.1l2.7-0.6l-0.1-0.2c-0.5-1.6-1.4-2.9-2.6-3.9c-1.2-0.9-2.8-1.4-4.6-1.4c-1.6,0-3.1,0.3-4.4,1.1
					c-1.3,0.7-2.4,1.8-3.1,3.2c-0.7,1.4-1.1,3-1.1,4.9c0,1.7,0.3,3.3,1,4.8c0.6,1.5,1.6,2.7,2.8,3.4c1.2,0.8,2.8,1.2,4.8,1.2
					c1.9,0,3.5-0.5,4.8-1.5c1.3-1,2.2-2.5,2.7-4.5l0.1-0.2l-2.7-0.7L745.8,911.2z"/>
				<path class="st6" d="M770.1,900.5c-1.4-0.8-2.9-1.2-4.6-1.2c-2.6,0-4.7,0.9-6.3,2.5c-1.6,1.7-2.4,4-2.4,7c0,1.6,0.3,3.1,1.1,4.5
					c0.7,1.4,1.7,2.5,3.1,3.3c1.4,0.8,2.9,1.2,4.6,1.2c1.6,0,3.1-0.4,4.4-1.1c1.4-0.7,2.4-1.8,3.2-3.3c0.7-1.4,1.1-3.1,1.1-4.9
					c0-1.8-0.4-3.4-1.1-4.8C772.5,902.4,771.4,901.3,770.1,900.5z M769.8,913.8c-1.1,1.2-2.6,1.8-4.3,1.8c-1.7,0-3.1-0.6-4.3-1.8
					c-1.1-1.2-1.7-2.8-1.7-4.9c0-2.6,0.6-4.5,1.8-5.6c1.2-1.1,2.6-1.6,4.2-1.6c1.2,0,2.2,0.3,3.1,0.8c0.9,0.6,1.6,1.4,2.1,2.4
					c0.5,1,0.7,2.3,0.7,3.7C771.5,910.8,770.9,912.6,769.8,913.8z"/>
				<path class="st6" d="M797.5,900.1l-4.3,12.2c-0.3,1-0.6,1.8-0.8,2.4l-0.7-2.1l-4.3-12.6h-0.3v6.5l4,11.4h2.4l4-11.4V900.1z"/>
				<rect x="783.6" y="900" class="st6" width="2.6" height="17.9"/>
				<rect x="798.4" y="900" class="st6" width="2.6" height="17.9"/>
				<rect x="810.3" y="900" class="st6" width="2.7" height="17.9"/>
				<path class="st6" d="M823.8,902.7c-0.4-0.7-0.9-1.4-1.5-1.8c-0.6-0.4-1.4-0.7-2.3-0.9c-0.6-0.1-1.6-0.2-2.8-0.2h-3.3v2.4h3.5
					c1.1,0,1.8,0.1,2.2,0.2c0.6,0.2,1.1,0.5,1.4,1c0.4,0.5,0.5,1.1,0.5,1.8c0,1-0.3,1.7-0.9,2.2c-0.6,0.5-1.7,0.8-3.2,0.8h-3.5v2.4
					h3.5c2.5,0,4.4-0.6,5.4-1.6c1-1.1,1.5-2.4,1.5-3.9C824.3,904.3,824.1,903.5,823.8,902.7z"/>
				<path class="st6" d="M840.6,900l-7,17.9h2.8l0.8-2.1h0l2-5.4l0.4-1.1l1.5-4h0c0.3-0.9,0.6-1.8,0.8-2.7c0.3,0.9,0.6,1.9,1.1,3.1
					l1.8,4.7h-4.6l-0.8,2.2h6.3l2.1,5.3h3.1l-7.5-17.9H840.6z"/>
				<rect x="859.9" y="900" class="st6" width="2.5" height="17.9"/>
				<polygon class="st6" points="871.7,913.4 871.7,913.3 871.7,917.9 874.4,917.9 874.4,900 871.7,900 				"/>
				<polygon class="st6" points="863.4,905.7 870.7,916.5 870.7,911.9 863.4,901.1 				"/>
				<path class="st6" d="M897.6,900l-3.5,5.3c-0.7,1-1.3,2-1.8,2.9v0l-1.5,2.3v7.6h2.7v-7.6l7.3-10.4H897.6z"/>
				<polygon class="st6" points="891.6,907.1 890.5,905.3 886.9,900 883.6,900 890.1,909.5 				"/>
				<polygon class="st6" points="732.3,926.8 734,926.8 734,932.4 735,932.4 735,926.8 736.8,926.8 736.8,925.9 732.3,925.9 				"/>
				<path class="st6" d="M744,925.9l-2.4,6.5h1l0.5-1.5h2.5l0.5,1.5h1l-2.4-6.5H744z M743.5,930.1l0.9-2.8h0l0.9,2.8H743.5z"/>
				<path class="st6" d="M755.3,929.8h1.3v0.3c0,0.4-0.1,0.7-0.4,1c-0.2,0.3-0.6,0.4-0.9,0.4c-0.2,0-0.4,0-0.6-0.1
					c-0.2-0.1-0.3-0.2-0.4-0.3c-0.1-0.1-0.2-0.3-0.3-0.5c0-0.2-0.1-0.7-0.1-1.3c0-0.6,0-1.1,0.1-1.3c0-0.2,0.1-0.4,0.3-0.5
					c0.1-0.1,0.2-0.2,0.4-0.3c0.2-0.1,0.4-0.1,0.6-0.1c0.3,0,0.6,0.1,0.8,0.3c0.2,0.2,0.4,0.4,0.4,0.7h1c-0.1-0.5-0.4-1-0.7-1.4
					c-0.4-0.4-0.9-0.6-1.5-0.6c-0.5,0-0.9,0.1-1.3,0.4c-0.3,0.2-0.6,0.5-0.8,0.8c-0.1,0.2-0.2,0.4-0.2,0.6c0,0.3-0.1,0.8-0.1,1.5
					c0,0.7,0,1.2,0.1,1.5c0,0.1,0.1,0.3,0.1,0.3c0,0.1,0.1,0.2,0.1,0.3c0.2,0.3,0.4,0.6,0.8,0.8c0.3,0.2,0.8,0.4,1.3,0.4
					c0.7,0,1.2-0.2,1.6-0.7c0.4-0.4,0.7-1,0.7-1.6v-1.3h-2.3V929.8z"/>
				<polygon class="st6" points="765.2,925.9 764.2,925.9 764.2,932.4 768.4,932.4 768.4,931.5 765.2,931.5 				"/>
				<rect x="774.8" y="925.9" class="st6" width="1" height="6.5"/>
				<polygon class="st6" points="786.5,930.6 786.5,930.6 783.6,925.9 782.6,925.9 782.6,932.4 783.6,932.4 783.6,927.8 
					783.6,927.8 786.6,932.4 787.5,932.4 787.5,925.9 786.5,925.9 				"/>
				<polygon class="st6" points="794.3,932.4 798.5,932.4 798.5,931.5 795.3,931.5 795.3,929.6 798,929.6 798,928.7 795.3,928.7 
					795.3,926.9 798.5,926.9 798.5,925.9 794.3,925.9 				"/>
				<path class="st6" d="M814.7,929.8h1.3v0.3c0,0.4-0.1,0.7-0.4,1c-0.2,0.3-0.6,0.4-0.9,0.4c-0.2,0-0.4,0-0.6-0.1
					c-0.2-0.1-0.3-0.2-0.4-0.3c-0.1-0.1-0.2-0.3-0.3-0.5c0-0.2-0.1-0.7-0.1-1.3c0-0.6,0-1.1,0.1-1.3c0-0.2,0.1-0.4,0.3-0.5
					c0.1-0.1,0.2-0.2,0.4-0.3c0.2-0.1,0.4-0.1,0.6-0.1c0.3,0,0.6,0.1,0.8,0.3c0.2,0.2,0.4,0.4,0.4,0.7h1c-0.1-0.5-0.4-1-0.7-1.4
					c-0.4-0.4-0.9-0.6-1.5-0.6c-0.5,0-0.9,0.1-1.3,0.4c-0.3,0.2-0.6,0.5-0.8,0.8c-0.1,0.2-0.2,0.4-0.2,0.6c0,0.3-0.1,0.8-0.1,1.5
					c0,0.7,0,1.2,0.1,1.5c0,0.1,0.1,0.3,0.1,0.3c0,0.1,0.1,0.2,0.1,0.3c0.2,0.3,0.4,0.6,0.8,0.8c0.3,0.2,0.8,0.4,1.3,0.4
					c0.7,0,1.2-0.2,1.6-0.7c0.4-0.4,0.7-1,0.7-1.6v-1.3h-2.3V929.8z"/>
				<path class="st6" d="M827.8,927.1c-0.2-0.3-0.4-0.6-0.7-0.8c-0.3-0.2-0.8-0.4-1.3-0.4c-0.5,0-0.9,0.1-1.3,0.4
					c-0.3,0.2-0.6,0.5-0.8,0.8c-0.1,0.2-0.2,0.4-0.2,0.6c0,0.3-0.1,0.8-0.1,1.5c0,0.7,0,1.2,0.1,1.5c0,0.1,0.1,0.3,0.1,0.3
					c0,0.1,0.1,0.2,0.1,0.3c0.2,0.3,0.4,0.6,0.8,0.8c0.3,0.2,0.8,0.4,1.3,0.4c0.5,0,0.9-0.1,1.3-0.4c0.3-0.2,0.6-0.5,0.7-0.8
					c0.1-0.2,0.2-0.4,0.2-0.6c0-0.3,0.1-0.8,0.1-1.5c0-0.8,0-1.3-0.1-1.5C827.9,927.4,827.9,927.2,827.8,927.1z M827,930.5
					c0,0.2-0.1,0.4-0.3,0.5c-0.1,0.1-0.2,0.2-0.4,0.3c-0.2,0.1-0.4,0.1-0.6,0.1c-0.2,0-0.4,0-0.6-0.1c-0.2-0.1-0.3-0.2-0.4-0.3
					c-0.1-0.1-0.2-0.3-0.3-0.5c0-0.2-0.1-0.7-0.1-1.3c0-0.6,0-1.1,0.1-1.3c0-0.2,0.1-0.4,0.3-0.5c0.1-0.1,0.2-0.2,0.4-0.3
					c0.2-0.1,0.4-0.1,0.6-0.1c0.2,0,0.4,0.1,0.6,0.1c0.2,0.1,0.3,0.2,0.4,0.3c0.1,0.1,0.2,0.3,0.3,0.5c0,0.2,0.1,0.7,0.1,1.3
					C827.1,929.8,827,930.3,827,930.5z"/>
				<polygon class="st6" points="834.7,932.4 838.8,932.4 838.8,931.5 835.6,931.5 835.6,929.6 838.4,929.6 838.4,928.7 
					835.6,928.7 835.6,926.9 838.8,926.9 838.8,925.9 834.7,925.9 				"/>
				<path class="st6" d="M847.6,928.7c-0.3,0-0.6-0.1-0.7-0.1c-0.3-0.1-0.6-0.2-0.7-0.3c-0.1-0.2-0.2-0.3-0.2-0.5
					c0-0.3,0.1-0.5,0.3-0.7c0.2-0.2,0.5-0.2,0.8-0.2c0.6,0,1.1,0.2,1.6,0.5l0.5-0.8c-0.6-0.4-1.3-0.7-2.1-0.7
					c-0.7,0-1.2,0.2-1.6,0.5c-0.4,0.3-0.6,0.8-0.6,1.4c0,0.5,0.2,0.9,0.5,1.2c0.3,0.3,0.7,0.5,1.3,0.6c0.3,0,0.6,0.1,0.9,0.1
					c0.6,0.1,0.9,0.4,0.8,0.9c0,0.6-0.4,0.9-1.3,0.9c-0.7,0-1.3-0.2-1.8-0.6l-0.6,0.7c0.7,0.6,1.5,0.9,2.5,0.9
					c1.5,0,2.2-0.6,2.3-1.9c0-0.5-0.1-0.9-0.4-1.2C848.7,929,848.2,928.8,847.6,928.7z"/>
				<polygon class="st6" points="867.2,928.7 864.6,928.7 864.6,925.9 863.6,925.9 863.6,932.4 864.6,932.4 864.6,929.6 
					867.2,929.6 867.2,932.4 868.1,932.4 868.1,925.9 867.2,925.9 				"/>
				<polygon class="st6" points="875,932.4 879.1,932.4 879.1,931.5 876,931.5 876,929.6 878.7,929.6 878.7,928.7 876,928.7 
					876,926.9 879.1,926.9 879.1,925.9 875,925.9 				"/>
				<path class="st6" d="M890.1,927.8c0-0.6-0.2-1.1-0.6-1.4c-0.3-0.3-0.8-0.4-1.3-0.4h-2.5v6.5h1v-2.8h1.3l1.3,2.8h1.2l-1.5-2.9
					C889.6,929.2,890,928.6,890.1,927.8z M886.5,928.8v-2h1.5c0.3,0,0.6,0.1,0.7,0.2c0.2,0.2,0.3,0.4,0.3,0.7c0,0.3-0.1,0.5-0.3,0.7
					c-0.2,0.2-0.5,0.3-0.8,0.3H886.5z"/>
				<polygon class="st6" points="896.6,932.4 900.7,932.4 900.7,931.5 897.6,931.5 897.6,929.6 900.3,929.6 900.3,928.7 
					897.6,928.7 897.6,926.9 900.7,926.9 900.7,925.9 896.6,925.9 				"/>
			</g>
		</g>
		<g>
			<polygon class="st1" points="838,480.1 838,444.8 802.7,444.8 798.9,444.8 795,444.8 795,452.5 795,487.8 834.2,487.8 838,487.8 
				838,483.9 			"/>
			<polygon class="st1" points="726.1,605.7 724.9,609.3 727.3,609.3 726.1,605.7 			"/>
			<path class="st1" d="M907.5,606.3c0-0.4-0.1-0.7-0.4-0.9c-0.2-0.2-0.5-0.3-0.9-0.3h-1.9v2.5h1.9c0.5,0,0.8-0.1,1-0.4
				C907.4,606.9,907.5,606.7,907.5,606.3z"/>
			<polygon class="st1" points="848.7,586.6 851.8,586.6 850.2,582.2 			"/>
			<path class="st1" d="M821,580.4h-1.5v3.8h1.5c1.1,0,1.9-0.9,1.9-1.9C822.9,581.3,822.1,580.4,821,580.4z"/>
			<path class="st1" d="M752.5,580.4c-3.2,0-5.8,2.6-5.8,5.8c0,3.2,2.6,5.8,5.8,5.8c3.2,0,5.8-2.6,5.8-5.8
				C758.3,583,755.7,580.4,752.5,580.4z"/>
			<path class="st1" d="M826.8,610.4c0.1,0.2,0.3,0.3,0.5,0.4c0.2,0.1,0.5,0.2,0.7,0.2c0.3,0,0.5-0.1,0.8-0.2
				c0.2-0.1,0.4-0.2,0.5-0.4c0.2-0.2,0.3-0.4,0.3-0.7c0.1-0.3,0.1-0.8,0.1-1.6c0-0.8,0-1.3-0.1-1.6c-0.1-0.3-0.2-0.5-0.3-0.7
				c-0.1-0.2-0.3-0.3-0.5-0.4c-0.2-0.1-0.5-0.2-0.8-0.2c-0.3,0-0.5,0.1-0.7,0.2c-0.2,0.1-0.4,0.3-0.5,0.4c-0.2,0.2-0.3,0.4-0.3,0.7
				c-0.1,0.3-0.1,0.8-0.1,1.6c0,0.8,0,1.3,0.1,1.6C826.5,610,826.6,610.2,826.8,610.4z"/>
			<path class="st2" d="M891.2,391.6c-11.9-11.9-27.8-18.5-44.7-18.5c-16.9,0-32.7,6.6-44.7,18.5c-9.3,9.3-15.4,21.1-17.6,33.8
				c-0.2,1.3-0.4,2.6-0.5,3.9c-0.1,1.3-0.2,2.6-0.3,3.9c-0.1,1-0.1,2.1-0.1,3.1l0,8.6v3.9l0,3.9l0,46.9l46.9,0h3.9h3.9
				c0.1-1.1,0.1-2.1,0.1-3.2v-8.5l-3.9,0H795l0-35.3v-7.7l0-8.5c0-1.1,0-2.1,0.1-3.2c0.1-1.3,0.2-2.6,0.4-3.9
				c0.2-1.3,0.4-2.6,0.7-3.9c2.1-9.8,7.1-18.6,13.9-25.5c9.3-9.3,22.2-15.1,36.4-15.1c28.4,0,51.5,23.1,51.5,51.5
				c0,14.2-5.8,27.1-15.1,36.4c-6.9,6.9-15.7,11.8-25.5,13.9v1.1l0,8.6c0,0.8,0,1.5,0,2.3c12.7-2.2,24.5-8.3,33.8-17.6
				c11.9-11.9,18.5-27.8,18.5-44.7C909.7,419.4,903.1,403.5,891.2,391.6z"/>
			<path class="st3" d="M795,444.8h3.9h3.9l35.3,0l0,35.3v3.9v3.9v8.5c0,1.1,0,2.1-0.1,3.2c-0.1,1.3-0.2,2.6-0.4,3.9
				c-0.2,1.3-0.4,2.6-0.7,3.9c-2.1,9.8-7.1,18.6-13.9,25.5c-9.3,9.3-22.2,15.1-36.4,15.1c-28.4,0-51.5-23.1-51.5-51.5
				c0-14.2,5.8-27.1,15.1-36.4c6.9-6.9,15.7-11.8,25.5-13.9v-9.7c0-0.8,0-1.5,0-2.3c-12.7,2.2-24.5,8.3-33.8,17.6
				c-11.9,11.9-18.5,27.8-18.5,44.7c0,16.9,6.6,32.7,18.5,44.7c11.9,11.9,27.8,18.5,44.7,18.5c16.9,0,32.7-6.6,44.7-18.5
				c11.2-11.2,17.7-25.9,18.4-41.6c0-0.5,0-1,0.1-1.5c0-0.3,0-0.5,0-0.8c0-0.3,0-0.5,0-0.8l0,0v-8.6l0-54.6l-46.9,0l-3.9,0l-3.9,0
				c-0.1,1.1-0.1,2.1-0.1,3.2L795,444.8z"/>
			<path class="st2" d="M724.5,590.4c-1,0.9-2.4,1.5-3.9,1.5c-3.2,0-5.8-2.6-5.8-5.8c0-3.2,2.6-5.8,5.8-5.8c1.5,0,2.9,0.6,3.9,1.5
				l2.7-2.7c-1.7-1.6-4.1-2.7-6.6-2.7c-5.3,0-9.6,4.3-9.6,9.6s4.3,9.6,9.6,9.6c2.6,0,4.9-1,6.6-2.7L724.5,590.4z"/>
			<path class="st2" d="M762.1,586.2c0-5.3-4.3-9.6-9.6-9.6c-5.3,0-9.6,4.3-9.6,9.6s4.3,9.6,9.6,9.6
				C757.8,595.8,762.1,591.5,762.1,586.2z M752.5,592c-3.2,0-5.8-2.6-5.8-5.8c0-3.2,2.6-5.8,5.8-5.8c3.2,0,5.8,2.6,5.8,5.8
				C758.3,589.4,755.7,592,752.5,592z"/>
			<polygon class="st2" points="798.6,595.8 798.6,576.6 794.5,576.6 788.9,590.6 783.3,576.6 779.1,576.6 779.1,595.8 783,595.8 
				783,586.2 786.8,595.8 791,595.8 794.8,586.2 794.8,595.8 			"/>
			<path class="st2" d="M821,576.6h-5.4v19.2h3.8v-7.7h1.6c3.2,0,5.7-2.6,5.7-5.8C826.8,579.1,824.2,576.6,821,576.6z M821,584.2
				h-1.5v-3.8h1.5c1.1,0,1.9,0.9,1.9,1.9C822.9,583.4,822.1,584.2,821,584.2z"/>
			<path class="st2" d="M852.3,576.6h-4.1l-7,19.2h4.1l2-5.4h5.9l2,5.4h4.1L852.3,576.6z M848.7,586.6l1.5-4.3l1.6,4.3H848.7z"/>
			<polygon class="st2" points="887.9,589.4 880.2,576.6 875.7,576.6 875.7,595.8 879.5,595.8 879.5,583 887.2,595.8 891.7,595.8 
				891.7,576.6 887.9,576.6 			"/>
			<polygon class="st2" points="917.1,595.8 917.1,586.6 922.1,576.6 917.8,576.6 915.2,581.9 912.5,576.6 908.2,576.6 913.2,586.6 
				913.2,595.8 			"/>
			<polygon class="st2" points="710.9,605.1 713.1,605.1 713.1,612.2 714.4,612.2 714.4,605.1 716.6,605.1 716.6,604 710.9,604 			
				"/>
			<path class="st2" d="M725.6,604l-3,8.1h1.3l0.6-1.8h3.1l0.6,1.8h1.3l-3-8.1H725.6z M724.9,609.3l1.2-3.6h0l1.2,3.6H724.9z"/>
			<path class="st2" d="M738.5,605.8c0.1-0.2,0.3-0.3,0.5-0.4c0.2-0.1,0.5-0.2,0.7-0.2c0.4,0,0.7,0.1,1,0.3c0.3,0.2,0.4,0.5,0.5,0.8
				h1.3c-0.1-0.7-0.4-1.3-0.9-1.7c-0.5-0.5-1.1-0.7-1.9-0.7c-0.6,0-1.2,0.2-1.6,0.5c-0.4,0.3-0.8,0.6-1,1c-0.1,0.2-0.2,0.5-0.3,0.8
				c-0.1,0.3-0.1,1-0.1,1.9c0,0.9,0,1.6,0.1,1.9c0,0.2,0.1,0.3,0.1,0.4c0,0.1,0.1,0.2,0.2,0.4c0.2,0.4,0.5,0.7,1,1
				c0.4,0.3,1,0.5,1.6,0.5c0.8,0,1.5-0.3,2.1-0.8c0.5-0.6,0.8-1.2,0.8-2.1v-1.7h-2.9v1.2h1.7v0.4c0,0.5-0.2,0.9-0.5,1.2
				c-0.3,0.3-0.7,0.5-1.2,0.5c-0.3,0-0.5-0.1-0.7-0.2c-0.2-0.1-0.4-0.2-0.5-0.4c-0.2-0.2-0.3-0.4-0.3-0.7c-0.1-0.3-0.1-0.8-0.1-1.6
				c0-0.8,0-1.3,0.1-1.6C738.2,606.2,738.3,606,738.5,605.8z"/>
			<polygon class="st2" points="751,604 751,612.2 756.2,612.2 756.2,611 752.2,611 752.2,604 			"/>
			<rect x="764.2" y="604" class="st2" width="1.2" height="8.1"/>
			<polygon class="st2" points="778.9,609.8 778.9,609.8 775.2,604 774,604 774,612.2 775.3,612.2 775.3,606.4 775.3,606.4 
				779,612.2 780.1,612.2 780.1,604 778.9,604 			"/>
			<polygon class="st2" points="793.9,605.2 793.9,604 788.7,604 788.7,612.2 793.9,612.2 793.9,611 790,611 790,608.6 793.4,608.6 
				793.4,607.5 790,607.5 790,605.2 			"/>
			<path class="st2" d="M812.6,604.4c-0.4,0.3-0.8,0.6-1,1c-0.1,0.2-0.2,0.5-0.3,0.8c-0.1,0.3-0.1,1-0.1,1.9c0,0.9,0,1.6,0.1,1.9
				c0,0.2,0.1,0.3,0.1,0.4c0,0.1,0.1,0.2,0.2,0.4c0.2,0.4,0.5,0.7,1,1c0.4,0.3,1,0.5,1.6,0.5c0.8,0,1.5-0.3,2.1-0.8
				c0.5-0.6,0.8-1.2,0.8-2.1v-1.7h-2.9v1.2h1.7v0.4c0,0.5-0.2,0.9-0.5,1.2c-0.3,0.3-0.7,0.5-1.2,0.5c-0.3,0-0.5-0.1-0.7-0.2
				c-0.2-0.1-0.4-0.2-0.5-0.4c-0.2-0.2-0.3-0.4-0.3-0.7c-0.1-0.3-0.1-0.8-0.1-1.6c0-0.8,0-1.3,0.1-1.6c0.1-0.3,0.2-0.5,0.3-0.7
				c0.1-0.2,0.3-0.3,0.5-0.4c0.2-0.1,0.5-0.2,0.7-0.2c0.4,0,0.7,0.1,1,0.3c0.3,0.2,0.4,0.5,0.5,0.8h1.3c-0.1-0.7-0.4-1.3-0.9-1.7
				c-0.5-0.5-1.1-0.7-1.9-0.7C813.6,604,813,604.1,812.6,604.4z"/>
			<path class="st2" d="M825.5,605.4c-0.1,0.2-0.2,0.5-0.3,0.8c-0.1,0.3-0.1,1-0.1,1.9c0,0.9,0,1.6,0.1,1.9c0,0.2,0.1,0.3,0.1,0.4
				c0,0.1,0.1,0.2,0.2,0.4c0.2,0.4,0.5,0.7,1,1c0.4,0.3,1,0.5,1.6,0.5c0.6,0,1.2-0.2,1.6-0.5c0.4-0.3,0.7-0.6,0.9-1
				c0.1-0.2,0.2-0.5,0.3-0.8c0-0.3,0.1-1,0.1-1.9c0-0.9,0-1.6-0.1-1.9c-0.1-0.3-0.1-0.6-0.3-0.8c-0.2-0.4-0.5-0.7-0.9-1
				c-0.4-0.3-1-0.5-1.6-0.5c-0.6,0-1.2,0.2-1.6,0.5C826,604.7,825.7,605,825.5,605.4z M826.5,606.5c0.1-0.3,0.2-0.5,0.3-0.7
				c0.1-0.2,0.3-0.3,0.5-0.4c0.2-0.1,0.5-0.2,0.7-0.2c0.3,0,0.5,0.1,0.8,0.2c0.2,0.1,0.4,0.3,0.5,0.4c0.2,0.2,0.3,0.4,0.3,0.7
				c0.1,0.3,0.1,0.8,0.1,1.6c0,0.8,0,1.3-0.1,1.6c-0.1,0.3-0.2,0.5-0.3,0.7c-0.1,0.2-0.3,0.3-0.5,0.4c-0.2,0.1-0.5,0.2-0.8,0.2
				c-0.3,0-0.5-0.1-0.7-0.2c-0.2-0.1-0.4-0.2-0.5-0.4c-0.2-0.2-0.3-0.4-0.3-0.7c-0.1-0.3-0.1-0.8-0.1-1.6
				C826.4,607.3,826.4,606.7,826.5,606.5z"/>
			<polygon class="st2" points="839.3,612.2 844.5,612.2 844.5,611 840.5,611 840.5,608.6 843.9,608.6 843.9,607.5 840.5,607.5 
				840.5,605.2 844.5,605.2 844.5,604 839.3,604 			"/>
			<path class="st2" d="M854.9,611c-0.9,0-1.7-0.3-2.3-0.8l-0.8,0.9c0.9,0.7,1.9,1.1,3.1,1.1c1.9,0,2.8-0.8,2.9-2.4
				c0-0.6-0.2-1.1-0.5-1.5c-0.4-0.4-0.9-0.7-1.7-0.8c-0.4,0-0.7-0.1-0.9-0.1c-0.4-0.1-0.7-0.2-0.9-0.4c-0.2-0.2-0.3-0.4-0.3-0.6
				c0-0.4,0.1-0.7,0.4-0.9c0.3-0.2,0.6-0.3,0.9-0.3c0.7,0,1.4,0.2,2,0.6l0.7-1c-0.7-0.5-1.6-0.8-2.6-0.8c-0.8,0-1.5,0.2-2,0.7
				c-0.5,0.4-0.7,1-0.7,1.7c0,0.6,0.2,1.1,0.6,1.5c0.4,0.4,0.9,0.7,1.6,0.8c0.4,0.1,0.8,0.1,1.1,0.2c0.7,0.1,1.1,0.5,1.1,1.1
				C856.5,610.6,856,611,854.9,611z"/>
			<polygon class="st2" points="875.5,612.2 876.8,612.2 876.8,608.6 880,608.6 880,612.2 881.2,612.2 881.2,604 880,604 880,607.5 
				876.8,607.5 876.8,604 875.5,604 			"/>
			<polygon class="st2" points="895,605.2 895,604 889.8,604 889.8,612.2 895,612.2 895,611 891.1,611 891.1,608.6 894.4,608.6 
				894.4,607.5 891.1,607.5 891.1,605.2 			"/>
			<path class="st2" d="M908.7,606.3c0-0.8-0.3-1.3-0.8-1.7c-0.4-0.4-1-0.5-1.7-0.5h-3.2v8.1h1.2v-3.5h1.6l1.7,3.5h1.5l-1.9-3.6
				C908.2,608.2,908.7,607.4,908.7,606.3z M904.3,607.6v-2.5h1.9c0.4,0,0.7,0.1,0.9,0.3c0.3,0.2,0.4,0.5,0.4,0.9
				c0,0.4-0.1,0.7-0.3,0.9c-0.2,0.3-0.6,0.4-1,0.4H904.3z"/>
			<polygon class="st2" points="916.9,612.2 922.1,612.2 922.1,611 918.1,611 918.1,608.6 921.5,608.6 921.5,607.5 918.1,607.5 
				918.1,605.2 922.1,605.2 922.1,604 916.9,604 			"/>
		</g>
		<g>
			<path class="st1" d="M822.3,253.4c-0.2-0.5-0.5-0.8-1-1.1c-0.4-0.2-1.1-0.4-1.9-0.4h-2.1v9.8h2c0.8,0,1.5-0.1,1.9-0.4
				c0.5-0.2,0.8-0.6,1-1c0.2-0.4,0.3-0.9,0.4-1.5c0-0.6,0.1-1.3,0.1-2c0-0.7,0-1.3,0-1.9C822.6,254.4,822.5,253.9,822.3,253.4z"/>
			<polygon class="st1" points="723.8,289.5 723.8,289.5 722.6,293.1 725,293.1 			"/>
			<path class="st1" d="M827.1,294.3c0.1,0.2,0.3,0.3,0.5,0.4c0.2,0.1,0.5,0.2,0.8,0.2c0.3,0,0.6-0.1,0.8-0.2
				c0.2-0.1,0.4-0.2,0.5-0.4c0.2-0.2,0.3-0.4,0.3-0.7c0.1-0.3,0.1-0.8,0.1-1.7s0-1.4-0.1-1.7c-0.1-0.3-0.2-0.5-0.3-0.7
				c-0.1-0.2-0.3-0.3-0.5-0.4c-0.2-0.1-0.5-0.2-0.8-0.2c-0.3,0-0.6,0.1-0.8,0.2c-0.2,0.1-0.4,0.3-0.5,0.4c-0.2,0.2-0.3,0.4-0.3,0.7
				c-0.1,0.3-0.1,0.9-0.1,1.7s0,1.4,0.1,1.7C826.8,293.9,826.9,294.1,827.1,294.3z"/>
			<polygon class="st1" points="850.6,256.4 848.6,266.8 852.7,266.8 850.7,256.4 			"/>
			<path class="st1" d="M747.8,273c0.8,0,1.4-0.2,2-0.7c0.6-0.5,0.8-1.2,0.8-2.2v-15.2c0-1-0.3-1.7-0.8-2.2c-0.6-0.5-1.2-0.7-2-0.7
				c-0.8,0-1.4,0.2-2,0.7c-0.6,0.5-0.8,1.2-0.8,2.2v15.2c0,1,0.3,1.7,0.8,2.2C746.4,272.8,747.1,273,747.8,273z"/>
			<path class="st1" d="M909.5,291c0.2-0.2,0.3-0.6,0.3-0.9c0-0.4-0.1-0.8-0.4-0.9c-0.2-0.2-0.5-0.3-0.9-0.3h-2v2.5h1.9
				C909,291.4,909.3,291.3,909.5,291z"/>
			<path class="st3" d="M710.5,275.7c0.6,0.5,1.4,0.9,2.2,1.1c0.8,0.2,1.6,0.3,2.4,0.3c0.9,0,1.8-0.2,2.6-0.5
				c0.8-0.4,1.5-0.9,2.1-1.5c0.6-0.6,1.1-1.3,1.4-2.1c0.3-0.8,0.5-1.6,0.5-2.5v-1.8h-4.1v1.4c0,0.6-0.1,1-0.2,1.4
				c-0.2,0.4-0.4,0.7-0.6,0.9c-0.3,0.2-0.6,0.4-0.9,0.5c-0.3,0.1-0.6,0.1-0.9,0.1c-0.9,0-1.6-0.3-2-0.8c-0.4-0.6-0.5-1.3-0.5-2.1
				v-14.7c0-1,0.2-1.8,0.5-2.4c0.3-0.6,1-1,2-1c0.8,0,1.4,0.3,1.9,0.9c0.5,0.6,0.7,1.3,0.7,2.1v1.4h4.1v-1.6c0-1-0.2-1.9-0.5-2.8
				c-0.3-0.8-0.8-1.6-1.4-2.2c-1.2-1.3-2.8-1.9-4.7-1.9c-1,0-1.9,0.2-2.7,0.5c-0.8,0.3-1.5,0.8-2.1,1.4c-0.6,0.6-1.1,1.3-1.4,2.1
				c-0.3,0.8-0.5,1.7-0.5,2.6v15.9c0,1.3,0.2,2.4,0.6,3.3C709.3,274.5,709.9,275.2,710.5,275.7z"/>
			<path class="st3" d="M743.1,275.4c0.6,0.6,1.4,1,2.2,1.3c0.8,0.3,1.7,0.4,2.5,0.4c0.8,0,1.7-0.1,2.5-0.4c0.8-0.3,1.6-0.7,2.2-1.3
				c0.6-0.6,1.2-1.3,1.6-2.1c0.4-0.9,0.6-1.9,0.6-3.1v-15.2c0-1.2-0.2-2.2-0.6-3.1s-0.9-1.6-1.6-2.2c-0.7-0.6-1.4-1-2.2-1.3
				c-0.8-0.3-1.7-0.4-2.5-0.4c-0.8,0-1.7,0.1-2.5,0.4c-0.8,0.3-1.6,0.7-2.2,1.3c-0.7,0.6-1.2,1.3-1.6,2.2c-0.4,0.9-0.6,1.9-0.6,3.1
				v15.2c0,1.2,0.2,2.3,0.6,3.1C741.9,274.1,742.5,274.8,743.1,275.4z M745,254.9c0-1,0.3-1.7,0.8-2.2c0.6-0.5,1.2-0.7,2-0.7
				c0.8,0,1.4,0.2,2,0.7c0.6,0.5,0.8,1.2,0.8,2.2v15.2c0,1-0.3,1.7-0.8,2.2c-0.6,0.5-1.2,0.7-2,0.7c-0.8,0-1.4-0.2-2-0.7
				c-0.6-0.5-0.8-1.2-0.8-2.2V254.9z"/>
			<polygon class="st3" points="783.9,263.4 783.8,263.4 778.5,248.1 774.6,248.1 774.6,276.9 778.7,276.9 778.7,259.4 778.8,259.4 
				782.8,271.8 784.9,271.8 789,259.4 789,259.4 789,276.9 793.2,276.9 793.2,248.1 789.2,248.1 			"/>
			<path class="st3" d="M824.7,250.1c-0.7-0.8-1.5-1.3-2.3-1.6c-0.9-0.3-1.9-0.4-3-0.4h-6.2v28.8h4.1v-11.2h2.1
				c1.5,0,2.8-0.3,3.7-0.8c0.9-0.5,1.7-1.3,2.3-2.2c0.5-0.8,0.8-1.6,1-2.5c0.1-0.9,0.2-2,0.2-3.3c0-1.7-0.1-3.1-0.4-4.1
				C825.9,251.8,825.4,250.9,824.7,250.1z M822.7,258.9c0,0.6-0.2,1.1-0.4,1.5c-0.2,0.4-0.6,0.8-1,1c-0.5,0.2-1.1,0.4-1.9,0.4h-2
				V252h2.1c0.8,0,1.4,0.1,1.9,0.4c0.4,0.2,0.8,0.6,1,1.1c0.2,0.5,0.3,1,0.4,1.6c0,0.6,0,1.2,0,1.9
				C822.7,257.7,822.7,258.3,822.7,258.9z"/>
			<path class="st3" d="M848.9,248.1l-6.4,28.8h4.1l1.2-6.2h5.6l1.2,6.2h4.1l-6.4-28.8H848.9z M848.6,266.8l2-10.4h0.1l2,10.4H848.6
				z"/>
			<polygon class="st3" points="876.8,276.9 880.9,276.9 880.9,259.6 881,259.6 887.3,276.9 891.2,276.9 891.2,248.1 887.1,248.1 
				887.1,265.5 887,265.5 880.8,248.1 876.8,248.1 			"/>
			<polygon class="st3" points="915,276.9 919.1,276.9 919.1,264.7 924.7,248.1 920.4,248.1 917.1,259.6 917,259.6 913.7,248.1 
				909.3,248.1 915,264.7 			"/>
			<polygon class="st3" points="711.7,296.1 711.7,288.9 714,288.9 714,287.7 708.2,287.7 708.2,288.9 710.5,288.9 710.5,296.1 			
				"/>
			<path class="st3" d="M721.6,296.1l0.6-1.9h3.2l0.6,1.9h1.3l-3-8.4h-1.1l-3,8.4H721.6z M723.8,289.5L723.8,289.5l1.2,3.7h-2.4
				L723.8,289.5z"/>
			<path class="st3" d="M735,294.3c0,0.1,0.1,0.2,0.2,0.4c0.2,0.4,0.5,0.7,1,1c0.4,0.3,1,0.5,1.6,0.5c0.9,0,1.6-0.3,2.1-0.9
				c0.6-0.6,0.8-1.3,0.9-2.1v-1.7h-3v1.2h1.7v0.4c0,0.5-0.2,0.9-0.5,1.3c-0.3,0.3-0.7,0.5-1.2,0.5c-0.3,0-0.6-0.1-0.8-0.2
				c-0.2-0.1-0.4-0.2-0.5-0.4c-0.2-0.2-0.3-0.4-0.3-0.7c-0.1-0.3-0.1-0.8-0.1-1.7s0-1.4,0.1-1.7c0.1-0.3,0.2-0.5,0.3-0.7
				c0.1-0.2,0.3-0.3,0.5-0.4c0.2-0.1,0.5-0.2,0.8-0.2c0.4,0,0.7,0.1,1,0.3c0.3,0.2,0.5,0.5,0.6,0.9h1.3c-0.1-0.7-0.5-1.3-1-1.8
				c-0.5-0.5-1.2-0.7-2-0.7c-0.7,0-1.2,0.2-1.6,0.5c-0.4,0.3-0.8,0.6-1,1c-0.1,0.2-0.2,0.5-0.3,0.8c-0.1,0.3-0.1,1-0.1,1.9
				c0,1,0,1.6,0.1,1.9C734.9,294,735,294.2,735,294.3z"/>
			<polygon class="st3" points="749.3,287.7 749.3,296.1 754.6,296.1 754.6,294.9 750.6,294.9 750.6,287.7 			"/>
			<rect x="762.9" y="287.7" class="st3" width="1.3" height="8.4"/>
			<polygon class="st3" points="772.9,287.7 772.9,296.1 774.2,296.1 774.2,290.2 774.2,290.2 778,296.1 779.2,296.1 779.2,287.7 
				777.9,287.7 777.9,293.7 777.9,293.7 774.1,287.7 			"/>
			<polygon class="st3" points="793.3,288.9 793.3,287.7 788,287.7 788,296.1 793.3,296.1 793.3,294.9 789.3,294.9 789.3,292.5 
				792.8,292.5 792.8,291.3 789.3,291.3 789.3,288.9 			"/>
			<path class="st3" d="M811.5,289.2c-0.1,0.2-0.2,0.5-0.3,0.8c-0.1,0.3-0.1,1-0.1,1.9c0,1,0,1.6,0.1,1.9c0,0.2,0.1,0.3,0.1,0.4
				c0,0.1,0.1,0.2,0.2,0.4c0.2,0.4,0.5,0.7,1,1c0.4,0.3,1,0.5,1.6,0.5c0.9,0,1.6-0.3,2.1-0.9c0.6-0.6,0.8-1.3,0.9-2.1v-1.7h-3v1.2
				h1.7v0.4c0,0.5-0.2,0.9-0.5,1.3c-0.3,0.3-0.7,0.5-1.2,0.5c-0.3,0-0.6-0.1-0.8-0.2c-0.2-0.1-0.4-0.2-0.5-0.4
				c-0.2-0.2-0.3-0.4-0.3-0.7c-0.1-0.3-0.1-0.8-0.1-1.7s0-1.4,0.1-1.7c0.1-0.3,0.2-0.5,0.3-0.7c0.1-0.2,0.3-0.3,0.5-0.4
				c0.2-0.1,0.5-0.2,0.8-0.2c0.4,0,0.7,0.1,1,0.3c0.3,0.2,0.5,0.5,0.6,0.9h1.3c-0.1-0.7-0.5-1.3-1-1.8c-0.5-0.5-1.2-0.7-2-0.7
				c-0.7,0-1.2,0.2-1.6,0.5C812.1,288.5,811.7,288.8,811.5,289.2z"/>
			<path class="st3" d="M825.7,289.2c-0.1,0.2-0.2,0.5-0.3,0.8c-0.1,0.3-0.1,1-0.1,1.9c0,1,0,1.6,0.1,1.9c0,0.2,0.1,0.3,0.1,0.4
				c0,0.1,0.1,0.2,0.2,0.4c0.2,0.4,0.5,0.7,1,1c0.4,0.3,1,0.5,1.6,0.5c0.7,0,1.2-0.2,1.7-0.5c0.4-0.3,0.8-0.6,1-1
				c0.1-0.2,0.2-0.5,0.3-0.8c0-0.3,0.1-1,0.1-1.9c0-1,0-1.6-0.1-1.9c-0.1-0.3-0.2-0.6-0.3-0.8c-0.2-0.4-0.5-0.7-1-1
				c-0.4-0.3-1-0.5-1.7-0.5c-0.7,0-1.2,0.2-1.6,0.5C826.3,288.5,825.9,288.8,825.7,289.2z M826.7,290.2c0.1-0.3,0.2-0.5,0.3-0.7
				c0.1-0.2,0.3-0.3,0.5-0.4c0.2-0.1,0.5-0.2,0.8-0.2c0.3,0,0.6,0.1,0.8,0.2c0.2,0.1,0.4,0.3,0.5,0.4c0.2,0.2,0.3,0.4,0.3,0.7
				c0.1,0.3,0.1,0.9,0.1,1.7s0,1.4-0.1,1.7c-0.1,0.3-0.2,0.5-0.3,0.7c-0.1,0.2-0.3,0.3-0.5,0.4c-0.2,0.1-0.5,0.2-0.8,0.2
				c-0.3,0-0.6-0.1-0.8-0.2c-0.2-0.1-0.4-0.2-0.5-0.4c-0.2-0.2-0.3-0.4-0.3-0.7c-0.1-0.3-0.1-0.8-0.1-1.7S826.7,290.5,826.7,290.2z"
				/>
			<polygon class="st3" points="839.9,296.1 845.2,296.1 845.2,294.9 841.1,294.9 841.1,292.5 844.6,292.5 844.6,291.3 841.1,291.3 
				841.1,288.9 845.2,288.9 845.2,287.7 839.9,287.7 			"/>
			<path class="st3" d="M855.9,294.9c-0.9,0-1.7-0.3-2.4-0.8l-0.8,1c0.9,0.8,2,1.1,3.2,1.1c1.9,0,2.9-0.8,2.9-2.4
				c0-0.6-0.2-1.1-0.6-1.6c-0.4-0.5-1-0.7-1.7-0.8c-0.4,0-0.7-0.1-0.9-0.1c-0.4-0.1-0.7-0.2-0.9-0.4c-0.2-0.2-0.3-0.4-0.3-0.7
				c0-0.4,0.1-0.7,0.4-0.9c0.3-0.2,0.6-0.3,1-0.3c0.8,0,1.4,0.2,2.1,0.6l0.7-1c-0.8-0.6-1.7-0.8-2.7-0.9c-0.9,0-1.5,0.2-2,0.7
				c-0.5,0.4-0.7,1-0.7,1.8c0,0.6,0.2,1.1,0.6,1.5c0.4,0.4,0.9,0.7,1.6,0.8c0.4,0.1,0.8,0.1,1.1,0.2c0.7,0.1,1.1,0.5,1.1,1.1
				C857.5,294.5,857,294.9,855.9,294.9z"/>
			<polygon class="st3" points="877.1,287.7 877.1,296.1 878.3,296.1 878.3,292.5 881.6,292.5 881.6,296.1 882.9,296.1 882.9,287.7 
				881.6,287.7 881.6,291.3 878.3,291.3 878.3,287.7 			"/>
			<polygon class="st3" points="897.1,294.9 893,294.9 893,292.5 896.5,292.5 896.5,291.3 893,291.3 893,288.9 897.1,288.9 
				897.1,287.7 891.7,287.7 891.7,296.1 897.1,296.1 			"/>
			<path class="st3" d="M906.6,292.5h1.6l1.7,3.6h1.5l-1.9-3.7c1.1-0.4,1.6-1.2,1.6-2.3c0-0.8-0.3-1.4-0.8-1.8
				c-0.4-0.4-1-0.6-1.7-0.6h-3.3v8.4h1.3V292.5z M906.6,288.9h2c0.4,0,0.7,0.1,0.9,0.3c0.3,0.2,0.4,0.5,0.4,0.9
				c0,0.4-0.1,0.7-0.3,0.9c-0.2,0.3-0.6,0.4-1.1,0.4h-1.9V288.9z"/>
			<polygon class="st3" points="924.8,288.9 924.8,287.7 919.5,287.7 919.5,296.1 924.8,296.1 924.8,294.9 920.8,294.9 920.8,292.5 
				924.2,292.5 924.2,291.3 920.8,291.3 920.8,288.9 			"/>
			<path class="st3" d="M852.1,146.2v28h-70.7c-1.9,0-3.6-0.2-5.4-0.5c-0.3-0.1-0.5-0.1-0.8-0.2c-3.9-0.9-7.6-2.5-10.7-4.8
				c-7.2-5.2-11.8-13.7-11.8-23.2V48.6c14.2,8.1,23.3,23.3,23.3,40v45.8c0,9,7.3,16.4,16.4,16.4h48.2
				C845.1,150.9,849.1,149.1,852.1,146.2z"/>
			<path class="st3" d="M880.3,48.6v54.1c-5-7.4-12.9-12.8-22.2-14.6c-0.4-0.1-0.7-0.1-1.1-0.2C857.3,71.5,866.3,56.6,880.3,48.6z"
				/>
			<path class="st2" d="M880.3,122.2V219c-14.2-8.1-23.3-23.3-23.3-40v-45.8c0-9-7.4-16.4-16.4-16.4h-48.2c-4.5,0-8.5,1.8-11.5,4.7
				v-28h70.7c1.9,0,3.7,0.2,5.4,0.5C870.3,96.5,880.3,108.2,880.3,122.2z"/>
			<path class="st2" d="M776,179.8c-0.3,16.4-9.3,31.3-23.3,39.3v-54.1c2.2,3.3,5,6.2,8.3,8.6c3.9,2.8,8.3,4.8,13,5.8l0.2,0
				c0.3,0.1,0.5,0.1,0.7,0.2C775.2,179.6,775.6,179.7,776,179.8z"/>
		</g>
		<g>
			<path class="st1" d="M447.6,591c-0.5-1.2-1.4-2.1-2.4-2.8c-1.1-0.6-2.2-1-3.6-1c-1.9,0-3.5,0.6-4.8,1.9c-1.3,1.2-2,3.4-2,6.4
				c0,2.4,0.7,4.3,1.9,5.6c1.3,1.3,2.9,2,4.9,2c2,0,3.6-0.7,4.9-2.1c1.3-1.4,1.9-3.3,1.9-5.9C448.4,593.6,448.2,592.2,447.6,591z"/>
			<path class="st1" d="M509.4,620.9c0.1,0.2,0.3,0.3,0.5,0.4c0.2,0.1,0.4,0.2,0.7,0.2c0.3,0,0.5-0.1,0.7-0.2
				c0.2-0.1,0.3-0.2,0.4-0.4c0.1-0.2,0.2-0.4,0.3-0.6c0.1-0.3,0.1-0.8,0.1-1.5c0-0.7,0-1.2-0.1-1.5c-0.1-0.3-0.2-0.5-0.3-0.6
				c-0.1-0.2-0.3-0.3-0.4-0.4c-0.2-0.1-0.4-0.2-0.7-0.2c-0.3,0-0.5,0.1-0.7,0.2c-0.2,0.1-0.4,0.2-0.5,0.4c-0.1,0.2-0.2,0.4-0.3,0.6
				c-0.1,0.3-0.1,0.8-0.1,1.5c0,0.7,0,1.2,0.1,1.5C509.1,620.5,509.2,620.7,509.4,620.9z"/>
			
				<rect x="430.5" y="445.8" transform="matrix(0.7071 -0.7071 0.7071 0.7071 -196.5554 452.9742)" class="st1" width="35.9" height="35.9"/>
			<polygon class="st1" points="417.5,616.6 416.4,619.8 418.6,619.8 417.5,616.6 			"/>
			<path class="st1" d="M581.9,616.1h-1.8v2.3h1.7c0.4,0,0.7-0.1,0.9-0.4c0.2-0.2,0.3-0.5,0.3-0.8c0-0.4-0.1-0.7-0.4-0.8
				C582.5,616.1,582.2,616.1,581.9,616.1z"/>
			
				<rect x="481.9" y="394.4" transform="matrix(0.7071 -0.7071 0.7071 0.7071 -145.1956 474.2418)" class="st1" width="35.9" height="35.9"/>
			
				<rect x="481.9" y="497.1" transform="matrix(0.7071 -0.7071 0.7071 0.7071 -217.8292 504.3347)" class="st1" width="35.9" height="35.9"/>
			
				<rect x="533.3" y="445.8" transform="matrix(0.7071 -0.7071 0.7071 0.7071 -166.4689 525.6084)" class="st1" width="35.9" height="35.9"/>
			
				<rect x="515.6" y="439.2" transform="matrix(0.7071 -0.7071 0.7071 0.7071 -159.1744 507.9977)" class="st2" width="35.9" height="13.9"/>
			
				<rect x="464.3" y="490.6" transform="matrix(0.7071 -0.7071 0.7071 0.7071 -210.5345 486.7102)" class="st2" width="35.9" height="13.9"/>
			
				<rect x="499.5" y="423.1" transform="matrix(0.7071 -0.7071 0.7071 0.7071 -152.4895 491.8589)" class="st2" width="35.9" height="13.9"/>
			
				<rect x="448.1" y="474.4" transform="matrix(0.7071 -0.7071 0.7071 0.7071 -203.8498 470.5783)" class="st2" width="35.9" height="13.9"/>
			
				<rect x="459.2" y="428.2" transform="matrix(0.7071 -0.7071 0.7071 0.7071 -178.9448 460.2623)" class="st2" width="13.9" height="35.9"/>
			
				<rect x="475.3" y="412" transform="matrix(0.7071 -0.7071 0.7071 0.7071 -162.8063 466.9439)" class="st2" width="13.9" height="35.9"/>
			
				<rect x="526.7" y="463.4" transform="matrix(0.7071 -0.7071 0.7071 0.7071 -184.08 518.3069)" class="st2" width="13.9" height="35.9"/>
			
				<rect x="510.5" y="479.5" transform="matrix(0.7071 -0.7071 0.7071 0.7071 -200.2186 511.6221)" class="st2" width="13.9" height="35.9"/>
			<polygon class="st3" points="535.1,524.9 525.3,515.1 499.9,540.5 474.5,515.1 464.6,524.9 499.9,560.1 			"/>
			<polygon class="st3" points="448.5,438.3 438.7,428.5 403.5,463.7 438.7,499 448.5,489.2 423.1,463.7 			"/>
			<polygon class="st3" points="561,428.5 551.2,438.3 576.6,463.7 551.2,489.2 561,499 596.3,463.7 			"/>
			<polygon class="st3" points="525.3,412.4 535.1,402.6 499.9,367.4 464.6,402.6 474.5,412.4 499.9,387 			"/>
			<path class="st3" d="M418.9,604.1c1.5-1.2,2.6-2.9,3.1-5.1l0.1-0.2l-3.1-0.8l-0.1,0.2c-0.4,1.6-1.1,2.9-2.1,3.7
				c-1,0.8-2.3,1.2-3.8,1.2c-1.2,0-2.3-0.3-3.4-0.9c-1-0.6-1.8-1.5-2.3-2.8c-0.5-1.2-0.8-2.7-0.8-4.4c0-1.3,0.2-2.6,0.6-3.8
				c0.4-1.2,1.2-2.2,2.2-2.9c1-0.7,2.3-1.1,3.9-1.1c1.3,0,2.4,0.3,3.3,1c0.9,0.6,1.5,1.7,2,3.1l0.1,0.2l3-0.7l-0.1-0.2
				c-0.6-1.9-1.6-3.4-3-4.4c-1.4-1-3.2-1.5-5.3-1.5c-1.8,0-3.5,0.4-5.1,1.2c-1.5,0.9-2.7,2.1-3.6,3.6c-0.8,1.6-1.2,3.5-1.2,5.6
				c0,1.9,0.4,3.8,1.1,5.5c0.7,1.7,1.8,3,3.3,3.9c1.4,0.9,3.3,1.4,5.5,1.4C415.6,605.8,417.4,605.2,418.9,604.1z"/>
			<path class="st3" d="M450.3,600.8c0.9-1.6,1.3-3.5,1.3-5.6c0-2-0.4-3.9-1.2-5.5c-0.8-1.6-2-2.9-3.6-3.8c-1.5-0.9-3.3-1.4-5.2-1.4
				c-2.9,0-5.4,1-7.2,2.9c-1.9,1.9-2.8,4.6-2.8,8c0,1.8,0.4,3.5,1.2,5.1c0.8,1.6,2,2.9,3.5,3.8c1.5,0.9,3.3,1.4,5.3,1.4
				c1.8,0,3.5-0.4,5.1-1.3C448.2,603.7,449.5,602.5,450.3,600.8z M441.6,603.2c-1.9,0-3.6-0.7-4.9-2c-1.3-1.4-1.9-3.3-1.9-5.6
				c0-2.9,0.7-5.1,2-6.4c1.3-1.2,3-1.9,4.8-1.9c1.3,0,2.5,0.3,3.6,1c1,0.6,1.9,1.6,2.4,2.8c0.5,1.2,0.8,2.6,0.8,4.2
				c0,2.5-0.6,4.5-1.9,5.9C445.2,602.5,443.6,603.2,441.6,603.2z"/>
			<rect x="479.3" y="585.3" class="st3" width="2.9" height="20.5"/>
			<path class="st3" d="M473.6,605.8l4.6-13v-7.3l-4.9,13.9c-0.4,1.1-0.7,2-0.9,2.7l-0.8-2.4l-4.9-14.4h-0.3v7.4l4.5,13.1H473.6z"/>
			<rect x="462.3" y="585.3" class="st3" width="3" height="20.5"/>
			<path class="st3" d="M507.2,595.8c1.2-1.2,1.7-2.7,1.7-4.5c0-1-0.2-2-0.6-2.8c-0.5-0.9-1-1.5-1.7-2c-0.7-0.5-1.6-0.8-2.6-1
				c-0.7-0.2-1.8-0.2-3.2-0.2H497v2.7h4c1.2,0,2,0.1,2.5,0.2c0.7,0.2,1.2,0.5,1.6,1.1c0.4,0.6,0.6,1.2,0.6,2.1c0,1.1-0.3,1.9-1,2.6
				c-0.7,0.6-1.9,0.9-3.6,0.9h-4v2.8h4C503.9,597.7,506,597,507.2,595.8z"/>
			<rect x="492.9" y="585.3" class="st3" width="3.1" height="20.5"/>
			<path class="st3" d="M530.7,585.3h-3.2l-8,20.5h3.3l0.9-2.4h0l2.3-6.2l0.5-1.3l1.7-4.5h0c0.4-1,0.7-2,0.9-3
				c0.3,1,0.7,2.2,1.2,3.5l2.1,5.3h-5.3l-0.9,2.5h7.2l2.4,6.1h3.5L530.7,585.3z"/>
			<polygon class="st3" points="563.1,600.6 563.1,605.8 566.2,605.8 566.2,585.3 563.2,585.3 563.2,600.7 			"/>
			<rect x="549.6" y="585.3" class="st3" width="2.9" height="20.5"/>
			<polygon class="st3" points="562,599 553.6,586.7 553.6,591.9 562,604.3 			"/>
			<path class="st3" d="M592.7,585.3l-4,6c-0.8,1.2-1.5,2.3-2.1,3.3v0l-1.7,2.6v8.7h3.1v-8.7l8.4-11.9H592.7z"/>
			<polygon class="st3" points="584.7,591.5 580.6,585.3 576.8,585.3 584.2,596.2 585.9,593.5 			"/>
			<polygon class="st3" points="406.7,622.5 406.7,616.1 408.8,616.1 408.8,615.1 403.6,615.1 403.6,616.1 405.6,616.1 405.6,622.5 
							"/>
			<path class="st3" d="M417,615.1l-2.7,7.4h1.2l0.6-1.7h2.8l0.6,1.7h1.2l-2.7-7.4H417z M416.4,619.8l1.1-3.2h0l1.1,3.2H416.4z"/>
			<path class="st3" d="M428.8,616.7c0.1-0.2,0.3-0.3,0.5-0.4c0.2-0.1,0.4-0.2,0.7-0.2c0.4,0,0.7,0.1,0.9,0.3
				c0.2,0.2,0.4,0.5,0.5,0.8h1.2c-0.1-0.6-0.4-1.1-0.9-1.6c-0.5-0.4-1-0.6-1.8-0.6c-0.6,0-1.1,0.1-1.5,0.4c-0.4,0.3-0.7,0.6-0.9,0.9
				c-0.1,0.2-0.2,0.4-0.3,0.7c-0.1,0.3-0.1,0.9-0.1,1.7c0,0.9,0,1.4,0.1,1.7c0,0.2,0.1,0.3,0.1,0.4c0,0.1,0.1,0.2,0.1,0.3
				c0.2,0.3,0.5,0.6,0.9,0.9c0.4,0.3,0.9,0.4,1.5,0.4c0.8,0,1.4-0.3,1.9-0.8c0.5-0.5,0.8-1.1,0.8-1.9v-1.5h-2.6v1.1h1.5v0.4
				c0,0.5-0.2,0.8-0.4,1.1c-0.3,0.3-0.6,0.4-1.1,0.4c-0.3,0-0.5-0.1-0.7-0.2c-0.2-0.1-0.4-0.2-0.5-0.4c-0.1-0.2-0.2-0.4-0.3-0.6
				c-0.1-0.3-0.1-0.8-0.1-1.5c0-0.7,0-1.2,0.1-1.5C428.5,617,428.6,616.8,428.8,616.7z"/>
			<polygon class="st3" points="440.2,615.1 440.2,622.5 444.9,622.5 444.9,621.4 441.3,621.4 441.3,615.1 			"/>
			<rect x="452.2" y="615.1" class="st3" width="1.1" height="7.4"/>
			<polygon class="st3" points="462.3,617.2 462.3,617.2 465.7,622.5 466.8,622.5 466.8,615.1 465.6,615.1 465.6,620.3 465.6,620.3 
				462.3,615.1 461.2,615.1 461.2,622.5 462.3,622.5 			"/>
			<polygon class="st3" points="479.4,616.1 479.4,615.1 474.6,615.1 474.6,622.5 479.4,622.5 479.4,621.4 475.7,621.4 475.7,619.2 
				478.8,619.2 478.8,618.2 475.7,618.2 475.7,616.1 			"/>
			<path class="st3" d="M495.4,620.9c0,0.1,0.1,0.2,0.1,0.3c0.2,0.3,0.5,0.6,0.9,0.9c0.4,0.3,0.9,0.4,1.5,0.4c0.8,0,1.4-0.3,1.9-0.8
				c0.5-0.5,0.8-1.1,0.8-1.9v-1.5h-2.6v1.1h1.5v0.4c0,0.5-0.2,0.8-0.4,1.1c-0.3,0.3-0.6,0.4-1.1,0.4c-0.3,0-0.5-0.1-0.7-0.2
				c-0.2-0.1-0.4-0.2-0.5-0.4c-0.1-0.2-0.2-0.4-0.3-0.6c-0.1-0.3-0.1-0.8-0.1-1.5c0-0.7,0-1.2,0.1-1.5c0-0.3,0.1-0.5,0.3-0.6
				c0.1-0.2,0.3-0.3,0.5-0.4c0.2-0.1,0.4-0.2,0.7-0.2c0.4,0,0.7,0.1,0.9,0.3c0.2,0.2,0.4,0.5,0.5,0.8h1.2c-0.1-0.6-0.4-1.1-0.9-1.6
				c-0.5-0.4-1-0.6-1.8-0.6c-0.6,0-1.1,0.1-1.5,0.4c-0.4,0.3-0.7,0.6-0.9,0.9c-0.1,0.2-0.2,0.4-0.3,0.7c-0.1,0.3-0.1,0.9-0.1,1.7
				c0,0.9,0,1.4,0.1,1.7C495.3,620.7,495.3,620.8,495.4,620.9z"/>
			<path class="st3" d="M508,620.9c0,0.1,0.1,0.2,0.1,0.3c0.2,0.3,0.5,0.6,0.9,0.9c0.4,0.3,0.9,0.4,1.5,0.4c0.6,0,1.1-0.2,1.5-0.4
				c0.4-0.3,0.7-0.6,0.8-0.9c0.1-0.2,0.2-0.4,0.3-0.7c0-0.3,0.1-0.9,0.1-1.7c0-0.9,0-1.4-0.1-1.7c0-0.3-0.1-0.5-0.3-0.7
				c-0.2-0.3-0.5-0.6-0.8-0.9c-0.4-0.3-0.9-0.4-1.5-0.4c-0.6,0-1.1,0.1-1.5,0.4c-0.4,0.3-0.7,0.6-0.9,0.9c-0.1,0.2-0.2,0.4-0.2,0.7
				c-0.1,0.3-0.1,0.9-0.1,1.7c0,0.9,0,1.4,0.1,1.7C508,620.7,508,620.8,508,620.9z M509.1,617.3c0-0.3,0.1-0.5,0.3-0.6
				c0.1-0.2,0.3-0.3,0.5-0.4c0.2-0.1,0.4-0.2,0.7-0.2c0.3,0,0.5,0.1,0.7,0.2c0.2,0.1,0.3,0.2,0.4,0.4c0.1,0.2,0.2,0.4,0.3,0.6
				c0.1,0.3,0.1,0.8,0.1,1.5c0,0.7,0,1.2-0.1,1.5c-0.1,0.3-0.2,0.5-0.3,0.6c-0.1,0.2-0.3,0.3-0.4,0.4c-0.2,0.1-0.4,0.2-0.7,0.2
				c-0.3,0-0.5-0.1-0.7-0.2c-0.2-0.1-0.4-0.2-0.5-0.4c-0.1-0.2-0.2-0.4-0.3-0.6c-0.1-0.3-0.1-0.8-0.1-1.5
				C509,618,509,617.5,509.1,617.3z"/>
			<polygon class="st3" points="525.5,616.1 525.5,615.1 520.7,615.1 520.7,622.5 525.5,622.5 525.5,621.4 521.9,621.4 521.9,619.2 
				525,619.2 525,618.2 521.9,618.2 521.9,616.1 			"/>
			<path class="st3" d="M535,621.4c-0.8,0-1.5-0.3-2.1-0.7l-0.7,0.8c0.8,0.7,1.7,1,2.8,1c1.7,0,2.6-0.7,2.6-2.2c0-0.5-0.2-1-0.5-1.4
				c-0.3-0.4-0.8-0.7-1.5-0.8c-0.4,0-0.6-0.1-0.8-0.1c-0.4-0.1-0.6-0.2-0.8-0.4c-0.2-0.2-0.3-0.4-0.3-0.6c0-0.4,0.1-0.6,0.4-0.8
				c0.2-0.2,0.5-0.3,0.9-0.3c0.7,0,1.3,0.2,1.8,0.6l0.6-0.9c-0.7-0.5-1.5-0.8-2.4-0.8c-0.8,0-1.4,0.2-1.8,0.6
				c-0.4,0.4-0.6,0.9-0.6,1.6c0,0.5,0.2,1,0.5,1.4c0.3,0.4,0.8,0.6,1.5,0.7c0.4,0.1,0.7,0.1,1,0.1c0.7,0.1,1,0.4,1,1
				C536.5,621.1,536,621.4,535,621.4z"/>
			<polygon class="st3" points="559.1,622.5 559.1,615.1 557.9,615.1 557.9,618.2 555,618.2 555,615.1 553.9,615.1 553.9,622.5 
				555,622.5 555,619.2 557.9,619.2 557.9,622.5 			"/>
			<polygon class="st3" points="571.6,616.1 571.6,615.1 566.9,615.1 566.9,622.5 571.6,622.5 571.6,621.4 568,621.4 568,619.2 
				571.1,619.2 571.1,618.2 568,618.2 568,616.1 			"/>
			<path class="st3" d="M584.1,617.1c0-0.7-0.3-1.2-0.7-1.6c-0.4-0.3-0.9-0.5-1.5-0.5H579v7.4h1.1v-3.2h1.4l1.5,3.2h1.3l-1.7-3.3
				C583.6,618.8,584.1,618.1,584.1,617.1z M582.8,617.9c-0.2,0.2-0.5,0.4-0.9,0.4h-1.7v-2.3h1.8c0.4,0,0.6,0.1,0.8,0.2
				c0.2,0.2,0.4,0.5,0.4,0.8C583.1,617.5,583,617.7,582.8,617.9z"/>
			<polygon class="st3" points="596.4,616.1 596.4,615.1 591.6,615.1 591.6,622.5 596.4,622.5 596.4,621.4 592.7,621.4 592.7,619.2 
				595.8,619.2 595.8,618.2 592.7,618.2 592.7,616.1 			"/>
		</g>
	</g>
	<g>
		<polygon class="st8" points="65.6,159.1 65.6,159.1 59.6,148.7 12,66.3 0,66.3 53.6,159.1 53.6,159.1 53.6,159.1 65.6,159.1 		"/>
		<polygon class="st8" points="113.6,159.1 113.6,159.1 107.6,148.7 101.6,138.3 95.6,127.9 89.6,117.5 83.6,107.1 60,66.3 48,66.3 
			77.6,117.5 83.6,127.9 89.6,138.3 95.6,148.7 101.6,159.1 101.6,159.1 101.6,159.1 113.6,159.1 		"/>
		<polygon class="st8" points="131.6,148.7 125.6,138.3 119.6,127.9 113.6,117.5 107.6,107.1 101.6,96.8 95.6,86.4 84,66.3 72,66.3 
			89.6,96.7 101.6,117.5 107.6,127.9 113.6,138.3 119.6,148.7 125.6,159.1 125.6,159.1 125.6,159.1 137.6,159.1 137.6,159.1 
			137.6,159.1 		"/>
		<polygon class="st8" points="77.6,159.1 89.6,159.1 89.6,159.1 89.6,159.1 83.6,148.7 77.6,138.3 71.6,127.9 36,66.3 24,66.3 
			65.6,138.3 71.6,148.7 77.6,159.1 77.6,159.1 		"/>
		<polygon class="st9" points="157.4,0 145.4,0 101.6,75.9 107.6,86.3 		"/>
		<polygon class="st9" points="119.6,107 181.4,0 169.4,0 113.6,96.6 113.7,96.8 		"/>
		<polygon class="st9" points="131.6,127.8 205.4,0 193.4,0 125.6,117.4 125.7,117.5 		"/>
		<polygon class="st9" points="229.4,0 217.4,0 137.6,138.2 137.7,138.3 143.6,148.6 		"/>
	</g>
	<text transform="matrix(1 0 0 1 268.985 112.5027)" class="st10 st11 st12">Codrop</text>
	<g>
		<path class="st8" d="M331,95.4v17.3h-56.5V44.8h55.2v17.3H297v8h28.7v16.5H297v8.9H331z"/>
		<path class="st8" d="M382.3,112.7l-11.7-18.1l-11.4,18.1H333l24.5-34.2l-23.7-33.7h25.7l11.5,17.1l11.3-17.1H407l-23.6,32.8
			l25,35.1H382.3z"/>
		<path class="st8" d="M467.7,95.4v17.3h-56.5V44.8h55.2v17.3h-32.7v8h28.7v16.5h-28.7v8.9H467.7z"/>
		<path class="st8" d="M492.3,109.7c-5.8-3-10.3-7.2-13.5-12.6c-3.3-5.4-4.9-11.5-4.9-18.4c0-6.9,1.6-13,4.9-18.4
			c3.3-5.4,7.8-9.6,13.5-12.6c5.8-3,12.2-4.5,19.4-4.5c6.6,0,12.5,1.2,17.7,3.5s9.4,5.7,12.8,10.1l-14.5,12.9c-4.2-5.3-9.2-8-14.8-8
			c-4.8,0-8.6,1.5-11.5,4.6c-2.9,3.1-4.4,7.2-4.4,12.4c0,5.2,1.5,9.3,4.4,12.4c2.9,3.1,6.8,4.6,11.5,4.6c5.7,0,10.6-2.7,14.8-8
			l14.5,12.9c-3.4,4.4-7.6,7.8-12.8,10.1s-11.1,3.5-17.7,3.5C504.5,114.3,498,112.8,492.3,109.7z"/>
		<path class="st8" d="M563.2,109.7c-5.8-3-10.4-7.3-13.7-12.7c-3.3-5.4-4.9-11.5-4.9-18.3s1.6-12.9,4.9-18.3
			c3.3-5.4,7.9-9.6,13.7-12.7c5.8-3,12.4-4.6,19.7-4.6c7.3,0,13.9,1.5,19.7,4.6c5.8,3,10.4,7.3,13.7,12.7c3.3,5.4,4.9,11.5,4.9,18.3
			s-1.6,12.9-4.9,18.3c-3.3,5.4-7.9,9.6-13.7,12.7c-5.8,3-12.4,4.6-19.7,4.6C575.6,114.3,569,112.7,563.2,109.7z M590.6,93.6
			c2.3-1.4,4.1-3.4,5.5-5.9c1.4-2.6,2-5.5,2-9c0-3.4-0.7-6.4-2-9c-1.4-2.6-3.2-4.5-5.5-5.9c-2.3-1.4-4.9-2.1-7.7-2.1
			c-2.8,0-5.4,0.7-7.7,2.1c-2.3,1.4-4.1,3.4-5.5,5.9c-1.4,2.6-2,5.5-2,9c0,3.4,0.7,6.4,2,9c1.4,2.6,3.2,4.5,5.5,5.9
			c2.3,1.4,4.9,2.1,7.7,2.1C585.7,95.7,588.3,95,590.6,93.6z"/>
		<path class="st8" d="M645.4,109.7c-5.8-3-10.4-7.3-13.7-12.7c-3.3-5.4-4.9-11.5-4.9-18.3s1.6-12.9,4.9-18.3
			c3.3-5.4,7.9-9.6,13.7-12.7c5.8-3,12.4-4.6,19.7-4.6c7.3,0,13.9,1.5,19.7,4.6c5.8,3,10.4,7.3,13.7,12.7c3.3,5.4,4.9,11.5,4.9,18.3
			s-1.6,12.9-4.9,18.3c-3.3,5.4-7.9,9.6-13.7,12.7c-5.8,3-12.4,4.6-19.7,4.6C657.8,114.3,651.3,112.7,645.4,109.7z M672.8,93.6
			c2.3-1.4,4.1-3.4,5.5-5.9c1.4-2.6,2-5.5,2-9c0-3.4-0.7-6.4-2-9c-1.4-2.6-3.2-4.5-5.5-5.9c-2.3-1.4-4.9-2.1-7.7-2.1
			c-2.8,0-5.4,0.7-7.7,2.1c-2.3,1.4-4.1,3.4-5.5,5.9c-1.4,2.6-2,5.5-2,9c0,3.4,0.7,6.4,2,9c1.4,2.6,3.2,4.5,5.5,5.9
			c2.3,1.4,4.9,2.1,7.7,2.1C668,95.7,670.5,95,672.8,93.6z"/>
		<path class="st8" d="M740.9,95.6h-6.2v17.1h-22.9V44.8h32.7c6.3,0,11.7,1,16.4,3.1c4.7,2.1,8.2,5,10.8,8.9
			c2.5,3.9,3.8,8.4,3.8,13.6c0,4.9-1.1,9.1-3.3,12.7c-2.2,3.6-5.4,6.5-9.5,8.6l14.3,21h-24.4L740.9,95.6z M750,64.5
			c-1.6-1.4-3.9-2.1-7-2.1h-8.3v15.9h8.3c3.1,0,5.4-0.7,7-2.1c1.6-1.4,2.3-3.3,2.3-5.9S751.6,65.9,750,64.5z"/>
		<path class="st8" d="M840.5,95.4v17.3h-56.5V44.8h55.2v17.3h-32.7v8h28.7v16.5h-28.7v8.9H840.5z"/>
	</g>
</g>
</svg>
