<?xml version="1.0" encoding="utf-8"?>
<!-- Generator: Adobe Illustrator 19.2.1, SVG Export Plug-In . SVG Version: 6.00 Build 0)  -->
<svg version="1.1" id="Livello_1" xmlns="http://www.w3.org/2000/svg" xmlns:xlink="http://www.w3.org/1999/xlink" x="0px" y="0px"
	 viewBox="0 0 800 500" style="enable-background:new 0 0 800 500;" xml:space="preserve">
<style type="text/css">
	.st0{fill:#FFFFFF;}
	.st1{fill:#3DB2E2;}
	.st2{fill:#D9EBF9;}
</style>
<title>icon-1</title>
<rect class="st0" width="800" height="500"/>
<path class="st1" d="M310.3,232.2l-5,5v-5H310.3z"/>
<path class="st2" d="M369.8,167.7v39.7c0,5.5-4.4,9.9-9.9,9.9h-30.6c-2.6,0-5.2,1.1-7,2.9l-12,12h-5v-14.9h-24.8
	c-5.5,0-9.9-4.4-9.9-9.9v-39.7c0-5.5,4.4-9.9,9.9-9.9h79.4C365.4,157.8,369.8,162.2,369.8,167.7z"/>
<path class="st2" d="M211.1,445.5h-24.8v-12c0-13.4,9-25.2,21.9-28.7l25.9-7l21.6,18l21.6-18l25.9,7c12.9,3.6,21.9,15.3,21.9,28.7
	v12H211.1z"/>
<path class="st2" d="M290.4,331.4v14.9h-8.2c-6.8,0-12.8-4.7-14.4-11.3l-2.1-8.6l-3,4c-7.5,10-19.3,15.9-31.7,15.9H221v-14.9
	c0-19.2,15.5-34.7,34.7-34.7S290.4,312.2,290.4,331.4z"/>
<path class="st2" d="M211.1,281.8v49.6c0,5.5-4.4,9.9-9.9,9.9h-19.8v19.8l-19.8-19.8h-49.6c-5.5,0-9.9-4.4-9.9-9.9v-49.6
	c0-5.5,4.4-9.9,9.9-9.9h89.3C206.6,271.9,211.1,276.3,211.1,281.8z"/>
<g>
	<path class="st1" d="M304.5,400l-29-7.9v-7.4c9.3-6.5,14.9-17.1,14.9-28.4v-5c2.7,0,5-2.2,5-5v-14.9c0-21.9-17.8-39.7-39.7-39.7
		S216,309.5,216,331.4v14.9c0,2.7,2.2,5,5,5v5c0,11.3,5.6,22,14.9,28.4v7.4l-29,7.9c-15.1,4.2-25.5,17.9-25.6,33.5v12
		c0,2.7,2.2,5,5,5h138.9c2.7,0,5-2.2,5-5v-12C330.1,417.8,319.6,404.1,304.5,400z M226,331.4c0-16.4,13.3-29.8,29.8-29.8
		s29.8,13.3,29.8,29.8v9.9h-3.3c-4.6,0-8.5-3.1-9.6-7.5l-2.1-8.6c-0.5-1.9-2-3.3-3.8-3.7c-0.3-0.1-0.7-0.1-1-0.1c-1.6,0-3,0.7-4,2
		l-3,4c-6.6,8.7-16.9,13.9-27.8,13.9h-5V331.4z M230.9,356.2v-5c12.2,0,23.9-5,32.4-13.9c2.4,7.7,9.2,13.1,17.2,13.7v5.1
		c0,13.7-11.1,24.8-24.8,24.8C242,381,230.9,369.9,230.9,356.2z M255.7,390.9c3.4,0,6.7-0.5,9.9-1.5v6.4c0,1.4,0.6,2.8,1.7,3.7
		l-11.7,9.7l-11.7-9.7c1.1-0.9,1.7-2.3,1.7-3.7v-6.4C249,390.4,252.4,390.9,255.7,390.9z M320.2,440.5h-14.9v-14.9h-9.9v14.9H216
		v-14.9h-9.9v14.9h-14.9v-7c0-11.2,7.5-21,18.3-23.9l23.4-6.4l19.6,16.4c1.8,1.5,4.5,1.5,6.4,0l19.6-16.4l23.4,6.4
		c10.8,3,18.2,12.8,18.3,23.9V440.5z"/>
	<path class="st1" d="M379.7,227.2h-49.6v9.9h49.6c2.7,0,5,2.2,5,5v49.6c0,2.7-2.2,5-5,5h-49.6c-1.3,0-2.6,0.5-3.5,1.5l-11.4,11.4
		v-7.9c0-2.7-2.2-5-5-5h-19.8v9.9h14.9v14.9c0,2,1.2,3.8,3.1,4.6c0.6,0.3,1.2,0.4,1.9,0.4c1.3,0,2.6-0.5,3.5-1.5l18.4-18.4h47.5
		c8.2,0,14.9-6.7,14.9-14.9v-49.6C394.6,233.9,387.9,227.2,379.7,227.2z"/>
	<path class="st1" d="M275.6,242.1v44.6h9.9v-44.6c0-2.7,2.2-5,5-5v-9.9C282.2,227.2,275.6,233.9,275.6,242.1z"/>
	<path class="st1" d="M183.2,365.7c1.9-0.8,3.1-2.6,3.1-4.6v-14.9h14.9c2.6,0,5.2-0.7,7.4-2l-5-8.6c-0.8,0.4-1.6,0.7-2.5,0.7h-19.8
		c-2.7,0-5,2.2-5,5v7.9L165,337.8c-0.9-0.9-2.2-1.5-3.5-1.5h-49.6c-2.7,0-5-2.2-5-5v-49.6c0-2.7,2.2-5,5-5h89.3c2.7,0,5,2.2,5,5
		v39.7h9.9v-39.7c0-8.2-6.7-14.9-14.9-14.9h-89.3c-8.2,0-14.9,6.7-14.9,14.9v49.6c0,8.2,6.7,14.9,14.9,14.9h47.5l18.4,18.4
		c0.9,0.9,2.2,1.5,3.5,1.5C182,366.1,182.6,366,183.2,365.7z"/>
	<path class="st1" d="M151.6,242.1h30.6c1.3,0,2.6,0.5,3.5,1.5l16.9,16.9c0.9,0.9,2.2,1.5,3.5,1.5c0.7,0,1.3-0.1,1.9-0.4
		c1.9-0.8,3.1-2.6,3.1-4.6v-14.9h19.8c8.2,0,14.9-6.7,14.9-14.9v-39.7c0-8.2-6.7-14.9-14.9-14.9h-79.4c-8.2,0-14.9,6.7-14.9,14.9
		v39.7C136.7,235.5,143.3,242.1,151.6,242.1z M146.6,187.6c0-2.7,2.2-5,5-5h79.4c2.7,0,5,2.2,5,5v39.7c0,2.7-2.2,5-5,5h-24.8
		c-2.7,0-5,2.2-5,5v7.9l-8.5-8.5c-2.8-2.8-6.6-4.4-10.5-4.4h-30.6c-2.7,0-5-2.2-5-5V187.6z"/>
	<path class="st1" d="M280.5,222.3h19.8v14.9c0,2,1.2,3.8,3.1,4.6c0.6,0.3,1.2,0.4,1.9,0.4c1.3,0,2.6-0.5,3.5-1.5l16.9-16.9
		c0.9-0.9,2.2-1.5,3.5-1.5h30.6c8.2,0,14.9-6.7,14.9-14.9v-39.7c0-8.2-6.7-14.9-14.9-14.9h-79.4c-8.2,0-14.9,6.7-14.9,14.9v39.7
		C265.6,215.6,272.3,222.3,280.5,222.3z M275.6,167.7c0-2.7,2.2-5,5-5h79.4c2.7,0,5,2.2,5,5v39.7c0,2.7-2.2,5-5,5h-30.6
		c-4,0-7.7,1.6-10.5,4.4l-8.5,8.5v-7.9c0-2.7-2.2-5-5-5h-24.8c-2.7,0-5-2.2-5-5V167.7z"/>
	<path class="st1" d="M151.6,301.6h9.9v9.9h-9.9V301.6z"/>
	<path class="st1" d="M171.4,301.6h9.9v9.9h-9.9V301.6z"/>
	<path class="st1" d="M131.7,301.6h9.9v9.9h-9.9V301.6z"/>
	<path class="st1" d="M186.3,202.4h9.9v9.9h-9.9V202.4z"/>
	<path class="st1" d="M206.1,202.4h9.9v9.9h-9.9V202.4z"/>
	<path class="st1" d="M166.4,202.4h9.9v9.9h-9.9V202.4z"/>
	<path class="st1" d="M315.2,182.6h9.9v9.9h-9.9V182.6z"/>
	<path class="st1" d="M335.1,182.6h9.9v9.9h-9.9V182.6z"/>
	<path class="st1" d="M295.4,182.6h9.9v9.9h-9.9V182.6z"/>
	<path class="st1" d="M330.1,262h9.9v9.9h-9.9V262z"/>
	<path class="st1" d="M350,262h9.9v9.9H350V262z"/>
	<path class="st1" d="M310.3,262h9.9v9.9h-9.9V262z"/>
</g>
</svg>
