<svg id="Livello_1" data-name="Livello 1" xmlns="http://www.w3.org/2000/svg" viewBox="0 0 800 296.52"><defs><style>.cls-1{fill:#fff;opacity:0;}.cls-2{fill:#d9ebf9;}.cls-3{fill:#3db2e2;}</style></defs><title>icon-11</title><rect class="cls-1" width="800" height="296.52"/><path class="cls-2" d="M248.46,217.65v22.18a7.39,7.39,0,1,1-14.79,0V217.65h14.79Z"/><path class="cls-2" d="M283,217.65v22.18a7.39,7.39,0,0,1-14.79,0V217.65H283Z"/><path class="cls-2" d="M287.89,173.29v29.57H228.74V173.29a19.72,19.72,0,0,1,19.72-19.72h19.72A19.72,19.72,0,0,1,287.89,173.29Z"/><path class="cls-2" d="M110.89,7a88.65,88.65,0,0,1,42.34,154.82l-23.07-23.07L145,119.07V99.36L125.24,84.57V69.78L90.73,55V35.28Z"/><path class="cls-2" d="M85.8,168.36l-9.86-14.79V138.79l9.86-9.86h19.72l9.86,9.86v14.79l-9.86,4.93h-4.93V183c-1.63.1-3.3,0.15-4.93,0.15a93.67,93.67,0,0,1-9.86-.54V168.36Z"/><path class="cls-2" d="M80.87,84.57v19.72L56.23,119.07,51.3,133.86v19.72L40.75,164.12a88.67,88.67,0,0,1,4.44-142.6l11,8.82,9.86,19.72V69.78Z"/><path class="cls-3" d="M292.82,199.31v-26a24.67,24.67,0,0,0-24.65-24.65h-4.93V25.42A24.67,24.67,0,0,0,238.6.78H223.82a24.67,24.67,0,0,0-24.65,24.65V262a24.68,24.68,0,0,1-24.65,24.65H125.24A24.68,24.68,0,0,1,100.59,262V222.58h9.86a9.86,9.86,0,0,0,9.86-9.86V207.8a9.86,9.86,0,0,0,9.86-9.86V181.41a93.65,93.65,0,1,0-69,0v16.53A9.86,9.86,0,0,0,71,207.8v4.93a9.86,9.86,0,0,0,9.86,9.86h9.86V262a34.54,34.54,0,0,0,34.5,34.5h49.29A34.54,34.54,0,0,0,209,262V25.42a14.79,14.79,0,0,1,14.79-14.79H238.6a14.79,14.79,0,0,1,14.79,14.79V148.65h-4.93a24.67,24.67,0,0,0-24.65,24.65v26a9.82,9.82,0,0,0-4.93,8.49v4.93a9.86,9.86,0,0,0,9.86,9.86v17.25a12.32,12.32,0,0,0,24.65,0V222.58h9.86v17.25a12.32,12.32,0,0,0,24.65,0V222.58a9.86,9.86,0,0,0,9.86-9.86V207.8A9.82,9.82,0,0,0,292.82,199.31ZM179.45,94.43A83.49,83.49,0,0,1,153.37,155l-16.7-16.7L148.89,122a4.93,4.93,0,0,0,1-3V99.36a4.94,4.94,0,0,0-2-3.94L130.16,82.11V69.78a4.93,4.93,0,0,0-3-4.53L95.66,51.75V36.86l17.4-24.38A83.92,83.92,0,0,1,179.45,94.43ZM102,11L86.72,32.42a4.92,4.92,0,0,0-.92,2.86V55a4.93,4.93,0,0,0,3,4.53L120.31,73V84.57a4.93,4.93,0,0,0,2,3.94L140,101.82v15.61l-13.8,18.4a4.93,4.93,0,0,0,.46,6.44l19.13,19.13a83.32,83.32,0,0,1-40.29,16.19V163.43a4.94,4.94,0,0,0,2.2-.49l9.86-4.93a4.93,4.93,0,0,0,2.73-4.44V138.79a4.93,4.93,0,0,0-1.44-3.48L109,125.45a4.93,4.93,0,0,0-3.48-1.44H85.8a4.93,4.93,0,0,0-3.48,1.44l-9.86,9.86A4.93,4.93,0,0,0,71,138.79v14.79a5,5,0,0,0,.83,2.73l9,13.53v7a83.42,83.42,0,0,1-32.53-13.31l6.45-6.45a4.93,4.93,0,0,0,1.43-3.48V134.66l4.1-12.3,23.08-13.85a4.93,4.93,0,0,0,2.39-4.22V84.57a4.93,4.93,0,0,0-1.44-3.48L71,67.74V50.07a4.94,4.94,0,0,0-.52-2.2L60.64,28.15A5,5,0,0,0,59.3,26.5L53.69,22a83.18,83.18,0,0,1,42-11.38C97.82,10.63,99.92,10.8,102,11ZM89.9,165.63l-9-13.53V140.83l7-7h15.63l7,7v9.7l-6.09,3h-3.77a4.93,4.93,0,0,0-4.93,4.93v19.72c-1.67,0-3.29-.15-4.93-0.25v-9.61A5,5,0,0,0,89.9,165.63Zm-78-71.2A83.61,83.61,0,0,1,45.1,27.77l7.19,5.76,8.87,17.7V69.78a4.93,4.93,0,0,0,1.44,3.48L75.95,86.61V101.5L53.69,114.85a4.93,4.93,0,0,0-2.14,2.67L46.62,132.3a5,5,0,0,0-.25,1.56v17.68l-5.84,5.84A83.55,83.55,0,0,1,11.87,94.43Zm83.79,93.65a93.13,93.13,0,0,0,24.65-3.4v13.26H71V184.68A93.13,93.13,0,0,0,95.66,188.08ZM80.87,207.8h29.57v4.93H80.87V207.8Zm167.59-49.29h19.72A14.79,14.79,0,0,1,283,173.29v24.65H233.67V173.29A14.79,14.79,0,0,1,248.46,158.51Zm-4.93,81.33a2.46,2.46,0,1,1-4.93,0V222.58h4.93v17.25Zm34.5,0a2.46,2.46,0,1,1-4.93,0V222.58H278v17.25Zm-49.29-27.11V207.8h59.15v4.93H228.74Z"/></svg>