<?xml version="1.0" encoding="utf-8"?>
<!-- Generator: Adobe Illustrator 19.2.1, SVG Export Plug-In . SVG Version: 6.00 Build 0)  -->
<svg version="1.1" id="Livello_1" xmlns="http://www.w3.org/2000/svg" xmlns:xlink="http://www.w3.org/1999/xlink" x="0px" y="0px"
	 viewBox="0 0 800 500" style="enable-background:new 0 0 800 500;" xml:space="preserve">
<style type="text/css">
	.st0{fill:#FFFFFF;}
	.st1{fill:#D9EBF9;}
	.st2{fill:#3DB2E2;}
</style>
<title>icon-1</title>
<rect class="st0" width="800" height="500"/>
<path class="st1" d="M210.2,406v-19.9l-11.7-2.3c-0.9-3.3-2.2-6.5-3.9-9.4l6.6-9.9l-14.1-14.1l-9.9,6.6c-3-1.7-6.1-3-9.4-3.9
	l-2.3-11.7h-19.9l-2.3,11.7c-3.3,0.9-6.5,2.2-9.4,3.9l-9.9-6.6L110,364.5l6.6,9.9c-1.7,3-3,6.1-3.9,9.4l-11.7,2.3V406l11.7,2.3
	c0.9,3.3,2.2,6.5,3.9,9.4l-6.6,9.9l14.1,14.1l9.9-6.6c3,1.7,6.1,3,9.4,3.9l2.3,11.7h19.9l2.3-11.7c3.3-0.9,6.5-2.2,9.4-3.9l9.9,6.6
	l14.1-14.1l-4.5-6.8l-2.1-3.1c1.7-3,3-6.1,3.9-9.4L210.2,406z M155.6,421c-13.7,0-24.8-11.1-24.8-24.8s11.1-24.8,24.8-24.8
	c1.7,0,3.3,0.2,5,0.5c12.5,2.5,21,14.1,19.8,26.8C179.1,411.3,168.4,421,155.6,421z"/>
<path class="st1" d="M339.4,162.7v39.7l-9.9-14.9l-9.9,14.9v-39.7H339.4z"/>
<path class="st1" d="M339.4,316.6v19.9l-16.6,3.3c-1.3,5.2-3.4,10.2-6.2,14.8l9.4,14.1l-14,14l-14.1-9.4c-4.6,2.8-9.6,4.9-14.8,6.2
	l-3.3,16.6h-19.9l-3.3-16.6c-5.2-1.3-10.2-3.4-14.8-6.2l-14.1,9.4l-14-14l9.4-14.1c-2.8-4.6-4.9-9.6-6.2-14.8l-16.6-3.3v-19.9
	l16.6-3.3c1.3-5.2,3.4-10.2,6.2-14.8l-9.4-14.1l14-14l14.1,9.4c4.6-2.8,9.6-4.9,14.8-6.2l3.3-16.6h19.9l3.3,16.6
	c5.2,1.3,10.2,3.4,14.8,6.2l14.1-9.4l14,14l-9.4,14.1c2.8,4.6,4.9,9.6,6.2,14.8L339.4,316.6z M299.6,326.6
	c0-16.5-13.3-29.8-29.8-29.8c-16.5,0-29.8,13.3-29.8,29.8c0,16.5,13.3,29.8,29.8,29.8C286.3,356.4,299.6,343,299.6,326.6z"/>
<g>
	<path class="st2" d="M349.3,157.7H170.5c-8.2,0-14.9,6.7-14.9,14.9v154h9.9v-154c0-2.7,2.2-5,5-5h144v34.8c0,2.2,1.4,4.1,3.5,4.8
		c2.1,0.6,4.4-0.2,5.6-2l5.8-8.7l5.8,8.7c1.2,1.8,3.5,2.6,5.6,2c2.1-0.6,3.5-2.6,3.5-4.7v-34.8h5c2.7,0,5,2.2,5,5V411
		c0,2.7-2.2,5-5,5H215.2v9.9h134.1c8.2,0,14.9-6.7,14.9-14.9V172.6C364.2,164.4,357.5,157.7,349.3,157.7z M334.4,186l-0.8-1.3
		c-1-1.3-2.5-2.1-4.1-2.1s-3.2,0.8-4.1,2.1l-0.8,1.3v-18.4h9.9V186z"/>
	<path class="st2" d="M329.5,280.9l-14.1-14.1c-1.7-1.7-4.3-1.9-6.3-0.6l-11.5,7.7c-3.3-1.7-6.8-3.2-10.3-4.3l-2.7-13.6
		c-0.5-2.3-2.5-4-4.9-4h-19.9c-2.4,0-4.4,1.7-4.9,4l-2.7,13.6c-3.6,1.1-7,2.5-10.3,4.3l-11.5-7.7c-2-1.3-4.6-1.1-6.3,0.6l-14.1,14.1
		c-1.7,1.7-1.9,4.3-0.6,6.3l7.7,11.6c-1.7,3.3-3.2,6.8-4.3,10.3l-13.6,2.7c-2.3,0.5-4,2.5-4,4.9v19.9c0,2.4,1.7,4.4,4,4.9l13.6,2.7
		c1.1,3.6,2.5,7,4.3,10.3l-7.7,11.5c-1.3,2-1.1,4.6,0.6,6.3l14.1,14.1c1.7,1.7,4.3,1.9,6.3,0.6l11.6-7.7c3.3,1.7,6.8,3.2,10.3,4.3
		l2.7,13.6c0.5,2.3,2.5,4,4.9,4h19.9c2.4,0,4.4-1.7,4.9-4l2.7-13.6c3.6-1.1,7-2.5,10.3-4.3l11.5,7.7c2,1.3,4.6,1.1,6.3-0.6
		l14.1-14.1c1.7-1.7,1.9-4.3,0.6-6.3l-7.7-11.6c1.7-3.3,3.2-6.8,4.3-10.3l13.6-2.7c2.3-0.5,4-2.5,4-4.9v-19.9c0-2.4-1.7-4.4-4-4.9
		l-13.6-2.7c-1.1-3.6-2.5-7-4.3-10.3l7.7-11.5C331.5,285.2,331.2,282.6,329.5,280.9z M334.4,320.7v11.7l-12.6,2.5
		c-1.9,0.4-3.4,1.8-3.8,3.7c-1.2,4.7-3.1,9.3-5.6,13.5c-1,1.6-0.9,3.7,0.1,5.3l7.1,10.7l-8.3,8.3l-10.7-7.1
		c-1.6-1.1-3.7-1.1-5.3-0.1c-4.2,2.5-8.7,4.4-13.5,5.6c-1.9,0.5-3.3,2-3.7,3.8l-2.5,12.6H264l-2.5-12.6c-0.4-1.9-1.8-3.4-3.7-3.8
		c-4.7-1.2-9.3-3.1-13.5-5.6c-1.6-1-3.7-0.9-5.3,0.1l-10.7,7.1l-8.3-8.3l7.1-10.7c1.1-1.6,1.1-3.7,0.1-5.3
		c-2.5-4.2-4.4-8.7-5.6-13.5c-0.5-1.9-2-3.3-3.8-3.7l-12.6-2.5v-11.7l12.6-2.5c1.9-0.4,3.4-1.8,3.8-3.7c1.2-4.7,3.1-9.3,5.6-13.5
		c1-1.6,0.9-3.7-0.1-5.3l-7.1-10.7l8.3-8.3l10.7,7.1c1.6,1.1,3.7,1.1,5.3,0.1c4.2-2.5,8.7-4.4,13.5-5.6c1.9-0.5,3.3-2,3.7-3.8
		L264,262h11.7l2.5,12.6c0.4,1.9,1.8,3.4,3.7,3.8c4.7,1.2,9.3,3.1,13.5,5.6c1.6,1,3.7,0.9,5.3-0.1l10.7-7.1l8.3,8.3l-7.1,10.7
		c-1.1,1.6-1.1,3.7-0.1,5.3c2.5,4.2,4.4,8.7,5.6,13.5c0.5,1.9,2,3.3,3.8,3.7L334.4,320.7z"/>
	<path class="st2" d="M269.8,291.8c-19.2,0-34.8,15.6-34.8,34.8s15.6,34.8,34.8,34.8s34.8-15.6,34.8-34.8
		C304.6,307.4,289,291.8,269.8,291.8z M269.8,351.4c-13.7,0-24.8-11.1-24.8-24.8s11.1-24.8,24.8-24.8s24.8,11.1,24.8,24.8
		C294.6,340.3,283.5,351.4,269.8,351.4z"/>
	<path class="st2" d="M155.6,366.3c-16.5,0-29.8,13.3-29.8,29.8s13.3,29.8,29.8,29.8s29.8-13.3,29.8-29.8
		C185.4,379.7,172.1,366.3,155.6,366.3z M155.6,416c-11,0-19.9-8.9-19.9-19.9s8.9-19.9,19.9-19.9c11,0,19.9,8.9,19.9,19.9
		S166.6,416,155.6,416z"/>
	<path class="st2" d="M205.4,425l-5-7.5c0.7-1.6,1.4-3.2,2-4.8l8.8-1.8c2.3-0.5,4-2.5,4-4.9v-19.9c0-2.4-1.7-4.4-4-4.9l-8.8-1.8
		c-0.6-1.6-1.2-3.3-2-4.8l5-7.4c1.3-2,1.1-4.6-0.6-6.3l-14.1-14.1c-1.7-1.7-4.3-1.9-6.3-0.6l-7.4,5c-1.6-0.7-3.2-1.4-4.8-2l-1.8-8.8
		c-0.5-2.3-2.5-4-4.9-4h-19.9c-2.4,0-4.4,1.7-4.9,4l-1.8,8.8c-1.6,0.6-3.3,1.2-4.8,2l-7.4-5c-2-1.3-4.6-1.1-6.3,0.6L106.4,361
		c-1.7,1.7-1.9,4.3-0.6,6.3l5,7.5c-0.7,1.6-1.4,3.2-2,4.8l-8.8,1.8c-2.3,0.5-4,2.5-4,4.9V406c0,2.4,1.7,4.4,4,4.9l8.8,1.8
		c0.6,1.6,1.2,3.3,2,4.8l-5,7.5c-1.3,2-1.1,4.6,0.6,6.3l14.1,14.1c1.7,1.7,4.3,1.9,6.3,0.6l7.5-5c1.6,0.7,3.2,1.4,4.8,2l1.8,8.8
		c0.5,2.3,2.5,4,4.9,4h19.9c2.4,0,4.4-1.7,4.9-4l1.8-8.8c1.6-0.6,3.3-1.2,4.8-2l7.4,5c2,1.3,4.6,1.1,6.3-0.6l14.1-14.1
		C206.4,429.6,206.7,426.9,205.4,425z M193.8,407c-0.8,2.9-2,5.7-3.5,8.4c-0.9,1.6-0.8,3.6,0.2,5.2l4.3,6.5l-8.3,8.3l-6.5-4.3
		c-1.5-1-3.5-1.1-5.2-0.2c-2.7,1.5-5.5,2.6-8.4,3.5c-1.8,0.5-3.1,2-3.5,3.8l-1.5,7.6h-11.7l-1.5-7.7c-0.4-1.8-1.7-3.3-3.5-3.8
		c-2.9-0.8-5.7-2-8.4-3.5c-1.6-0.9-3.6-0.8-5.2,0.2l-6.5,4.3l-8.3-8.3l4.3-6.5c1-1.5,1.1-3.5,0.2-5.2c-1.5-2.7-2.6-5.5-3.5-8.4
		c-0.5-1.8-2-3.1-3.8-3.5l-7.7-1.5v-11.7l7.7-1.5c1.8-0.4,3.3-1.7,3.8-3.5c0.8-2.9,2-5.7,3.5-8.4c0.9-1.6,0.8-3.6-0.2-5.2l-4.3-6.5
		l8.3-8.3l6.5,4.3c1.5,1,3.5,1.1,5.2,0.2c2.7-1.5,5.5-2.6,8.4-3.5c1.8-0.5,3.1-2,3.5-3.8l1.5-7.7h11.7l1.5,7.7
		c0.4,1.8,1.7,3.3,3.5,3.8c2.9,0.8,5.7,2,8.4,3.5c1.6,0.9,3.6,0.8,5.2-0.2l6.5-4.3l8.3,8.3l-4.3,6.5c-1,1.5-1.1,3.5-0.2,5.2
		c1.5,2.7,2.6,5.5,3.5,8.4c0.5,1.8,2,3.1,3.8,3.5l7.7,1.5V402l-7.7,1.5C195.8,403.9,194.3,405.2,193.8,407z"/>
	<path class="st2" d="M185.4,187.5h9.9v9.9h-9.9V187.5z"/>
	<path class="st2" d="M205.3,187.5h9.9v9.9h-9.9V187.5z"/>
	<path class="st2" d="M225.1,187.5H245v9.9h-19.9V187.5z"/>
	<path class="st2" d="M185.4,207.4H245v9.9h-59.6V207.4z"/>
	<path class="st2" d="M120.8,212.4h24.8v-9.9h-29.8c-2.7,0-5,2.2-5,5v89.4h9.9V212.4z"/>
	<path class="st2" d="M110.9,306.7h9.9v9.9h-9.9V306.7z"/>
	<path class="st2" d="M110.9,326.6h9.9v9.9h-9.9V326.6z"/>
	<path class="st2" d="M299.6,445.8h-94.4v9.9h99.3c2.7,0,5-2.2,5-5v-14.9h-9.9V445.8z"/>
</g>
</svg>
