<svg id="Livello_1" data-name="Livello 1" xmlns="http://www.w3.org/2000/svg" viewBox="0 0 800 297.02"><defs><style>.cls-1{fill:#fff;opacity:0;}.cls-2{fill:#d9ebf9;}.cls-3{fill:#3db2e2;}</style></defs><title>icon-6</title><rect class="cls-1" y="0.5" width="800" height="296.52"/><g id="Growth-Startup"><path class="cls-2" d="M270.29,108.75v4.9h-3.72a4.77,4.77,0,0,1-1.18-.1,9.59,9.59,0,0,1-7.59-5.34l-2.2-4.36-7.3,4.85a29.17,29.17,0,0,1-16.3,4.95H221.32v-4.9A24.48,24.48,0,0,1,270.29,108.75Z" transform="translate(0 0.5)"/><path class="cls-2" d="M235.87,196.88c0.1,1.62.15,3.28,0.15,4.9a87.6,87.6,0,0,1-30.94,67l-22.91-22.91,14.69-19.58V206.67L177.26,192V177.29L143,162.61V143L163,115a88,88,0,0,1,60.42,41.42l-7.49,2.15a19.58,19.58,0,0,0-14.2,18.85v19.49h34.13Z" transform="translate(0 0.5)"/><path class="cls-2" d="M275.67,158.54l-13-3.72L245.81,167.5l-16.89-12.68-5.48,1.57-7.49,2.15a19.58,19.58,0,0,0-14.2,18.85v19.49h88.13V177.39A19.58,19.58,0,0,0,275.67,158.54Z" transform="translate(0 0.5)"/><path class="cls-2" d="M166,63.07A19.64,19.64,0,0,1,167.47,37c10.38-10.38,38.09-10.38,38.09-10.38s0,27.71-10.38,38.09a19.62,19.62,0,0,1-27.71,0A14,14,0,0,1,166,63.07Z" transform="translate(0 0.5)"/><path class="cls-2" d="M167.47,245.84v14.69l-9.79,4.9h-4.9v24.33c-1.62.1-3.28,0.15-4.9,0.15a92.3,92.3,0,0,1-9.79-.54V275.22l-9.79-14.69V245.84l9.79-9.79h19.58Z" transform="translate(0 0.5)"/><path class="cls-2" d="M133.19,192v19.58l-24.48,14.69-4.9,14.69v19.58L93.34,271a88,88,0,0,1-33.59-69.23c0-1.62,0-3.28.15-4.9H94V177.39a19.58,19.58,0,0,0-14.2-18.85l-7.49-2.15a87,87,0,0,1,25.41-27l11,8.76,9.79,19.58v19.58Z" transform="translate(0 0.5)"/><path class="cls-2" d="M131.29,56.26a28.5,28.5,0,0,1-3,3.53,29.43,29.43,0,0,1-41.57,0C72.92,45.93,72.92,4.41,72.92,4.41s41.52,0,55.37,13.81A29.43,29.43,0,0,1,131.29,56.26Z" transform="translate(0 0.5)"/><path class="cls-2" d="M74.44,108.75v4.9H70.72a4.77,4.77,0,0,1-1.18-.1A9.59,9.59,0,0,1,62,108.21l-2.2-4.36-7.3,4.85a29.17,29.17,0,0,1-16.3,4.95H25.48v-4.9A24.48,24.48,0,1,1,74.44,108.75Z" transform="translate(0 0.5)"/><path class="cls-2" d="M79.83,158.54l-7.49-2.15-5.48-1.57L50,167.5,33.07,154.82l-13,3.72A19.58,19.58,0,0,0,5.9,177.39v19.49H94V177.39A19.58,19.58,0,0,0,79.83,158.54Z" transform="translate(0 0.5)"/><path class="cls-3" d="M277,153.83l-16.52-4.72v-6.22a24.37,24.37,0,0,0,9.79-19.46v-4.9a4.9,4.9,0,0,0,4.9-4.9v-4.9a29.38,29.38,0,0,0-58.75,0v4.9a4.9,4.9,0,0,0,4.9,4.9v4.9a24.37,24.37,0,0,0,9.79,19.46v6.22l-5.62,1.61a92.58,92.58,0,0,0-61.61-40.57,89.37,89.37,0,0,0-11.1-1.19V90.39A107.49,107.49,0,0,1,166.4,70.1a24.27,24.27,0,0,0,32.23-2c11.49-11.49,11.82-38.5,11.82-41.54a4.9,4.9,0,0,0-4.9-4.9c-3,0-30.06.33-41.54,11.82a24.16,24.16,0,0,0-4.08,29,121.23,121.23,0,0,0-9.11,12A98.78,98.78,0,0,0,137.44,55.7a34.3,34.3,0,0,0-5.67-40.92C116.91-.07,77.38-0.5,72.91-0.5A4.9,4.9,0,0,0,68,4.4c0,4.46.43,44,15.28,58.85a34.27,34.27,0,0,0,48.07.36,87.19,87.19,0,0,1,11.63,17v28.32a92.58,92.58,0,0,0-72.72,41.78l-5.62-1.6v-6.22a24.37,24.37,0,0,0,9.79-19.46v-4.9a4.9,4.9,0,0,0,4.9-4.9v-4.9a29.38,29.38,0,1,0-58.75,0v4.9a4.9,4.9,0,0,0,4.9,4.9v4.9a24.37,24.37,0,0,0,9.79,19.46v6.22l-16.52,4.72A24.58,24.58,0,0,0,1,177.39v19.49a4.9,4.9,0,0,0,4.9,4.9h49a93,93,0,0,0,82.74,92.46,98,98,0,0,0,10.28.56c1.71,0,3.48,0,5.16-.15a93.17,93.17,0,0,0,87.87-92.87h49a4.9,4.9,0,0,0,4.9-4.9V177.39A24.58,24.58,0,0,0,277,153.83ZM245.81,89.16a19.58,19.58,0,0,1,19.58,19.45,4.9,4.9,0,0,1-3.23-2.58L260,101.67a4.9,4.9,0,0,0-7.1-1.89l-7.29,4.86A24.42,24.42,0,0,1,232,108.75h-5.8A19.58,19.58,0,0,1,245.81,89.16ZM232,118.54a34.16,34.16,0,0,0,19-5.76l2.68-1.79a14.47,14.47,0,0,0,6.79,6.12v6.32a14.69,14.69,0,1,1-29.38,0v-4.9H232Zm13.79,29.38a24.48,24.48,0,0,0,4.9-.49v5.39a4.85,4.85,0,0,0,1.69,3.62l-6.59,4.95-6.59-4.95a4.85,4.85,0,0,0,1.69-3.62v-5.39A24.48,24.48,0,0,0,245.81,147.92ZM141.06,167.1l31.31,13.42V192a4.9,4.9,0,0,0,2,3.92l17.63,13.22v15.51L178.24,242.9a4.9,4.9,0,0,0,.46,6.4l19,19a81.67,81.67,0,0,1-40,16V270.32a4.9,4.9,0,0,0,2.19-.49l9.79-4.9a4.9,4.9,0,0,0,2.71-4.41V245.84a4.9,4.9,0,0,0-1.43-3.46l-9.79-9.79a4.9,4.9,0,0,0-3.46-1.43H138.09a4.9,4.9,0,0,0-3.46,1.43l-9.79,9.79a4.9,4.9,0,0,0-1.43,3.46v14.69a4.93,4.93,0,0,0,.82,2.72l9,13.44v7a83.07,83.07,0,0,1-32.35-13.27l6.44-6.44a4.9,4.9,0,0,0,1.43-3.45V241.74l4.07-12.22,22.93-13.76a4.9,4.9,0,0,0,2.37-4.2V192a4.9,4.9,0,0,0-1.43-3.46L123.4,175.27V157.71a4.9,4.9,0,0,0-.51-2.19l-9.79-19.58a4.9,4.9,0,0,0-1.33-1.64l-5.62-4.5a82.34,82.34,0,0,1,41.73-11.26c2.14,0,4.26.11,6.36,0.27L139,140.18a4.9,4.9,0,0,0-.91,2.84v19.58A4.9,4.9,0,0,0,141.06,167.1ZM170.92,40.45c6-6,20.51-8.16,29.53-8.76-0.6,9-2.78,23.56-8.76,29.53A14.69,14.69,0,0,1,173,62.92a100,100,0,0,1,16.57-13.62l-5-8.39a105.47,105.47,0,0,0-17.29,13.9A14.28,14.28,0,0,1,170.92,40.45ZM90.22,56.33C81.33,47.44,78.5,22.82,77.92,9.41c13.41,0.58,38,3.43,46.91,12.29a24.51,24.51,0,0,1,5.34,26.62A115.55,115.55,0,0,0,106,30.92l-4.38,8.79a108,108,0,0,1,23,16.85,24.44,24.44,0,0,1-34.37-.21v0ZM50,89.16a19.58,19.58,0,0,1,19.58,19.45A4.9,4.9,0,0,1,66.31,106l-2.18-4.37A4.9,4.9,0,0,0,57,99.78l-7.29,4.86a24.42,24.42,0,0,1-13.58,4.11H30.38A19.58,19.58,0,0,1,50,89.16ZM36.17,118.54a34.16,34.16,0,0,0,19-5.76L57.86,111a14.47,14.47,0,0,0,6.79,6.12v6.32a14.69,14.69,0,1,1-29.38,0v-4.9h0.9ZM50,147.92a24.48,24.48,0,0,0,4.9-.49v5.39a4.85,4.85,0,0,0,1.69,3.62L50,161.38l-6.59-4.95a4.85,4.85,0,0,0,1.69-3.62v-5.39A24.48,24.48,0,0,0,50,147.92ZM30.38,192V177.29H20.58V192H10.79V177.39a14.76,14.76,0,0,1,10.65-14.14l10.65-3L47,171.42a4.9,4.9,0,0,0,5.88,0l14.93-11.21,10.65,3a14.75,14.75,0,0,1,10.64,14.14V192H79.34V177.29H69.55V192H30.38Zm34.27,9.79H94a4.9,4.9,0,0,0,4.9-4.9V177.39a24.59,24.59,0,0,0-17.75-23.56l-1-.29a81.28,81.28,0,0,1,17.53-18l7.11,5.7,8.81,17.59v18.43a4.9,4.9,0,0,0,1.43,3.46L128.3,194V208.8l-22.11,13.26a4.9,4.9,0,0,0-2.12,2.65l-4.9,14.69a4.9,4.9,0,0,0-.25,1.55V258.5l-5.79,5.79A82.71,82.71,0,0,1,64.65,201.77Zm78.34,83v-9.58a4.93,4.93,0,0,0-.82-2.72l-9-13.44V247.87l6.92-6.92h15.53l6.92,6.92v9.64l-6.05,3h-3.74a4.9,4.9,0,0,0-4.9,4.9v19.52C146.28,284.94,144.63,284.9,143,284.8Zm62.18-22.87-16.55-16.55,12.14-16.19a4.9,4.9,0,0,0,1-2.94V206.67a4.9,4.9,0,0,0-2-3.92l-17.63-13.22V177.29a4.9,4.9,0,0,0-3-4.5l-31.31-13.42V144.59l17.22-24.13a82.74,82.74,0,0,1,50.49,33.09l-1,.28a24.58,24.58,0,0,0-17.75,23.56v19.49a4.9,4.9,0,0,0,4.9,4.9h29.38A82.68,82.68,0,0,1,205.17,261.93ZM285,192h-9.79V177.29h-9.79V192H226.22V177.29h-9.79V192h-9.79V177.39a14.76,14.76,0,0,1,10.65-14.14l10.64-3,14.93,11.21a4.9,4.9,0,0,0,5.88,0l14.93-11.21,10.65,3A14.75,14.75,0,0,1,285,177.39V192Z" transform="translate(0 0.5)"/><path class="cls-3" d="M45.49,211.21l-9.73.89a111.79,111.79,0,0,0,40.35,76.44L82.36,281A102.07,102.07,0,0,1,45.49,211.21Z" transform="translate(0 0.5)"/><path class="cls-3" d="M250.27,211.26A102,102,0,0,1,213.43,281l6.24,7.54A111.75,111.75,0,0,0,260,212.16Z" transform="translate(0 0.5)"/><path class="cls-3" d="M16.08,212.06a131.79,131.79,0,0,0,23.79,66l8-5.65a122,122,0,0,1-22-61Z" transform="translate(0 0.5)"/><path class="cls-3" d="M247.9,272.37l8,5.65a131.82,131.82,0,0,0,23.8-66l-9.76-.75A122.05,122.05,0,0,1,247.9,272.37Z" transform="translate(0 0.5)"/></g></svg>