<svg id="Livello_1" data-name="Livello 1" xmlns="http://www.w3.org/2000/svg" viewBox="0 0 800 296.52"><defs><style>.cls-1{fill:#fff;opacity:0;}.cls-2{fill:#d9ebf9;}.cls-3{fill:#3db2e2;}</style></defs><title>icon-5</title><rect class="cls-1" width="800" height="296.52"/><path class="cls-2" d="M289.89,250.58v19.65H4.91V250.58h285Z"/><path class="cls-2" d="M230.93,250.58H142.49V162.14a9.86,9.86,0,0,0-9.83-9.83h-19a29.73,29.73,0,0,1,10.07-5.6c0.39-.1.79-0.25,1.18-0.34l22.6-6.58C149,155,166,167.05,186.71,167.05s37.69-12,39.21-27.27l22.6,6.58c0.39,0.1.79,0.25,1.18,0.34a29.55,29.55,0,0,1,20.54,28.1v75.76H230.93Z"/><path class="cls-2" d="M235.84,96.69a34.25,34.25,0,0,1,19.65,31.05,33.53,33.53,0,0,1-5.8,19c-0.39-.1-0.79-0.25-1.18-0.34l-22.6-6.58-24.47-7.12V120A39.35,39.35,0,0,0,226,83.53V63.87h-2.6A19.75,19.75,0,0,1,205.82,53l-4.37-8.79-5.26,5.26a49.09,49.09,0,0,1-34.74,14.4H147.4V83.53a39.38,39.38,0,0,0,11.5,27.81A39.92,39.92,0,0,0,172,120v12.68l-24.47,7.12-22.6,6.58c-0.39.1-.79,0.25-1.18,0.34a33.53,33.53,0,0,1-5.8-19,34.25,34.25,0,0,1,19.65-31.05V54a49.13,49.13,0,1,1,98.27,0V96.69Z"/><path class="cls-2" d="M142.49,233.38v17.2H103.18V230.93H138.8A20.05,20.05,0,0,0,142.49,233.38Z"/><path class="cls-2" d="M14.74,230.93h88.44v19.65H14.74V230.93Z"/><circle class="cls-2" cx="78.61" cy="191.62" r="9.83"/><path class="cls-2" d="M44.47,24.57H44.22A39.31,39.31,0,1,0,44,103.18h0.25A39.31,39.31,0,0,0,44.47,24.57Z"/><path class="cls-3" d="M186.71,98.27a9.83,9.83,0,0,1-9.83-9.83h-9.83a19.65,19.65,0,0,0,39.31,0h-9.83A9.83,9.83,0,0,1,186.71,98.27Z"/><path class="cls-3" d="M289.89,245.67H275.15V174.82a34.32,34.32,0,0,0-18.46-30.46,39.18,39.18,0,0,0-15.93-50.63V54a54,54,0,1,0-108.09,0V93.72a39.18,39.18,0,0,0-15.92,50.65,34.39,34.39,0,0,0-4.75,3H24.57A14.74,14.74,0,0,0,9.83,162.14v83.53H4.91A4.91,4.91,0,0,0,0,250.58v19.65a4.91,4.91,0,0,0,4.91,4.91h9.83v14.74a4.91,4.91,0,0,0,4.91,4.91H280.06a4.91,4.91,0,0,0,4.91-4.91V275.15h4.91a4.91,4.91,0,0,0,4.91-4.91V250.58A4.91,4.91,0,0,0,289.89,245.67Zm-24.57-70.85v70.85H235.84v-9.51a37.48,37.48,0,0,0,0-59.59v-9.51H226v12.28a4.91,4.91,0,0,0,2.62,4.34,27.28,27.28,0,0,1,0,45.36,4.91,4.91,0,0,0-2.62,4.34v12.28H147.4V162.14A14.71,14.71,0,0,0,136.72,148l7.1-2.06c4.8,15.15,22.09,26,42.88,26s38.09-10.84,42.88-26l17.55,5.11,0.49,0.15,0.54,0.16a24.57,24.57,0,0,1,17.15,23.43h0ZM124.57,147.4l-0.27-.86,0.37,0.86h-0.11Zm62.14-29.48a34.43,34.43,0,0,1-34.39-34.39V68.79h9.13A53.69,53.69,0,0,0,199.66,53l0.44-.44,1.35,2.69A24.4,24.4,0,0,0,221.1,68.68V83.53A34.43,34.43,0,0,1,186.71,117.92Zm-9.83,14.74v-6.05a42.93,42.93,0,0,0,19.65,0v6.05a4.91,4.91,0,0,0,3.54,4.72l20.08,5.85c-3.63,10.87-17.36,18.92-33.44,18.92s-29.81-8-33.44-18.92l20.08-5.85A4.91,4.91,0,0,0,176.88,132.66Zm56.86-31.52a29.17,29.17,0,0,1,16.84,26.61,28.74,28.74,0,0,1-3.2,13.17l-41-11.94v-5.9a44.22,44.22,0,0,0,24.57-39.55V96.69a4.91,4.91,0,0,0,2.82,4.44h0ZM142.49,54a44.22,44.22,0,1,1,88.44,0v9.83A4.91,4.91,0,0,0,226,59h-2.59a14.65,14.65,0,0,1-13.18-8.15L205.87,42a4.91,4.91,0,0,0-3.61-2.65A5,5,0,0,0,198,40.75L192.74,46a43.93,43.93,0,0,1-31.29,13h-14a4.91,4.91,0,0,0-4.91,4.91V54Zm-2.82,47.09a4.91,4.91,0,0,0,2.82-4.42V83.53a44.22,44.22,0,0,0,24.57,39.55V129l-41,11.94a28.74,28.74,0,0,1-3.2-13.17,29.17,29.17,0,0,1,16.84-26.61h0Zm-120,61a4.91,4.91,0,0,1,4.91-4.91H132.66a4.91,4.91,0,0,1,4.91,4.91V226H19.65V162.14Zm0,73.7H137.57v9.83H19.65v-9.83ZM275.15,285H24.57v-9.83H275.15V285ZM285,265.32H9.83v-9.83H285v9.83Z"/><path class="cls-3" d="M78.61,176.88a14.74,14.74,0,1,0,14.74,14.74A14.74,14.74,0,0,0,78.61,176.88Zm0,19.65a4.91,4.91,0,1,1,4.91-4.91A4.91,4.91,0,0,1,78.61,196.53Z"/><path class="cls-3" d="M44.22,78.61a4.91,4.91,0,0,1-4.91-4.91H29.48a14.74,14.74,0,0,0,9.83,13.84v5.82h9.83V87.54A14.71,14.71,0,0,0,44.22,59,4.91,4.91,0,1,1,49.13,54H59a14.74,14.74,0,0,0-9.83-13.84V34.39H39.31v5.82a14.71,14.71,0,0,0,4.91,28.58A4.91,4.91,0,0,1,44.22,78.61Z"/><path class="cls-3" d="M44.22,108.09A44.22,44.22,0,1,0,0,63.87,44.22,44.22,0,0,0,44.22,108.09Zm0-78.61A34.39,34.39,0,1,1,9.83,63.87,34.39,34.39,0,0,1,44.22,29.48Z"/><path class="cls-3" d="M103.18,44.22h19.65V54H103.18V44.22Z"/><path class="cls-3" d="M100.95,19.18l4.39-8.79L125,20.22,120.59,29Z"/><path class="cls-3" d="M100.92,79.12l19.64-9.82L125,78.09l-19.64,9.82Z"/><path class="cls-3" d="M250.58,44.22h19.65V54H250.58V44.22Z"/><path class="cls-3" d="M248.27,20.22l19.64-9.82,4.39,8.79L252.66,29Z"/><path class="cls-3" d="M248.3,78.19l4.39-8.79,19.64,9.82L267.94,88Z"/></svg>