<svg id="Livello_1" data-name="Livello 1" xmlns="http://www.w3.org/2000/svg" viewBox="0 0 800 296.52"><defs><style>.cls-1{fill:#fff;opacity:0;}.cls-2{fill:#d9ebf9;}.cls-3{fill:#3db2e2;}</style></defs><title>icon-7</title><rect class="cls-1" width="800" height="296.52"/><path class="cls-2" d="M123.35,142.64v22L103.62,176V113a9.9,9.9,0,0,1,9.87-9.87H281.25a9.9,9.9,0,0,1,9.87,9.87V192a9.9,9.9,0,0,1-9.87,9.87h-9.87V142.64a4.93,4.93,0,0,0-4.93-4.93H223a29.55,29.55,0,0,0-51.22,0H128.29a4.93,4.93,0,0,0-4.93,4.93h0Z"/><path class="cls-2" d="M291.12,93.3V113a9.9,9.9,0,0,0-9.87-9.87H113.49a9.9,9.9,0,0,0-9.87,9.87V93.3a9.9,9.9,0,0,1,9.87-9.87H281.25A9.9,9.9,0,0,1,291.12,93.3Z"/><path class="cls-2" d="M146.35,196.92l-8.54,4.93-14.46,8.34v6.46h148V196.92h-125Z"/><circle class="cls-2" cx="241.77" cy="167.32" r="9.87"/><path class="cls-2" d="M226.38,158.48a9.25,9.25,0,0,0-4.34-1,9.87,9.87,0,0,0-5.77,17.86,9.73,9.73,0,0,0,5.77,1.87A9.87,9.87,0,0,0,226.38,158.48Z"/><path class="cls-2" d="M34.54,221.59v4.93H4.93V137.71h29.6v83.88Z"/><path class="cls-3" d="M222,182.12a14.71,14.71,0,0,0,9.87-3.85,14.8,14.8,0,1,0,0-21.91A14.8,14.8,0,1,0,222,182.12h0Zm19.74-19.74a4.93,4.93,0,1,1-4.93,4.93A4.93,4.93,0,0,1,241.77,162.38Zm-19.74,0a4.93,4.93,0,1,1-4.93,4.93A4.93,4.93,0,0,1,222,162.38Z"/><path class="cls-3" d="M281.25,78.5H113.49a14.8,14.8,0,0,0-14.8,14.8V118H64.14a4.93,4.93,0,0,0-3.49,1.45L39.47,140.6v-2.89a4.93,4.93,0,0,0-4.93-4.93H4.93A4.93,4.93,0,0,0,0,137.71v88.81a4.93,4.93,0,0,0,4.93,4.93h29.6a4.93,4.93,0,0,0,4.93-4.93h64.14a4.93,4.93,0,0,0,2.47-.66l12.34-7.12v12.72a9.87,9.87,0,0,0,9.87,9.87H266.44a9.87,9.87,0,0,0,9.87-9.87V206.79h4.93A14.8,14.8,0,0,0,296,192V93.3A14.8,14.8,0,0,0,281.25,78.5ZM113.49,88.37H281.25a4.93,4.93,0,0,1,4.93,4.93v5.84a14.63,14.63,0,0,0-4.93-.91H113.49a14.63,14.63,0,0,0-4.93.91V93.3A4.93,4.93,0,0,1,113.49,88.37ZM9.87,221.59V142.64H29.6v78.95H9.87Zm92.43-4.93H39.47v-62.1l26.71-26.71h32.5V176a4.93,4.93,0,0,0,7.4,4.27l40-23.13a15,15,0,0,1,7.4-2,14.78,14.78,0,0,1,7.4,27.6Zm164.15-74V192H164.74l1.13-.65a24.65,24.65,0,0,0,9.1-33.65l0,0a24.76,24.76,0,0,0-33.73-9.09l-12.93,7.49V142.64H266.44Zm-83.83-9.87a24.51,24.51,0,0,1,29.5,0h-29.5Zm-35,69.08H266.44v9.87H130.57Zm-19.37,29.6v-9.87H266.44v9.87H128.29ZM286.18,192a4.93,4.93,0,0,1-4.93,4.93h-4.93V142.64a9.87,9.87,0,0,0-9.87-9.87H225.6a34.34,34.34,0,0,0-56.48,0H128.29a9.87,9.87,0,0,0-9.87,9.87v19.11l-9.87,5.7V113a4.93,4.93,0,0,1,4.93-4.93H281.25a4.93,4.93,0,0,1,4.93,4.93V192Z"/><path class="cls-3" d="M184,30.6l7,7,14.8-14.8a4.93,4.93,0,0,0,0-7L191,1l-7,7,6.38,6.38h-76.9v9.87h76.9Z"/><path class="cls-3" d="M112,249.75l-7-7-14.8,14.8a4.93,4.93,0,0,0,0,7l14.8,14.8,7-7L105.66,266h57.17v-9.87H105.66Z"/><path class="cls-3" d="M230.46,264.55l-7-7-14.8,14.8a4.93,4.93,0,0,0,0,7l14.8,14.8,7-7-6.38-6.38h57.17v-9.87H224.08Z"/><path class="cls-3" d="M157.89,44v9.87h76.9l-6.38,6.38,7,7,14.8-14.8a4.93,4.93,0,0,0,0-7l-14.8-14.8-7,7L234.8,44h-76.9Z"/></svg>