<?xml version="1.0" encoding="utf-8"?>
<!-- Generator: Adobe Illustrator 19.2.1, SVG Export Plug-In . SVG Version: 6.00 Build 0)  -->
<svg version="1.1" id="Livello_1" xmlns="http://www.w3.org/2000/svg" xmlns:xlink="http://www.w3.org/1999/xlink" x="0px" y="0px"
	 viewBox="0 0 800 500" style="enable-background:new 0 0 800 500;" xml:space="preserve">
<style type="text/css">
	.st0{fill:#FFFFFF;}
	.st1{fill:#D9EBF9;}
	.st2{fill:#3DB2E2;}
</style>
<title>icon-1</title>
<rect class="st0" width="800" height="500"/>
<path class="st1" d="M333.8,192.6c-4.5,6.7-13.6,8.6-20.3,4.1c-4.1-2.7-6.5-7.3-6.5-12.2c0-2.9,0.9-5.7,2.4-8.2
	C318.1,180.9,326.2,186.3,333.8,192.6z"/>
<path class="st1" d="M321.6,169.8c8.1,0,14.7,6.6,14.7,14.7c0,0,0,0,0,0c0,2.9-0.9,5.7-2.4,8.1c-7.6-6.2-15.8-11.7-24.4-16.3
	C312.1,172.2,316.7,169.8,321.6,169.8z"/>
<path class="st1" d="M177.4,427.2c-8.7-4.6-16.9-10-24.4-16.3c4.5-6.8,13.5-8.6,20.3-4.2c4.1,2.7,6.6,7.3,6.6,12.3
	C179.9,421.9,179,424.7,177.4,427.2z"/>
<path class="st1" d="M153,410.9c7.6,6.2,15.8,11.7,24.4,16.3c-4.5,6.7-13.7,8.5-20.4,4c-4-2.7-6.5-7.3-6.5-12.1
	C150.6,416.1,151.4,413.3,153,410.9z"/>
<path class="st1" d="M291.3,252.9c-27-26.4-70.2-25.9-96.6,1.1s-25.9,70.2,1.1,96.6s70.2,25.9,96.6-1.1
	c12.5-12.8,19.5-29.9,19.5-47.7C311.8,283.3,304.4,265.7,291.3,252.9z"/>
<path class="st2" d="M316.7,301.7c0-40.5-32.8-73.3-73.3-73.3s-73.3,32.8-73.3,73.3c0,40.5,32.8,73.3,73.3,73.3c0,0,0,0,0,0
	C283.9,375,316.7,342.2,316.7,301.7z M248.3,336.2c6.2,0.5,12.4,1.9,18.2,4.1c-4.6,12.7-11.3,21.1-18.2,23.9V336.2z M248.3,326.4
	v-19.8h24.3c-0.2,8.2-1.3,16.4-3.3,24.4C262.6,328.4,255.5,326.9,248.3,326.4L248.3,326.4z M248.3,296.9v-19.8
	c7.2-0.5,14.3-2,21-4.6c1.9,8,3,16.1,3.3,24.3L248.3,296.9L248.3,296.9z M248.3,267.3v-28.1c6.9,2.8,13.6,11.2,18.2,23.9
	C260.7,265.4,254.5,266.8,248.3,267.3L248.3,267.3z M266.8,242.7c6.2,2.5,12,5.9,17.1,10.1c-2.7,2.2-5.6,4.2-8.6,6
	C273.2,253.1,270.3,247.7,266.8,242.7L266.8,242.7z M238.5,239.3v28c-6.2-0.5-12.4-1.9-18.2-4.1C224.9,250.5,231.6,242,238.5,239.3
	L238.5,239.3z M211.5,258.9c-3-1.8-5.9-3.8-8.6-6c5.1-4.3,10.9-7.7,17.1-10.1C216.5,247.7,213.7,253.2,211.5,258.9L211.5,258.9z
	 M238.5,277.1v19.8h-24.3c0.2-8.2,1.3-16.4,3.3-24.3C224.2,275.1,231.3,276.6,238.5,277.1L238.5,277.1z M238.5,306.6v19.8
	c-7.2,0.5-14.3,2-21,4.6c-1.9-8-3-16.1-3.3-24.3L238.5,306.6L238.5,306.6z M238.5,336.2v28.1c-6.9-2.8-13.6-11.2-18.2-23.9
	C226.1,338,232.3,336.6,238.5,336.2L238.5,336.2z M220,360.7c-6.2-2.5-12-5.9-17.1-10.1c2.7-2.2,5.6-4.2,8.6-6
	C213.7,350.3,216.5,355.7,220,360.7z M275.3,344.6c3,1.8,5.9,3.8,8.6,6c-5.1,4.3-10.9,7.7-17.1,10.1
	C270.3,355.7,273.1,350.3,275.3,344.6L275.3,344.6L275.3,344.6z M278.3,335.1c2.4-9.3,3.8-18.9,4.1-28.5h24.3
	c-1.1,13.8-6.6,26.8-15.8,37.1C287,340.4,282.8,337.5,278.3,335.1L278.3,335.1L278.3,335.1z M306.7,296.8h-24.3
	c-0.3-9.6-1.6-19.1-4-28.5c4.5-2.5,8.7-5.4,12.6-8.7C300.1,270,305.6,283.1,306.7,296.8L306.7,296.8z M195.9,259.7
	c3.9,3.3,8.1,6.2,12.6,8.7c-2.4,9.3-3.8,18.8-4.1,28.4h-24.3C181.2,283.1,186.7,270,195.9,259.7z M180.1,306.6h24.3
	c0.3,9.6,1.6,19.1,4.1,28.5c-4.5,2.5-8.7,5.4-12.6,8.7C186.7,333.4,181.2,320.4,180.1,306.6z"/>
<path class="st2" d="M145.7,252.9c27,0,48.9-21.9,48.9-48.9s-21.9-48.9-48.9-48.9c-27,0-48.9,21.9-48.9,48.9
	C96.8,231,118.7,252.9,145.7,252.9C145.7,252.9,145.7,252.9,145.7,252.9z M145.7,164.9c21.6,0,39.1,17.5,39.1,39.1
	s-17.5,39.1-39.1,39.1s-39.1-17.5-39.1-39.1c0,0,0,0,0,0C106.6,182.4,124.1,164.9,145.7,164.9z"/>
<path class="st2" d="M145.7,218.7c-2.7,0-4.9-2.2-4.9-4.9H131c0,6.2,3.9,11.7,9.8,13.8v5.8h9.8v-5.8c7.6-2.7,11.6-11,9-18.6
	c-2.1-5.9-7.6-9.8-13.9-9.8c-2.7,0-4.9-2.2-4.9-4.9s2.2-4.9,4.9-4.9s4.9,2.2,4.9,4.9l0,0h9.8c0-6.2-3.9-11.7-9.8-13.8v-5.8h-9.8v5.8
	c-7.6,2.7-11.6,11-9,18.6c2.1,5.9,7.6,9.8,13.9,9.8c2.7-0.2,5,1.9,5.2,4.6c0.2,2.7-1.9,5-4.6,5.2
	C146.1,218.7,145.9,218.7,145.7,218.7z"/>
<path class="st2" d="M341.1,350.6c-27,0-48.9,21.9-48.9,48.9s21.9,48.9,48.9,48.9c27,0,48.9-21.9,48.9-48.9
	C390,372.5,368.1,350.6,341.1,350.6C341.1,350.6,341.1,350.6,341.1,350.6z M341.1,438.5c-21.6,0-39.1-17.5-39.1-39.1
	s17.5-39.1,39.1-39.1s39.1,17.5,39.1,39.1l0,0C380.2,421,362.7,438.5,341.1,438.5L341.1,438.5L341.1,438.5z"/>
<path class="st2" d="M341.1,384.8c2.7,0,4.9,2.2,4.9,4.9v0h9.8c0-6.2-3.9-11.7-9.8-13.8v-5.8h-9.8v5.8c-7.6,2.7-11.6,11-9,18.6
	c2.1,5.9,7.6,9.8,13.9,9.8c2.7,0,4.9,2.2,4.9,4.9s-2.2,4.9-4.9,4.9c-2.7,0-4.9-2.2-4.9-4.9h-9.8c0,6.2,3.9,11.7,9.8,13.8v5.8h9.8
	V423c7.6-2.7,11.6-11,9-18.6c-2.1-5.9-7.6-9.8-13.9-9.8c-2.7,0-4.9-2.2-4.9-4.9S338.4,384.8,341.1,384.8z"/>
<path class="st2" d="M243.4,164.9c20.7,0,41,4.6,59.6,13.7c-3.3,10.2,2.3,21.1,12.5,24.4c6.4,2.1,13.5,0.7,18.6-3.7
	c42.1,37.4,57.1,96.7,37.8,149.6l9.2,3.4c20.9-57,4.5-121-41.2-160.9c3.8-10-1.2-21.3-11.2-25.1c-7-2.7-14.9-1.1-20.4,4.1
	c-36-17.8-77.7-20-115.3-6.2l3.4,9.2C211.3,167.7,227.3,164.9,243.4,164.9z M321.6,174.7c5.4,0,9.8,4.4,9.8,9.8s-4.4,9.8-9.8,9.8
	c-5.4,0-9.8-4.4-9.8-9.8c0,0,0,0,0,0C311.8,179.1,316.2,174.7,321.6,174.7L321.6,174.7z"/>
<path class="st2" d="M243.4,438.5c-20.7,0.1-41.1-4.6-59.6-13.7c3.3-10.2-2.3-21.1-12.5-24.4c-6.4-2.1-13.5-0.7-18.6,3.7
	c-43-38.1-57.6-99-36.7-152.5l-9-3.6c-22.6,57.6-6.6,123.3,40.1,164c-3.9,10,1.2,21.3,11.2,25.2c7,2.7,15,1.1,20.4-4.1
	c37,18.3,80,20.1,118.4,5l-3.6-9.1C277.5,435.4,260.6,438.6,243.4,438.5z M165.2,428.8c-5.4,0-9.8-4.4-9.8-9.8
	c0-5.4,4.4-9.8,9.8-9.8c5.4,0,9.8,4.4,9.8,9.8C175,424.4,170.6,428.8,165.2,428.8L165.2,428.8z"/>
<path class="st2" d="M144,260.8c-22.6,54.9,3.7,117.8,58.6,140.4c19.3,7.9,40.5,10.1,61.1,6.2l-1.8-9.6
	c-53.1,10.1-104.3-24.7-114.4-77.7c-3.6-18.6-1.6-37.9,5.6-55.5L144,260.8z"/>
<path class="st2" d="M274.2,404.7c3.3-1,6.6-2.2,9.9-3.5l-3.7-9c-2.9,1.2-5.9,2.3-9,3.2L274.2,404.7z"/>
<path class="st2" d="M327.9,290.5l14.7,14.7c1.9,1.9,5,1.9,6.9,0l14.7-14.7l-6.9-6.9l-6.9,6.9c-6.2-59.1-59.1-101.9-118.2-95.7
	c-10.2,1.1-20.2,3.6-29.7,7.5l3.7,9c49.9-20.5,107,3.2,127.6,53.2c3.2,7.9,5.4,16.1,6.5,24.5l-5.4-5.4L327.9,290.5z"/>
</svg>
