<svg id="Livello_1" data-name="Livello 1" xmlns="http://www.w3.org/2000/svg" viewBox="0 0 800 296.52"><defs><style>.cls-1{fill:#fff;opacity:0;}.cls-2{fill:#bddbff;}.cls-3{fill:#d9ebf9;}.cls-4{fill:#3db2e2;}</style></defs><title>icon-9</title><rect class="cls-1" width="800" height="296.52"/><g id="Time_Management-4" data-name="Time Management-4"><circle class="cls-2" cx="148.98" cy="115.27" r="9.8"/><path class="cls-3" d="M163.68,222a106.19,106.19,0,0,0,39.68-13.67,23.08,23.08,0,0,0-.49,4.9A24.49,24.49,0,1,0,227.8,188.8,106.79,106.79,0,0,0,241,171.36a41.33,41.33,0,0,1,9.75,4.6l14.7-14.7,13.86,13.86-14.7,14.7a42.93,42.93,0,0,1,5.68,13.62H291V223H270.32a42.93,42.93,0,0,1-5.68,13.62l14.7,14.7-13.86,13.86-14.7-14.7a42.93,42.93,0,0,1-13.62,5.68v20.72H217.56V256.2a42.93,42.93,0,0,1-13.62-5.68l-14.7,14.7-13.86-13.86,14.7-14.7A42.93,42.93,0,0,1,184.4,223H163.68v-1Z"/><path class="cls-3" d="M75.5,276.92l34.29-34.29V228.38l12.64,3.43a29.45,29.45,0,0,1,21.65,28.36v31.45H6.92V260.17a29.45,29.45,0,0,1,21.65-28.36l12.64-3.43v14.25Z"/><path class="cls-3" d="M75.5,105.48a42.55,42.55,0,0,0-14.4,2.45,43.37,43.37,0,0,0-19.69,13.72,44,44,0,0,0-10,27.92v14.7h23A39.15,39.15,0,0,0,82.07,152.8l8.13-8.13L91.86,148a29.61,29.61,0,0,0,11.9,12.49,30.15,30.15,0,0,0,11,3.58,26.32,26.32,0,0,0,3.43.2h1.42v-14.7A44.09,44.09,0,0,0,75.5,105.48h0Z"/><path class="cls-4" d="M95.1,179H85.3a9.8,9.8,0,1,1-19.59,0h-9.8A19.59,19.59,0,0,0,95.1,179Z"/><path class="cls-4" d="M162.77,120.17h25.39v-9.8H162.77a14.7,14.7,0,0,0-8.9-8.9V66.29h-9.8v35.19A14.66,14.66,0,1,0,162.77,120.17Zm-18.69-4.9a4.9,4.9,0,1,1,4.9,4.9h0a4.9,4.9,0,0,1-4.9-4.9h0Z"/><path class="cls-4" d="M144.08,41.8h9.8v9.8h-9.8V41.8Z"/><path class="cls-4" d="M190.52,66.79l6.93-6.93,6.93,6.93-6.93,6.93Z"/><path class="cls-4" d="M212.66,110.38h9.8v9.8h-9.8v-9.8Z"/><path class="cls-4" d="M190.51,163.77l6.93-6.93,6.93,6.93-6.93,6.93Z"/><path class="cls-4" d="M144.08,179h9.8v9.8h-9.8V179Z"/><path class="cls-4" d="M93.54,66.78l6.93-6.93,6.93,6.93-6.93,6.93Z"/><path class="cls-4" d="M291,198.55h-17a47.76,47.76,0,0,0-3.3-7.92l12-12a4.9,4.9,0,0,0,0-6.93l-13.86-13.86a4.9,4.9,0,0,0-6.93,0l-12,12c-0.63-.33-1.29-0.61-2-0.92a112.67,112.67,0,1,0-211.7-53.64c0,1.63.08,3.22,0.15,4.83a48.65,48.65,0,0,0-9.95,29.46v14.7a4.9,4.9,0,0,0,4.9,4.9v4.9a44.09,44.09,0,0,0,24.49,39.43v5.81l-28.64,7.79A34.44,34.44,0,0,0,2,260.17v31.45a4.9,4.9,0,0,0,4.9,4.9H144.08a4.9,4.9,0,0,0,4.9-4.9V260.17a34.45,34.45,0,0,0-25.26-33.09L95.1,219.3v-5.11a112.09,112.09,0,0,0,66.22,13.06,4.74,4.74,0,0,0,2.36.69h17a47.76,47.76,0,0,0,3.3,7.92l-12,12a4.9,4.9,0,0,0,0,6.93l13.86,13.86a4.9,4.9,0,0,0,6.93,0l12-12a47.76,47.76,0,0,0,7.92,3.3v17a4.9,4.9,0,0,0,4.9,4.9h19.59a4.9,4.9,0,0,0,4.9-4.9v-17a47.76,47.76,0,0,0,7.92-3.3l12,12a4.9,4.9,0,0,0,6.93,0l13.86-13.86a4.9,4.9,0,0,0,0-6.93l-12-12a47.76,47.76,0,0,0,3.3-7.92h17a4.9,4.9,0,0,0,4.9-4.9V203.45a4.9,4.9,0,0,0-4.9-4.9h0Zm-254.72-49a39.19,39.19,0,0,1,78.38,0v9.56a24.34,24.34,0,0,1-18.44-13.3l-1.67-3.35a4.9,4.9,0,0,0-3.6-2.65,5,5,0,0,0-4.25,1.37l-8.12,8.12a34.06,34.06,0,0,1-24.24,10H36.32v-9.8Zm83.27,24.49v-4.9a4.9,4.9,0,0,0,4.9-4.9v-14.7A48.77,48.77,0,0,0,66.9,101.38a83.32,83.32,0,1,1,49,90.28A43.84,43.84,0,0,0,119.59,174.06Zm-78.38,0v-4.9H54.38a43.79,43.79,0,0,0,31.17-12.91L89,152.82a34,34,0,0,0,20.82,15.3v5.94A34.29,34.29,0,1,1,41.21,174.06Zm4.9,58.06L53,230.25l17.63,14.7v12.39h9.8v-12.4L98,230.24l6.86,1.87v8.49L75.5,270,46.11,240.6v-8.48Zm29.39-14A43.94,43.94,0,0,0,85.3,217v6A4.84,4.84,0,0,0,87,226.68L75.5,236.27,64,226.68A4.84,4.84,0,0,0,65.71,223v-6A43.94,43.94,0,0,0,75.5,218.14Zm63.68,42v26.55H11.82V260.17a24.61,24.61,0,0,1,18-23.64l6.45-1.74v7.84a4.9,4.9,0,0,0,1.44,3.46L72,280.39a4.9,4.9,0,0,0,6.93,0l34.29-34.29a4.9,4.9,0,0,0,1.44-3.46V234.8l6.44,1.75a24.62,24.62,0,0,1,18.06,23.62h0Zm-35.27-52.41a44.41,44.41,0,0,0,7.06-7.57,93.07,93.07,0,1,0-54.34-95.82,49,49,0,0,0-10.29,5.91,102.71,102.71,0,1,1,57.57,97.46v0ZM208,211.24a113.21,113.21,0,0,0,21.6-17.31,19.53,19.53,0,1,1-21.82,19.31,18.37,18.37,0,0,1,.2-2Zm78.16,6.9H270.32a4.9,4.9,0,0,0-4.78,3.8,37.87,37.87,0,0,1-5,12.06,4.9,4.9,0,0,0,.66,6.11l11.25,11.23-7,7L254.23,247a4.9,4.9,0,0,0-6.11-.66,37.87,37.87,0,0,1-12.06,5.07,4.9,4.9,0,0,0-3.8,4.75V272h-9.8V256.2a4.9,4.9,0,0,0-3.8-4.78,37.87,37.87,0,0,1-12.06-5,4.9,4.9,0,0,0-6.11.66l-11.23,11.25-7-7,11.27-11.23a4.9,4.9,0,0,0,.66-6.11,37.87,37.87,0,0,1-5-12.06,4.78,4.78,0,0,0-.52-1.24q4.87-1.84,9.52-4.1A29.39,29.39,0,1,0,237,185.53q3.16-3.94,6-8.16a35.76,35.76,0,0,1,5.19,2.71,4.9,4.9,0,0,0,6.12-.65l11.22-11.25,7,7-11.27,11.23a4.9,4.9,0,0,0-.66,6.11,37.87,37.87,0,0,1,5.07,12.06,4.9,4.9,0,0,0,4.75,3.8h15.82v9.8Z"/></g></svg>