<svg id="Livello_1" data-name="Livello 1" xmlns="http://www.w3.org/2000/svg" viewBox="0 0 800 296.52"><defs><style>.cls-1{fill:#fff;opacity:0;}.cls-2{fill:#d9ebf9;}.cls-3{fill:#3db2e2;}</style></defs><title>icon-12</title><rect class="cls-1" width="800" height="296.52"/><path class="cls-2" d="M137.2,129a14.7,14.7,0,0,1,14.7,14.7c0,8.13-6.57,24.5-14.7,24.5s-14.7-16.37-14.7-24.5A14.7,14.7,0,0,1,137.2,129Z"/><path class="cls-2" d="M173.9,76.57l9.8,26.22a4.87,4.87,0,0,1-4.56,6.62H161.7l-4.9-9.8h4.9V70.2h3A9.87,9.87,0,0,1,173.9,76.57Z"/><path class="cls-2" d="M151.9,99.6L147,114.3H127.4l-4.9-14.7h29.4Z"/><path class="cls-2" d="M112.7,70.2V99.6h4.9l-4.9,9.8H95.26a4.87,4.87,0,0,1-4.56-6.62l9.8-26.22a9.87,9.87,0,0,1,9.21-6.37h3Z"/><path class="cls-2" d="M147,35.9a9.8,9.8,0,1,0-9.8,9.8A9.8,9.8,0,0,0,147,35.9Zm11.32-10.09a19.11,19.11,0,0,1,3.38,11V99.6h-49V36.79a19.09,19.09,0,0,1,3.38-11C121,18.66,130.29,6.5,137.2,6.5S153.42,18.66,158.32,25.81Z"/><path class="cls-3" d="M273.7,229.38l-29.4-49a4.9,4.9,0,0,0-4.2-2.38H204.9a14.58,14.58,0,0,0,.9-4.9,14.79,14.79,0,0,0-15.53-14.68,14.7,14.7,0,0,0-28.57,4.88h9.8a4.9,4.9,0,1,1,9.8,0,6.22,6.22,0,0,1-.07.82,4.9,4.9,0,0,0,7.39,4.76,4.77,4.77,0,0,1,2.48-.68,4.9,4.9,0,1,1,0,9.8H83.3a4.9,4.9,0,0,1,0-9.8,4.76,4.76,0,0,1,2.48.68,4.9,4.9,0,0,0,7.39-4.76,6.22,6.22,0,0,1-.07-0.82,4.9,4.9,0,0,1,9.8,0h9.8a14.7,14.7,0,0,0-28.57-4.88A14.8,14.8,0,0,0,68.6,173.1a14.52,14.52,0,0,0,.9,4.9H34.3a4.83,4.83,0,0,0-4.13,2.42l-0.07,0-29.4,49a4.9,4.9,0,0,0,4.2,7.42H29.4v53.9a4.9,4.9,0,0,0,4.9,4.9H240.1a4.9,4.9,0,0,0,4.9-4.9V236.8h24.5A4.9,4.9,0,0,0,273.7,229.38ZM13.55,227L29.4,200.59V227H13.55ZM98,285.8H39.2v-98H98v98Zm137.2,0H107.8V200.59l20.3,33.84a4.9,4.9,0,0,0,4.2,2.38H235.2v49ZM135.07,227l-23.52-39.2H237.33L260.85,227H135.07Z"/><path class="cls-3" d="M205.8,266.2h19.6V276H205.8v-9.8Z"/><path class="cls-3" d="M186.2,266.2H196V276h-9.8v-9.8Z"/><path class="cls-3" d="M95.27,114.3H112.7a4.9,4.9,0,0,0,4.39-2.71l2.55-5.09,3.12,9.35a4.9,4.9,0,0,0,4.65,3.35H147a4.9,4.9,0,0,0,4.65-3.35l3.12-9.35,2.55,5.09a4.9,4.9,0,0,0,4.39,2.71h17.43a9.8,9.8,0,0,0,9.18-13.23l-9.83-26.22a14.76,14.76,0,0,0-11.87-9.41V36.81a24.24,24.24,0,0,0-4.22-13.75C147.71,1.6,139.8,1.6,137.2,1.6S126.69,1.6,112,23.06a24.23,24.23,0,0,0-4.22,13.75V65.45a14.76,14.76,0,0,0-11.87,9.39l-9.83,26.23A9.8,9.8,0,0,0,95.27,114.3Zm35.66-4.9-1.64-4.9H145.1l-1.64,4.9H130.93Zm38.36-31.12,9.83,26.22h-14.4l-0.43-.85a4.81,4.81,0,0,0,2.3-4V75.54A4.87,4.87,0,0,1,169.29,78.28ZM117.6,36.81a14.5,14.5,0,0,1,2.5-8.22c9.3-13.6,15.26-17.19,17.1-17.19S145,15,154.3,28.59a14.5,14.5,0,0,1,2.51,8.22V94.7H142.1V65.3h-9.8V94.7H117.6V36.81ZM105.1,78.28a4.91,4.91,0,0,1,2.7-2.74V99.6a4.81,4.81,0,0,0,2.3,4l-0.43.85H95.27Z"/><path class="cls-3" d="M137.2,50.6a14.7,14.7,0,1,0-14.7-14.7A14.7,14.7,0,0,0,137.2,50.6Zm0-19.6a4.9,4.9,0,1,1-4.9,4.9A4.9,4.9,0,0,1,137.2,31Z"/><path class="cls-3" d="M137.2,124.1a19.6,19.6,0,0,0-19.6,19.6c0,10.09,7.63,29.4,19.6,29.4s19.6-19.31,19.6-29.4A19.6,19.6,0,0,0,137.2,124.1Zm0,39.2c-3.67,0-9.8-12.27-9.8-19.6a9.8,9.8,0,1,1,19.6,0C147,151,140.87,163.3,137.2,163.3Z"/><path class="cls-3" d="M200.9,109.4h9.8V129h-9.8V109.4Z"/><path class="cls-3" d="M200.9,138.8h9.8v9.8h-9.8v-9.8Z"/><path class="cls-3" d="M220.5,119.2h9.8v19.6h-9.8V119.2Z"/><path class="cls-3" d="M220.5,148.6h9.8v9.8h-9.8v-9.8Z"/><path class="cls-3" d="M63.7,109.4h9.8V129H63.7V109.4Z"/><path class="cls-3" d="M63.7,138.8h9.8v9.8H63.7v-9.8Z"/><path class="cls-3" d="M44.1,119.2h9.8v19.6H44.1V119.2Z"/><path class="cls-3" d="M44.1,148.6h9.8v9.8H44.1v-9.8Z"/><path class="cls-3" d="M243.57,34.47l-6.93-6.93A110.09,110.09,0,0,0,205.8,99.6h9.8A101.45,101.45,0,0,1,243.57,34.47Z"/><path class="cls-3" d="M240.1,109.4a101.45,101.45,0,0,1,28-65.14l-6.93-6.93A110.09,110.09,0,0,0,230.3,109.4h9.8Z"/><path class="cls-3" d="M68.6,99.6A110.11,110.11,0,0,0,37.77,27.54l-6.93,6.93a102,102,0,0,1,28,65.14h9.8Z"/><path class="cls-3" d="M44.1,109.4A110.11,110.11,0,0,0,13.27,37.34L6.34,44.27a102,102,0,0,1,28,65.14h9.8Z"/></svg>