<svg id="Livello_1" data-name="Livello 1" xmlns="http://www.w3.org/2000/svg" viewBox="0 0 800 296.52"><defs><style>.cls-1{fill:#fff;opacity:0;}.cls-2{fill:#d9ebf9;}.cls-3{fill:#3db2e2;}</style></defs><title>icon-10</title><rect class="cls-1" width="800" height="296.52"/><g id="Time_Management" data-name="Time Management"><path class="cls-2" d="M271.93,54a58.92,58.92,0,1,0,17.2,41.61A58.92,58.92,0,0,0,271.93,54Zm-41.61,51.41a9.8,9.8,0,1,1,9.8-9.8A9.8,9.8,0,0,1,230.33,105.39Z"/><path class="cls-2" d="M137.22,129.9v4.9H58.81v-4.9a29.45,29.45,0,0,1,29.4-29.4l9.8,9.8,9.8-9.8A29.45,29.45,0,0,1,137.22,129.9Z"/><path class="cls-2" d="M127.42,71.73V56.39a29.4,29.4,0,0,0-58.81,0V71.73a19.6,19.6,0,0,0-1.32,37.54,29.2,29.2,0,0,1,20.93-8.77V88A20.71,20.71,0,0,1,84.14,85a19.6,19.6,0,0,1-5.68-13.23,2.79,2.79,0,0,1,0-.64v-9.8H85a19.6,19.6,0,0,0,13.87-5.73l4.07-4.07,6.91,6.91a9.83,9.83,0,0,0,7,2.89h0.83v9.8a2.79,2.79,0,0,1,0,.64A19.43,19.43,0,0,1,107.81,88v12.45a29.2,29.2,0,0,1,20.93,8.77,19.6,19.6,0,0,0-1.32-37.54h0Z"/><path class="cls-3" d="M49,149.5H176.42v9.8H49v-9.8Z"/><path class="cls-3" d="M49,169.1h29.4v9.8H49v-9.8Z"/><path class="cls-3" d="M88.21,169.1h68.61v9.8H88.21v-9.8Z"/><path class="cls-3" d="M166.62,169.1h58.81v9.8H166.62v-9.8Z"/><path class="cls-3" d="M49,188.7h9.8v9.8H49v-9.8Z"/><path class="cls-3" d="M68.61,188.7h49v9.8h-49v-9.8Z"/><path class="cls-3" d="M127.42,188.7h98v9.8h-98v-9.8Z"/><path class="cls-3" d="M49,208.31H156.82v9.8H49v-9.8Z"/><path class="cls-3" d="M166.62,208.31h58.81v9.8H166.62v-9.8Z"/><path class="cls-3" d="M49,227.91H225.43v9.8H49v-9.8Z"/><path class="cls-3" d="M294,95.59a63.78,63.78,0,0,0-49-61.93V17.18a14.7,14.7,0,0,0-14.7-14.7H44.11a14.7,14.7,0,0,0-14.7,14.7V247.51H4.9a4.9,4.9,0,0,0-4.9,4.9V272a24.53,24.53,0,0,0,24.5,24.5h196A24.53,24.53,0,0,0,245,272V157.52A63.78,63.78,0,0,0,294,95.59ZM265,123.32l-6.93,6.93L264.8,137a53.64,53.64,0,0,1-29.57,12.26V139.7h-9.8v9.55A53.64,53.64,0,0,1,195.86,137l6.75-6.75-6.93-6.93-6.75,6.75a53.64,53.64,0,0,1-12.26-29.58h9.55v-9.8h-9.55a53.64,53.64,0,0,1,12.25-29.57l6.75,6.75,6.93-6.93-6.75-6.75a53.64,53.64,0,0,1,29.58-12.26v9.55h9.8V41.94A53.64,53.64,0,0,1,264.8,54.19l-6.75,6.75L265,67.87l6.75-6.75A53.64,53.64,0,0,1,284,90.69h-9.55v9.8H284a53.64,53.64,0,0,1-12.25,29.57ZM24.5,286.72A14.7,14.7,0,0,1,9.8,272v-14.7H196V272a24.44,24.44,0,0,0,4.9,14.7H24.5ZM235.23,272a14.7,14.7,0,0,1-29.4,0v-19.6a4.9,4.9,0,0,0-4.9-4.9H39.2V17.18a4.9,4.9,0,0,1,4.9-4.9H230.33a4.9,4.9,0,0,1,4.9,4.9v15c-1.62-.13-3.24-0.25-4.9-0.25a63.71,63.71,0,0,0,0,127.42c1.66,0,3.28-.12,4.9-0.25V272Z"/><path class="cls-3" d="M235.23,81.79V61.29h-9.8v20.5a14.67,14.67,0,1,0,18.7,18.7h15.6v-9.8h-15.6A14.7,14.7,0,0,0,235.23,81.79Zm-4.9,18.7a4.9,4.9,0,1,1,4.9-4.9A4.9,4.9,0,0,1,230.33,100.49Z"/><path class="cls-3" d="M59.72,110.87a34,34,0,0,0-5.81,19v4.9a4.9,4.9,0,0,0,4.9,4.9h78.41a4.9,4.9,0,0,0,4.9-4.9v-4.9a34,34,0,0,0-5.81-19,24.43,24.43,0,0,0-4-42.63V56.39a34.3,34.3,0,0,0-68.61,0V68.26a24.42,24.42,0,0,0-4,42.64v0Zm4,19a24.46,24.46,0,0,1,22.66-24.32l8.18,8.18a4.9,4.9,0,0,0,6.93,0l8.18-8.18a24.46,24.46,0,0,1,22.66,24.32H63.71ZM98,85.79a14.7,14.7,0,0,1-14.7-14.7v-4.9H85A24.34,24.34,0,0,0,102.31,59l0.6-.6,3.46,3.46a14.61,14.61,0,0,0,6.34,3.74v5.46A14.7,14.7,0,0,1,98,85.79Zm0,9.8a24.5,24.5,0,0,0,4.9-.49v3.37l-4.9,4.9-4.9-4.9V95.1A24.5,24.5,0,0,0,98,95.59Zm39.2-4.9a14.64,14.64,0,0,1-7.55,12.81,34.19,34.19,0,0,0-17-7.56V90.55A24.46,24.46,0,0,0,122,76a13.52,13.52,0,0,1,4.2.41,14.64,14.64,0,0,1,11,14.23h0ZM73.51,56.39a24.5,24.5,0,0,1,49,0v4.9a4.9,4.9,0,0,0-4.9-4.9h-0.84A4.9,4.9,0,0,1,113.31,55L106.38,48a4.9,4.9,0,0,0-6.93,0l-4.06,4.06A14.8,14.8,0,0,1,85,56.39H78.41a4.9,4.9,0,0,0-4.9,4.9v-4.9ZM69.94,76.45A13.14,13.14,0,0,1,74,76a24.46,24.46,0,0,0,9.3,14.54V96a34.19,34.19,0,0,0-17,7.56,14.66,14.66,0,0,1,3.58-27.05h0Z"/></g></svg>