<svg id="Livello_1" data-name="Livello 1" xmlns="http://www.w3.org/2000/svg" viewBox="0 0 800 297"><defs><style>.cls-1{fill:#fff;opacity:0;}.cls-2{fill:#d9ebf9;}.cls-3{fill:#3db2e2;}</style></defs><title>icon-8</title><rect class="cls-1" width="800" height="296.52"/><path class="cls-2" d="M103.21,231l-2.13.59A29.76,29.76,0,0,0,79.2,260.27v7H5V237.6a28.55,28.55,0,0,1,18.51-26.73l21.09-7.92,9.9,9.9,9.9-9.9,21,7.87A28.58,28.58,0,0,1,103.21,231Z"/><path class="cls-2" d="M292,237.6v29.7H217.8v-7a29.76,29.76,0,0,0-21.88-28.66l-2.13-.59a29.1,29.1,0,0,1,4.36-9.7,28.49,28.49,0,0,1,13.41-10.44L232.65,203l9.9,9.9,9.9-9.9,21,7.87A28.54,28.54,0,0,1,292,237.55v0Z"/><path class="cls-2" d="M195.92,231.61l-2.13-.59-10.64-2.87v14.4L148.5,277.2l-34.65-34.65v-14.4L103.21,231l-2.13.59A29.76,29.76,0,0,0,79.2,260.27v31.78H217.8V260.27A29.76,29.76,0,0,0,195.92,231.61Z"/><path class="cls-2" d="M84.15,143.55v9.9h-9.9l-9.9-9.9-14.85,9.9H24.75v-9.9A29.7,29.7,0,0,1,84.15,143.55Z"/><path class="cls-2" d="M272.25,143.55v9.9h-9.9l-9.9-9.9-14.85,9.9H212.85v-9.9A29.7,29.7,0,0,1,272.25,143.55Z"/><path class="cls-2" d="M193,148.5v14.85h-1.44a26.6,26.6,0,0,1-3.47-.2A29.63,29.63,0,0,1,165,146.92l-1.68-3.37-8.22,8.22a39.53,39.53,0,0,1-28,11.58H103.95V148.5a44.55,44.55,0,1,1,89.1,0h0Z"/><path class="cls-3" d="M168.3,178.2h-9.9a9.9,9.9,0,0,1-19.8,0h-9.9A19.8,19.8,0,0,0,168.3,178.2Z"/><path class="cls-3" d="M275.22,206.18l-17.82-6.66V189a29.7,29.7,0,0,0,14.85-25.68V158.4a5,5,0,0,0,4.95-4.95v-9.9a34.65,34.65,0,1,0-69.3,0v9.9a5,5,0,0,0,4.95,4.95v4.95A29.7,29.7,0,0,0,227.7,189v10.49l-17.87,6.71a33.16,33.16,0,0,0-15.75,12.25,34.12,34.12,0,0,0-3.51,6.54L168.3,219V213.1A44.55,44.55,0,0,0,193,173.25V168.3a5,5,0,0,0,4.95-4.95V148.5a49.5,49.5,0,0,0-99,0v14.85a5,5,0,0,0,4.95,4.95v4.95A44.55,44.55,0,0,0,128.7,213.1V219L106.42,225a33.37,33.37,0,0,0-19.3-18.84L69.3,199.52V189a29.7,29.7,0,0,0,14.85-25.68V158.4a5,5,0,0,0,4.95-4.95v-9.9a34.65,34.65,0,1,0-69.3,0h0v9.9a5,5,0,0,0,4.95,4.95v4.95A29.7,29.7,0,0,0,39.6,189v10.49l-17.87,6.71A33.49,33.49,0,0,0,0,237.6v29.7A5,5,0,0,0,5,272.25h69.3V292A5,5,0,0,0,79.2,297H217.8a5,5,0,0,0,4.95-4.95v-19.8H292A5,5,0,0,0,297,267.3V237.55a33.66,33.66,0,0,0-21.78-31.37h0ZM217.8,143.55a24.75,24.75,0,0,1,49.5,0v4.95h-2.9l-8.45-8.45a5,5,0,0,0-6.25-.62l-13.59,9.07H217.8v-4.95Zm4.95,14.85H237.6a5,5,0,0,0,2.75-.83l11.47-7.65,7,7a5,5,0,0,0,3.5,1.45v4.95a19.8,19.8,0,1,1-39.6,0V158.4Zm19.8,34.65a29.7,29.7,0,0,0,4.95-.45v8.3l-4.95,4.95-4.95-4.95v-8.3A29.7,29.7,0,0,0,242.55,193.05ZM118.8,231.92l6.93-1.89,17.82,14.85V257.4h9.9V244.87L171.27,230l6.93,1.88v8.58l-29.7,29.7-29.7-29.7v-8.57Zm-9.9-83.42a39.6,39.6,0,1,1,79.2,0v9.66a24.6,24.6,0,0,1-18.63-13.44l-1.69-3.38a4.95,4.95,0,0,0-7.92-1.29l-8.21,8.2a34.42,34.42,0,0,1-24.5,10.15H108.9v-9.9Zm4.95,24.75V168.3h13.3a44.24,44.24,0,0,0,31.5-13l3.47-3.47a34.37,34.37,0,0,0,21,15.46v6A34.65,34.65,0,0,1,113.85,173.25ZM148.5,217.8a44.41,44.41,0,0,0,9.9-1.15v6.1a4.9,4.9,0,0,0,1.73,3.68l-11.63,9.69-11.63-9.68a4.9,4.9,0,0,0,1.73-3.68v-6.1A44.41,44.41,0,0,0,148.5,217.8ZM29.7,143.55a24.75,24.75,0,0,1,49.5,0v4.95H76.3l-8.45-8.45a5,5,0,0,0-6.25-.62L48,148.5H29.7v-4.95Zm4.95,14.85H49.5a5,5,0,0,0,2.75-.83l11.47-7.65,7,7a5,5,0,0,0,3.5,1.45v4.95a19.8,19.8,0,0,1-39.6,0V158.4Zm19.8,34.65a29.7,29.7,0,0,0,4.95-.45v8.3l-4.95,4.95L49.5,200.9v-8.3A29.7,29.7,0,0,0,54.45,193.05ZM9.9,262.35V237.6a23.59,23.59,0,0,1,15.31-22.1l18.1-6.8L51,216.35a5,5,0,0,0,7,0l7.65-7.65,18.07,6.76A23.53,23.53,0,0,1,96.9,227.89a34.72,34.72,0,0,0-22.65,32.38v2.08H9.9ZM212.85,287.1H84.15V260.27a24.87,24.87,0,0,1,18.23-23.88l6.52-1.76v7.92a5,5,0,0,0,1.45,3.5L145,280.7a5,5,0,0,0,7,0L186.65,246a5,5,0,0,0,1.45-3.5v-7.92l6.5,1.77a24.88,24.88,0,0,1,18.25,23.87V287.1Zm74.25-24.75H222.75v-2.08a34.71,34.71,0,0,0-22.65-32.38,24,24,0,0,1,2.12-3.77,23.36,23.36,0,0,1,11.08-8.62l18.1-6.8,7.65,7.64a5,5,0,0,0,7,0l7.65-7.65,18.06,6.76A23.71,23.71,0,0,1,287.1,237.6v24.75Z"/><path class="cls-3" d="M34.65,79.2H59.4V94.05a5,5,0,0,0,8.45,3.5L86.2,79.2h27.65a9.9,9.9,0,0,0,9.9-9.9h11.79l8.53,17.06a5,5,0,0,0,8.86,0l8.53-17.06h11.79a9.9,9.9,0,0,0,9.9,9.9H210.8l18.35,18.35a4.95,4.95,0,0,0,8.45-3.5V79.2h24.75a9.9,9.9,0,0,0,9.9-9.9V19.8a9.9,9.9,0,0,0-9.9-9.9H198A9.9,9.9,0,0,0,188.1,0H108.9A9.9,9.9,0,0,0,99,9.9H34.65a9.9,9.9,0,0,0-9.9,9.9V69.3A9.9,9.9,0,0,0,34.65,79.2ZM198,59.4V19.8h64.35V69.3h-29.7a5,5,0,0,0-4.95,4.95V82.1L216.35,70.75a5,5,0,0,0-3.5-1.45H188.1a9.9,9.9,0,0,0,9.9-9.9h0ZM108.9,9.9h79.2V59.4H158.4a5,5,0,0,0-4.46,2.74L148.5,73.08l-5.45-10.94a5,5,0,0,0-4.45-2.74H108.9V9.9ZM34.65,19.8H99V59.4a9.9,9.9,0,0,0,9.9,9.9H84.15a5,5,0,0,0-3.5,1.45L69.3,82.1V74.25a5,5,0,0,0-4.95-4.95H34.65V19.8Z"/><path class="cls-3" d="M49.5,29.7H89.1v9.9H49.5V29.7Z"/><path class="cls-3" d="M49.5,49.5H89.1v9.9H49.5V49.5Z"/><path class="cls-3" d="M207.9,29.7h39.6v9.9H207.9V29.7Z"/><path class="cls-3" d="M207.9,49.5h39.6v9.9H207.9V49.5Z"/><path class="cls-3" d="M123.75,19.8h49.5v9.9h-49.5V19.8Z"/><path class="cls-3" d="M123.75,39.6h49.5v9.9h-49.5V39.6Z"/></svg>