<?xml version="1.0" encoding="utf-8"?>
<!-- Generator: Adobe Illustrator 19.2.1, SVG Export Plug-In . SVG Version: 6.00 Build 0)  -->
<svg version="1.1" id="Livello_1" xmlns="http://www.w3.org/2000/svg" xmlns:xlink="http://www.w3.org/1999/xlink" x="0px" y="0px"
	 viewBox="0 0 800 500" style="enable-background:new 0 0 800 500;" xml:space="preserve">
<style type="text/css">
	.st0{fill:#FFFFFF;}
	.st1{fill:#D9EBF9;}
	.st2{fill:#3DB2E2;}
</style>
<title>icon-1</title>
<rect class="st0" width="800" height="500"/>
<path class="st1" d="M356.7,456.4v-116H376c5.3,0,9.7,4.3,9.7,9.7v96.7c0,5.3-4.3,9.7-9.7,9.7H356.7z"/>
<path class="st1" d="M197.2,379.1v19.3h-87c-2.7,0-4.8-2.2-4.8-4.8v-14.5H197.2z"/>
<path class="st1" d="M279.3,311.4c0,5.3-4.3,9.7-9.7,9.7s-9.7-4.3-9.7-9.7s4.3-9.7,9.7-9.7S279.3,306.1,279.3,311.4z"/>
<path class="st1" d="M177.8,296.9h33.8c0,18.7-15.1,33.8-33.8,33.8S144,315.6,144,296.9c0-18.7,15.1-33.8,33.8-33.8V296.9z"/>
<path class="st1" d="M226.2,282.4h-33.8v-33.8C211,248.6,226.2,263.7,226.2,282.4z"/>
<path class="st1" d="M322.8,272.8h-19.3v19.3c0,5.3,4.3,9.7,9.7,9.7h58c5.3,0,9.7-4.3,9.7-9.7v-19.3H322.8z"/>
<g>
	<path class="st2" d="M124.7,234.1c0-2.7,2.2-4.8,4.8-4.8H289v-9.7H129.5c-8,0-14.5,6.5-14.5,14.5v140.2h-9.7
		c-2.7,0-4.8,2.2-4.8,4.8v14.5c0,5.3,4.3,9.7,9.7,9.7h87v-9.7h-87v-9.7h87v-9.7h-72.5V234.1z"/>
	<path class="st2" d="M318,316.3h9.7v9.7H318V316.3z"/>
	<path class="st2" d="M313.2,306.6h58c8,0,14.5-6.5,14.5-14.5V185.8c0-8-6.5-14.5-14.5-14.5h-58c-8,0-14.5,6.5-14.5,14.5v106.3
		C298.7,300.1,305.2,306.6,313.2,306.6z M371.2,296.9h-58c-2.7,0-4.8-2.2-4.8-4.8v-14.5H376v14.5C376,294.8,373.8,296.9,371.2,296.9
		z M313.2,180.9h58c2.7,0,4.8,2.2,4.8,4.8v82.2h-67.7v-82.2C308.3,183.1,310.5,180.9,313.2,180.9z"/>
	<path class="st2" d="M337.3,282.4h9.7v9.7h-9.7V282.4z"/>
	<path class="st2" d="M231,282.4c0-21.3-17.3-38.6-38.7-38.7c-2.7,0-4.8,2.2-4.8,4.8v33.8c0,2.7,2.2,4.8,4.8,4.8h33.8
		C228.8,287.3,231,285.1,231,282.4z M197.2,277.6v-23.8c12.2,2.1,21.7,11.6,23.8,23.8H197.2z"/>
	<path class="st2" d="M211.7,292.1h-29v-29c0-2.7-2.2-4.8-4.8-4.8c-21.4,0-38.7,17.3-38.7,38.7c0,21.4,17.3,38.7,38.7,38.7
		s38.7-17.3,38.7-38.7C216.5,294.2,214.3,292.1,211.7,292.1z M177.8,325.9c-15.1,0-27.7-11.5-28.9-26.6c-1.3-15,9.2-28.5,24.1-31
		v28.6c0,2.7,2.2,4.8,4.8,4.8h28.6C204.1,315.7,192,325.9,177.8,325.9z"/>
	<path class="st2" d="M250.3,243.8h-9.7c-1.3,0-2.5,0.5-3.4,1.4l-9.7,9.7l6.8,6.8l8.3-8.3h7.7V243.8z"/>
	<path class="st2" d="M260,243.8h19.3v9.7H260V243.8z"/>
	<path class="st2" d="M260,263.1h19.3v9.7H260V263.1z"/>
	<path class="st2" d="M134.3,350.1h58v9.7h-58V350.1z"/>
	<path class="st2" d="M221.3,306.6h29v9.7h-29V306.6z"/>
	<path class="st2" d="M255.2,311.4c0,8,6.5,14.5,14.5,14.5s14.5-6.5,14.5-14.5s-6.5-14.5-14.5-14.5S255.2,303.4,255.2,311.4z
		 M269.7,306.6c2.7,0,4.8,2.2,4.8,4.8s-2.2,4.8-4.8,4.8s-4.8-2.2-4.8-4.8S267,306.6,269.7,306.6z"/>
	<path class="st2" d="M337.3,195.4h29v9.7h-29V195.4z"/>
	<path class="st2" d="M337.3,214.8h29v9.7h-29V214.8z"/>
	<path class="st2" d="M337.3,234.1h9.7v9.7h-9.7V234.1z"/>
	<path class="st2" d="M356.7,234.1h9.7v9.7h-9.7V234.1z"/>
	<path class="st2" d="M376,335.6H221.3c-8,0-14.5,6.5-14.5,14.5v96.7c0,8,6.5,14.5,14.5,14.5H376c8,0,14.5-6.5,14.5-14.5v-96.7
		C390.5,342.1,384,335.6,376,335.6z M216.5,446.8v-96.7c0-2.7,2.2-4.8,4.8-4.8h130.5v106.3H221.3
		C218.7,451.6,216.5,449.4,216.5,446.8z M380.8,446.8c0,2.7-2.2,4.8-4.8,4.8h-14.5V345.3H376c2.7,0,4.8,2.2,4.8,4.8V446.8z"/>
	<path class="st2" d="M366.3,393.6h9.7v9.7h-9.7V393.6z"/>
	<path class="st2" d="M332.5,427.4v-53.2h-9.7v53.2h-9.7v-38.7h-9.7v38.7h-9.7v-29h-9.7v29h-9.7v-43.5h-9.7v43.5h-9.7v-19.3h-9.7
		v19.3h-9.7v-62.8h-9.7v67.7c0,2.7,2.2,4.8,4.8,4.8h111.2v-9.7H332.5z"/>
</g>
</svg>
