<?xml version="1.0" encoding="utf-8"?>
<!-- Generator: Adobe Illustrator 19.2.1, SVG Export Plug-In . SVG Version: 6.00 Build 0)  -->
<svg version="1.1" id="Livello_1" xmlns="http://www.w3.org/2000/svg" xmlns:xlink="http://www.w3.org/1999/xlink" x="0px" y="0px"
	 viewBox="0 0 1249 299.4" style="enable-background:new 0 0 1249 299.4;" xml:space="preserve">
<style type="text/css">
	.st0{opacity:0.15;}
	.st1{fill:#EBF5FB;}
</style>
<title>overlay-1</title>
<g id="_Gruppo_">
	<g id="_Gruppo_2" class="st0">
		<path id="_Tracciato_" class="st1" d="M78.3,47.3L626.8,49c13.3,0,24.1,10.9,24.1,24.2l0,0c0,13.4-10.8,24.2-24.2,24.2l0,0H507.5
			c-10.6,0-19.1,8.6-19.1,19.1l0,0c0,10.6,8.6,19.1,19.1,19.1h76.8c13.1,0,23.7,10.6,23.7,23.6l0,0l0,0c0,13.1-10.6,23.7-23.7,23.7
			H442.1v66.5h198.7c13.1,0,23.7,10.6,23.7,23.7l0,0c0,13.1-10.6,23.7-23.7,23.7L122.9,297c-12.4,0-22.5-10.1-22.5-22.5l0,0l0,0
			c0-12.4,10.1-22.5,22.5-22.5l0,0h117.9v-35H29.2C13.1,217,0,203.9,0,187.8l0,0l0,0c0-16.1,13.1-29.2,29.2-29.2l0,0H203
			c10.4,0,18.9-8.4,18.9-18.9l0,0c0-10.4-8.4-18.9-18.9-18.9h-25.7c-17.1,0-31-13.9-31-31h-68C66.6,89.9,57,80.3,57,68.6
			c0,0,0,0,0-0.1l0,0C57,56.8,66.6,47.3,78.3,47.3L78.3,47.3z"/>
	</g>
</g>
<g id="_Gruppo_130">
	<g id="_Gruppo_131" class="st0">
		<path id="_Tracciato_79" class="st1" d="M735.9,53.1h475c13.8,0,25,11.2,25,25l0,0c0,13.8-11.2,25-25,25h-99.3
			c-10.4,0-18.9,8.4-18.9,18.8v0.1l0,0c0,10.4,8.4,18.9,18.8,18.9h0.1l63.5-0.3c10.6-0.1,19.3,8.5,19.4,19.2v0.1l0,0
			c0,10.5-8.4,19.1-18.9,19.3l-75.4,1.4c-11.8,0.2-21.2,9.8-21.2,21.6l0,0c0,11.9,9.7,21.6,21.6,21.6h57.9c9.1,0,16.5,7.4,16.5,16.5
			l0,0c0,9.1-7.4,16.5-16.5,16.5h-21.2c-15.4,0-27.9,12.5-27.9,27.9v12.1H767.6V286c0-17.2-13.8-31.1-30.9-31.3l-52.4-0.6
			c-13.9-0.2-25.1-11.5-25.1-25.4l0,0c0-14,11.4-25.4,25.4-25.4l0,0h50.6c0-25.1,20.4-45.5,45.5-45.5h17.4
			c13.4,0,24.2-10.8,24.2-24.2l0,0c0-13.4-10.8-24.2-24.2-24.2h-62.2c-15.5,0-28.1-12.6-28.1-28.1l0,0l0,0
			C707.8,65.7,720.4,53.1,735.9,53.1L735.9,53.1z"/>
	</g>
</g>
</svg>
