<svg id="Layer_1" data-name="Layer 1" xmlns="http://www.w3.org/2000/svg" viewBox="0 0 270.41 176.79"><defs><style>.cls-1{fill:#ffe1e0;}.cls-2{fill:#d8e7eb;}.cls-3{fill:#b8d2d9;}.cls-4{fill:#ad263d;}.cls-5{fill:#ff6161;}.cls-6{fill:#1a4959;}.cls-7{fill:#12273f;}.cls-8{fill:#eae8ff;}.cls-9{fill:#092121;}.cls-10{fill:#ff9791;}.cls-11{fill:#d95f76;}.cls-12{fill:#d8a65d;}.cls-13{fill:#bf7d3b;}.cls-14{fill:#ffbfbd;}.cls-15{fill:#b5b5b5;}.cls-16{fill:#311e69;}.cls-17{fill:#fff;}.cls-18{fill:#246f89;}.cls-19{fill:#5d5d5d;}.cls-20{fill:#c5d1d3;}.cls-21{fill:#266075;}.cls-22{fill:#318fa8;}.cls-23{fill:#1e1240;}.cls-24{fill:#3fb0e1;}.cls-25{fill:#ff8f8f;}.cls-26{fill:#ad3e4c;}.cls-27{fill:#d3d3d3;}.cls-28{fill:#ffe6e6;}.cls-29{fill:#ffd6d6;}</style></defs><title>travel-1</title><path class="cls-1" d="M141.66,164.38s86.84,1.45,106.59-17.15,9.56-97.72-42.13-103.49-57.21,3.91-57.21,3.91S122.46-1,79.24.78,21.62,68.81,30,88.84c0,0-14.2-10-27.85,24.22S41.73,169.45,141.66,164.38Z" transform="translate(0 -0.73)"/><path class="cls-2" d="M113.67,66.91C112,57.53,125.22,46,109,37.31a19.12,19.12,0,0,0-17-.48c-10.31,4.75-13,21.69-13.85,38.1-0.27,4.89-5.42,10.88-4.62,14.89,0.71,3.59,15.78,2.6,22.42-3.26C104.36,79.12,111.38,75.5,113,73.7,114.37,72.14,114.11,69.41,113.67,66.91Z" transform="translate(0 -0.73)"/><path class="cls-3" d="M113,73.7c1.39-1.55,1.13-4.29.69-6.79C112,57.53,125.22,46,109,37.31a18.65,18.65,0,0,0-6.06-2c0.59,2.73.31,10.27,0.83,13.84C104.4,53.59,93.43,73.6,92,83.93a34.51,34.51,0,0,0-.36,5.35,17.62,17.62,0,0,0,4.31-2.71C104.36,79.12,111.38,75.5,113,73.7Z" transform="translate(0 -0.73)"/><path class="cls-4" d="M153.69,48.32l-2.95,23.23s17.49-3.81,19.85.44-7.89,10.84-17.83,13.42-19.54,4.22-16-14.4S153.69,48.32,153.69,48.32Z" transform="translate(0 -0.73)"/><path class="cls-4" d="M138.51,80.76s28.48,7,30.65,17.73c2.73,13.49-10.38,36.28-18.74,41.61s-13.93,3.72-8.9-4.24,9.59-37.17,9.59-37.17l-13.64-6.26Z" transform="translate(0 -0.73)"/><path class="cls-5" d="M71.85,116.22L59,117.57a2.58,2.58,0,0,0-1.9,1.17l-2.51,3.89A2.58,2.58,0,0,0,56,126.5l7.48,2.28Z" transform="translate(0 -0.73)"/><path class="cls-6" d="M211.63,137.87l0.2-.88-5.3-1.06c-0.39-.09-0.79-0.17-1.19-0.24l-0.16,0h0a20.45,20.45,0,0,0-8.41,40h0a20.3,20.3,0,0,0,2.22.44l3.5,0.7,0.12-.52,0.5,0A20.45,20.45,0,0,0,211.63,137.87Z" transform="translate(0 -0.73)"/><circle class="cls-7" cx="207.95" cy="157.08" r="20.45" transform="translate(-9.32 12.43) rotate(-3.55)"/><circle class="cls-8" cx="207.95" cy="157.08" r="8.23" transform="translate(-9.32 12.43) rotate(-3.55)"/><path class="cls-6" d="M92.63,137.87l0.2-.88-5.3-1.06c-0.39-.09-0.79-0.17-1.19-0.24l-0.16,0h0a20.45,20.45,0,0,0-8.41,40h0a20.3,20.3,0,0,0,2.22.44l3.5,0.7,0.12-.52,0.5,0A20.45,20.45,0,0,0,92.63,137.87Z" transform="translate(0 -0.73)"/><circle class="cls-7" cx="88.95" cy="157.08" r="20.45" transform="translate(-9.55 5.07) rotate(-3.55)"/><circle class="cls-8" cx="88.95" cy="157.08" r="8.23" transform="translate(-9.55 5.07) rotate(-3.55)"/><path class="cls-9" d="M70.32,116.22l2.25-8.7a11.21,11.21,0,0,1,12-8.34l16.14,1.63a11.21,11.21,0,0,0,1.58,0l19.76-.61a11.21,11.21,0,0,1,11.31,14h0Z" transform="translate(0 -0.73)"/><path class="cls-10" d="M60.21,126.11l6.27-6.55a28.07,28.07,0,0,1,20.27-8.65h45.79l0.42,0c3.3,0.36,4.05,4.89,1.17,6.53l-6.81,3.87a14.54,14.54,0,0,0-7.46,11.61q0,0.47,0,1h0a11,11,0,0,0,11,11h25.6a8.35,8.35,0,0,0,7.68-5.09l8.28-19.5a41.93,41.93,0,0,0,2.74-23.39l-3.79-22.32,10.22-1.67L187,97.79a14.43,14.43,0,0,0,9.05,10.45l5.9,2.2a3.64,3.64,0,0,1,2.37,3.41h0a3.64,3.64,0,0,1-2.31,3.39l-4.24,1.67a37.75,37.75,0,0,0-19.59,17.57l-6.36,12.1a8.35,8.35,0,0,1-7.39,4.47H71.72a15.93,15.93,0,0,1-15.93-15.93h0A15.93,15.93,0,0,1,60.21,126.11Z" transform="translate(0 -0.73)"/><path class="cls-10" d="M151.26,67.44l2.43-19.12s-13.46,4.07-17,22.69l0,0.11C144.89,71.87,149.23,69.31,151.26,67.44Z" transform="translate(0 -0.73)"/><path class="cls-11" d="M202,110.44l-5.9-2.2A14.43,14.43,0,0,1,187,97.79l-5.42-24.85-10.22,1.67,1,5.77,2.81,0.36a7.33,7.33,0,0,1,6.25,5.74c1.18,5.51,3.06,14,4.14,17.34,1.67,5.22-.94,19.86-2.35,25.37h0a37.74,37.74,0,0,1,14.58-10.27l4.24-1.67a3.64,3.64,0,0,0,2.31-3.39h0A3.64,3.64,0,0,0,202,110.44Z" transform="translate(0 -0.73)"/><path class="cls-11" d="M55.8,137.42A15.92,15.92,0,0,0,71.72,153h41.57a5.86,5.86,0,0,0,2.1-3.09c2-7.11-.66-18.71-5.51-23.88-7-7.41-18.39-10.12-34.74-4.07A37.61,37.61,0,0,0,55.8,137.42Z" transform="translate(0 -0.73)"/><path class="cls-10" d="M56.16,140.54s4.43-11.9,19.66-17.53,24.31,0.23,28.74,5.58C114.41,140.48,110.47,153,108,153H68.6a12.44,12.44,0,0,1-12.44-12.44v-0.07Z" transform="translate(0 -0.73)"/><path class="cls-10" d="M180.61,147.41a3.15,3.15,0,0,1-2.82-4.54c3.24-6.53,10.19-18.13,19.86-21.12,10.28-3.18,19.07-2.83,26.6,6.88a26.9,26.9,0,0,1,4.54,7.81,5.16,5.16,0,0,1-4.9,6.8H197.7a11,11,0,0,0-6.61,2.2h0a10,10,0,0,1-6,2h-4.52Z" transform="translate(0 -0.73)"/><path class="cls-11" d="M229.06,137.92c-5.54-8-18.72-10.1-28.07-9.91-8,.16-15.53,4.65-18.36,6.55a69.52,69.52,0,0,0-4.84,8.31,3.15,3.15,0,0,0,2.82,4.54h4.52a10,10,0,0,0,6-2,11,11,0,0,1,6.61-2.2h26.2A5.16,5.16,0,0,0,229.06,137.92Z" transform="translate(0 -0.73)"/><path class="cls-2" d="M161.7,158H102.05a2.67,2.67,0,0,1-2.27-4.09l1.13-1.82h64.22c0.24,0,4.65-.08,6.69-5.51,2.22-5.94,9.32-15.69,10.29-17,2.53-8.73,4.56-18.26,2.54-25.54-0.67-2.42-1.67-5.54-2.74-8.85-2.56-8-5.2-16.18-4.87-19.43a0.94,0.94,0,1,1,1.87.19c-0.29,2.86,2.53,11.63,4.79,18.67,1.07,3.33,2.08,6.47,2.76,8.92,2.32,8.39-.33,19.32-3.24,28.9-1.92,6.34-4.12,13-7.91,18.45A16.57,16.57,0,0,1,161.7,158Z" transform="translate(0 -0.73)"/><path class="cls-12" d="M136.65,21.29s-0.27-4.56,1.67-5.81C140.49,14.07,141,15.4,142,15s1.93-.74,3,0,2.79,2.73,2.42,4S136.65,21.29,136.65,21.29Z" transform="translate(0 -0.73)"/><path class="cls-13" d="M135.07,25.92c-1-.6-2.68-3-0.12-4.86s13.89-4.22,15.95-2c3.12,3.34-4.95,7.41-9.27,7.57S136.91,27.07,135.07,25.92Z" transform="translate(0 -0.73)"/><path class="cls-14" d="M138.35,85.65c2.44-4.13,3.31-6,4-10,4.15-22.83,11.8-20.73,12.06-28,0.46-12.74-20.73-26-40.4-11.49-5.54,4.08-22.36,40.71-16.48,58.7C98.71,98.44,123.06,84.42,138.35,85.65Z" transform="translate(0 -0.73)"/><path class="cls-15" d="M146.63,26.16s1.76-1.45,1.59-2.87-1.68-2.27-2.65-2.57S144.82,25.88,146.63,26.16Z" transform="translate(0 -0.73)"/><path class="cls-5" d="M147,25.09a4,4,0,0,0-2.24-5.45c-3-1.44-4.41-.42-5.57.34a6.63,6.63,0,0,0-2.13,3.69,9.31,9.31,0,0,0,.06,3.94C137.55,28.8,146.79,26,147,25.09Z" transform="translate(0 -0.73)"/><path class="cls-5" d="M137.64,24.61l-3.56,7.81c-0.15,1.18,4.4,5.44,6.63,4.19,0.65-.37.29-1.75,0.46-3.08a20.82,20.82,0,0,0-.77-6.95Z" transform="translate(0 -0.73)"/><path class="cls-16" d="M141.12,34.49a7.77,7.77,0,0,1,0-1,14.44,14.44,0,0,0-.08-3.53l-3.15-1.41S138.48,33.17,141.12,34.49Z" transform="translate(0 -0.73)"/><path class="cls-5" d="M141.8,21.95L138.39,26c-2,3.26,1.85,5.84,3.55,6.43,1.41,0.49,2.73-.45,3.58-2.2a18.19,18.19,0,0,0,1.62-6C147.45,21.31,144.48,19.57,141.8,21.95Z" transform="translate(0 -0.73)"/><path class="cls-17" d="M142.76,27.48s1.09,0.48,2.74,1.05a1.85,1.85,0,0,1-1.25,1.09A1.66,1.66,0,0,1,142.76,27.48Z" transform="translate(0 -0.73)"/><path class="cls-18" d="M143.41,86.95a3.41,3.41,0,0,0,1.2-.68c5.31-4.61,3.51-31.28,3.51-31.28s-5.34,5.59-10,10.63A39.14,39.14,0,0,0,136.72,71c-1.33,7.05-.77,11.2,1,13.48a12.57,12.57,0,0,0,2,1.67A8.76,8.76,0,0,0,143.41,86.95Z" transform="translate(0 -0.73)"/><path class="cls-15" d="M140.4,20.83a3.39,3.39,0,0,1,.27,2.47c-0.2,1.26-.14,2.18-1,1.89s-2.31-.36-2.82-1.15C135.87,22.48,140.15,20.27,140.4,20.83Z" transform="translate(0 -0.73)"/><path class="cls-10" d="M142.37,75.69c4.15-22.83,11.8-20.73,12.06-28,0.21-6-4.31-12-11.2-15.32a30.07,30.07,0,0,1,1.82,10.68c-0.36,6.53-4.44,7.38-7.59,17.46-2,6.35-7.47,17.86-8,25.75a35,35,0,0,1,8.92-.62C140.78,81.52,141.65,79.66,142.37,75.69Z" transform="translate(0 -0.73)"/><path class="cls-18" d="M81.78,50.63a78.53,78.53,0,0,0-3,15.37c4.32-1.72,13.34-6.38,13.68-15.31C92.74,44.26,87,46.91,81.78,50.63Z" transform="translate(0 -0.73)"/><path class="cls-15" d="M144.69,27a2.37,2.37,0,0,1,1.39.81c0.43,0.64.5,1.3,0.17,1.32a2.89,2.89,0,0,1-2-.91,4,4,0,0,1-2.37-.61C140.73,26.83,142.49,26,144.69,27Z" transform="translate(0 -0.73)"/><path class="cls-4" d="M142.47,31.64a3,3,0,0,0,2.89-1.09c-0.86,1.55-2.09,2.36-3.42,1.9s-4.51-2.51-4-5.15c0.07-.41.31,0.3,0.45,0.67A6.12,6.12,0,0,0,142.47,31.64Z" transform="translate(0 -0.73)"/><path class="cls-5" d="M139.6,23.82c0-.64-0.29-1.7-1.25-1.22-1.39.69-1.11,3.44,0.49,3.69C140,26.48,139.61,24.16,139.6,23.82Z" transform="translate(0 -0.73)"/><path class="cls-13" d="M136.49,23.55a9,9,0,0,1,6-2.92,13.39,13.39,0,0,1,5.71,1.08,2.51,2.51,0,0,0-1.94-2.92c-2.33-.45-6.71.17-7.8,0.92S135.14,20.75,136.49,23.55Z" transform="translate(0 -0.73)"/><path class="cls-11" d="M128.43,36.91A48.94,48.94,0,0,1,120,32.64a34.55,34.55,0,0,0-5.39,3.14A52.79,52.79,0,0,0,126.09,42a59.58,59.58,0,0,0,22.22,4.2c1.94,0,4-.09,6.06-0.29a14,14,0,0,0-1.92-5.47A53.87,53.87,0,0,1,128.43,36.91Z" transform="translate(0 -0.73)"/><path class="cls-11" d="M120.45,49.3a50.54,50.54,0,0,1-11.35-6.21c-0.84,1.51-1.72,3.22-2.6,5.08a56.58,56.58,0,0,0,11.61,6.27,63.33,63.33,0,0,0,23.61,4.46c2,0,4.12-.09,6.29-0.29a52.69,52.69,0,0,1,4.74-6.3A58.92,58.92,0,0,1,120.45,49.3Z" transform="translate(0 -0.73)"/><path class="cls-11" d="M114.87,60.32a50.82,50.82,0,0,1-11.07-6c-0.71,1.75-1.41,3.57-2.07,5.43a57.23,57.23,0,0,0,10.8,5.71,63.33,63.33,0,0,0,23.61,4.46,69.26,69.26,0,0,0,7.59-.42,53.41,53.41,0,0,1,1.89-5.92A58.57,58.57,0,0,1,114.87,60.32Z" transform="translate(0 -0.73)"/><path class="cls-11" d="M142.37,75.69l0.17-.92a59.14,59.14,0,0,1-33.24-2.83,51.84,51.84,0,0,1-9.84-5.15c-0.55,1.91-1,3.84-1.47,5.76a58.27,58.27,0,0,0,9,4.52,63.33,63.33,0,0,0,23.61,4.46,70,70,0,0,0,10.37-.78A22.72,22.72,0,0,0,142.37,75.69Z" transform="translate(0 -0.73)"/><path class="cls-17" d="M134.93,30.56l5.13,5.32,1.12-2.35s2.08,1.81,2,3.19a8.56,8.56,0,0,1-.67,2.55l-2.54-2s-3.05-.3-4.25,1c0,0-2.84-4.35-2.79-5.09S134.93,30.56,134.93,30.56Z" transform="translate(0 -0.73)"/><path class="cls-5" d="M97.18,93.62c-0.11,4.67-.57,11.73,12.69,13.73s32.42-3,35.12-1.45-8.92,23.48-9.82,31,1.28,8.18,4.51,7c10.57-3.9,28-29.2,26-42.81s-24.26-18.19-39.77-18.57C108.52,82.06,97.24,91.06,97.18,93.62Z" transform="translate(0 -0.73)"/><path class="cls-5" d="M93.41,37.54c-3.32-.71-11.47,6.36-16.64,10.11,7-5.47,19.68-16.73,16.69-20C89,22.78,50,50.08,57.08,62.11c6.34,10.8,22.95.8,30-5.35C97.28,47.88,96.83,38.27,93.41,37.54Z" transform="translate(0 -0.73)"/><path class="cls-19" d="M156,86.91a107.89,107.89,0,0,0-17.47-6.15l-1,11.68,10.48,4.81C150.27,93,153.18,88.55,156,86.91Z" transform="translate(0 -0.73)"/><path class="cls-20" d="M141,141.74c1.21-1.91,7.51-3.73,8.62-2.08,0.49,0.72,10.41,5.18,10.57,6.18,0.26,1.67-17,2.18-20,.66C138.66,145.7,139.66,143.84,141,141.74Z" transform="translate(0 -0.73)"/><path class="cls-5" d="M165.71,101.06c-0.9-6.1-5.87-10.39-12.48-13.3-10.13,3.68-13.18,13.08-14.09,18.12,3-.32,5.08-0.42,5.86,0,2.7,1.5-8.92,23.48-9.82,31s1.28,8.18,4.51,7C150.25,140,167.71,114.67,165.71,101.06Z" transform="translate(0 -0.73)"/><path class="cls-4" d="M93.46,27.66A1.53,1.53,0,0,0,93,27.32a62.65,62.65,0,0,1-5.86,6.61c-2.68,2.39-4.7,2.58-8.43,5.5S71.1,49,71.1,49s-4.77,4.47-2.91,4.7,8.57-6,8.57-6C83.72,42.18,96.45,30.92,93.46,27.66Z" transform="translate(0 -0.73)"/><path class="cls-4" d="M161,117.16c-2,1.85-4.54,9.23-6.68,11.62s-9,6.69-13.12,3.25,0.71-4.69.9-8.76a87.81,87.81,0,0,1,1.71-10.34c-2.71,7.51-8.08,19-8.68,24-0.9,7.5,1.28,8.18,4.51,7,7.33-2.7,18-15.68,23.13-27.93A11.46,11.46,0,0,0,161,117.16Z" transform="translate(0 -0.73)"/><path class="cls-21" d="M126.39,43.09s-2.49,17.14-3.79,22.14-2.19,7-6.26,6.76S118.07,47.23,126.39,43.09Z" transform="translate(0 -0.73)"/><path class="cls-22" d="M153.23,87.76c-8.13-3.58-18.74-5.06-27.29-5.27-17.41-.43-28.69,8.57-28.75,11.13-0.11,4.67-.57,11.73,12.69,13.73,9.46,1.43,20.62,1.94,28,1.15C146.61,102.77,143.09,91.44,153.23,87.76Z" transform="translate(0 -0.73)"/><path class="cls-6" d="M106.5,80.06s-1.2,5.54,7.05,8,25.23-3,26.64-5.17S106.5,80.06,106.5,80.06Z" transform="translate(0 -0.73)"/><path class="cls-2" d="M133.12,142.83c1.21-1.91,7.51-3.73,8.62-2.08,0.49,0.72,10.41,5.18,10.57,6.18,0.26,1.67-17,2.18-20,.66C130.8,146.79,131.8,144.93,133.12,142.83Z" transform="translate(0 -0.73)"/><path class="cls-5" d="M119,35.7c18.23-.08-3.57,27.28,2.29,34.53,4.43,5.48,25.13,4.54,26.18,7.82s-17.89,12-34.79,7.51S108,35.75,119,35.7Z" transform="translate(0 -0.73)"/><path class="cls-10" d="M143.64,83.26l17.09-12.62,5.85-7.88a12.51,12.51,0,0,1,10-5.05h5A6.79,6.79,0,0,1,188.29,63c0.39,1.67.32,11.24-4,12.28-2.09.51-18.83,1.46-18.83,1.46L145.33,86.1a1.66,1.66,0,0,1-2.08-.58h0A1.66,1.66,0,0,1,143.64,83.26Z" transform="translate(0 -0.73)"/><path class="cls-23" d="M156.06,74.09l-12.42,9.17a1.66,1.66,0,0,0-.4,2.26h0a1.66,1.66,0,0,0,2.08.58l13.92-6.49A10.21,10.21,0,0,0,156.06,74.09Z" transform="translate(0 -0.73)"/><path class="cls-2" d="M188.29,63a6.79,6.79,0,0,0-6.63-5.24h-2.46c-0.92,3.4-2.5,11.38.56,18,2.22-.18,4-0.36,4.56-0.5C188.62,74.19,188.68,64.63,188.29,63Z" transform="translate(0 -0.73)"/><path class="cls-14" d="M119,35.7c-5.54,0-11.35,11.41-13.65,23.33,2.2,2,7.77,6.42,15,6.64C121.16,55.26,134.45,35.63,119,35.7Z" transform="translate(0 -0.73)"/><path class="cls-10" d="M120.31,65.67c0.85-10.37,14-29.89-1.14-30,1.13,1.92,3,5.68,2.05,8.16-1.33,3.44-3.6,2.93-4.69,6.82s-1.87,8.65-1.87,8.65-0.85,2.42-1.51,4.74A20.22,20.22,0,0,0,120.31,65.67Z" transform="translate(0 -0.73)"/><path class="cls-21" d="M129.43,94.16c-9.94-2.43-11.65.55-20.73-.08a11.79,11.79,0,0,1-8.35-4.25c-2,1.57-3.15,3-3.17,3.79-0.11,4.67-.57,11.73,12.69,13.73,9.46,1.43,20.62,1.94,28,1.15,4.51-2.95,5.77-7.38,7.31-11.48A155.94,155.94,0,0,1,129.43,94.16Z" transform="translate(0 -0.73)"/><path class="cls-4" d="M112.69,85.56c12.49,3.35,26.1-.56,31.92-4.16a3.65,3.65,0,0,0-.62-2c-1.09-1.15-7.57.94-10.37,2.06s-7.68,1-14.51-.7-5.11.63-9.7-1.77c-2.22-1.16-3.79-3.54-4.83-5.69C105.3,79.43,107.76,84.23,112.69,85.56Z" transform="translate(0 -0.73)"/><path class="cls-5" d="M98,24.68c-0.89-.62-2.25-0.06-3.24.18S92,27.52,92,27.52a2.65,2.65,0,0,0,.6,2.28c0.89,0.8,1.84-.38,2.24-1.32S98.94,25.3,98,24.68Z" transform="translate(0 -0.73)"/><path class="cls-5" d="M144.12,76.33s9.37-.63,10.33,1.48-0.84,5.87-2,6.1-3.27-2.94-4.32-3.05-3.32,1.17-4.76,1.25S139.71,79.78,144.12,76.33Z" transform="translate(0 -0.73)"/><path class="cls-5" d="M110.32,144.33s-2.34,2.46-1.3,3.82a5.39,5.39,0,0,0,2.88,1.74c0.82,0.59,1.63,1.36.83,1.7-1.37.57-9.61,1.31-10.5,0a3.63,3.63,0,0,0-1.05-1c0.84-.83.6-2,1-6.65Z" transform="translate(0 -0.73)"/><path class="cls-24" d="M102.23,151.63c0.84,1.2,5.4-5,9-2.37a9.91,9.91,0,0,0,2,1.16c2.33,1,4.69,2.06,4.84,2.78,0.31,1.42-14.7,2.71-17.31,1.54-1.37-.61-0.6-2.25.45-4.12A3.63,3.63,0,0,1,102.23,151.63Z" transform="translate(0 -0.73)"/><path class="cls-25" d="M97.16,26.15l-1.21-2.73a1.7,1.7,0,0,1,.42-2,15.19,15.19,0,0,1,7.7-3.85,1.72,1.72,0,0,1,1.67.8l1.7,2.76Z" transform="translate(0 -0.73)"/><path class="cls-10" d="M98.44,22A2.75,2.75,0,0,0,98,20c-0.67-.86-0.84-0.6-0.81-0.16l0.07,1.07s-0.66-1.16-1.14-1,0.3,1.54.3,1.54a2,2,0,0,0-1.72-.24c-0.77.38,1.41,1,1.41,1s-1.89.48-1.84,1.2,2,0.14,2,.14-1,1.71-.12,1.55a2.36,2.36,0,0,0,1.27-1.49s1.56,2.89,1.86,1.85a2.41,2.41,0,0,0-.67-2s3.18,0.38,2.45-.25a3.87,3.87,0,0,0-2.1-.65s1.88-1.81.8-1.51A1.76,1.76,0,0,0,98.44,22Z" transform="translate(0 -0.73)"/><path class="cls-11" d="M94.64,29.23c-0.92-1.58-.34-3.78,4.73-6.75s10.43-4,11.73-2.94S113,26,106.45,28.82,96.07,31.71,94.64,29.23Z" transform="translate(0 -0.73)"/><path class="cls-26" d="M97.32,29.52c-0.78-1.35-1.33-2.92,3-5.46s8.72-3.3,9.83-2.35,1.69,4.79-3.91,7.19S98.55,31.64,97.32,29.52Z" transform="translate(0 -0.73)"/><path class="cls-27" d="M103.85,23.38c1.46-.48,5.65-2.06,6-1.13C111,24.76,108.77,30,107.24,30s-5.7,4.64-7.1,4.31-4.69-1.66-2.84-6.1C97.82,26.94,98.66,25.09,103.85,23.38Z" transform="translate(0 -0.73)"/><path class="cls-5" d="M100.76,29.4l-1.47,7.8c-0.24,1.28,2.35,5.15,4.67,3.87,0.68-.37.21-2.28-0.12-3.71l-0.35-7Z" transform="translate(0 -0.73)"/><path class="cls-16" d="M103.74,35.53c-2.55-1.15-2.88-4.62-2.88-4.62l2.67,0.47Z" transform="translate(0 -0.73)"/><path class="cls-5" d="M102.21,25.35l-1.37,2.76a4.56,4.56,0,0,0,1.83,6.07,3.91,3.91,0,0,0,5.59-2.11c1-2.29,0-4.88-.29-6.15C107.35,23,104,22.29,102.21,25.35Z" transform="translate(0 -0.73)"/><path class="cls-5" d="M101,28.41a3.83,3.83,0,0,1-.18-0.79c-0.07-.51-0.3-1.25-1-0.77-1,.7-0.49,3.39.8,3.42C101.52,30.29,101.19,29,101,28.41Z" transform="translate(0 -0.73)"/><path class="cls-17" d="M105.15,30.58a7.63,7.63,0,0,0,2.69-.07,1.64,1.64,0,0,1-.55,1.11A1.47,1.47,0,0,1,105.15,30.58Z" transform="translate(0 -0.73)"/><path class="cls-4" d="M103.23,33.32a6,6,0,0,0,3.32.11,6.17,6.17,0,0,0,1.76-1.49l-0.05.13a3.91,3.91,0,0,1-5.59,2.11,4.37,4.37,0,0,1-2.29-3.42A5.65,5.65,0,0,0,103.23,33.32Z" transform="translate(0 -0.73)"/><path class="cls-16" d="M106.65,28.86l-0.25-1.19a1.8,1.8,0,0,1,.22-1.32,1.29,1.29,0,0,1,1-.64l1.33-.09a1.5,1.5,0,0,1,1.47,1.51l0.08,1.2A1.5,1.5,0,0,1,109.24,30l-1.16.08A1.45,1.45,0,0,1,106.65,28.86Zm1-2.52a0.79,0.79,0,0,0-.61.39,1.1,1.1,0,0,0-.13.8l0.25,1.19a0.88,0.88,0,0,0,.88.76l1.16-.08a0.92,0.92,0,0,0,.77-1l-0.08-1.2a0.92,0.92,0,0,0-.9-0.92Z" transform="translate(0 -0.73)"/><path class="cls-16" d="M102,28.91L102,27.71A1.5,1.5,0,0,1,103.23,26l1.33-.09a1.3,1.3,0,0,1,1.08.49A1.8,1.8,0,0,1,106,27.7l-0.09,1.21a1.45,1.45,0,0,1-1.26,1.43l-1.16.08A1.5,1.5,0,0,1,102,28.91Zm1.22-2.27a0.92,0.92,0,0,0-.77,1l0.08,1.2a0.92,0.92,0,0,0,.9.92l1.16-.08a0.88,0.88,0,0,0,.77-0.87l0.09-1.21a1.1,1.1,0,0,0-.24-0.78,0.79,0.79,0,0,0-.66-0.3Z" transform="translate(0 -0.73)"/><path class="cls-16" d="M106,28.08a0.42,0.42,0,0,1,.3-0.22,0.38,0.38,0,0,1,.24.15l0.41-.39a0.9,0.9,0,0,0-.65-0.38,0.88,0.88,0,0,0-.71.44Z" transform="translate(0 -0.73)"/><path class="cls-5" d="M80.1,92s-3.95,10.24,13.8,15c7.28,1.94,18.85.74,18.85,0.74s-15.05,40.09-9.4,41.83,38.05-39.44,24-54c-5.37-5.58-16.46-6-23.91-7.72-4.91-1.15-9.33-2.73-13.85-.5Z" transform="translate(0 -0.73)"/><path class="cls-4" d="M127.37,95.49c-2.33-2.42-5.74-3.86-9.45-4.87,0.88,5.49,3,21.4-.33,29.1-4.07,9.39-8.34,14.4-9.67,20.39-0.77,3.48-2.37,6.59-2,8.62C115.27,142.93,139.94,108.54,127.37,95.49Z" transform="translate(0 -0.73)"/><path class="cls-24" d="M127.37,95.49c-5.37-5.58-17.43-6.91-24.87-8.65-4.91-1.15-8.36-1.8-12.89.43L80.1,92s-3.95,10.24,13.8,15c7.28,1.94,17,1.44,17,1.44a7.49,7.49,0,0,1-2.72,5c10.24,2.64,12.12,1.54,15.16,1.15,2.21-.28,4.39-0.06,5.55,1.06C131.59,107.69,131.91,100.2,127.37,95.49Z" transform="translate(0 -0.73)"/><path class="cls-4" d="M87.09,56.76c6.65-5.79,8.77-11.9,8.49-15.65-1.93.77-4.79,3.46-6.28,4.53-2.09,1.49-1.29,1.29-3.68,5s-2.88,3.21-5.27,5.8-3.78,1.19-6.94,3.38-4.79,2.29-9.46,2.25-2.29-.86-3-4.41a12.45,12.45,0,0,0-2.75-5.18c-2,3.59-2.67,7-1.13,9.59C63.42,72.91,80,62.91,87.09,56.76Z" transform="translate(0 -0.73)"/><path class="cls-6" d="M123.34,114.56c2.11-3.19-6.25-4.31-11.38-4.7-0.61,1.7-1.53,4.27-2.56,7.31C113.3,117.56,121.12,117.91,123.34,114.56Z" transform="translate(0 -0.73)"/><path class="cls-18" d="M130.82,106.46a8,8,0,0,1-3.94,1.22c-3.28-.2-11-0.49-12.83-1.49s-5.07-4.47-11.74-7.06-7.44.4-12.61,0c-4.16-.32-5.29-6.68-5.58-9.15l-4,2s-3.95,10.24,13.8,15c7.28,1.94,17,1.44,17,1.44a7.49,7.49,0,0,1-2.72,5c10.24,2.64,12.12,1.54,15.16,1.15,2.21-.28,4.39-0.06,5.55,1.06A34.77,34.77,0,0,0,130.82,106.46Z" transform="translate(0 -0.73)"/><path class="cls-1" d="M12.9,50.16c12.55-3.85,26-33.69,13.74-40.09S-13.06,58.13,12.9,50.16Z" transform="translate(0 -0.73)"/><path class="cls-28" d="M162.22,35.5H268.68c1.14,0,2-2.21,1.68-4.46-1-7.48-4.17-22.28-14.23-27.85C240.08-5.7,235.28,13.6,228,15.07c-5.85,1.18-9-7.85-21-3.3s-9.39,12-12.79,15.55c-4.7,4.89-19-9.86-26.64-5.5C161.13,25.54,161,35.5,162.22,35.5Z" transform="translate(0 -0.73)"/><path class="cls-29" d="M270.35,31a68.11,68.11,0,0,0-1.48-7.77c-4.37-2.68-10.13-4-13.07-5.09-5.68-2.07-9-.45-20.25,5.21s-15.86-2.67-26.64-1.73-7.46,8.48-14.09,9.42-17.64-.94-26-1.88c-3.93-.44-6,0.93-7.1,2.5-0.27,2.18,0,3.8.48,3.8H268.68C269.82,35.5,270.65,33.29,270.35,31Z" transform="translate(0 -0.73)"/></svg>