<svg id="Livello_1" data-name="Livello 1" xmlns="http://www.w3.org/2000/svg" viewBox="0 0 468 181.98"><defs><style>.cls-1{fill:#fbc7c7;}.cls-2{fill:#fff;}.cls-3{fill:#f46263;}.cls-4{fill:#1f1540;}.cls-5{fill:#4db5d4;}.cls-6{fill:#2f89c0;}.cls-7{fill:#f78f90;}.cls-8{fill:#da6077;}.cls-9{fill:#ae3f4d;}.cls-10{fill:#efeff0;}.cls-11{fill:#ae273e;}.cls-12{fill:#122;}.cls-13{fill:#42b0e0;}.cls-14{fill:#27708a;}.cls-15{fill:#332b69;}.cls-16{fill:#d8e7eb;}.cls-17{fill:#b9d3d9;}.cls-18{fill:#286176;}.cls-19{fill:#d4d3d3;}.cls-20{fill:#339bbf;}.cls-21{fill:#297084;}.cls-22{fill:#b6b6b6;}.cls-23{fill:#fee5e6;}</style></defs><title>travel-3</title><path class="cls-1" d="M4,115.44c-2.6-7.67-4.23-15.53-4-22.89C0.94,63.12,2.13,61.28,2.13,61.28S82.92,132,49.49,159.78q-2.4,2-4.5,3.63C17.22,185.05,11.73,138.45,4,115.44Z" transform="translate(0 0)"/><path class="cls-2" d="M45.59,162.94c-6.89-12-14.41-25-19-32.67a118.38,118.38,0,0,1-6.85-14.47l-16.3-1.89-0.55-1.79L19,114c-2.41-6-4.83-12.64-7.07-19.13L0,90.87q0-.92.06-1.79l11.15,3.77C6.75,79.54,3,67.3,1.76,63a6.67,6.67,0,0,1,.37-1.76l1.22,1.09c0.86,2.86,3,10.06,5.91,18.87l4.46-9L15,73.54l-5,10c1.79,5.44,3.8,11.37,5.9,17.21L26.61,85.88l1.17,1.32L16.64,102.74c2.76,7.57,5.63,14.85,8.32,20.55L36.23,113,38,99.73l1.47,2-1.31,9.57,4.94-4.49,1,1.44L25.72,125c0.82,1.68,1.63,3.19,2.4,4.49,1.77,3,4,6.81,6.46,11.05l18.49-16.38q0.37,0.83.71,1.66L35.47,142c3.6,6.2,7.64,13.2,11.48,19.89Z" transform="translate(0 0)"/><path class="cls-1" d="M87.33,131.73a42.33,42.33,0,0,1,9.34-11.39c14.5-11.75,15.88-11.95,15.88-11.95s-0.44,68.05-27.64,63.54c-1.3-.22-2.5-0.43-3.61-0.65C59.41,166.92,79.5,145,87.33,131.73Z" transform="translate(0 0)"/><path class="cls-2" d="M81.78,171.37c2.89-8.27,6-17.28,7.82-22.63a75.07,75.07,0,0,1,4.11-9.28l-5.85-8.61,0.63-1,5.78,8.51c1.88-3.64,4.07-7.55,6.25-11.32l-3-7.39,0.89-.71,2.81,6.91c4.48-7.68,8.82-14.53,10.33-16.91a4.23,4.23,0,0,1,1-.55v1c-1,1.6-3.57,5.63-6.61,10.66l6.16-1.58a7.62,7.62,0,0,1-.09,1.15l-6.88,1.77c-1.87,3.11-3.88,6.54-5.81,10l11.58-1.05-0.15,1.11-12.07,1.1c-2.49,4.46-4.79,8.86-6.41,12.5l9.59,1.17,7.15-4.64q-0.16.76-.33,1.51l-5.14,3.33,4.2,0.51-0.3,1.07L91.8,146.1c-0.46,1.09-.86,2.1-1.16,3-0.7,2.09-1.61,4.74-2.62,7.68l15.52,2.09q-0.25.52-.5,1L87.66,157.8c-1.49,4.3-3.17,9.13-4.79,13.75Z" transform="translate(0 0)"/><path class="cls-1" d="M106.36,87.61c-2.65-12.43-3.78-25-2.1-36.44,6.72-45.78,8.9-48.43,8.9-48.43S226.58,127.56,169.41,165q-4.11,2.69-7.67,4.86C114.5,198.64,114.3,124.9,106.36,87.61Z" transform="translate(0 0)"/><path class="cls-2" d="M162.76,169.22c-8.61-19.94-18-41.62-23.71-54.39A186,186,0,0,1,131,91l-25.11-5.88q-0.28-1.45-.54-2.9L130.14,88c-2.68-9.8-5.26-20.6-7.6-31.13L104.65,48.5,105,45.71l16.73,7.88c-4.71-21.53-8.31-41.3-9.53-48.17a10.48,10.48,0,0,1,.9-2.69s0.61,0.67,1.71,1.92c0.83,4.63,2.95,16.26,5.84,30.52l8.58-13.23L131,24.18l-9.58,14.76c1.82,8.81,3.89,18.44,6.12,27.92l19.35-21.35,1.58,2.27L128.37,70.05c2.95,12.31,6.13,24.19,9.29,33.57l19.45-14,5.25-20.46q1,1.65,1.94,3.31L160.52,87.2l8.5-6.12q0.64,1.21,1.26,2.42l-31.72,22.78c1,2.77,2,5.27,2.94,7.44,2.23,5,5,11.34,8.11,18.41l31.8-22.24q0.43,1.37.82,2.72l-31.52,22c4.5,10.33,9.55,22,14.35,33.11Z" transform="translate(0 0)"/><path class="cls-1" d="M187.83,104.36c5.64-6.77,12-12.77,19-16.76C234.62,71.64,237,71.7,237,71.7S217.58,187,172.68,171.9q-3.23-1.09-5.94-2.1C130.8,156.39,170.9,124.68,187.83,104.36Z" transform="translate(0 0)"/><path class="cls-2" d="M167.52,170.09c7.18-13.24,15-27.65,19.48-36.24a129,129,0,0,1,9.51-14.62L189,103q0.67-.78,1.35-1.53l7.47,16c4.19-5.66,9-11.7,13.71-17.48l-3.08-13.35,1.7-1L213,98.2C222.74,86.41,232,76,235.19,72.36A7.27,7.27,0,0,1,237,71.7s-0.1.62-.31,1.76c-2.17,2.43-7.6,8.57-14.13,16.26l10.89-1L233,90.65l-12.15,1.11c-4,4.77-8.38,10-12.59,15.3l19.93,1.4-0.56,1.84-20.78-1.46c-5.44,6.88-10.56,13.71-14.31,19.45l15.95,4.61,13.4-5.91q-0.48,1.24-1,2.47l-9.63,4.25,7,2-0.78,1.72-26-7.52c-1.09,1.72-2,3.33-2.8,4.79-1.77,3.35-4,7.6-6.56,12.31l25.76,7.8q-0.56.82-1.13,1.61l-25.53-7.73c-3.7,6.88-7.89,14.62-11.9,22Z" transform="translate(0 0)"/><path class="cls-3" d="M48.17,175.92a6.61,6.61,0,0,0,1.27-3.28l4.48-1.53s-0.84,2.94-.21,4c0.27,0.44,6.32,3.51,6.37,4.11,0.09,1-10.85.53-12.63-.5C46.52,178.15,47.24,177.1,48.17,175.92Z" transform="translate(0 0)"/><path class="cls-4" d="M60.08,179.18c0-.43-3.14-2.12-5-3.21h0a2.75,2.75,0,0,1-2.82,1.21L51,177a2.7,2.7,0,0,1-1.65-1l-0.65-.82a5.32,5.32,0,0,1-.5.77c-0.93,1.18-1.65,2.23-.72,2.77C49.23,179.71,60.17,180.17,60.08,179.18Z" transform="translate(0 0)"/><path class="cls-5" d="M61.41,66.85s-10.51-1-13.62,1c-2.68,1.74-2.69,8.15-2.64,9.88a1,1,0,0,0,.37.74h0a1,1,0,0,1-.12,1.6l-1.31.81a1.08,1.08,0,0,0-.38.4c-1.15,2.13-9.41,17.77-5.52,22.5,4.17,5.08,16.48,5,20.22,2.81S61.41,66.85,61.41,66.85Z" transform="translate(0 0)"/><path class="cls-6" d="M43.71,81.29a1.08,1.08,0,0,1,.38-0.4l1.31-.81a1,1,0,0,0,.12-1.6,1,1,0,0,1-.37-0.74c0-1.73,0-8.13,2.64-9.88a3.94,3.94,0,0,1,.48-0.26c0.12,2.55.63,6,2.42,7.57s6.83,1.44,10.78,1.12c0,11.28-.53,28.81-3,30.3-3.74,2.22-16,2.27-20.22-2.81C34.3,99.06,42.55,83.42,43.71,81.29Z" transform="translate(0 0)"/><path class="cls-3" d="M66.23,175.92a6.61,6.61,0,0,0,1.27-3.28L72,171.11s-0.84,2.94-.21,4c0.27,0.44,6.32,3.51,6.37,4.11,0.09,1-10.85.53-12.63-.5C64.59,178.15,65.3,177.1,66.23,175.92Z" transform="translate(0 0)"/><path class="cls-4" d="M78.14,179.18c0-.43-3.14-2.12-5-3.21h0a2.75,2.75,0,0,1-2.82,1.21L69,177a2.7,2.7,0,0,1-1.65-1l-0.65-.82a5.32,5.32,0,0,1-.5.77c-0.93,1.18-1.65,2.23-.72,2.77C67.29,179.71,78.23,180.17,78.14,179.18Z" transform="translate(0 0)"/><path class="cls-7" d="M63.56,58.45V56.27a1.24,1.24,0,0,1,.86-1.19,11.1,11.1,0,0,1,6.29-.28,1.25,1.25,0,0,1,.88,1l0.32,2.35Z" transform="translate(0 0)"/><path class="cls-8" d="M61,59.76c-0.14-1.33.9-2.63,5.16-3.1s8.17,0.39,8.71,1.52S74.15,63.06,69,63,61.18,61.85,61,59.76Z" transform="translate(0 0)"/><path class="cls-9" d="M62.66,60.75c-0.12-1.14,0-2.34,3.65-2.75s6.8,0.39,7.26,1.35-0.29,3.7-4.75,3.64S62.86,62.53,62.66,60.75Z" transform="translate(0 0)"/><path class="cls-10" d="M71,61.92a3.28,3.28,0,0,0,1.29-2.16c0-1.14-1.72-2-3.25-1.71a11.8,11.8,0,0,0-4.25,1.57c-0.44.47-2.21,2.11-1.42,3.71S69.71,64,71,61.92Z" transform="translate(0 0)"/><path class="cls-10" d="M64,62.33s-0.5-1.26-2.37-.57-0.91,4,.73,4.4,2.66,0,3-1S64,62.33,64,62.33Z" transform="translate(0 0)"/><path class="cls-3" d="M86.17,137.66C87.17,122.23,82,110.31,79,102c-1.54-4.37-3.67-14.36-4.23-16.19-0.7-4.45-1.65-7-1.3-7.82,1.22-2.76-20.72,16.08-23.31,25.16-2.24,7.85,2.33,25,.28,33.6-1.77,7.36-4.55,37.78-.07,37.78,7.54,0,10.88-14.19,13.06-25.34,4.43-22.62,1.57-38.51,3.23-38.39,3.06,0.22,6.8,15.74,5.6,23.85-0.82,5.54-5.92,20.61-5.91,30.64,0,5.32.18,9.87,3.52,9.33,1.91-.31,2.76-3.42,4-5.69C79.33,158.84,85.58,147.24,86.17,137.66Z" transform="translate(0 0)"/><path class="cls-11" d="M86.17,137.66C87.17,122.23,82,110.31,79,102c-0.88-2.51-1.32-7.89-2.45-11.07-2.08,5-3.68,10.57-2.82,14.58,2,9.22,7,21.91,7.33,27.06s3.27,4.23.44,10-6,7.92-5.15,11.45S70,167.57,70,172.44a9.56,9.56,0,0,0,.22,2.09c1.7-.57,2.52-3.46,3.68-5.61C79.33,158.84,85.58,147.24,86.17,137.66Z" transform="translate(0 0)"/><path class="cls-12" d="M70.5,146.24s1.29,0.6,5.57.85a73,73,0,0,0,8.15-.16c0.46-1.41.86-2.8,1.17-4.16Z" transform="translate(0 0)"/><path class="cls-11" d="M52.23,174.22c6.26-2.1,9.22-14.84,11.22-25,3.38-17.28,2.51-30.62,2.65-35.91-1.32.54-3.15,3.17-3.15,3.17s-2.36,20.6-5.24,27.17-0.5,13.53-.9,17.32S52.2,172.83,52.23,174.22Z" transform="translate(0 0)"/><path class="cls-12" d="M63.45,149.18q0.52-2.65.91-5.18l-13.74.19s8.67,5.4,12.73,5.51Z" transform="translate(0 0)"/><path class="cls-13" d="M81,106c-0.34-.76-1.58-4.88-1.91-5.87-10.64,3-23.36,1.46-29.25.43-0.31,1.71-.64,3.27-1,4.61-2.24,8.39,1.13,24.84.8,34.47,0,0.53-1.07,3.35-1.19,4.07,1.2,0.37,3.88.67,6,1.11a113.12,113.12,0,0,0,12,1.87c2.49-19.58-1.22-32.94.24-32.83,3.06,0.23,3.4,29.79,2.67,32.83,5,0,13.65,0,18.71-1.82C88.12,144.39,87,119.41,81,106Z" transform="translate(0 0)"/><path class="cls-14" d="M81,106c-0.34-.76-1.58-4.88-1.91-5.87a57.21,57.21,0,0,1-17.94,1.68c2.47,2.17,9.31,8,12.38,8.63,3.78,0.79,7.17,7.86,7.07,11.74-0.08,3-1.53,15-2.17,20.13a6.78,6.78,0,0,0,.7,3.86l0.12,0.25A34.5,34.5,0,0,0,88,144.9C88.12,144.39,87,119.41,81,106Z" transform="translate(0 0)"/><path class="cls-7" d="M81,106c-0.35-1.12-.69-2.18-1-3.17-1.54-4.68-4.63-13.73-5.19-15.69-0.7-4.75-1.65-7.51-1.3-8.37,1.22-3,1.21-5.06.94-5.66a7.68,7.68,0,0,0-1-1.36C72.83,71,69,67.29,67.24,66.8c-5.54-1.55-9.47,1-10.67,2.43-4,4.72-5.11,26.22-7.7,35.94a13.46,13.46,0,0,0-.33,1.67C54,107.86,68.63,109.85,81,106Z" transform="translate(0 0)"/><path class="cls-8" d="M80,102.86c-1.54-4.68-4.63-13.73-5.19-15.69-0.7-4.75-1.65-7.51-1.3-8.37,1.22-3,1.21-5.06.94-5.66a7.68,7.68,0,0,0-1-1.36c-0.64-.72-4.47-4.46-6.23-4.95a13.38,13.38,0,0,0-1.54-.33,8.42,8.42,0,0,1,2,3.66c0.34,2.69,4.05,13.53,2.84,18.46-1.07,4.36-3.82,12.26-1.11,19.47A52.32,52.32,0,0,0,81,106C80.66,104.91,80.32,103.85,80,102.86Z" transform="translate(0 0)"/><path class="cls-3" d="M66.87,61.92l-0.31,4.32c-0.07.95,2.94,4.52,0.11,5.15-1.05.24-3.93-3.5-3.44-4.45l1.54-4.84Z" transform="translate(0 0)"/><path class="cls-15" d="M66.7,64.42l-0.13,1.83a0.54,0.54,0,0,0,0,.1C66,66,65.22,65.42,65.31,64.77S66,64.25,66.7,64.42Z" transform="translate(0 0)"/><path class="cls-3" d="M65.36,60.67a3.31,3.31,0,0,0,.43,4.59,2.84,2.84,0,0,0,4.28-.7c1.06-1.48.69-3.48,0.68-4.42,0-1.41-1.4-1.75-3.29-.58A21.08,21.08,0,0,1,65.36,60.67Z" transform="translate(0 0)"/><path class="cls-3" d="M65.4,60.9a2.78,2.78,0,0,1,0-.59c0-.37,0-0.93-0.6-0.69C64,60,64,62,64.87,62.17,65.54,62.32,65.48,61.39,65.4,60.9Z" transform="translate(0 0)"/><path class="cls-2" d="M68,63.2a5.54,5.54,0,0,0,1.93.34,1.19,1.19,0,0,1-.55.71A1.07,1.07,0,0,1,68,63.2Z" transform="translate(0 0)"/><path class="cls-11" d="M66.31,64.72a4.34,4.34,0,0,0,2.35.56,4.48,4.48,0,0,0,1.47-.81l-0.05.08a2.84,2.84,0,0,1-4.28.7,3.18,3.18,0,0,1-1.14-2.77A4.11,4.11,0,0,0,66.31,64.72Z" transform="translate(0 0)"/><path class="cls-10" d="M71.37,63A2.08,2.08,0,0,1,70,61.52a0.18,0.18,0,0,1,0-.13,0.11,0.11,0,0,1,.09-0.06l2.63,0.07h0.07a0.16,0.16,0,0,1,0,.1,2.18,2.18,0,0,1-.5,1.17A1,1,0,0,1,71.37,63Zm-1.13-1.39a1.72,1.72,0,0,0,1.17,1.11,0.83,0.83,0,0,0,.77-0.22,1.7,1.7,0,0,0,.39-0.82Z" transform="translate(0 0)"/><path class="cls-10" d="M66.55,61.67a1.93,1.93,0,0,1-.19-1.29,0.14,0.14,0,0,1,.06-0.09,0.13,0.13,0,0,1,.1,0l3.09,0.94a0.14,0.14,0,0,1,.09.09,0.15,0.15,0,0,1,0,.13,2.33,2.33,0,0,1-2.12.86A1.41,1.41,0,0,1,66.55,61.67Zm0-1.08a1.54,1.54,0,0,0,.18.92,1.16,1.16,0,0,0,.83.51,2,2,0,0,0,1.72-.6Z" transform="translate(0 0)"/><path class="cls-15" d="M70.24,61.58a1.72,1.72,0,0,0,1.17,1.11,0.83,0.83,0,0,0,.77-0.22,1.7,1.7,0,0,0,.39-0.82Z" transform="translate(0 0)"/><path class="cls-15" d="M66.59,60.59a1.54,1.54,0,0,0,.18.92,1.16,1.16,0,0,0,.83.51,2,2,0,0,0,1.72-.6Z" transform="translate(0 0)"/><path class="cls-6" d="M56.89,67.6s3.13,2.55,2.83,5.62S51.61,97.31,47,97.63l2,6.59a34.91,34.91,0,0,0,8-11.43c3.28-7.4,6.12-18.06,5.3-21.39s-2.6-4.52-3.72-4.4A4.07,4.07,0,0,0,56.89,67.6Z" transform="translate(0 0)"/><path class="cls-12" d="M80,102.86c-0.61-1.87-1.47-4.43-2.32-7L70,98.76s1.88,4.5,5.46,5c1.42,0.2,3.27.3,5,.36Z" transform="translate(0 0)"/><path class="cls-3" d="M58.27,68.48C55,67.1,37.75,88.12,39.35,96s30.26-2.8,28.58-8c-1-3.16-17.46.64-17.46,0.64s6.35-7.14,8.17-11.9S60.41,69.38,58.27,68.48Z" transform="translate(0 0)"/><path class="cls-16" d="M65.59,71.7l8.94,1.59a7.73,7.73,0,0,0,2.84,0l6-1.17a12.39,12.39,0,0,1,3.39-.19l2.48,0.2A8.85,8.85,0,0,0,97,68.26l0.66-.86-1,31.6-2.08,1.75a3.34,3.34,0,0,1-3.62.56h0a11.89,11.89,0,0,0-9.44-.25l-4,1.58a3.27,3.27,0,0,1-2.6-.07l-7.13-3.2S67.09,86.21,66.59,82,65.59,71.7,65.59,71.7Z" transform="translate(0 0)"/><path class="cls-17" d="M97,68.26a10.32,10.32,0,0,1-3.54,3,15.87,15.87,0,0,1-.46,3.9c-0.89,3-2.23,21.19-2.61,23.65s-5.77.59-6.72-.5-1.31-24.15-1.82-25.1-4.41.67-5.61,1,0.05,23.85-.59,25.84-1.95-.37-3.08-1.2-4-18.79-4.91-22.23a23.6,23.6,0,0,0-1.89-4.94H65.6s0.54,6,1,10.24S67.79,99.3,67.79,99.3l7.13,3.2a3.27,3.27,0,0,0,2.6.07l4-1.58a11.89,11.89,0,0,1,9.44.25h0a3.34,3.34,0,0,0,3.62-.56L96.65,99l1-31.56Z" transform="translate(0 0)"/><path class="cls-3" d="M97.73,85a4.47,4.47,0,0,0,.15-2.24c-0.13-.77-0.22-2.28-0.57-2a1.43,1.43,0,0,0-.16,1.33,2.94,2.94,0,0,0-.84-0.9c-0.32-.1-0.47.78-0.41,1.23s0.22,2.87.69,3.36S97.57,85.41,97.73,85Z" transform="translate(0 0)"/><path class="cls-14" d="M66.68,113.89c-1.13-1.67-2.41,4.24-2.7,9.55s-0.2,6.63-4.48,14.39c-3.54,6.42-2.9,7.38-2.57,7.51,3.07,0.57,6.48,1.09,9.51,1.37C68.93,127.13,65.22,113.78,66.68,113.89Z" transform="translate(0 0)"/><path class="cls-11" d="M50.47,88.6s6.35-7.14,8.17-11.9,1.77-7.31-.37-8.21l-0.18-.05c0.25,1.58.59,5-.82,6.66-1.87,2.16-4.4,3.06-5.9,4.7S48.3,89.06,50.47,88.6Z" transform="translate(0 0)"/><path class="cls-11" d="M67.62,89.59a21.61,21.61,0,0,0-2.33.35c-0.77.15-4.83,1.42-7.37,2.31s-5.3,2.09-8.53,2.91-5.06.6-7.15-.3c-1.33-.57-1.92-2.64-2.18-4.06a10.32,10.32,0,0,0-.71,5.2C40.79,103.12,64.38,95.06,67.62,89.59Z" transform="translate(0 0)"/><path class="cls-3" d="M66.55,88.27s0.51-2,1.36-2.33,2.94-.35,2.77,0a1.5,1.5,0,0,1-1.32.62,4.88,4.88,0,0,1,1.81.57c0.47,0.4-.13,1.26-0.61,1.5S68,90.44,67.08,90.37,66.55,88.27,66.55,88.27Z" transform="translate(0 0)"/><path class="cls-3" d="M174,108.76c-0.89-7.08-2.43-9-3.09-13-8.26,1.3-21-.68-26.67-1.33-3.28,6.83-11.21,21.46-13,45.35-0.38,5,2.3,34.46,3.22,35.55,5.58,6.61,7.54-4.57,8.14-9.88,1.87-16.66,2.56-24.15,3.18-29.1,0.46-3.68,9.08-21.87,9.08-21.87s-0.31,24.26,4,44.6c1,4.65,3.79,16.11,5.79,16.1,10,0,5.66-32.41,5-37.57S174.84,115.45,174,108.76Z" transform="translate(0 0)"/><path class="cls-11" d="M164.44,102.48c0,1.36,6.49,12.67,2.41,20.52s-9.08,6.18-5.12,16.85,5.64,21.62,5.43,24.37c-0.12,1.58.17,6.08,0.44,9.64,6-6.13,2.56-31.71,2-36.25-0.57-4.73,4.1-18.87,4.44-26.54Z" transform="translate(0 0)"/><path class="cls-11" d="M141.1,129.17c-2.73,5.24-2.81,7.34-2.2,16.29s-1,13.76-1.17,21-3.24,8.89-.06,10.9c3.14-.17,4.42-7.8,4.88-11.9,1.87-16.66,2.56-24.15,3.18-29.1,0.23-1.8,2.4-7.06,4.57-12C147.5,124.64,142.94,125.65,141.1,129.17Z" transform="translate(0 0)"/><path class="cls-12" d="M143.82,132.26a28.45,28.45,0,0,0,3,.59c0.48-1.3,1.09-2.82,1.76-4.42L136.23,126S139.16,131.11,143.82,132.26Z" transform="translate(0 0)"/><path class="cls-12" d="M157.56,131s6.72,2.65,12.3,2.5c0.21-1.37.51-2.92,0.86-4.56Z" transform="translate(0 0)"/><path class="cls-7" d="M174.08,130.29c1.49-6.9.45-17.27-.08-21.53-0.89-7.08-2.43-9-3.09-13-8.26,1.3-21-.68-26.67-1.33-2.49,5.2-8.13,11.52-11.65,29,2.2,4.41,11.1,7.34,16.78,6.89,2.08-8.51,3.93-9.91,3.93-9.91s-0.11.94,0.45,10.36C158.62,131,168.66,132.31,174.08,130.29Z" transform="translate(0 0)"/><path class="cls-8" d="M174,108.76c-0.89-7.08-2.43-9-3.09-13a46.77,46.77,0,0,1-8.08.41L157.56,109s6,7.72,6.62,11.88a57.53,57.53,0,0,1,.06,10.49c3.62,0.08,7.26-.12,9.84-1.08C175.57,123.39,174.53,113,174,108.76Z" transform="translate(0 0)"/><path class="cls-5" d="M151.21,66.19a5,5,0,0,1,3.65-6.06l0.35-.07c5.39-.94,13.3-2,15.53-0.84,3,1.62,3.57,8.45,3.67,10.29a1.09,1.09,0,0,1-.33.82h0a1,1,0,0,0,.27,1.7l1.46,0.76a1.15,1.15,0,0,1,.44.39c1.41,2.17,11.55,18.11,7.82,23.49-4,5.77-17.12,6.78-21.29,4.74C159.59,99.82,153.73,76.7,151.21,66.19Z" transform="translate(0 0)"/><path class="cls-6" d="M176.28,73.17a1.15,1.15,0,0,0-.44-0.39L174.37,72a1,1,0,0,1-.27-1.7,1.09,1.09,0,0,0,.33-0.82c-0.1-1.84-.66-8.67-3.67-10.29a4.23,4.23,0,0,0-.53-0.23c0.09,2.73-.15,6.47-1.92,8.27s-7.15,2.13-11.38,2.12c1,12,3.06,30.64,5.87,32,4.17,2,17.29,1,21.29-4.74C187.83,91.28,177.69,75.34,176.28,73.17Z" transform="translate(0 0)"/><path class="cls-3" d="M132.19,68.06s-0.19-3.79.4-5a2.66,2.66,0,0,1,2.72-1.43c2.14,0.76,0,6.46-.52,6.84S132.19,68.06,132.19,68.06Z" transform="translate(0 0)"/><path class="cls-18" d="M131.18,93.88a12.12,12.12,0,0,0,7.55-2c5.21-3.17,11.74-9.58,11-13.94s-10.33-8.27-10.33-8.27S127.5,88.92,131.18,93.88Z" transform="translate(0 0)"/><path class="cls-12" d="M137.51,82.72l-7,7.88a5,5,0,0,0,.69,3.28,12.12,12.12,0,0,0,7.55-2l0.17-.11A34.14,34.14,0,0,0,137.51,82.72Z" transform="translate(0 0)"/><path class="cls-3" d="M132.24,67.94s-7,14.92-5.68,21.73,9.44,4.68,10.53-1.5S137.43,63.14,132.24,67.94Z" transform="translate(0 0)"/><path class="cls-7" d="M155.41,56a3.9,3.9,0,0,0,.05-1.84c-0.3-1.16-2.88-3.14-4.07-3.27-0.68-.08-1.53.8-2.14,1.56C150.53,52.89,153.86,54.16,155.41,56Z" transform="translate(0 0)"/><path class="cls-12" d="M149.25,52.46a12.89,12.89,0,0,0-.77,1.08c1.15,1.4,6,3.87,6.38,3.63a2.35,2.35,0,0,0,.55-1.16C153.86,54.16,150.53,52.89,149.25,52.46Z" transform="translate(0 0)"/><path class="cls-8" d="M145.62,52.46c1.38-.72,4.12.71,6.16,1.76,3.11,1.61,6.35,1.91,6.43,3.77,0.06,1.34-4.56,1.21-7.37.52C148.24,57.87,142.41,54.14,145.62,52.46Z" transform="translate(0 0)"/><path class="cls-19" d="M147.87,56.11a1.65,1.65,0,0,1,.59-1.7,3.25,3.25,0,0,1,3.54.35,3.81,3.81,0,0,1,2.22,3,9.53,9.53,0,0,1-.17,2.83S148.93,58.71,147.87,56.11Z" transform="translate(0 0)"/><path class="cls-13" d="M174.08,109.44c2-18.86-4-38.8-7.73-42.56-7.82-8-26.74-2.8-27.66,4.86-0.74,6.1,5,10.78,1.78,14.16s-4.15,18.76-1.07,17.56C146.43,100.7,167.55,118.29,174.08,109.44Z" transform="translate(0 0)"/><path class="cls-14" d="M157.56,109c6.76,2.81,13.35,4.73,16.51.44,2-18.86-4-38.8-7.73-42.56-2.7-2.75-6.73-3.93-10.88-4a43.66,43.66,0,0,1,2.39,8.82c2.29,12.16.68,32.29-.3,37.29h0Z" transform="translate(0 0)"/><path class="cls-6" d="M161.73,63.48s-3.23,4.52-1.45,9.13,4.88,14.74,14.2,14l0.36,5.81a26.8,26.8,0,0,1-12.24-7.93c-5-6-7.8-16.47-2.33-21.31C163,60.83,161.73,63.48,161.73,63.48Z" transform="translate(0 0)"/><path class="cls-4" d="M150.94,65.7s-2.59,4.93-5.78,5.81-9-1.16-9.68-4.42c0,0,5.25,3.59,9,1.46s4.85-4.84,6.62-4.69S150.94,65.7,150.94,65.7Z" transform="translate(0 0)"/><path class="cls-3" d="M153.42,58.5l2,6.52c0,0.94-3.67,2.77-5.11,1.54-0.42-.36-0.13-6.1-0.13-6.1Z" transform="translate(0 0)"/><path class="cls-3" d="M152,56.06l1.34,3.66a2.38,2.38,0,0,1-1.59,2.92,6.58,6.58,0,0,1-2.91.22c-1.06-.09-1.64-1.09-1.69-2.48a13,13,0,0,1,.69-4.36C148.57,54,151,53.74,152,56.06Z" transform="translate(0 0)"/><path class="cls-19" d="M148.46,58.5a6.31,6.31,0,0,0-1.25,0c-0.29.08-.32,2.75,0.08,3.93a2.31,2.31,0,0,0,1.86,1.72,5.34,5.34,0,0,0,3.28-1,3.6,3.6,0,0,0,.8-3,13.89,13.89,0,0,0-.73-1.8,0.57,0.57,0,0,0-.64-0.49c-0.38,0-.59.93-1.24,0.83A4.24,4.24,0,0,0,148.46,58.5Z" transform="translate(0 0)"/><path class="cls-12" d="M153.3,90.18s3.24,6.52,8.43,5,7-15.92,6-18.13-4.41,1.33-4.41,1.33Z" transform="translate(0 0)"/><path class="cls-4" d="M154.61,62.43a4.46,4.46,0,0,1,2,2.57c0.34,1.63-1.26,7.31-6.08,7.59s-2.82-2.31-2.82-2.31a1.27,1.27,0,0,0,1.4,1.12C150.51,71.52,156,66.65,154.61,62.43Z" transform="translate(0 0)"/><path class="cls-2" d="M149.74,58.84a6.41,6.41,0,0,1-2.11.14,1.32,1.32,0,0,0,.49,1,1.38,1.38,0,0,0,1.61-1.1V58.84Z" transform="translate(0 0)"/><path class="cls-14" d="M158.19,92.81c5.3,1,10.36-13.23,9.64-19.53-1-9-6.45-7.63-8.05-4.88C157.81,71.77,152.33,91.68,158.19,92.81Z" transform="translate(0 0)"/><path class="cls-18" d="M167.83,73.28c-0.77-6.72-4-7.65-6.25-6.55l-0.4.23s1.27,1.67,1.48,5.46,0.23,4.62-.93,6.61-5.2,6-6.16,7.29c-0.08,3.44.59,6.09,2.62,6.48C163.49,93.82,168.55,79.58,167.83,73.28Z" transform="translate(0 0)"/><path class="cls-3" d="M145,63.22a1.69,1.69,0,0,0-2.42,1.08,10.64,10.64,0,0,0,.61,6.15c1.86,5.13,6.75,24,15.79,22.24C167.23,91,152,66.79,145,63.22Z" transform="translate(0 0)"/><path class="cls-4" d="M139.63,67.77l-3.37,0a3,3,0,0,1-3-3V64.48a2.93,2.93,0,0,1,3-2.9l3.44,0a2.93,2.93,0,0,1,2.9,3v0.27a3,3,0,0,1-3,3Z" transform="translate(0 0)"/><circle class="cls-20" cx="136.44" cy="64.79" r="1.91" transform="matrix(0.01, -1, 1, 0.01, 70.4, 200.62)"/><path class="cls-13" d="M136.46,62.87a1.91,1.91,0,1,1-1.93,1.89,1.91,1.91,0,0,1,1.93-1.89h0m0-.38a2.29,2.29,0,1,0,2.27,2.32,2.29,2.29,0,0,0-2.27-2.32h0Z" transform="translate(0 0)"/><path class="cls-4" d="M135.41,62.4h-1.25V61.87a0.6,0.6,0,0,1,.61-0.59h0a0.6,0.6,0,0,1,.59.61h0V62.4h0Z" transform="translate(0 0)"/><path class="cls-4" d="M136.48,59.86h2.25a0.67,0.67,0,0,1,.66.67v1.88H135.8V60.53a0.67,0.67,0,0,1,.67-0.67h0Z" transform="translate(0 0)"/><path class="cls-18" d="M136.19,60.52a0.28,0.28,0,0,1,.28-0.28h2.26a0.28,0.28,0,0,1,.28.28h0v0.61h-2.82V60.52h0Z" transform="translate(0 0)"/><path class="cls-21" d="M137,63.28a1.37,1.37,0,0,1,1.1,1.06c0.09,0.87-.72,1.26-1,1s-0.29-1.48-.77-1.67S136.43,63.07,137,63.28Z" transform="translate(0 0)"/><path class="cls-3" d="M145.93,63.76s-1.82-3-2.62-3.24a5.25,5.25,0,0,0-2.51.47c-0.77.23-1.29,0.73-.75,0.84a5.9,5.9,0,0,1,1.76.28c0.14,0.23.47,2.39,1.81,2.67A2.56,2.56,0,0,0,145.93,63.76Z" transform="translate(0 0)"/><path class="cls-11" d="M136.32,70.54a99.54,99.54,0,0,1-2.18,11.7c-1.25,4.25-1.81,7.18-4.21,9.05a5.57,5.57,0,0,1-2.28,1c2.63,3.44,8.53,1.12,9.44-4.08C137.77,84.29,137.73,75.42,136.32,70.54Z" transform="translate(0 0)"/><path class="cls-11" d="M158.93,87.32c-0.69.52-3.43-.4-6.54-2s-2.89-2.37-4.27-6.18a11.92,11.92,0,0,0-3.83-5.5c2.38,7.23,7.07,20.6,14.73,19.07,2.76-.55,2.87-3.67,1.53-7.7A11.37,11.37,0,0,1,158.93,87.32Z" transform="translate(0 0)"/><path class="cls-22" d="M153.22,60.12a13.87,13.87,0,0,0-.73-1.8,0.57,0.57,0,0,0-.64-0.49,0.39,0.39,0,0,0-.22.12,9.79,9.79,0,0,0,0,1.91c0,0.73-.65,2.14-1.29,2.24a3.7,3.7,0,0,1-1.91.14,6.11,6.11,0,0,1-1.35-.76,5.36,5.36,0,0,0,.2,1,2.3,2.3,0,0,0,1.86,1.72,5.34,5.34,0,0,0,3.28-1A3.6,3.6,0,0,0,153.22,60.12Z" transform="translate(0 0)"/><path class="cls-3" d="M152.08,57.9a3.41,3.41,0,0,0,0-.72c0-.46.07-1.15,0.76-0.83,1,0.45,1,2.91-.17,3.13C151.87,59.65,152,58.5,152.08,57.9Z" transform="translate(0 0)"/><path class="cls-4" d="M127.42,178.65a2.33,2.33,0,0,0-1.43,1.27c-0.29.92-.36,1.81,1.43,2a116.78,116.78,0,0,0,12.91-.31,2.37,2.37,0,0,0,.68-2.2c-0.16-.58-0.5-0.94-1.62-1.07S127.42,178.65,127.42,178.65Z" transform="translate(0 0)"/><path class="cls-19" d="M139.46,176.45a8,8,0,0,1-1.22-3.86h-4.3a4,4,0,0,1-.43,2.63,6.06,6.06,0,0,1-2.51,1.41c-2,1-4.5,2.37-4.58,3.05-0.14,1.15,11.72,1.11,13.69,0C141.13,179.1,140.41,177.85,139.46,176.45Z" transform="translate(0 0)"/><path class="cls-4" d="M129.63,177.34s2.59,2.63,2.57,3.62,4.74,0,4.74,0-3-4.56-4.33-5.05S129.63,177.34,129.63,177.34Z" transform="translate(0 0)"/><path class="cls-4" d="M156.69,178.65a2.33,2.33,0,0,0-1.43,1.27c-0.29.92-.36,1.81,1.43,2a116.78,116.78,0,0,0,12.91-.31,2.37,2.37,0,0,0,.68-2.2c-0.16-.58-0.5-0.94-1.62-1.07S156.69,178.65,156.69,178.65Z" transform="translate(0 0)"/><path class="cls-19" d="M168.72,176.45a8,8,0,0,1-1.22-3.86h-4.3a4,4,0,0,1-.43,2.63,6.06,6.06,0,0,1-2.51,1.41c-2,1-4.5,2.37-4.58,3.05-0.14,1.15,11.72,1.11,13.69,0C170.4,179.1,169.68,177.85,168.72,176.45Z" transform="translate(0 0)"/><path class="cls-4" d="M158.89,177.34s2.59,2.63,2.57,3.62,4.74,0,4.74,0-3-4.56-4.33-5.05S158.89,177.34,158.89,177.34Z" transform="translate(0 0)"/><path class="cls-19" d="M132.91,165.06c0.58,5.53,1.16,9.85,1.51,10.25,5.58,6.61,7.54-4.57,8.14-9.88v-0.06C139.65,165.86,135.16,165.37,132.91,165.06Z" transform="translate(0 0)"/><path class="cls-19" d="M160,164.34c1.29,5,3.29,12.85,4.71,13,5.6,0.62,5.43-7,6.06-13.13C167,165.23,162.36,164.71,160,164.34Z" transform="translate(0 0)"/><path class="cls-8" d="M144.94,122.06a18.16,18.16,0,0,0-3.84,7.11,22.81,22.81,0,0,0,8.26,1.12c2.08-8.51,3.93-9.91,3.93-9.91S147.14,119.7,144.94,122.06Z" transform="translate(0 0)"/><path class="cls-23" d="M173.78,42.23s56.89,1,63.06-1.69,0.5-9.93-3.92-9.34-3.24-4-6.22-5.4-6.38.82-8.32,0.21c-6.89-2.19,2-22-15.74-19.18S189.1,26.56,183.87,27.4s-10.62,1.15-10.09,5.09-4.07,0-7.26,4.25S165.64,42.12,173.78,42.23Z" transform="translate(0 0)"/><path class="cls-23" d="M2.84,10.77A10.43,10.43,0,0,0,12,25.3c11.49,0.53,30-.76,40.43-1.08,16.8-.52,18.29-5.87,15.13-9.35-3.66-4-12.57.4-14.82-.88s-6.74-8.2-12-6.78-5.78,9.49-11.06,6.11S23.78-4.07,11.94,1.15A18.1,18.1,0,0,0,2.84,10.77Z" transform="translate(0 0)"/><path class="cls-2" d="M401.93,167.06a10.43,10.43,0,0,0,9.18,14.53c11.49,0.53,30-.76,40.43-1.08,16.8-.52,18.29-5.87,15.13-9.35-3.66-4-12.57.4-14.82-.88s-6.74-8.2-12-6.78S434,173,428.74,169.61s-5.87-17.39-17.71-12.17A18.1,18.1,0,0,0,401.93,167.06Z" transform="translate(0 0)"/></svg>