<svg id="Livello_1" data-name="Livello 1" xmlns="http://www.w3.org/2000/svg" viewBox="0 0 533.9 191.64"><defs><style>.cls-1{fill:#fee5e6;}.cls-2{fill:#fbc7c7;}.cls-3{fill:#fff;}.cls-4{fill:#ae273e;}.cls-5{fill:#b6b6b6;}.cls-6{fill:#14223e;}.cls-7{fill:#27708a;}.cls-8{fill:#e0e0e0;}.cls-9{fill:#2e2d2d;}.cls-10{fill:#da6077;}.cls-11{fill:#0f2539;}.cls-12{fill:#42b0e0;}.cls-13{fill:#f78f90;}.cls-14{fill:#f46263;}.cls-15{fill:#efeff0;}.cls-16{fill:#332b69;}.cls-17{fill:#ffd141;}.cls-18{fill:#fa933e;}.cls-19{fill:#014a70;}.cls-20{fill:#122;}.cls-21{fill:#3395b7;}</style></defs><title>travel-5</title><path class="cls-1" d="M477.27,33.84a10.43,10.43,0,0,0,9.14,14.53c11.49,0.53,30-.76,40.43-1.08,16.8-.52,18.29-5.87,15.13-9.35-3.66-4-12.57.4-14.82-.88s-6.65-8.19-12-6.77-5.78,9.49-11.06,6.11S498.21,19,486.37,24.22A18.1,18.1,0,0,0,477.27,33.84Z" transform="translate(-9.39)"/><path class="cls-1" d="M491.09,189.88A28.92,28.92,0,0,0,501.77,185c16.67-11.15,28.28-28.67,35.66-47.32,3.7-9.35,6.46-19.31,5.74-29.34C542,92.06,530.51,77.28,515.53,71.09c-8.6-3.56-15.58-1.87-24.34.48-7.29,2-14.74,4.9-21.84.72C458.17,65.71,410.6,5.64,356,15.74c-21.87,4-34.08,22.41-41.78,41.74-6.56,16.46-9.26,38-21.08,51.82-4.92,5.74-12.16,8.13-18,12.75-9.31,7.43-13,21.17-8.59,32.22,2.4,6,6.85,10.91,11.9,14.87,26.65,20.87,63,12.29,94.09,13.38,36.81,1.29,73.61,5.21,110.37,7.5a35,35,0,0,0,7.85-.1Z" transform="translate(-9.39)"/><path class="cls-2" d="M314.92,150.63a44.58,44.58,0,0,1-3.91-15c-1-19.63-.33-20.92-0.33-20.92s57.67,42.56,37,62.92q-1.49,1.46-2.79,2.66C327.56,196.22,321.33,165.51,314.92,150.63Z" transform="translate(-9.39)"/><path class="cls-3" d="M345.22,179.93c-5.25-7.59-11-15.84-14.41-20.69a79,79,0,0,1-5.36-9.25l-11-.36q-0.24-.58-0.46-1.16l10.83,0.35c-1.93-3.86-3.91-8.15-5.76-12.34l-8.15-2-0.06-1.2,7.63,1.89c-3.76-8.58-6.91-16.52-8-19.28a4.45,4.45,0,0,1,.15-1.19l0.87,0.66c0.73,1.86,2.58,6.53,5,12.23l2.47-6.23,0.92,0.78-2.76,6.95c1.49,3.52,3.16,7.36,4.88,11.13l6.28-10.51,0.85,0.81-6.55,11c2.25,4.88,4.57,9.57,6.67,13.21l6.94-7.44,0.48-9,1.08,1.22-0.35,6.44,3-3.26,0.73,0.9L329.9,155.72c0.64,1.07,1.26,2,1.84,2.86,1.34,1.89,3,4.31,4.91,7l11.4-11.92q0.29,0.53.57,1.07l-11.3,11.81c2.74,3.93,5.81,8.36,8.74,12.6Z" transform="translate(-9.39)"/><path class="cls-2" d="M452.72,127.46c4-6.22,8.66-11.87,14-15.91C488.24,95.4,490.23,95.2,490.23,95.2s-4.19,97.92-43.1,90q-2.8-.57-5.15-1.13C410.7,176.65,440.75,146.11,452.72,127.46Z" transform="translate(-9.39)"/><path class="cls-3" d="M442.65,184.23c4.6-11.75,9.57-24.55,12.44-32.16a108.1,108.1,0,0,1,6.4-13.14l-8-12.69q0.47-.71,1-1.42l7.88,12.55c2.9-5.14,6.25-10.66,9.58-16L468,110.62l1.31-1L473,119.73c6.86-10.81,13.45-20.46,15.75-23.79a6.1,6.1,0,0,1,1.47-.74s0,0.53-.08,1.49c-1.55,2.25-5.43,7.92-10.06,15l9-2q-0.09.81-.18,1.65l-10,2.18c-2.85,4.38-5.93,9.21-8.89,14l16.72-.91q-0.13.79-.27,1.59l-17.43.95c-3.81,6.29-7.36,12.49-9.88,17.66l13.74,2.18,10.53-6.31q-0.27,1.08-.55,2.16l-7.56,4.53,6,1q-0.23.76-.47,1.51l-22.41-3.56c-0.72,1.55-1.34,3-1.83,4.28-1.12,3-2.56,6.73-4.18,10.92l22.23,3.81q-0.38.74-.78,1.46l-22-3.78c-2.36,6.11-5,13-7.61,19.54Z" transform="translate(-9.39)"/><path class="cls-2" d="M386.14,51s2.56-1.58,4.3-2.94c0.13-.1.58-0.6,1.1-1.18,0.87-1,1.91-2.19,1.91-2.19s-0.13.67-.24,1.42l0,0.16c0,0.16,0,.33-0.06.49-0.09.75-.11,1.41,0.07,1.41,0.46,0,7-2.82,7-2.82s-4.4,3.15-2.33,3.63c2.34,0.55,5.11-1,7.37-1.14a11.69,11.69,0,0,0,2.29-.34l0,0.08,0,0.06q-0.11.21-.22,0.43l0,0.07c-0.07.15-.14,0.31-0.2,0.47l0,0c-0.07.17-.13,0.35-0.18,0.53a9.09,9.09,0,0,0-.29,3.31c-0.89,2.33-.53,8.18-0.48,8.91,0.07,0.94-1.39.73-1.93,1.39s1.9,9.77.33,10.51,0.72,7.42.86,8.63-1.59.3-2.89,1.08,1.1,10.45-.29,10.46-3,16.62-3.12,18.61,0.23,7,2.58,6.74,7.26-20.85,7.57-22.81-1.8-1.82-1.9-2.54,1.9-7,1.43-8.66-1.85-.36-1.75-2.07,2.33-6.5,1.89-8.42-1.73-.55-1.93-1.34a5.56,5.56,0,0,1,.17-1.47,4.75,4.75,0,0,0,2.84-1.42,21.41,21.41,0,0,0,.57-3.32s0.87,1.86,1.24,1.38A16.41,16.41,0,0,0,414,64.47c0.37-.89.7-1.7,1-2.45a21.2,21.2,0,0,0-.42-3.87s1.29,1.57,1.44,1.13a20.27,20.27,0,0,0,1.15-5.19c1.35,0.27,2.79.39,4.33,0.58,0.16,0,.15-0.33.07-0.79l0-.23,0-.12-0.06-.24,0-.12c-0.14-.56-0.3-1.06-0.3-1.06a25.36,25.36,0,0,0,2.89,3l0.61,0.14a18.65,18.65,0,0,1,1.87.55,11.23,11.23,0,0,1,1.22.51L428,56.44l0.07,0c0.33,0,.23-1.78.23-1.78s0.31,0.6.7,1.3l0.08,0.15,0.34,0.61a9.46,9.46,0,0,0,.87,1.38,11,11,0,0,0,1.79,1.45,4.68,4.68,0,0,0,.6.3,4.84,4.84,0,0,0,.7.22,7.77,7.77,0,0,0,2.35.15l0.33,0h0.07l0.3-.06h0l0.26-.08,0.05,0,0.24-.11h0l0.21-.13,0,0,0.19-.15h0l0.16-.17h0c0.7-.89.41-2.42-0.42-4.08a23.67,23.67,0,0,0-3.4-1.52s2.23-.41,1.82-1a18.15,18.15,0,0,0-3.37-3.4l-2.35-1.74c-0.45-.33-4.26-0.62-4.26-0.62s2-.95,1.6-1.23A21.73,21.73,0,0,0,419,42.44a13.57,13.57,0,0,0,1.79-1.06c0.7-.61-1.08-1.1-1.08-1.1a21.65,21.65,0,0,0,3.58-.87,24,24,0,0,1,3.54-1.58l0.07,0h0l0,0v0l0,0v0a0.15,0.15,0,0,0,0,0V37.58l0,0,0,0,0,0,0,0,0,0,0,0,0,0-0.05,0,0,0-0.07-.05,0,0L426.3,37h0l-0.11-.06-0.06,0L426,36.83l-0.08,0-0.11-.06-0.06,0h0a12.07,12.07,0,0,0-6.17-.85c-1.63.16-2.85,0.31-3.8,0.47h0l-0.28.05H415.4l-0.6.13h-0.06l-0.22.06h-0.05l-0.48.15-0.05,0-0.18.07,0,0-0.2.09h0l-0.17.08,0,0-0.15.08,0,0-0.17.11,0,0-0.13.09,0,0-0.14.11h0l-0.16.13,0,0-0.12.1,0,0L412,38a0.67,0.67,0,0,0,.38.2l0.33,0.12,0.35,0.12,0.78,0.25a23.47,23.47,0,0,0-2.89,0,7.67,7.67,0,0,0-1.38,2.87,9.09,9.09,0,0,0-2.29-.78c-3.31-.69-5.35-1.6-8.84-1.35-0.46,0-3,.45-3.55.51-0.8.08-1.06,0.67-2,.78a23.43,23.43,0,0,0-4.21.92c-0.57.18,0.93,1,.93,1s-3,1-3.16,1.19C383.39,47.05,386.14,51,386.14,51Z" transform="translate(-9.39)"/><path class="cls-2" d="M380.73,34.15c-0.32-.33-5.48-2.09-5.48-2.09s2.62-1.5,1.62-1.82a40.69,40.69,0,0,0-7.3-1.62c-1.66-.19-2.11-1.22-3.49-1.37-0.88-.09-5.35-0.84-6.16-0.9-6.06-.45-9.59,1.12-15.35,2.3a15.79,15.79,0,0,0-4,1.35,13.32,13.32,0,0,0-2.38-5,40.75,40.75,0,0,0-5,0s3.38-1,3.21-1.18l-0.27-.25L336,23.46l-0.2-.18-0.07-.06L335.5,23l0,0-0.25-.19-0.08-.06-0.23-.16-0.06,0-0.3-.19-0.05,0-0.26-.15-0.08,0L333.88,22l0,0-0.35-.15-0.07,0-0.31-.12-0.09,0c-0.26-.09-0.54-0.18-0.83-0.27l-0.09,0-0.38-.1-0.1,0-1-.23-0.12,0L330,20.86h-0.07c-1.65-.29-3.77-0.54-6.6-0.84a21,21,0,0,0-10.71,1.45h0l-0.1.05-0.2.1-0.13.07-0.19.1-0.11.06-0.19.11h0l-0.39.26-0.07,0-0.12.09-0.08.07-0.1.08-0.08.07-0.07.08-0.06.07-0.06.07-0.05.07,0,0.06,0,0.06,0,0.05,0,0.06a0.32,0.32,0,0,0,0,0,0.24,0.24,0,0,0,0,.05v0l0,0,0,0,0.05,0,0,0,0.12,0a41.74,41.74,0,0,1,6.14,2.76A37.6,37.6,0,0,0,323,27.69s-3.09.84-1.87,1.9a23.58,23.58,0,0,0,3.11,1.85,37.72,37.72,0,0,0-14.3,6c-0.75.49,2.78,2.15,2.78,2.15s-6.6.47-7.39,1c-1.25.9-2.6,1.9-4.09,3a31.51,31.51,0,0,0-5.87,5.89c-0.72.93,3.15,1.66,3.15,1.66s-5.66,2.15-5.91,2.63c-1.36,2.67-1.89,5.15-1,6.74h0l0.1,0.14a2.86,2.86,0,0,0,.2.26l0.14,0.15,0.25,0.23,0.14,0.12a3.42,3.42,0,0,0,.45.28l0.11,0a4.28,4.28,0,0,0,.45.18l0.2,0.06,0.47,0.12,0.21,0a7.55,7.55,0,0,0,.75.09c5.35,0.37,7-1.49,9.45-3.66a5.82,5.82,0,0,0,.67-1l0.27-.44,0.29-.49c0.29-.5.6-1.05,0.89-1.58l0.15-.26c0.67-1.21,1.22-2.25,1.22-2.25a13.37,13.37,0,0,0,.07,2.52c0.08,0.41.21,0.66,0.44,0.54a18.9,18.9,0,0,1,2.73-1.19,33.43,33.43,0,0,1,4.31-1.17,0.56,0.56,0,0,0,.17-0.08,3.58,3.58,0,0,0,.39-0.3l0.16-.14c0.39-.35.88-0.85,1.39-1.38s1-1.11,1.51-1.63c0.8-.88,1.41-1.58,1.41-1.58s-0.36,1.13-.62,2.25a7.82,7.82,0,0,0-.27,1.81c0,0.25.08,0.39,0.22,0.38h0l0.86-.1c-0.49,1.48-.93,3.08-1.36,4.91-0.21.87,3-.42,3-0.42s-4,5-4.19,5.91c-0.29,1.52-.6,3.17-0.93,5a36.35,36.35,0,0,0-.44,8.28c0.07,1.16,3-1,3-1s-2.44,5.48-2.32,6c0.66,2.93,1.78,5.11,3.36,5.5h0a2.14,2.14,0,0,0,.69.05h0L322,86.7h0l0.37-.12h0l0.33-.15,0.06,0,0.37-.23,0,0,0.34-.25,0.1-.08,0.39-.34a14,14,0,0,0,2.5-3,9.29,9.29,0,0,0,.95-2.22,22.28,22.28,0,0,0,.58-4c0.08-.83-1.16-6.67-1.16-6.67s1.83,2.59,2.08,1.81c0.12-.37.25-0.75,0.4-1.14s0.23-.58.36-0.88,0.21-.48.33-0.73a5,5,0,0,0,0-1.58c-0.15-1.71-.51-4.19-0.31-4.57,0,0,.09.06,0.19,0.27s0.3,0.72.48,1.21l0.41,1.09a10.54,10.54,0,0,0,.43,1c0,0.09.09,0.13,0.1,0.1q0.41-.72.84-1.39c0.36-.58.34-7.15,0.34-7.15s1.65,4.22,2.09,3.61c1.46-2,2.89-3.78,4.1-5.63a8.72,8.72,0,0,0-.1-2.79c1,0.65,2.16,1.27,3.32,1.9,1.77,4.39,3.85,10.1,3.31,11.37-0.91,2.12-2.61-1.1-2.84,2.07s3,15.09,2.7,16.45-2.59-1-3.35,2.32,3.09,11.67,3.24,14.64-2.24.79-3.06,3.59,2.62,13.8,2.44,15-3.84,1-3.32,4.4,8.94,39.17,13,39.64,4.73-8.24,4.51-11.7-2.89-32.3-5.31-32.32,1.79-16.8-.46-18.17-5.27.21-5-1.89,4.27-13.69,1.55-15S351,68.12,350,67s-3.46-.79-3.34-2.42c0.05-.67.25-3.75,0.22-7.12a1.29,1.29,0,0,0,.28.4c0.8,0.55,1.61,1.14,2.4,1.8l0.79,0.68c0.37,0.33.71,0.66,1,1l0.44,0.48,0.4,0.47a0.2,0.2,0,0,0,.09.07,1.13,1.13,0,0,0,.71-0.8,15.11,15.11,0,0,0,.69-1.65,57,57,0,0,0,.83,6.2c0.22,0.47.43,0.93,0.65,1.37a9.48,9.48,0,0,0,1.62,2.44,7.32,7.32,0,0,0,.58.55,8.07,8.07,0,0,0,.69.52c0.39,0.27,1.46-4.43,2-4.18a3.88,3.88,0,0,1,.41,1.83l0.05,0.49c0,0.33.07,0.68,0.1,1,0,0.17,0,.33.06,0.49l0,0.23a7.76,7.76,0,0,0,.22,1.15,1.57,1.57,0,0,0,.09.24,0.48,0.48,0,0,0,.11.15l0.06,0c0.23,0.08.45,0.14,0.66,0.18l0.19,0,0.44,0.07,0.17,0a3.87,3.87,0,0,0,.54,0h0.08l0.41-.07,0.16,0,0.3-.11,0.14-.06a2.6,2.6,0,0,0,.36-0.21h0c1.36-1,1.79-3.28,1.58-6,0-.48-4-4.25-4-4.25s3.48,0.73,3.21-.3a28.51,28.51,0,0,0-2.86-7c-0.86-1.44-1.64-2.74-2.37-3.93-0.46-.75-5.81-3.44-5.81-3.44s3.52-.16,3.07-0.83a43.68,43.68,0,0,0-3.16-4.15,15.77,15.77,0,0,0,5.9.78,7.3,7.3,0,0,0,.77-0.13c3.58-.83-4-6.31-4-6.31s11.38,4.92,12.19,4.94-0.43-6-.43-6,4.63,5.4,5.21,5.87c3,2.38,7.45,5.13,7.45,5.13S386.1,39.65,380.73,34.15Z" transform="translate(-9.39)"/><path class="cls-4" d="M395.26,83.69a1.82,1.82,0,0,1,2.89-1.31c3.66,2.68,11,7.72,14.21,7.83,5.47,0.18,18.27-9.74,20.51-6.12s-11.68,15.58-20.09,15.58C398.43,99.66,394.67,89.9,395.26,83.69Z" transform="translate(-9.39)"/><path class="cls-5" d="M409.61,89.45c-3.62-1.53-8.63-5-11.46-7.07a1.82,1.82,0,0,0-2.89,1.31c-0.5,5.31,2.17,13.2,11.9,15.39a34.56,34.56,0,0,0,2.06-6A29.59,29.59,0,0,0,409.61,89.45Z" transform="translate(-9.39)"/><path class="cls-4" d="M373.22,185.81a7.09,7.09,0,0,0,1.37-3.52l4.8-1.64s-0.9,3.16-.23,4.25c0.29,0.48,6.78,3.77,6.83,4.41,0.09,1.07-11.64.57-13.54-.53C371.45,188.2,372.21,187.07,373.22,185.81Z" transform="translate(-9.39)"/><path class="cls-6" d="M386,189.31c0-.46-3.37-2.27-5.37-3.44h0a3,3,0,0,1-3,1.29l-1.37-.24a2.9,2.9,0,0,1-1.77-1l-0.7-.88a5.71,5.71,0,0,1-.54.82c-1,1.26-1.77,2.39-.77,3C374.35,189.88,386.08,190.37,386,189.31Z" transform="translate(-9.39)"/><path class="cls-7" d="M420.73,76.76l0-.88a6.15,6.15,0,0,0-3.24,2.24c-1.94,5.91-9.14,24.26-13,34.28l2.07,0.63Z" transform="translate(-9.39)"/><path class="cls-8" d="M446.91,76.21l18.63-15.85,0.6,0.62-18,16.62a0.93,0.93,0,0,1-1.48-.3h0A0.93,0.93,0,0,1,446.91,76.21Z" transform="translate(-9.39)"/><rect class="cls-8" x="462.46" y="57.26" width="7.93" height="4.06" rx="1.19" ry="1.19" transform="translate(-13.14 57.13) rotate(-6.98)"/><path class="cls-9" d="M467.65,61.53a0.29,0.29,0,0,1-.32-0.25l-0.12-.94-1.52.19,0.12,0.94a0.29,0.29,0,0,1-.57.07l-0.15-1.23a0.29,0.29,0,0,1,.25-0.32l2.09-.26a0.29,0.29,0,0,1,.32.25l0.15,1.23A0.29,0.29,0,0,1,467.65,61.53Z" transform="translate(-9.39)"/><path class="cls-4" d="M421.59,78.38c-2.14,2.46.16,6.54,3.42,8.78s7.27,5.21,8.42,7.05c2.59,4.15,8.21,32.1,11.57,32.94,6,1.51-.5-28.93-4.63-34.86s-10.25-13.11-13.48-14.07C424.62,77.54,422.25,77.61,421.59,78.38Z" transform="translate(-9.39)"/><path class="cls-10" d="M421.59,78.38c0.66-.76,3-0.83,5.3-0.16s5.53,4,8.78,7.89A41.36,41.36,0,0,1,430.25,91c-1.61-1.32-3.54-2.7-5.24-3.87C421.75,84.92,419.44,80.84,421.59,78.38Z" transform="translate(-9.39)"/><path class="cls-11" d="M404.92,187.62c0.55,0.85,5.86.53,6.75,0.18,0.52-.2,0-0.72-0.51-1.12,1.69,0.74,3.78,1.71,3.88,2.27,0.17,0.93-9.49,1.48-11.15.67-0.87-.42-0.34-1.47.37-2.67A2.35,2.35,0,0,1,404.92,187.62Z" transform="translate(-9.39)"/><path class="cls-4" d="M437,99.54c-0.09-.54-1.35-1.84-3-2.42-1.07-2.66-2.22-5.66-2.79-7.55-1.21-4-6.16-11.29-8.82-12a4.36,4.36,0,0,0-4.27,1.06l2.64,25.8c-1.14.28-2.27,1.27-3.28,3.35-4.19,8.59-6.21,36.83-8.81,47.24-3.31,13.24-4.2,31.51-4.45,31.93a2.35,2.35,0,0,1,.66.67c0.55,0.85,5.86.53,6.75,0.18,0.52-.2,0-0.72-0.51-1.12a4.94,4.94,0,0,1-2.11-1c-0.48-.67,9-7.7,14.89-36.6-1,18.86-2.1,37.28-2.43,37.82a2.35,2.35,0,0,1,.64.69c0.53,0.86,5.85.65,6.74,0.32,0.52-.19,0-0.72-0.48-1.13-1.12-.52-2.52-0.92-2.59-1S434,171.91,437,156.84C439,147.11,437.85,104.62,437,99.54Z" transform="translate(-9.39)"/><path class="cls-11" d="M422.14,187.56c0.53,0.86,5.85.65,6.74,0.32,0.52-.19,0-0.72-0.48-1.13,1.68,0.78,3.74,1.79,3.84,2.34,0.15,0.93-9.52,1.28-11.16.44-0.86-.44-0.31-1.48.42-2.66A2.35,2.35,0,0,1,422.14,187.56Z" transform="translate(-9.39)"/><path class="cls-10" d="M416.35,110.86a22.48,22.48,0,0,1,1.18-3.08c1-2.08,2.14-3.06,3.28-3.35l-2.64-25.8s8.26,9.73,9.42,13.88c0.95,3.42.67,12.91,0.35,19.17A26.12,26.12,0,0,1,416.35,110.86Z" transform="translate(-9.39)"/><path class="cls-12" d="M405,179.41a176.91,176.91,0,0,1,3.74-24.4c2.35-9.39,4.22-33.26,7.63-44.16,8.51,2.68,16.84,0,21.29-2.05,0.59,14.46.89,40.66-.6,48-1.87,9.24-4.2,19.34-6.87,24.72-2.2,1.1-6.11.37-8.12-.49,0.49-7,1.2-19.41,1.89-32-3.55,17.31-6.84,27.07-10,32A82.78,82.78,0,0,1,405,179.41Z" transform="translate(-9.39)"/><path class="cls-7" d="M425.23,143.46s-5.91,4.2-6.85,9.82-1.82,12.1-4.1,16.23c-1.71,3.09-4.15,8.34-5.27,10.78h0l1.18,0.22h0.05l1.18,0.2h0.09l1.16,0.18h0.08l1.16,0.15h0a41,41,0,0,0,3.13-6.42c2.21-5.65,4.49-13.89,6.89-25.59l-0.12,2.16C424.32,148.73,424.8,146.14,425.23,143.46Z" transform="translate(-9.39)"/><path class="cls-7" d="M438,123.45c-2.41,2.38-4.34,5.07-4.74,7.79-1.19,8.22-2.82,13.51-2.82,16.88s-0.16,16.26-2.27,21.64a124.2,124.2,0,0,0-3.62,12.07c1.91,0.39,4.12.46,5.58-.26,2.67-5.38,5-15.48,6.87-24.72C438.1,151.58,438.25,136.76,438,123.45Z" transform="translate(-9.39)"/><path class="cls-13" d="M431.63,85.72c-0.39-.66-1.07-3.87-2.09-4.85-2.24-2.17-6.81-4.08-6.81-4.08h0c-2-.55-4.08.25-6,1.47-7,4.5-2.65,11-3.36,16a40.78,40.78,0,0,1-1.29,11.89c-3.28,11.36-3.71,26.88-3.71,38.85,0,1.47,30.88,3.25,33.74,2C449.12,113.84,433,88,431.63,85.72Z" transform="translate(-9.39)"/><path class="cls-10" d="M429.54,80.87c-2.24-2.17-6.81-4.08-6.81-4.08h0a28.37,28.37,0,0,0,2.39,5c1.63,2.54,7,8.76,7,12.65s0.11,15.15,2,19.4,6.26,5.5,1.57,15.26c-2.83,5.89-4.36,13.29-5.13,18.22,5.71,0.19,10.56.13,11.61-.34,7-33.16-9.19-59-10.52-61.28C431.24,85.06,430.55,81.85,429.54,80.87Z" transform="translate(-9.39)"/><path class="cls-7" d="M437.52,97.69c-0.94-2.35-1.87-4.41-2.71-6.12L424.16,93S430.29,98.11,437.52,97.69Z" transform="translate(-9.39)"/><path class="cls-12" d="M423.86,77.75c-0.41-2-1.79-2.27-3.16-1.86l0,0.88a3.27,3.27,0,0,1,1.13,1.65c0.41,1,.5,3.66.7,5.59,0.66,6.24,2.65,24.39,1.28,31L406.55,113l-2.07-.63c-1.42,3.69-2.39,6.26-2.46,6.65-0.86,4.2,4,8,10.35,8.39s13.66-2.29,14.21-10.14S424.66,81.7,423.86,77.75Z" transform="translate(-9.39)"/><path class="cls-4" d="M444.66,124.56a6.91,6.91,0,0,0-.41,4.77,3.67,3.67,0,0,1,.19,1.77c-0.37,1,1,.54,1.19-0.88,0.09-.68.44-1.24,0.58-0.61s-0.73,4.32.34,3.27a5.67,5.67,0,0,0,.67-7.27C446.55,124.51,445.15,123.52,444.66,124.56Z" transform="translate(-9.39)"/><path class="cls-14" d="M398.63,185.81a7.09,7.09,0,0,0,1.36-3.52l4.8-1.64s-0.9,3.16-.23,4.25c0.29,0.48,6.78,3.77,6.83,4.41,0.09,1.07-11.64.57-13.54-.53C396.87,188.2,397.63,187.07,398.63,185.81Z" transform="translate(-9.39)"/><path class="cls-6" d="M411.41,189.31c0-.46-3.37-2.27-5.37-3.44h0a3,3,0,0,1-3,1.29l-1.37-.24a2.9,2.9,0,0,1-1.78-1l-0.7-.88a5.71,5.71,0,0,1-.54.82c-1,1.26-1.77,2.39-.77,3C399.77,189.88,411.5,190.37,411.41,189.31Z" transform="translate(-9.39)"/><path class="cls-14" d="M414.2,85c1,2.1,5.22,9.41,18.51,10.42,13.92,1.06,19.28-19.28,14.62-18.91-2.24.18-5.71,6.76-12.7,11.16-4.47,2.81-13.36-4.42-17.47-6.15C414.12,80.24,413.34,83.26,414.2,85Z" transform="translate(-9.39)"/><path class="cls-4" d="M414.28,85.17A59.17,59.17,0,0,1,423,88.55s5.67,5.1,10.46,4,5.22-3,7.61-3.71,5.18-4.3,5.22-7.6a5.91,5.91,0,0,1,2-4.31c2.58,2.78-3,19.48-15.64,18.52C419.73,94.44,415.44,87.44,414.28,85.17Z" transform="translate(-9.39)"/><path class="cls-14" d="M447.87,74.48c0.33-.38,2-1.35,1.66-0.5-0.1.22-1.18,1.2-.5,1.31s2.16-.78,2.81-1.11,1,0.39.27,1.76-2.46,2.91-4.22,2.17S447.08,75.4,447.87,74.48Z" transform="translate(-9.39)"/><path class="cls-13" d="M417.17,81.53c1.55,0.65,3.79,2.1,6.21,3.48-0.2,1.66,0,5.93-2.51,8-4.45-2.56-6-6.73-6.67-8C413.34,83.26,414.12,80.24,417.17,81.53Z" transform="translate(-9.39)"/><path class="cls-10" d="M416.11,85.15c0.68,1.42,3.71,2.88,5.86,3.12a3.81,3.81,0,0,1,1.06.27A7.34,7.34,0,0,1,420.88,93c-4.45-2.56-6-6.73-6.67-8a3.08,3.08,0,0,1,.25-3.2C415,82.83,415.7,84.29,416.11,85.15Z" transform="translate(-9.39)"/><path class="cls-15" d="M422.24,66.79s-0.41-1.47-2.72-1.39-7.34,6.13-2.6,9c6.93,4.25,7.25-2,7.24-3.65S424.33,66.88,422.24,66.79Z" transform="translate(-9.39)"/><path class="cls-14" d="M418.65,74.12l0.24,4.22c0,0.69,1.82,2.48,3.05,1.53,0.36-.28.16-1.31-0.25-2l-1.23-3.57Z" transform="translate(-9.39)"/><path class="cls-16" d="M421.19,76.41a5.46,5.46,0,0,1-2.26-1.52l1.7-.09Z" transform="translate(-9.39)"/><path class="cls-14" d="M418.46,70.81l-0.18,1.93a2.86,2.86,0,0,0,2.44,3.15,2.46,2.46,0,0,0,2.81-2.49c0.09-1.58-1.1-2.86-1.55-3.54C421,68.3,418.84,68.61,418.46,70.81Z" transform="translate(-9.39)"/><path class="cls-14" d="M418.63,72.64a2.41,2.41,0,0,1-.16-0.48c-0.07-.32-0.25-0.77-0.67-0.43-0.61.49-.13,2.15,0.68,2.1C419.08,73.79,418.81,73,418.63,72.64Z" transform="translate(-9.39)"/><path class="cls-14" d="M422.61,71.82a2.4,2.4,0,0,0,0-.51c0-.32,0-0.81.48-0.63,0.74,0.25.86,2,.09,2.21C422.57,73.05,422.57,72.24,422.61,71.82Z" transform="translate(-9.39)"/><path class="cls-3" d="M420.61,73.32a2.66,2.66,0,0,0,1.84-.44S422.17,74.42,420.61,73.32Z" transform="translate(-9.39)"/><path class="cls-4" d="M420.85,75.26a3.76,3.76,0,0,0,2-.68,3.88,3.88,0,0,0,.7-1.27s0,0.06,0,.09a2.46,2.46,0,0,1-2.81,2.49,2.75,2.75,0,0,1-2.11-1.5A3.55,3.55,0,0,0,420.85,75.26Z" transform="translate(-9.39)"/><path class="cls-15" d="M421.53,68.55a1.11,1.11,0,0,1-.08,1.45,4.61,4.61,0,0,1-3.26,1.43C417.29,71.2,418.85,66.92,421.53,68.55Z" transform="translate(-9.39)"/><path class="cls-16" d="M418.89,72.94a1.06,1.06,0,0,1-.55-0.75,0.68,0.68,0,0,1,.38-0.76,4.44,4.44,0,0,1,1.73-.28,0.68,0.68,0,0,1,.61.6,1.06,1.06,0,0,1-.28.89,1.52,1.52,0,0,1-.89.47l-0.17,0A1.49,1.49,0,0,1,418.89,72.94Z" transform="translate(-9.39)"/><path class="cls-16" d="M421.35,71.65a0.67,0.67,0,0,1,.2-0.79,2.13,2.13,0,0,1,.7-0.33c0.43-.14,1.14-0.38,1.39.35a1.12,1.12,0,0,1-.08.89,1.23,1.23,0,0,1-.7.58,1.26,1.26,0,0,1-.32.06A1.16,1.16,0,0,1,421.35,71.65Z" transform="translate(-9.39)"/><path class="cls-16" d="M421,71.82a0.35,0.35,0,0,1,.37-0.12l0.32-.45a1.09,1.09,0,0,0-1.15.23Z" transform="translate(-9.39)"/><path class="cls-7" d="M422.93,117.4a0.21,0.21,0,0,0-.22-0.35c-1.88.74-7.17,2.67-10.78,2.63-4.45,0-6.28-6.76-6.48-5.06s2.33,4.64,5.19,5.44C414.28,121.07,421,119.22,422.93,117.4Z" transform="translate(-9.39)"/><path class="cls-1" d="M412.95,117.45s-0.07,1.83-1.29,1.46,0.06-1.62.68-1.71S412.95,117.45,412.95,117.45Z" transform="translate(-9.39)"/><path class="cls-7" d="M402,119c0-.2.34-1,0.82-2.34a11.86,11.86,0,0,0,3.43,5.12c3,2.28,5.57,2,8.43,1.49s4.46,1.09,7.47-1a31,31,0,0,0,4.27-3.78c-1.18,6.92-8,9.31-14.07,8.94C406,127,401.15,123.25,402,119Z" transform="translate(-9.39)"/><path class="cls-17" d="M393.35,70.59s-1.73-2.44-3.57-2.61-4.37,2.59-2.95,5.23S393.35,70.59,393.35,70.59Z" transform="translate(-9.39)"/><path class="cls-18" d="M396.87,67.41c-1.5-.68-4.68,1.14-7.63,2.81s-6,3.41-6,5.89c-0.14,4.58,5,7.26,9.47,5.43S403.19,70.29,396.87,67.41Z" transform="translate(-9.39)"/><path class="cls-14" d="M409,131.74a139.35,139.35,0,0,0-3.3-17.68,55.9,55.9,0,0,0-2.88-8.7c-1-2.26-2.47-4.34-2.8-6.8a12.94,12.94,0,0,1-.11-1.78c0-3.41,1.18-6.72.87-10.14-0.33-3.68-5.91-6.39-9.62-6.73-4.9-.45-7.82,2.9-7.47,6.78,0.15,1.66,1.44,3.76,1.7,5.4a9.28,9.28,0,0,1-.18,3.79,10.69,10.69,0,0,1-1.07,2.62c-2.51,4.42-7,7.75-9.22,12.34-2.8,5.29-1.46,12.44-.83,18,0.82,7.29,5.14,15.1,1.32,22.4-3.94,7.53-4.91,33,1,33.23,3.31,0.15,8.86-16.08,11.46-29.93,3.05-16.29,2.35-32.12,3.14-32.09,1.71,0.07,6.57,20.17,5.19,25.9-0.74,3.09-1.34,35.84,6,36.39,3.31,0.25,6.2-12.09,6.62-20.31C409.45,152.59,410.55,143.53,409,131.74Z" transform="translate(-9.39)"/><path class="cls-4" d="M387.51,156.74c-4.13,2.92-10.4,7.45-14.2,10.73a13.61,13.61,0,0,0-1,1c-0.25,8.17.94,15.88,4.2,16S384.77,170.06,387.51,156.74Z" transform="translate(-9.39)"/><path class="cls-4" d="M401.71,171.71c-0.68,4.17,0,10,.49,13h0c3.31,0.25,6.2-12.09,6.62-20.31,0.24-4.62.55-8.82,0.75-12.92C406.5,158.35,402.3,168.06,401.71,171.71Z" transform="translate(-9.39)"/><path class="cls-19" d="M396.41,169.55c0.16,1.62.36,3.21,0.6,4.71,2.56-.13,7.76-0.67,8.85-3S399.66,169.26,396.41,169.55Z" transform="translate(-9.39)"/><path class="cls-13" d="M409.8,130.56c-1.13-5.89-2.53-10.69-4.06-16.5a55.9,55.9,0,0,0-2.88-8.7c-1-2.26-1.73-15.31-2-18.72-0.33-3.68-5.91-6.39-9.62-6.73-4.9-.45-7.82,2.9-7.47,6.78,0.15,1.66-6.59,19.56-8.78,24.15-2.8,5.29-1.46,12.44-.83,18,0.82,7.29.25,11.47-1.87,20.76-0.92,4,.05,13.22,0,20.4,2.31,0.5,12.29,1.85,17.33,2.26-0.75-6.45-1.6-11.63-.66-17.39,2.93-17.9,2.47-28.19,3.26-28.16,1.71,0.07,3.71,13.88,2.68,21-0.26,1.84-1.8,14.82-.59,24.54,3.67-.21,12.33-0.91,16.32-1.7C410.91,168.52,412.77,146.09,409.8,130.56Z" transform="translate(-9.39)"/><path class="cls-10" d="M409.8,130.56c-1.13-5.89-2.53-10.69-4.06-16.5a55.9,55.9,0,0,0-2.88-8.7,14.74,14.74,0,0,1-.68-3.21c-1.75-1.28-3.58-1.62-5.44-.55,0,0-4.1,11.19,0,16.48s10.12,18,7.73,25.92-2,10.13-2.56,17a104.1,104.1,0,0,0-.2,10.7c3.31-.31,6.76-0.71,8.89-1.12C410.91,168.52,412.77,146.09,409.8,130.56Z" transform="translate(-9.39)"/><path class="cls-7" d="M393.14,110.89l-0.4,8.63a56.94,56.94,0,0,0,7.15.83c4.18,0.06,7.34-.69,7.15-1.42-0.42-1.57-.86-3.18-1.3-4.87-0.32-1.21-.65-2.42-1-3.63C398.79,110.34,393.14,110.89,393.14,110.89Z" transform="translate(-9.39)"/><path class="cls-8" d="M379,119.14l4.41-.28a8.53,8.53,0,0,0,7.07,1.22c4.28-1,5.22-2.06,5.22-2.06a13.39,13.39,0,0,0,6.57,1.17l0.47-.08a4,4,0,0,0,3-5l0-.09a55.9,55.9,0,0,0-2.88-8.7c-1-2.26-1.73-15.31-2-18.72-0.33-3.68-5.91-6.39-9.62-6.73-4.9-.45-7.82,2.9-7.47,6.78,0.15,1.66-6.59,19.56-8.78,24.15a13.67,13.67,0,0,0-1.25,3.5,4,4,0,0,0,4,4.86C378.07,119.19,378.51,119.17,379,119.14Z" transform="translate(-9.39)"/><path class="cls-20" d="M396.49,90.91a14,14,0,0,0,8,7.38,31,31,0,0,0-1.62-5.65,41.47,41.47,0,0,0-5.32-8.91S397.05,87.18,396.49,90.91Z" transform="translate(-9.39)"/><path class="cls-5" d="M405.76,114.14l0-.09a55.9,55.9,0,0,0-2.88-8.7c-1-2.26-1.73-15.31-2-18.72-0.26-2.91-3.81-5.22-7.13-6.22a50.9,50.9,0,0,0,1.51,7c1.89,6.39,3.2,18.21,2.07,22.71s-2.91,3.86-1,8.12a12.93,12.93,0,0,0,6,.93l0.47-.08A4,4,0,0,0,405.76,114.14Z" transform="translate(-9.39)"/><path class="cls-12" d="M370.38,143.41h-1.11l-0.07-16.36a1.11,1.11,0,0,0-1.16-.55l-7.86,0a1.11,1.11,0,0,0-1.16.56l0.07,16.36H358l-0.07-16.36c0-.93,1-1.66,2.26-1.67l7.86,0c1.27,0,2.27.72,2.28,1.65Z" transform="translate(-9.39)"/><path class="cls-16" d="M371.28,187.5l0-7.62h2l0,8.92S371,189.59,371.28,187.5Z" transform="translate(-9.39)"/><path class="cls-7" d="M372.28,188.8a4.11,4.11,0,0,0-.36-1.71V186h-1.38c-1,0-1.73,1.28-1.72,2.84s0.79,2.83,1.74,2.83h1.38v-1.12A4.11,4.11,0,0,0,372.28,188.8Z" transform="translate(-9.39)"/><ellipse class="cls-21" cx="371.93" cy="188.8" rx="1.73" ry="2.84" transform="translate(-10.2 1.6) rotate(-0.25)"/><path class="cls-16" d="M352,187l0-7.62h2l0,8.92S351.74,189.11,352,187Z" transform="translate(-9.39)"/><path class="cls-7" d="M353,188.31a4.11,4.11,0,0,0-.36-1.71v-1.12H351.3c-1,0-1.73,1.28-1.72,2.84s0.79,2.83,1.74,2.83h1.38V190A4.11,4.11,0,0,0,353,188.31Z" transform="translate(-9.39)"/><ellipse class="cls-21" cx="352.69" cy="188.31" rx="1.73" ry="2.84" transform="translate(-10.2 1.51) rotate(-0.24)"/><path class="cls-7" d="M377.28,138.37a4.25,4.25,0,0,0-2.73-1l-22.43.1a7,7,0,0,0-5.87,3.2l21.33-.09a5.43,5.43,0,0,1,4.81,2.86h0A5.43,5.43,0,0,1,373,146l0.17,40,2.89-2.17a7.17,7.17,0,0,0,2.87-5.77l-0.16-36.44A4.25,4.25,0,0,0,377.28,138.37Z" transform="translate(-9.39)"/><path class="cls-12" d="M372.38,143.45h0a5.43,5.43,0,0,0-4.81-2.86l-21.33.09a7.05,7.05,0,0,0-.6,1.13l-0.32.76a20,20,0,0,0-1.54,7.78l0.14,33.54a4.17,4.17,0,0,0,4.18,4.15l20.1-.09a7.17,7.17,0,0,0,4.27-1.43l0.71-.53L373,146A5.43,5.43,0,0,0,372.38,143.45Z" transform="translate(-9.39)"/><ellipse class="cls-19" cx="356.33" cy="152.66" rx="3.53" ry="1.44" transform="translate(-10.04 1.53) rotate(-0.24)"/><path class="cls-19" d="M348.28,159s9,2.67,16.58-1C364.86,157.91,355.66,166.17,348.28,159Z" transform="translate(-9.39)"/><path class="cls-19" d="M349.39,164.9s6.8,2.43,12.79-.11C362.18,164.79,354.75,170.75,349.39,164.9Z" transform="translate(-9.39)"/><path class="cls-19" d="M350.17,170.48s5.48,2,10.3-.09C360.47,170.39,354.49,175.19,350.17,170.48Z" transform="translate(-9.39)"/><path class="cls-15" d="M393.66,71.19a1.46,1.46,0,0,0-.19-1c-0.3-.42-1.9-0.16-2.86.49s-1.48,2.65-1.9,2.88-2.86,1.5-2.13,3.14,4.41,2.65,6.5,2.09A3.48,3.48,0,0,0,395.89,75C395.89,73.74,393.66,71.19,393.66,71.19Z" transform="translate(-9.39)"/><path class="cls-14" d="M389.74,76.2l-0.13,5.21c0,0.86,2.06,3.09,3.43,2,0.4-.31-0.1-1.5-0.47-2.39l-1-4.49Z" transform="translate(-9.39)"/><path class="cls-16" d="M392.18,79.22a5.82,5.82,0,0,1-2.21-2l1.78,0Z" transform="translate(-9.39)"/><path class="cls-14" d="M389.79,72.87l-0.34,2a3,3,0,0,0,2.3,3.47,2.56,2.56,0,0,0,3.11-2.38c0.21-1.63-.93-3.06-1.34-3.81C392.58,70.44,390.34,70.6,389.79,72.87Z" transform="translate(-9.39)"/><path class="cls-14" d="M389.58,75a2.51,2.51,0,0,1-.26-0.46c-0.14-.31-0.42-0.73-0.77-0.3-0.51.63,0.33,2.22,1.15,2C390.29,76.1,389.84,75.39,389.58,75Z" transform="translate(-9.39)"/><path class="cls-3" d="M392.62,75.6A5,5,0,0,0,394.3,75a1.08,1.08,0,0,1-.14.8A1,1,0,0,1,392.62,75.6Z" transform="translate(-9.39)"/><path class="cls-4" d="M391.93,77.68a3.92,3.92,0,0,0,2.11-.56,4,4,0,0,0,.82-1.27s0,0.06,0,.09a2.56,2.56,0,0,1-3.11,2.38,2.87,2.87,0,0,1-2.09-1.72A3.71,3.71,0,0,0,391.93,77.68Z" transform="translate(-9.39)"/><path class="cls-14" d="M388.31,84.29a2.75,2.75,0,0,0-4.1-1.77c-5.91,3.57-18.89,11.84-20.34,16.59-1.89,6.17-6.59,23.93-.53,25.85s7.43-20.47,12.12-23.49c5.13-3.3,8.56-6.42,10.91-10.39C388.31,87.82,388.53,85.31,388.31,84.29Z" transform="translate(-9.39)"/><path class="cls-7" d="M390.15,80.09a0.88,0.88,0,0,0-.88.3,2.89,2.89,0,0,0-.69,1.35c-0.06.78,2.14,2.85,4,2.81s3-.21,3.53-1.56-1.08-3.41-2.19-3.53-1.06.38-2,.66A3.84,3.84,0,0,1,390.15,80.09Z" transform="translate(-9.39)"/><path class="cls-4" d="M367.81,101.1c-1.8,2-.17,10.29-1.61,13.24-1.29,2.64-5.81,8-3.21,10.47l0.34,0.13c6.05,1.92,7.43-20.47,12.12-23.49,4.53-2.91,7.73-5.68,10-9C380.16,94.77,369.18,99.58,367.81,101.1Z" transform="translate(-9.39)"/><path class="cls-7" d="M366.18,99.08s1.84,6.31,6.31,7.43c0.87-2.42,1.82-4.31,3-5.05l0.21-.14Z" transform="translate(-9.39)"/><path class="cls-12" d="M394.33,83.09s1.55,10.32,1.56,13.51,0,9.38,0,9.38,3.7-2.94,4.14-4.75-0.42-2.5-.43-5.13S398.82,79.63,395.2,81,394.33,83.09,394.33,83.09Z" transform="translate(-9.39)"/><path class="cls-14" d="M365.52,123.14s1.61,2,1.19,2.26,0,0.88.07,1.68c0.13,1-2.54,2.24-4.77,0-0.67-.67-0.13-2.3,0-3.16S364.71,122.4,365.52,123.14Z" transform="translate(-9.39)"/><path class="cls-10" d="M387.71,130.74c-0.88,7.13.81,15.26-1.72,19.64s-3,7.5-3.53,12.51a38.61,38.61,0,0,1-2.13,8.36c3.3,0.43,6.85.85,9.26,1-0.75-6.45-1.6-11.63-.66-17.39,2.93-17.9,2.47-28.19,3.26-28.16C392.18,126.74,388.58,123.61,387.71,130.74Z" transform="translate(-9.39)"/><path class="cls-8" d="M388.31,84.29a2.75,2.75,0,0,0-4.1-1.77c-5,3-15.11,9.44-18.95,14.21,0.56,2.27,2.45,6.44,8.74,6.4a5,5,0,0,1,1.46-1.68c5.13-3.3,8.56-6.42,10.91-10.39C388.31,87.82,388.53,85.31,388.31,84.29Z" transform="translate(-9.39)"/><path class="cls-5" d="M374.86,95.47c-3.28,3-3.1,2.38-4.88,3a5.26,5.26,0,0,0-2.17,2.6,8.92,8.92,0,0,0,6.19,2,5,5,0,0,1,1.46-1.68c5.13-3.3,8.56-6.42,10.91-10.39,1.93-3.25,2.16-5.76,1.94-6.79a2.72,2.72,0,0,0-.93-1.53l-6.14,7.8A52,52,0,0,0,374.86,95.47Z" transform="translate(-9.39)"/><path class="cls-1" d="M406.28,7.75a3,3,0,0,0,.2,5.73A82.25,82.25,0,0,0,427,15.87c11.92-.38,15.1-0.63,16.17-3.11s-3.52-3.27-7.63-2.75,0.28-9.35-6.34-10-5.38,6.36-8.45,6.44-5.92-1.75-7.21-.36C412.83,6.91,409.16,6.83,406.28,7.75Z" transform="translate(-9.39)"/><path class="cls-1" d="M10.27,172.32a10.43,10.43,0,0,0,9.14,14.53c11.49,0.53,30-.76,40.43-1.08,16.8-.52,18.29-5.87,15.13-9.35-3.66-4-12.57.4-14.82-.88s-6.65-8.19-12-6.77-5.78,9.49-11.06,6.11-5.87-17.38-17.71-12.16A18.1,18.1,0,0,0,10.27,172.32Z" transform="translate(-9.39)"/><path class="cls-1" d="M127.78,159.71a3,3,0,0,0,.2,5.73,82.25,82.25,0,0,0,20.52,2.4c11.92-.38,15.1-0.63,16.17-3.11s-3.52-3.27-7.63-2.75,0.28-9.35-6.34-10-5.38,6.36-8.45,6.44-5.92-1.75-7.21-.36C134.33,158.87,130.66,158.8,127.78,159.71Z" transform="translate(-9.39)"/></svg>