<?xml version="1.0" encoding="utf-8"?>
<!-- Generator: Adobe Illustrator 19.2.1, SVG Export Plug-In . SVG Version: 6.00 Build 0)  -->
<svg version="1.1" id="Livello_1" xmlns="http://www.w3.org/2000/svg" xmlns:xlink="http://www.w3.org/1999/xlink" x="0px" y="0px"
	 viewBox="0 0 279.9 181.1" style="enable-background:new 0 0 279.9 181.1;" xml:space="preserve">
<style type="text/css">
	.st0{clip-path:url(#SVGID_2_);}
	.st1{fill:#89CEBC;}
	.st2{fill:#F4FFD4;}
	.st3{clip-path:url(#SVGID_2_);fill:#41B093;}
	.st4{fill:#5CBBA2;}
	.st5{fill:#41B093;}
	.st6{filter:url(#Adobe_OpacityMaskFilter);}
	.st7{filter:url(#Adobe_OpacityMaskFilter_1_);}
	.st8{mask:url(#SVGID_3_);fill:url(#SVGID_4_);}
	.st9{fill:url(#SVGID_5_);}
	.st10{filter:url(#Adobe_OpacityMaskFilter_2_);}
	.st11{filter:url(#Adobe_OpacityMaskFilter_3_);}
	.st12{mask:url(#SVGID_6_);fill:url(#SVGID_7_);}
	.st13{fill:url(#SVGID_8_);}
	.st14{fill:#5ABAA1;}
	.st15{filter:url(#Adobe_OpacityMaskFilter_4_);}
	.st16{filter:url(#Adobe_OpacityMaskFilter_5_);}
	.st17{mask:url(#SVGID_9_);fill:url(#SVGID_10_);}
	.st18{fill:url(#SVGID_11_);}
	.st19{filter:url(#Adobe_OpacityMaskFilter_6_);}
	.st20{filter:url(#Adobe_OpacityMaskFilter_7_);}
	.st21{mask:url(#SVGID_12_);fill:url(#SVGID_13_);}
	.st22{fill:url(#SVGID_14_);}
	.st23{fill:#5FBDA4;}
	.st24{filter:url(#Adobe_OpacityMaskFilter_8_);}
	.st25{filter:url(#Adobe_OpacityMaskFilter_9_);}
	.st26{mask:url(#SVGID_15_);fill:url(#SVGID_16_);}
	.st27{fill:url(#SVGID_17_);}
	.st28{fill:#184657;}
	.st29{fill:#F29D7E;}
	.st30{fill:url(#SVGID_18_);}
	.st31{opacity:0.58;fill:#CBC7FF;}
	.st32{fill:#ED6D53;}
	.st33{fill:#BD422A;}
	.st34{fill:#FFFFFF;}
	.st35{fill:#1B4E61;}
	.st36{opacity:0.74;fill:#CBC7FF;}
	.st37{fill:#CBC7FF;}
	.st38{fill:#DE4E31;}
	.st39{fill:#FAF8DC;}
	.st40{opacity:0.7;fill:#CBC7FF;}
	.st41{clip-path:url(#SVGID_2_);fill:#EAA9C0;}
	.st42{opacity:0.7;clip-path:url(#SVGID_2_);fill:#CBC7FF;}
	.st43{clip-path:url(#SVGID_2_);fill:#184657;}
	.st44{fill:#FCC14A;}
	.st45{fill:#FCCA63;}
	.st46{opacity:0.72;fill:url(#SVGID_19_);}
	.st47{fill:#0D232B;}
	.st48{fill:#035E80;}
	.st49{clip-path:url(#SVGID_2_);fill:#E85F5B;}
	.st50{clip-path:url(#SVGID_2_);fill:#F29D7E;}
	.st51{opacity:0.72;clip-path:url(#SVGID_2_);fill:url(#SVGID_20_);}
	.st52{clip-path:url(#SVGID_2_);fill:#ED6D53;}
	.st53{clip-path:url(#SVGID_2_);fill:#BD422A;}
	.st54{clip-path:url(#SVGID_2_);fill:#FFFFFF;}
	.st55{clip-path:url(#SVGID_2_);fill:#0D232B;}
	.st56{fill:#E85F5B;}
	.st57{opacity:0.72;fill:url(#SVGID_21_);}
	.st58{opacity:0.72;fill:url(#SVGID_22_);}
	.st59{fill:#F4A78B;}
	.st60{filter:url(#Adobe_OpacityMaskFilter_10_);}
	.st61{filter:url(#Adobe_OpacityMaskFilter_11_);}
	.st62{mask:url(#SVGID_23_);fill:url(#SVGID_24_);}
	.st63{fill:url(#SVGID_25_);}
	.st64{filter:url(#Adobe_OpacityMaskFilter_12_);}
	.st65{filter:url(#Adobe_OpacityMaskFilter_13_);}
	.st66{mask:url(#SVGID_26_);fill:url(#SVGID_27_);}
	.st67{fill:url(#SVGID_28_);}
	.st68{filter:url(#Adobe_OpacityMaskFilter_14_);}
	.st69{filter:url(#Adobe_OpacityMaskFilter_15_);}
	.st70{mask:url(#SVGID_29_);fill:url(#SVGID_30_);}
	.st71{fill:url(#SVGID_31_);}
	.st72{filter:url(#Adobe_OpacityMaskFilter_16_);}
	.st73{filter:url(#Adobe_OpacityMaskFilter_17_);}
	.st74{mask:url(#SVGID_32_);fill:url(#SVGID_33_);}
	.st75{fill:url(#SVGID_34_);}
	.st76{filter:url(#Adobe_OpacityMaskFilter_18_);}
	.st77{filter:url(#Adobe_OpacityMaskFilter_19_);}
	.st78{mask:url(#SVGID_35_);fill:url(#SVGID_36_);}
	.st79{fill:url(#SVGID_37_);}
	.st80{filter:url(#Adobe_OpacityMaskFilter_20_);}
	.st81{filter:url(#Adobe_OpacityMaskFilter_21_);}
	.st82{mask:url(#SVGID_38_);fill:url(#SVGID_39_);}
	.st83{fill:url(#SVGID_40_);}
	.st84{filter:url(#Adobe_OpacityMaskFilter_22_);}
	.st85{filter:url(#Adobe_OpacityMaskFilter_23_);}
	.st86{mask:url(#SVGID_41_);fill:url(#SVGID_42_);}
	.st87{fill:url(#SVGID_43_);}
	.st88{filter:url(#Adobe_OpacityMaskFilter_24_);}
	.st89{filter:url(#Adobe_OpacityMaskFilter_25_);}
	.st90{mask:url(#SVGID_44_);fill:url(#SVGID_45_);}
	.st91{fill:url(#SVGID_46_);}
	.st92{filter:url(#Adobe_OpacityMaskFilter_26_);}
	.st93{filter:url(#Adobe_OpacityMaskFilter_27_);}
	.st94{mask:url(#SVGID_47_);fill:url(#SVGID_48_);}
	.st95{fill:url(#SVGID_49_);}
	.st96{filter:url(#Adobe_OpacityMaskFilter_28_);}
	.st97{filter:url(#Adobe_OpacityMaskFilter_29_);}
	.st98{mask:url(#SVGID_50_);fill:url(#SVGID_51_);}
	.st99{fill:url(#SVGID_52_);}
	.st100{filter:url(#Adobe_OpacityMaskFilter_30_);}
	.st101{filter:url(#Adobe_OpacityMaskFilter_31_);}
	.st102{mask:url(#SVGID_53_);fill:url(#SVGID_54_);}
	.st103{fill:url(#SVGID_55_);}
	.st104{filter:url(#Adobe_OpacityMaskFilter_32_);}
	.st105{filter:url(#Adobe_OpacityMaskFilter_33_);}
	.st106{mask:url(#SVGID_56_);fill:url(#SVGID_57_);}
	.st107{fill:url(#SVGID_58_);}
	.st108{filter:url(#Adobe_OpacityMaskFilter_34_);}
	.st109{filter:url(#Adobe_OpacityMaskFilter_35_);}
	.st110{mask:url(#SVGID_59_);fill:url(#SVGID_60_);}
	.st111{fill:url(#SVGID_61_);}
	.st112{filter:url(#Adobe_OpacityMaskFilter_36_);}
	.st113{filter:url(#Adobe_OpacityMaskFilter_37_);}
	.st114{mask:url(#SVGID_62_);fill:url(#SVGID_63_);}
	.st115{fill:url(#SVGID_64_);}
	.st116{filter:url(#Adobe_OpacityMaskFilter_38_);}
	.st117{filter:url(#Adobe_OpacityMaskFilter_39_);}
	.st118{mask:url(#SVGID_65_);fill:url(#SVGID_66_);}
	.st119{fill:url(#SVGID_67_);}
	.st120{fill:#BCE1E9;}
	.st121{fill:#5A696F;}
	.st122{fill:#EB716D;}
	.st123{fill:#597A86;}
</style>
<title>travel-2</title>
<g>
	<g>
		<defs>
			<rect id="SVGID_1_" width="279.3" height="170.1"/>
		</defs>
		<clipPath id="SVGID_2_">
			<use xlink:href="#SVGID_1_"  style="overflow:visible;"/>
		</clipPath>
		<g class="st0">
			<path class="st1" d="M49,133.2c3.2,3,4.6,7.2,3.9,11.4c-0.5,2.9-0.5,6,0.1,9.1c2.8,14.6,18.4,24.6,34.3,21.8
				c8.5-1.5,15.6-6.1,20.2-12.2c1.4-2,3.9-3.1,6.4-3c1.1,0.1,2.2,0,3.4-0.2c7.5-1.4,12.6-8.1,11.3-15l0,0c-0.1-0.6,0.3-1.1,0.9-1.2
				c0,0,0.1,0,0.1,0c5.3-1,8.9-5.7,8-10.6c0,0,0,0,0,0c-0.3-1.7,0.5-3.3,2-4.3c8.2-5.2,12.8-14.5,11.1-23.9c-1-5.3-3.8-9.9-7.8-13.2
				c-4.1-3.4-5.3-9-2.8-13.7c2.8-5.4,3.9-11.5,2.8-17.7c-1.8-9.8-8.7-17.5-17.8-21.1c-5.3-2.1-8.1-7.5-6.9-12.8
				c0.5-2.4,0.6-4.9,0.1-7.5C116.4,8.3,105.1,1,93.6,2.8C81.4,4.8,73.1,15.6,75.2,26.7c0,0,0,0.1,0,0.1c0.2,1.3-0.7,2.5-2.1,2.8l0,0
				c-9.4,1.7-15.8,10.2-14.2,18.9c0.2,1.4,0.8,2.7,1.4,4c1.3,2.7,0.3,6-2.4,7.8c-4.7,3.1-7.3,8.4-6.3,13.9c0.1,0.7,0.3,1.5,0.6,2.1
				c1.1,2.9,0.3,6.1-1.9,8.5c-4.2,4.5-6.3,10.7-5.2,16.9c0.4,2.3,1.2,4.4,2.4,6.3c1.4,2.3,1.2,5.1-0.3,7.3c-2,3-2.9,6.6-2.2,10.2
				C45.4,128.6,46.9,131.2,49,133.2z"/>
			<path class="st2" d="M62.9,132.9c2.7,2.8,3.7,6.6,2.8,10.3c-0.6,2.6-0.8,5.3-0.5,8c1.5,13.1,15.1,22.8,29.8,21.3
				c7.9-0.8,14.7-4.4,19.2-9.6c1.4-1.7,3.8-2.6,6.1-2.3c1,0.1,2,0.1,3.1,0c6.9-0.8,12-6.4,11.3-12.5l0,0c-0.1-0.5,0.4-0.9,0.9-1
				c0,0,0.1,0,0.1,0c4.9-0.5,8.5-4.5,8-8.9c0,0,0,0,0,0c-0.2-1.5,0.6-2.9,2.1-3.7c7.8-4.1,12.7-12,11.8-20.5
				c-0.5-4.8-2.8-9-6.2-12.2c-3.5-3.3-4.2-8.3-1.6-12.3c2.9-4.6,4.4-9.9,3.7-15.5c-1-8.8-6.7-15.9-14.8-19.7
				c-4.7-2.2-6.9-7.1-5.4-11.7c0.7-2.1,0.9-4.3,0.6-6.6c-1-9.4-10.8-16.5-21.4-15.6c-11.3,1-19.6,10-18.5,20c0,0,0,0.1,0,0.1
				c0.1,1.1-0.8,2.2-2.1,2.3l0,0c-8.7,1-15.1,8-14.3,15.8c0.1,1.2,0.5,2.5,1,3.6c1,2.5-0.2,5.3-2.8,6.7c-4.5,2.4-7.3,7-6.7,11.9
				c0.1,0.7,0.2,1.3,0.4,1.9c0.8,2.6-0.1,5.4-2.3,7.4c-4.2,3.7-6.5,9-5.9,14.6c0.2,2.1,0.8,4,1.8,5.7c1.1,2.1,0.8,4.6-0.8,6.5
				c-2,2.5-3.1,5.6-2.7,8.9C59.9,128.6,61.1,131,62.9,132.9z"/>
		</g>
		<path class="st3" d="M13.3,171.6c-5.9-4.6-9.7-11.8-9.7-19.8c0-13.9,11.2-25.1,25.1-25.1c1.6,0,3.1,0.2,4.6,0.4
			c3-10.9,12.9-18.9,24.8-18.9c14.2,0,25.7,11.5,25.7,25.7c0,2.4-0.3,4.8-1,7c1.7-0.5,3.5-0.7,5.3-0.7c11.1,0,20,9,20,20
			c0,4.2-1.3,8.2-3.6,11.4H13.3z"/>
		<g class="st0">
			<path class="st4" d="M250.5,121c0-9.1-4.4-17.1-11-21.6c-3.7-2.5-5.6-7.2-4.7-11.8c0.3-1.3,0.4-2.6,0.4-4
				c0-9.1-5.9-16.7-13.7-18.6c-2.1-0.5-3.5-2.6-3.3-4.9c0.1-1,0.1-2,0-2.8c-0.6-5.3-3.4-8.1-7.3-10.5c-2-1.2-3-3.7-2.4-6.2
				c0.3-1.2,0.4-2.5,0.5-3.7c0.2-9.7-4.6-13.7-7.9-15.5c-1.6-0.9-2.8-2.5-3.3-4.4c-1.3-5.2-5.8-8.9-11.1-8.6
				c-5.1,0.4-9.3,4.8-9.9,10.3c0,0,0,0.1,0,0.1c-0.2,1.9-1.7,3.3-3.4,3.2c-0.6,0-1.2,0-1.8,0c-6.5,0.6-11.7,6.3-12.2,13.4
				c-0.1,1.1,0,2.2,0.1,3.3c0.4,2.5-0.6,4.9-2.6,6.2c-3.7,2.5-6.5,6.3-8,10.8c-0.6,1.7-1.9,3.1-3.6,3.6c-7.3,2.2-12.7,9.5-12.7,18.2
				c0,2.3,0.4,4.6,1.1,6.6c1.1,3.2-0.3,6.7-3.2,8c-7.8,3.5-13.2,11.9-13.2,21.6c0,3.9,0.9,7.7,2.5,10.9c2.4,4.9,1.5,11-2.3,14.8
				c-5.4,5.3-8.8,12.9-8.8,21.4v10.5h143.9v-10.5c0-4.3-2.5-8.3-5.4-12c-3.2-4-3.4-9.7-0.7-14.1C249.1,131,250.5,126.2,250.5,121z"
				/>
			<path class="st5" d="M272.3,125.5c0-8.2-3.9-15.3-9.9-19.3c-3.3-2.2-5-6.4-4.2-10.5c0.2-1.1,0.3-2.3,0.3-3.6
				c0-8.1-5.2-14.9-12.2-16.6c-1.9-0.4-3.1-2.3-2.9-4.4c0.1-0.9,0.1-1.8,0-2.5c-0.6-4.7-3-7.3-6.5-9.4c-1.8-1.1-2.7-3.3-2.2-5.5
				c0.3-1.1,0.4-2.2,0.4-3.4c0.2-8.7-4.1-12.2-7.1-13.9c-1.5-0.8-2.5-2.2-2.9-3.9c-1.2-4.6-5.2-8-9.9-7.6c-4.6,0.3-8.4,4.3-8.9,9.2
				c0,0,0,0.1,0,0.1c-0.2,1.7-1.5,3-3.1,2.9c-0.5,0-1,0-1.6,0c-5.8,0.5-10.5,5.7-10.9,12c-0.1,1,0,2,0.1,2.9
				c0.3,2.2-0.6,4.4-2.3,5.6c-3.3,2.3-5.8,5.6-7.2,9.7c-0.5,1.6-1.7,2.7-3.2,3.2c-6.6,2-11.4,8.5-11.4,16.3c0,2.1,0.3,4.1,1,5.9
				c1,2.9-0.3,6-2.9,7.2c-7,3.2-11.8,10.6-11.8,19.3c0,3.5,0.8,6.9,2.2,9.8c2.1,4.4,1.3,9.9-2.1,13.2c-4.8,4.7-7.8,11.6-7.8,19.2
				v9.4h128.7v-9.4c0-3.8-2.2-7.4-4.8-10.7c-2.8-3.5-3-8.7-0.7-12.6C271,134.5,272.3,130.2,272.3,125.5z"/>
		</g>
		<g class="st0">
			<g>
				<path class="st5" d="M194.7,97.9c-2.1-3.3-6.8-7-5.5-12.8c1.3-5.8,2.3-11.6,0-15.3c-2.3-3.7-5.3-9.5-5.3-16.4
					c0-7-0.7-12.2-2.5-15c-1.8-2.8-3.5-12.1-5-14.5c-1.5-2.4-3.6-13.9-5-16.1c-0.2-0.3-0.3-0.3-0.5-0.2c0.4,5,1.1,12.9,1.7,18
					c0.9,7.9-1.2,11.8-1.2,16.8s4.8,11.4,4.8,17.5c0,6.1-4.8,11.7-4.8,18.5c0,6.8,4,9.6,5.8,16c1.4,5-0.3,11.6-2.3,17.8h18
					C192.9,112.1,196.8,101.3,194.7,97.9z"/>
				<g>
					<path class="st5" d="M177.2,94.3c-1.8-6.4-5.8-9.1-5.8-16c0-6.8,4.8-12.4,4.8-18.5c0-6.1-4.8-12.5-4.8-17.5s2.2-8.8,1.2-16.8
						c-0.6-5.1-1.3-12.9-1.7-18c-1.2,0.7-2,10.9-2,16.3c0,6.2-5.6,10.6-5.6,16.7c0,6.1,1.9,16.9-0.7,24.3c-2.6,7.4-8.1,8.5-8.1,19.7
						s5.2,18.4,2.9,27.5h17.5C176.8,105.9,178.5,99.3,177.2,94.3z"/>
					<defs>
						<filter id="Adobe_OpacityMaskFilter" filterUnits="userSpaceOnUse" x="154.5" y="7.6" width="23.2" height="104.5">
							<feFlood  style="flood-color:white;flood-opacity:1" result="back"/>
							<feBlend  in="SourceGraphic" in2="back" mode="normal"/>
						</filter>
					</defs>
					<mask maskUnits="userSpaceOnUse" x="154.5" y="7.6" width="23.2" height="104.5" id="SVGID_3_">
						<g class="st6">
							<defs>
								<filter id="Adobe_OpacityMaskFilter_1_" filterUnits="userSpaceOnUse" x="154.5" y="7.6" width="23.2" height="104.5">
									<feFlood  style="flood-color:white;flood-opacity:1" result="back"/>
									<feBlend  in="SourceGraphic" in2="back" mode="normal"/>
								</filter>
							</defs>
							<mask maskUnits="userSpaceOnUse" x="154.5" y="7.6" width="23.2" height="104.5" id="SVGID_3_">
								<g class="st7">
								</g>
							</mask>
							<linearGradient id="SVGID_4_" gradientUnits="userSpaceOnUse" x1="165.3068" y1="106.0387" x2="169.1251" y2="33.4896">
								<stop  offset="0" style="stop-color:#FFFFFF"/>
								<stop  offset="1" style="stop-color:#000000"/>
							</linearGradient>
							<path class="st8" d="M177.2,94.3c-1.8-6.4-5.8-9.1-5.8-16c0-6.8,4.8-12.4,4.8-18.5c0-6.1-4.8-12.5-4.8-17.5s2.2-8.8,1.2-16.8
								c-0.6-5.1-1.3-12.9-1.7-18c-1.2,0.7-2,10.9-2,16.3c0,6.2-5.6,10.6-5.6,16.7c0,6.1,1.9,16.9-0.7,24.3
								c-2.6,7.4-8.1,8.5-8.1,19.7s5.2,18.4,2.9,27.5h17.5C176.8,105.9,178.5,99.3,177.2,94.3z"/>
						</g>
					</mask>
					<linearGradient id="SVGID_5_" gradientUnits="userSpaceOnUse" x1="165.3068" y1="106.0387" x2="169.1251" y2="33.4896">
						<stop  offset="0" style="stop-color:#BCC1E8"/>
						<stop  offset="1" style="stop-color:#BCC1E8"/>
					</linearGradient>
					<path class="st9" d="M177.2,94.3c-1.8-6.4-5.8-9.1-5.8-16c0-6.8,4.8-12.4,4.8-18.5c0-6.1-4.8-12.5-4.8-17.5s2.2-8.8,1.2-16.8
						c-0.6-5.1-1.3-12.9-1.7-18c-1.2,0.7-2,10.9-2,16.3c0,6.2-5.6,10.6-5.6,16.7c0,6.1,1.9,16.9-0.7,24.3c-2.6,7.4-8.1,8.5-8.1,19.7
						s5.2,18.4,2.9,27.5h17.5C176.8,105.9,178.5,99.3,177.2,94.3z"/>
				</g>
			</g>
			<g>
				<g>
					<path class="st5" d="M194.1,73.6c-0.4-5.8,4.1-8.5,5.1-13.9c0.8-4.3-0.6-11.7-1.9-17.2c-1.6,0.6-0.1,13.9,0.1,17.2
						c0.2,3.3-4.7,6-6.1,11.9c-1.4,6,2.6,10-0.2,16.4c-2.8,6.4-7.2,13-6.7,24.1h6.9c0.5-7.5,4-12.3,5.9-19.5
						C199.2,84.9,194.5,79.4,194.1,73.6z"/>
					<defs>
						<filter id="Adobe_OpacityMaskFilter_2_" filterUnits="userSpaceOnUse" x="184.4" y="42.5" width="15.1" height="69.6">
							<feFlood  style="flood-color:white;flood-opacity:1" result="back"/>
							<feBlend  in="SourceGraphic" in2="back" mode="normal"/>
						</filter>
					</defs>
					<mask maskUnits="userSpaceOnUse" x="184.4" y="42.5" width="15.1" height="69.6" id="SVGID_6_">
						<g class="st10">
							<defs>
								<filter id="Adobe_OpacityMaskFilter_3_" filterUnits="userSpaceOnUse" x="184.4" y="42.5" width="15.1" height="69.6">
									<feFlood  style="flood-color:white;flood-opacity:1" result="back"/>
									<feBlend  in="SourceGraphic" in2="back" mode="normal"/>
								</filter>
							</defs>
							<mask maskUnits="userSpaceOnUse" x="184.4" y="42.5" width="15.1" height="69.6" id="SVGID_6_">
								<g class="st11">
								</g>
							</mask>
							<linearGradient id="SVGID_7_" gradientUnits="userSpaceOnUse" x1="190.6323" y1="108.1071" x2="193.1832" y2="59.6403">
								<stop  offset="0" style="stop-color:#FFFFFF"/>
								<stop  offset="1" style="stop-color:#000000"/>
							</linearGradient>
							<path class="st12" d="M194.1,73.6c-0.4-5.8,4.1-8.5,5.1-13.9c0.8-4.3-0.6-11.7-1.9-17.2c-1.6,0.6-0.1,13.9,0.1,17.2
								c0.2,3.3-4.7,6-6.1,11.9c-1.4,6,2.6,10-0.2,16.4c-2.8,6.4-7.2,13-6.7,24.1h6.9c0.5-7.5,4-12.3,5.9-19.5
								C199.2,84.9,194.5,79.4,194.1,73.6z"/>
						</g>
					</mask>
					<linearGradient id="SVGID_8_" gradientUnits="userSpaceOnUse" x1="190.6323" y1="108.1071" x2="193.1832" y2="59.6403">
						<stop  offset="0" style="stop-color:#BCC1E8"/>
						<stop  offset="1" style="stop-color:#BCC1E8"/>
					</linearGradient>
					<path class="st13" d="M194.1,73.6c-0.4-5.8,4.1-8.5,5.1-13.9c0.8-4.3-0.6-11.7-1.9-17.2c-1.6,0.6-0.1,13.9,0.1,17.2
						c0.2,3.3-4.7,6-6.1,11.9c-1.4,6,2.6,10-0.2,16.4c-2.8,6.4-7.2,13-6.7,24.1h6.9c0.5-7.5,4-12.3,5.9-19.5
						C199.2,84.9,194.5,79.4,194.1,73.6z"/>
				</g>
				<path class="st14" d="M199.2,76.1c-2.3-7.5,1.8-10,2.1-16.4c0.4-6.4-2.1-17.5-3.9-17.2c0,0,0,0-0.1,0c1.2,5.5,2.7,12.9,1.9,17.2
					c-1.1,5.5-5.5,8.1-5.1,13.9c0.4,5.8,5.1,11.3,3.2,19.1c-1.8,7.2-5.4,11.9-5.9,19.5h10.2c0,0-0.7-5.7,0.2-12.8
					C202.7,92.2,201.5,83.6,199.2,76.1z"/>
			</g>
		</g>
		<g class="st0">
			<g>
				<path class="st5" d="M100.4,146.2c2.2-44.1,6.6-80.3,9.7-80.1c3.1,0.2,3.9,36,1.6,80.1H100.4z"/>
				<defs>
					<filter id="Adobe_OpacityMaskFilter_4_" filterUnits="userSpaceOnUse" x="100.4" y="66.1" width="12.6" height="80.1">
						<feFlood  style="flood-color:white;flood-opacity:1" result="back"/>
						<feBlend  in="SourceGraphic" in2="back" mode="normal"/>
					</filter>
				</defs>
				<mask maskUnits="userSpaceOnUse" x="100.4" y="66.1" width="12.6" height="80.1" id="SVGID_9_">
					<g class="st15">
						<defs>
							<filter id="Adobe_OpacityMaskFilter_5_" filterUnits="userSpaceOnUse" x="100.4" y="66.1" width="12.6" height="80.1">
								<feFlood  style="flood-color:white;flood-opacity:1" result="back"/>
								<feBlend  in="SourceGraphic" in2="back" mode="normal"/>
							</filter>
						</defs>
						<mask maskUnits="userSpaceOnUse" x="100.4" y="66.1" width="12.6" height="80.1" id="SVGID_9_">
							<g class="st16">
							</g>
						</mask>
						<linearGradient id="SVGID_10_" gradientUnits="userSpaceOnUse" x1="106.252" y1="141.5385" x2="109.178" y2="85.9449">
							<stop  offset="0" style="stop-color:#FFFFFF"/>
							<stop  offset="1" style="stop-color:#000000"/>
						</linearGradient>
						<path class="st17" d="M100.4,146.2c2.2-44.1,6.6-80.3,9.7-80.1c3.1,0.2,3.9,36,1.6,80.1H100.4z"/>
					</g>
				</mask>
				<linearGradient id="SVGID_11_" gradientUnits="userSpaceOnUse" x1="106.252" y1="141.5385" x2="109.178" y2="85.9449">
					<stop  offset="0" style="stop-color:#BCC1E8"/>
					<stop  offset="1" style="stop-color:#BCC1E8"/>
				</linearGradient>
				<path class="st18" d="M100.4,146.2c2.2-44.1,6.6-80.3,9.7-80.1c3.1,0.2,3.9,36,1.6,80.1H100.4z"/>
			</g>
			<path class="st5" d="M91.3,146.2c-0.7-38.8,1.2-70.4,4.4-70.4c3.1-0.1,6.2,31.6,7,70.4H91.3z"/>
			<path class="st5" d="M109.6,146.2c2-38.8,6.1-70.7,9.2-70.5c3.1,0.2,4.1,31.7,2.1,70.5H109.6z"/>
		</g>
		<g class="st0">
			<path class="st5" d="M22.3,92.3c-8.9,1-3.6,14.3,12,28.7s23,40.9,21.3,49.7c1,1.6,4.5,1.7,5.8,0.8c0,0,0.8-36.5-13-58.9
				S25.8,91.9,22.3,92.3z"/>
			<defs>
				<filter id="Adobe_OpacityMaskFilter_6_" filterUnits="userSpaceOnUse" x="18" y="92.3" width="40.3" height="78.8">
					<feFlood  style="flood-color:white;flood-opacity:1" result="back"/>
					<feBlend  in="SourceGraphic" in2="back" mode="normal"/>
				</filter>
			</defs>
			<mask maskUnits="userSpaceOnUse" x="18" y="92.3" width="40.3" height="78.8" id="SVGID_12_">
				<g class="st19">
					<defs>
						<filter id="Adobe_OpacityMaskFilter_7_" filterUnits="userSpaceOnUse" x="18" y="92.3" width="40.3" height="78.8">
							<feFlood  style="flood-color:white;flood-opacity:1" result="back"/>
							<feBlend  in="SourceGraphic" in2="back" mode="normal"/>
						</filter>
					</defs>
					<mask maskUnits="userSpaceOnUse" x="18" y="92.3" width="40.3" height="78.8" id="SVGID_12_">
						<g class="st20">
						</g>
					</mask>
					
						<linearGradient id="SVGID_13_" gradientUnits="userSpaceOnUse" x1="-5013.4253" y1="-99.6754" x2="-5060.6772" y2="-91.4338" gradientTransform="matrix(-1.3216 -0.1721 -0.1335 1.0255 -6636.9087 -639.0668)">
						<stop  offset="0" style="stop-color:#FFFFFF"/>
						<stop  offset="1" style="stop-color:#000000"/>
					</linearGradient>
					<path class="st21" d="M22.3,92.3c0,0,0.1,0,0.1,0c8.2,9.2,23.7,28.2,29.5,44.8c5.4,15.4,6.7,27.1,6.3,34l-2.6-0.3
						c1.6-8.8-5.7-35.3-21.3-49.7C18.8,106.6,13.5,93.2,22.3,92.3z"/>
				</g>
			</mask>
			
				<linearGradient id="SVGID_14_" gradientUnits="userSpaceOnUse" x1="-5013.4253" y1="-99.6754" x2="-5060.6772" y2="-91.4338" gradientTransform="matrix(-1.3216 -0.1721 -0.1335 1.0255 -6636.9087 -639.0668)">
				<stop  offset="0" style="stop-color:#BCC1E8"/>
				<stop  offset="1" style="stop-color:#BCC1E8"/>
			</linearGradient>
			<path class="st22" d="M22.3,92.3c0,0,0.1,0,0.1,0c8.2,9.2,23.7,28.2,29.5,44.8c5.4,15.4,6.7,27.1,6.3,34l-2.6-0.3
				c1.6-8.8-5.7-35.3-21.3-49.7C18.8,106.6,13.5,93.2,22.3,92.3z"/>
		</g>
		<g class="st0">
			<path class="st23" d="M16.2,121.4c-6.2,5.1,5.2,17.5,14.6,25.8c9.4,8.3,13.6,25.7,13.6,25.7c1.7,1.4,5.3,1.4,6.2-0.4
				c0,0-1.4-21.7-12.3-38.4S18.7,119.3,16.2,121.4z"/>
			<defs>
				<filter id="Adobe_OpacityMaskFilter_8_" filterUnits="userSpaceOnUse" x="16.3" y="120.1" width="34.2" height="52.6">
					<feFlood  style="flood-color:white;flood-opacity:1" result="back"/>
					<feBlend  in="SourceGraphic" in2="back" mode="normal"/>
				</filter>
			</defs>
			<mask maskUnits="userSpaceOnUse" x="16.3" y="120.1" width="34.2" height="52.6" id="SVGID_15_">
				<g class="st24">
					<defs>
						<filter id="Adobe_OpacityMaskFilter_9_" filterUnits="userSpaceOnUse" x="16.3" y="120.1" width="34.2" height="52.6">
							<feFlood  style="flood-color:white;flood-opacity:1" result="back"/>
							<feBlend  in="SourceGraphic" in2="back" mode="normal"/>
						</filter>
					</defs>
					<mask maskUnits="userSpaceOnUse" x="16.3" y="120.1" width="34.2" height="52.6" id="SVGID_15_">
						<g class="st25">
						</g>
					</mask>
					
						<linearGradient id="SVGID_16_" gradientUnits="userSpaceOnUse" x1="-6405.1411" y1="362.1475" x2="-6443.9873" y2="368.923" gradientTransform="matrix(-0.998 6.270000e-002 6.270000e-002 0.998 -6405.0239 183.8996)">
						<stop  offset="0" style="stop-color:#FFFFFF"/>
						<stop  offset="1" style="stop-color:#000000"/>
					</linearGradient>
					<path class="st26" d="M37.7,144.8c-5.3-9-13.1-17-21.4-23.5c2.7-2.1,11.1-3.6,21.9,12.8c10.9,16.7,12.3,38.4,12.3,38.4
						l-3.1,0.2C45.6,165.6,41.7,151.7,37.7,144.8z"/>
				</g>
			</mask>
			
				<linearGradient id="SVGID_17_" gradientUnits="userSpaceOnUse" x1="-6405.1411" y1="362.1475" x2="-6443.9873" y2="368.923" gradientTransform="matrix(-0.998 6.270000e-002 6.270000e-002 0.998 -6405.0239 183.8996)">
				<stop  offset="0" style="stop-color:#BCC1E8"/>
				<stop  offset="1" style="stop-color:#BCC1E8"/>
			</linearGradient>
			<path class="st27" d="M37.7,144.8c-5.3-9-13.1-17-21.4-23.5c2.7-2.1,11.1-3.6,21.9,12.8c10.9,16.7,12.3,38.4,12.3,38.4l-3.1,0.2
				C45.6,165.6,41.7,151.7,37.7,144.8z"/>
		</g>
		<g class="st0">
			<path class="st28" d="M208.1,150.2c4.3,0.8,13.8,1.4,19.9,0.7c6.2-0.7,17.6-2.3,17.6-2.3l2.8,18.8l-45.5,4.1L208.1,150.2z"/>
			<path class="st29" d="M240.1,159.9c-1.4,3.3-1.5,3.8-1.5,3.8l8.2,3.9l1.3-6L240.1,159.9z"/>
			<path class="st29" d="M225.6,98.4c-0.8,1.1-1.8,2.3-3,3c-1.9,0.1-3.7,0.4-5.4,0.5c-1.7-0.5-3.1-1.4-4.5-2.7
				c-2.5-2.2-4.2-4.2-6.1-7.1c6-2.7,6.9-2.4,7.4-5c0.5-2.9-1.4-17.9-1.4-17.9l12.4-0.8c0,0,1.6,14.8,2.2,17.3
				c0.3,1.5,2.1,2.4,4.6,3.3C230,92.3,227.8,95.4,225.6,98.4z"/>
			
				<linearGradient id="SVGID_18_" gradientUnits="userSpaceOnUse" x1="-12069.4746" y1="-11976.4375" x2="-12071.7314" y2="-11951.0488" gradientTransform="matrix(-0.7099 5.370000e-002 5.370000e-002 0.7099 -7707.0527 9220.042)">
				<stop  offset="0" style="stop-color:#F0C3A8"/>
				<stop  offset="1" style="stop-color:#FFFFFF"/>
			</linearGradient>
			<path class="st30" d="M213.8,87.8c0.1-0.2,0.1-0.4,0.2-0.7c0.5-2.9-1.4-17.9-1.4-17.9l12.4-0.8c0,0,1.6,14.8,2.2,17.3
				c0.1,0.4,0.3,0.7,0.6,1.1L213.8,87.8z"/>
			<path class="st31" d="M215,79.1c-0.5,0-1,0-1.5,0c-0.5-5.1-1.1-9.9-1.1-9.9l8.8-0.6C221.4,74.2,219.2,78.8,215,79.1z"/>
			
				<ellipse transform="matrix(0.9881 -0.1538 0.1538 0.9881 -7.4487 35.0402)" class="st32" cx="222.8" cy="65.7" rx="4.2" ry="4.2"/>
			
				<ellipse transform="matrix(0.9881 -0.1538 0.1538 0.9881 -7.4487 35.0405)" class="st33" cx="222.8" cy="65.7" rx="2.2" ry="2.2"/>
			<path class="st29" d="M207,68.1c0.9,5.9,3.9,10.4,9.5,9.5c4.3-0.7,7.1-6,6.2-11.9c-0.9-5.9-3.2-10.5-9.5-9.5
				C206.2,57.2,206.1,62.1,207,68.1z"/>
			<ellipse transform="matrix(0.9881 -0.1538 0.1538 0.9881 -7.2835 34.0674)" cx="216.6" cy="64.1" rx="0.6" ry="0.6"/>
			<ellipse transform="matrix(0.9881 -0.1538 0.1538 0.9881 -7.8764 34.256)" class="st32" cx="217.5" cy="68" rx="1.9" ry="1.9"/>
			<path class="st34" d="M209.8,70.3c0.1,0.8,1.3,1.3,2.7,1.1c1.4-0.2,2.4-1,2.2-1.8c-0.1-0.8-1.2,0-2.5,0.2
				C210.9,69.9,209.7,69.5,209.8,70.3z"/>
			<path class="st35" d="M222.2,62.3l0.6,3.3l-1.2,0.2c0-0.8-0.6-2.8-0.8-3.4L222.2,62.3z"/>
			<path class="st36" d="M222.2,62.3l0.6,3.3l-1.2,0.2c0-0.8-0.6-2.8-0.8-3.4L222.2,62.3z"/>
			<path class="st35" d="M207.6,59.4c-1.6-1-3.1-6.9,2.1-8.7c3.9-1.4,8.1-0.7,10.5,0.9c2.4,1.6,4.3,2.6,6.9,0.9
				c2.6-1.7,5.8-1.1,7.7,1.1c1.9,2.2,0.9,5.5-1.3,6.3c-2.3,0.9-3.9-1.3-5.9,0.4c-3.1,2.6-4.8,2.9-6.6,2.5c-2.3-0.6-3.6-1.9-4.9-5
				C216,57.8,210.3,59.6,207.6,59.4z"/>
			<path class="st37" d="M220.5,55.5c1.7,0.9,3.6,2.1,5.7,1.2c2.1-0.9,4.6-0.5,5.9,0.7c0.6,0.6,1.2,1.5,1.6,2.4
				c-0.1,0-0.2,0.1-0.3,0.1c-2.3,0.9-3.9-1.3-5.9,0.4c-3.1,2.6-4.8,2.9-6.6,2.5c-2.3-0.6-3.6-1.9-4.9-5
				C215.9,55.3,218.8,54.7,220.5,55.5z"/>
			<g>
				<path class="st38" d="M218.5,61.7c-0.2-0.1-0.4-0.2-0.6-0.2c-0.2,0-0.4-0.1-0.7-0.1c-0.4-0.1-0.9,0-1.4,0.1
					c-0.2,0.1-0.4,0.1-0.7,0.2l-0.2,0.1l-0.2,0.1l-0.2,0.1c-0.1,0-0.1,0.1-0.1,0.1c-0.4,0.2-0.8,0.5-1,1c-0.1,0.1,0,0.2,0.1,0.2
					c0.1,0,0.1,0,0.2,0l0,0c0.3-0.2,0.7-0.4,1-0.6c0.4-0.1,0.7-0.3,1.1-0.3c0.2,0,0.4-0.1,0.6-0.1c0.2,0,0.4,0,0.6,0
					c0.1,0,0.2,0,0.3,0l0.3,0c0.2,0,0.4,0,0.6,0l0,0c0.1,0,0.2-0.1,0.2-0.2C218.6,61.8,218.5,61.7,218.5,61.7z"/>
			</g>
			<path class="st32" d="M211.5,64.6l-1.1,3c-0.1,0.4,0.2,0.7,0.5,0.7l1.7-0.2L211.5,64.6z"/>
			<g>
				<path class="st38" d="M210.5,63.1c-0.2-0.1-0.3-0.2-0.5-0.2c-0.2-0.1-0.3-0.1-0.5-0.2c-0.2,0-0.4-0.1-0.5-0.1
					c-0.2,0-0.4,0-0.6,0c-0.4,0-0.8,0.1-1.1,0.3c-0.1,0.1-0.2,0.1-0.3,0.2c-0.1,0.1-0.2,0.1-0.2,0.2c-0.1,0.2-0.2,0.3-0.3,0.5
					c0,0.1,0,0.2,0.1,0.2c0.1,0,0.1,0,0.2,0l0,0c0.1-0.1,0.2-0.2,0.4-0.3c0.1-0.1,0.3-0.1,0.4-0.2c0.3-0.1,0.6-0.1,0.9-0.2
					c0.2,0,0.3,0,0.5,0l0.5,0c0.2,0,0.3,0,0.5,0c0.2,0,0.3,0,0.5,0l0,0c0.1,0,0.2-0.1,0.2-0.2C210.6,63.2,210.6,63.1,210.5,63.1z"/>
			</g>
			<ellipse transform="matrix(0.9881 -0.1538 0.1538 0.9881 -7.5776 32.8255)" cx="208.4" cy="65.4" rx="0.5" ry="0.5"/>
			<path class="st32" d="M209,69.4c0.1,0.9-0.4,1.7-1.2,2c-0.4-1.1-0.6-2.2-0.8-3.4c0-0.1,0-0.1,0-0.2C208,67.8,208.9,68.4,209,69.4
				z"/>
			<path class="st39" d="M212.4,88.7c0,0-10.8,4.4-12.6,6.9c-3.5,4.8-5,27-5.6,40.1c-0.3,5.6,3.5,10.6,9,11.9l6.1,1.4l-2.2-35.4
				c0,0,1.4,23.9,0.6,30.3c-0.8,6.4,1,7.7,1,7.7s7.2,2.1,18.3,1.1s14.2-1.8,14.2-1.8l-2.3,9.7l9.7,1.9c0,0,9.1-22.5,9.3-32.7
				c0.2-10.2-6.5-32.6-13.1-37c-6.7-4.3-16.1-5.1-16.1-5.1c-1.1,3.2-6.6,10.3-8.9,12.5C217.6,98.1,213.4,91.7,212.4,88.7z"/>
			<path class="st40" d="M202.8,106.6c-1.4-2.3-3-4.5-4.7-6.6c-1.6,5.3-3,15.5-4,35.8c-0.6,11.9,12.8,12.6,13.5,12.9
				c0.1,0.5-1.8-16-3.1-22.5C202.8,118.3,202.5,111.7,202.8,106.6z"/>
			<path class="st40" d="M240,108.3l6.1,22l-4.8,20.5l-7,0.9c0,0,4.2-11.8,4.9-19.3C239.8,125,240,108.3,240,108.3z"/>
			<path class="st29" d="M194.4,139.7c1.2,7.6,11.6,29.8,11.6,29.8l5.9-5.7l-5-20.8C204.9,140.6,197.2,138.2,194.4,139.7z"/>
		</g>
		<path class="st41" d="M187.7,129.5c5,4.7,14.2,23.8,17.1,40.5l-60.6,0.5c0,0,7.3-29.9,19.8-41.5L187.7,129.5z"/>
		<path class="st42" d="M147.2,160.6l-0.1,0.8c0,0,5.7-9.7,8.4-11.6l4.6-10.2c0,0-0.2-2,0.6-5c0.8-3,3.4-5.5,3.4-5.5
			C156.2,136.4,150.4,150.8,147.2,160.6z"/>
		<path class="st43" d="M191.5,95.2c-3.4-3.4-17.4-4.6-17.4-4.6l-5.1,0.8c0,0-10.1,3.2-13.6,11.6c-3.5,8.4-8.4,22.8-7.8,28.4
			c0.6,5.7,7.9,18.5,7.9,18.5c1.1-2.7,3.3-7.7,4.6-10.2l-4.2-9.8c0,0,5.4-17.9,6.3-20.9c0,0-2.4,4.6,0.1,9.4
			c2.5,4.8,1.8,10.8,1.8,10.8s2.5,1.9,12.3,1.8c9.8-0.1,11.5-1.4,11.5-1.4l2.3-18.3l6.7,15.2l-8,13.3c1.3,3.4,1.9,6.7,2.3,8.3
			c0,0,11.4-7,13.4-19.3C206.4,116.6,196.2,99.9,191.5,95.2z"/>
		<g class="st0">
			<path class="st28" d="M57.4,163.4c-1.1,6.3-5.7,8.6-5.7,8.6l-0.7,4.1l45.6-1.1l0.7-4.6L57.4,163.4z"/>
			<path class="st29" d="M103.2,138.7c-1.1,4.4-2,7.9-1.9,18.1c0.2,10.2-3.9,14.4-3.9,14.4l-7.5-0.9l2.3-33l2-2.6L103.2,138.7z"/>
			<path class="st40" d="M97.1,136l-3.8-0.2l-1.2,1.5l-2.3,33l5.7,0.7l1.3-29.9h5.7c0.2-0.8,0.4-1.6,0.6-2.4l-2.6-1.1H97L97.1,136z"
				/>
			<path class="st44" d="M107.2,110.7c2.3,7.6-3.1,28.7-3.1,28.7l-10.9-0.1l2.3-18.2L107.2,110.7z"/>
			<path class="st40" d="M93.3,139.2l4.9,0.1c-0.2-3.1-0.5-8.4,0-11.5c0.8-4.5,1.7-5.5,3.6-8.5l-4.4,0.1l-1.8,1.6L93.3,139.2z"/>
			<path class="st44" d="M80.2,90c-7-0.3-17.9-0.7-23.1,4.1c-5.4,4.9-13.4,20.7-13.4,20.7c1,3.9,8.8,6.5,12.7,7.5l2.8-4.4
				c0,0-1.1,6.9-2.1,18.9c-1.2,13.9-0.5,28.1-0.5,28.1s10.7,6,23.6,6c8.7,0,15.1,0.7,15.1,0.7s-0.9-31.5,0-37.4
				c0.9-5.9,2.3-11.5,2.3-11.5s11.1-7.1,9.6-11.9C105.7,105.9,89,95.6,89,95.6L80.2,90z"/>
			<path class="st40" d="M64.5,112.2c0,0-1.9,1.7-5.2,5.6c0,0-1.1,6.9-2.1,18.9c-0.3,3.8-0.5,7.6-0.6,11.1c1-1.5,2.2-3.8,3.4-7.1
				C62.7,133.4,64.5,112.2,64.5,112.2z"/>
			<path class="st45" d="M93.9,98.8c-2.8-1.9-4.9-3.2-4.9-3.2L80.2,90c-0.9,0-1.9-0.1-2.9-0.1l-0.6,1.3l0,0.2c0,0.2-1.1,5,1.2,8.6
				c1.2,1.9,3.1,3.1,5.6,3.6c0.8,0.1,1.5,0.2,2.2,0.2c0,0,0,0,0,0C91.1,103.8,93.4,99.8,93.9,98.8z"/>
			<path class="st29" d="M86.1,74l-7.6,17.8c0,0-1.9,8.5,5.4,9.9c6.2,1.2,8.4-3.9,8.4-3.9l4.8-19.9L86.1,74z"/>
			<linearGradient id="SVGID_19_" gradientUnits="userSpaceOnUse" x1="88.5204" y1="76.3483" x2="86.2533" y2="101.8525">
				<stop  offset="0" style="stop-color:#F0C3A8"/>
				<stop  offset="1" style="stop-color:#FFFFFF"/>
			</linearGradient>
			<path class="st46" d="M86.1,74l-7.6,17.8c0,0-1.9,8.5,5.4,9.9c6.2,1.2,8.4-3.9,8.4-3.9l4.8-19.9L86.1,74z"/>
			<path class="st40" d="M85.3,75.9c1,4.3,3.7,7.3,7.5,7.3c1.2,0,2.2-0.3,3.1-0.8l1.1-4.5l-11-3.9L85.3,75.9z"/>
			<path class="st32" d="M100.3,74c2,0.1,3.8-1.5,3.9-3.5c0.1-2-1.5-3.8-3.5-3.9L100.3,74z"/>
			<path class="st33" d="M100.4,72.3c1.1,0.1,2-0.8,2-1.9c0.1-1.1-0.8-2-1.9-2L100.4,72.3z"/>
			<path class="st29" d="M101.4,69.5c0,6.4-3.1,11.6-8,11.6c-5,0-8-5.2-8-11.6c0-6.4,2.2-11.8,7.9-11.8
				C99.3,57.7,101.4,63.1,101.4,69.5z"/>
			<circle class="st32" cx="89.6" cy="71.8" r="1.9"/>
			<circle class="st32" cx="98.8" cy="71.4" r="1.9"/>
			<path class="st32" d="M94,66.8l2.5,5c0.2,0.5-0.1,1-0.6,1.1l-2.6,0.3L94,66.8z"/>
			<path class="st34" d="M96.8,74.8c0,1-1.2,1.9-2.7,1.9c-1.5,0-2.7-0.8-2.7-1.9c0-1,1.2-0.4,2.7-0.4C95.6,74.5,96.8,73.8,96.8,74.8
				z"/>
			<circle class="st47" cx="90.1" cy="68.1" r="0.5"/>
			<circle class="st47" cx="98.5" cy="68.1" r="0.5"/>
			<path class="st28" d="M87.4,66.3c0.2-0.4,0.5-0.7,0.9-0.9c0.4-0.2,0.8-0.3,1.3-0.3c0.4,0,0.9,0,1.3,0.2c0.2,0.1,0.4,0.2,0.6,0.3
				c0,0,0.1,0.1,0.1,0.1c0,0,0.1,0.1,0.1,0.1c0.1,0.1,0.1,0.2,0.2,0.3c-0.4-0.1-0.8-0.2-1.1-0.2c-0.4,0-0.7,0-1.1,0
				c-0.4,0-0.7,0.1-1.1,0.1C88.2,66.1,87.8,66.2,87.4,66.3z"/>
			<path class="st28" d="M95.8,66.2c0.2-0.4,0.6-0.6,0.9-0.8c0.4-0.2,0.8-0.3,1.2-0.3c0.4,0,0.8,0,1.2,0.2c0.4,0.1,0.8,0.4,1,0.7
				c-0.4-0.1-0.8-0.1-1.1-0.1c-0.4,0-0.7,0-1.1,0c-0.4,0-0.7,0.1-1.1,0.1C96.6,66,96.2,66.1,95.8,66.2z"/>
			<path class="st32" d="M86,74.2c-2,0.1-3.8-1.5-3.9-3.5c-0.1-2,1.5-3.8,3.5-3.9L86,74.2z"/>
			<path class="st33" d="M85.9,72.4c-1.1,0.1-2-0.8-2-1.9c-0.1-1.1,0.8-2,1.9-2L85.9,72.4z"/>
			<path class="st48" d="M89.5,60.3c0,0,2.2,1.4,5.7,1.4c3.5,0,7.1-2.7,6.1-5.1S97.3,55,97.3,55s-1.2-2.9-3.8-2.5
				c-2.5,0.4-3.1,2.5-3.1,2.5s-3.2-0.8-5.5,3c-2.3,3.9-0.9,9.1-0.9,9.1s1,0.1,1.1,0.8c0,1.2,0.4,2.3,0.4,2.3l0.7,0.2
				c0,0,0.2-4.6,0.6-5.5C87.4,63.8,89.5,60.3,89.5,60.3z"/>
			<path class="st48" d="M98.3,60.5c1.4,2,2.4,4.2,2.7,5.9c0.3,1.7,0.4,3.1,0.4,3.1l0.5-2.7c0,0,0.3-5.5-1.7-7.5L98.3,60.5z"/>
			<path class="st29" d="M44.1,114.9c-3.5,6.9-5.9,14.7-6,22.2c-0.2,7.5,8,34.3,13.6,34.8c5.5,0.5,5.7-1.5,5.7-1.5s-1.4,2.9-0.4,3
				c1.1,0.2,2.7-3.2,2.1-4.2c0,0-0.4,2.8,0.4,2.2c0.8-0.5,1.3-2.2,0.6-4.1c-0.7-1.9-4.1-2.3-4.1-2.3s-7.9-21.9-7.4-27
				c0.4-4.4,5.7-13.7,7.3-16.3c0.2-0.4,0.2-1-0.1-1.3c-0.9-1-2.9-2.8-5.3-3.8C47,115.3,44.1,114.9,44.1,114.9z"/>
			<path class="st40" d="M49.9,117.8c2.4,1,4.4,2.8,5.3,3.8c0.2,0.3,0.3,0.6,0.3,0.9c0.2-0.3,0.3-0.5,0.4-0.7c0.2-0.4,0.2-1-0.1-1.3
				c-0.9-1-2.9-2.8-5.3-3.8c-3.4-1.4-6.3-1.8-6.3-1.8c-0.2,0.4-0.4,0.7-0.5,1.1C43.6,115.9,46.5,116.4,49.9,117.8z"/>
			<path class="st40" d="M58.5,172.1c0,0,0-0.1,0-0.1c0,0.1-0.1,0.2-0.1,0.3C58.4,172.3,58.5,172.2,58.5,172.1z"/>
			<circle class="st48" cx="71" cy="119.5" r="1.9"/>
			<circle class="st48" cx="81.5" cy="122.2" r="1.9"/>
			<circle class="st48" cx="91.4" cy="123.8" r="1.9"/>
		</g>
		<path class="st49" d="M175.9,60.1c-3.7-2.8-7.9-0.8-9.7,2c-2,3.3-0.5,7.4-0.5,7.4l13.5,19l5.3-15.8l-6.7-9.8L175.9,60.1z"/>
		
			<ellipse transform="matrix(4.478541e-002 -0.999 0.999 4.478541e-002 92.39 251.3825)" class="st42" cx="177.6" cy="77.4" rx="10.7" ry="5.8"/>
		<path class="st50" d="M178.4,78.7l1.6,12.2c0,0,5.8,14.4-5.7,14.2c-12.2-0.2-4.1-13.8-4.1-13.8l-1.6-13L178.4,78.7z"/>
		<linearGradient id="SVGID_20_" gradientUnits="userSpaceOnUse" x1="175.7065" y1="80.5351" x2="173.5364" y2="104.9485">
			<stop  offset="0" style="stop-color:#F0C3A8"/>
			<stop  offset="1" style="stop-color:#FFFFFF"/>
		</linearGradient>
		<path class="st51" d="M178.4,78.7l1.6,12.2c0,0,5.8,14.4-5.7,14.2c-12.2-0.2-4.1-13.8-4.1-13.8l-1.6-13L178.4,78.7z"/>
		<path class="st42" d="M178.7,81.1c-1.5,2.4-3.3,3.7-6,3.5c-1.5-0.1-2.5-0.4-3.5-1.4l-0.3-3.9l9.5-0.5L178.7,81.1z"/>
		<path class="st52" d="M166,75.5c-1.9-0.2-3.2-1.9-3-3.8c0.2-1.9,1.9-3.2,3.8-3L166,75.5z"/>
		<path class="st53" d="M166.2,73.9c-1-0.1-1.7-1-1.6-2c0.1-1,1-1.7,2-1.6L166.2,73.9z"/>
		<path class="st50" d="M165.8,71.2c-1,5.8,0.9,11,5.4,11.8c4.6,0.8,8.1-3.5,9.1-9.3s-0.1-11-5.3-11.9
			C169.5,60.8,166.8,65.4,165.8,71.2z"/>
		
			<ellipse transform="matrix(0.1701 -0.9854 0.9854 0.1701 71.1332 236.7238)" class="st52" cx="176.1" cy="76.1" rx="1.7" ry="1.7"/>
		<ellipse transform="matrix(0.1701 -0.9854 0.9854 0.1701 65.74 226.9526)" class="st52" cx="167.6" cy="74.4" rx="1.7" ry="1.7"/>
		<path class="st52" d="M172.5,72.4l-2,2.7c-0.2,0.3-0.1,0.6,0.3,0.7l1.5,0.4L172.5,72.4z"/>
		<path class="st54" d="M169.1,77.2c-0.1,0.7,0.8,1.4,1.9,1.6c1.2,0.2,2.3-0.2,2.4-0.8s-0.9-0.4-2.1-0.6
			C170.2,77.1,169.3,76.5,169.1,77.2z"/>
		
			<ellipse transform="matrix(0.1701 -0.9854 0.9854 0.1701 75.061 234.6507)" class="st55" cx="176.8" cy="72.8" rx="0.5" ry="0.5"/>
		
			<ellipse transform="matrix(0.1701 -0.9854 0.9854 0.1701 69.3716 225.4507)" class="st55" cx="168.5" cy="71.5" rx="0.5" ry="0.5"/>
		<path class="st52" d="M178.7,71.6c-0.3-0.1-0.6-0.2-0.8-0.3c-0.3-0.1-0.5-0.2-0.8-0.2c-0.3-0.1-0.5-0.1-0.8-0.2
			c-0.3,0-0.6-0.1-0.9-0.1c0.2-0.2,0.6-0.3,0.9-0.3c0.3,0,0.6,0,0.9,0.1c0.3,0.1,0.6,0.2,0.9,0.4C178.3,71.1,178.6,71.3,178.7,71.6z
			"/>
		<path class="st52" d="M170.6,70.2c-0.3-0.1-0.6-0.2-0.8-0.3c-0.3-0.1-0.5-0.2-0.8-0.2c-0.3-0.1-0.5-0.1-0.8-0.2
			c-0.3,0-0.6-0.1-0.9-0.1c0.2-0.2,0.6-0.3,0.9-0.3c0.3,0,0.6,0,0.9,0.1c0.3,0.1,0.6,0.2,0.9,0.4C170.2,69.7,170.5,69.9,170.6,70.2z
			"/>
		<path class="st52" d="M179,77.9c1.8,0.4,3.7-0.8,4.1-2.6c0.4-1.8-0.8-3.7-2.6-4.1L179,77.9z"/>
		<path class="st53" d="M179.3,76.3c1,0.2,1.9-0.4,2.1-1.4c0.2-1-0.4-1.9-1.4-2.1L179.3,76.3z"/>
		<g class="st0">
			<path class="st47" d="M148.2,141.4c2.3,7,6.2,30.3,6.2,30.3h-50.1c0,0,0.3-16.3,7.8-31.1c5.9-11.5,7.7-12.8,7.7-12.8l21.6-1.7
				C141.3,126.1,145.9,134.4,148.2,141.4z"/>
			<path class="st56" d="M117.4,111.5c0,0,7.2-2.4,14.3-2.4c7.1,0,12.9,1.1,12.9,1.1l2.7,9.3c-0.3,1.7-2.3,7.6-3.9,9.6l-24.7,1
				l-4.8-10.1L117.4,111.5z"/>
			<path class="st40" d="M114.4,121.1l3.6,7.6c-0.9,1.2-2.4,3.5-4.8,7.8c-1.3,2.4-2.3,5.3-3.2,8.4c0.5,0,1.1,0,1.7,0
				c8,0,16-5.5,16-5.5c3.9,0.8,14.7,2.2,20.7,3c-0.1-0.3-0.2-0.6-0.3-0.9c-1.5-4.4-3.8-9.4-5.4-12.4l0.5,0c1.7-2,3.7-7.9,3.9-9.6
				l-2.7-9.3c0,0,2,9.4-1.1,11.7c-4.2,3.1-2.5,9.3-2.5,9.3l-20.9,2.5l0.7-8.7c0,0-4.8-4.7-3.5-13.4L114.4,121.1z"/>
			<path class="st56" d="M159.9,129.2c-3.5-2.1-7.1-3-11.1-2.7l-4.2-16.3l-27.2,1.3c0,0-0.3,2.4-1.5,7.4c-1.1,4.4-1.2,8.9-1.2,9.8
				c-1.6,2.1-4.2,5.7-5.8,9.3c-0.3-0.1-0.6-0.2-0.9-0.3c-8.4-2.5-1.2-27.3,1.7-34.7c2.9-7.4,11.3-7.4,17.6-10.7l10.8,1.5
				c0,0,3.7,1.6,9.7,4.5C153.4,100.9,159.9,129.2,159.9,129.2z"/>
			<path class="st28" d="M129.2,60.4c-0.4-1.5-0.6-1.1-3.6-2.3c-3-1.2-1.9-4.7,1.1-4.6c2.5,0.1,1.3-2.8,3.6-3.9c2.3-1,2.8,1.2,4,1.1
				c1.2-0.1,0.8-3.2,4-2.7c2.3,0.4,2.1,2.3,2,3.7c-0.2,1.4,2.4,0.3,3.1,2.3c0.6,1.9-2,2.4-2.1,4.2c-0.1,1.8-1.2,2.7-1.2,2.7
				L129.2,60.4z"/>
			<path class="st28" d="M124.9,74.8c-1.6-1.7-2.9-4.7-1.2-7.1c0.3-0.5,0.5-1.1,0.4-1.7c-0.2-1-0.2-2.5,1.2-3.8
				c0.9-0.8,1.8-1.1,2.5-1.2c0.7-0.1,1.3-0.5,1.6-1.1c0.5-0.8,1.4-1.9,2.9-2.2c2.6-0.5,4.6,2.4,4.6,2.4s3.4-3.4,7.2-0.7
				c2.5,1.8,2.4,4.3,2,5.9c-0.2,0.8,0.1,1.6,0.7,2.2c0.9,0.8,2,2.4,1.6,4.8c-0.7,4-2.2,7.7-8.5,7.7S124.9,74.8,124.9,74.8z"/>
			<path class="st29" d="M130.1,80.3l-2.8,12c0,0-7.2,13.7,4.2,14.7c12.1,1,6.6-13.2,6.6-13.2l2.2-12.4L130.1,80.3z"/>
			<linearGradient id="SVGID_21_" gradientUnits="userSpaceOnUse" x1="133.7988" y1="82.6507" x2="131.6496" y2="106.8296">
				<stop  offset="0" style="stop-color:#F0C3A8"/>
				<stop  offset="1" style="stop-color:#FFFFFF"/>
			</linearGradient>
			<path class="st57" d="M130.1,80.3l-2.8,12c0,0-7.2,13.7,4.2,14.7c12.1,1,6.6-13.2,6.6-13.2l2.2-12.4L130.1,80.3z"/>
			<path class="st40" d="M129.5,82.6c1.2,2.6,3.3,4.2,6,4.2c1.6,0,3-0.6,4.1-1.6l0.7-3.9l-10.3-1.1L129.5,82.6z"/>
			<path class="st32" d="M141.9,78.5c1.9,0.1,3.5-1.4,3.6-3.2c0.1-1.9-1.4-3.5-3.2-3.6L141.9,78.5z"/>
			<path class="st33" d="M142,76.9c1,0,1.8-0.7,1.9-1.7c0-1-0.7-1.8-1.7-1.9L142,76.9z"/>
			<path class="st29" d="M142.9,74.4c0,5.9-2.8,10.7-7.4,10.7c-4.6,0-7.4-4.8-7.4-10.7c0-5.9,2-10.9,7.2-10.9
				C141,63.5,142.9,68.5,142.9,74.4z"/>
			<circle class="st32" cx="131.5" cy="76.7" r="1.7"/>
			<circle class="st32" cx="140.8" cy="76.4" r="1.7"/>
			<path class="st32" d="M136.3,73.4l1.5,3c0.1,0.3,0,0.6-0.4,0.7l-1.6,0.2L136.3,73.4z"/>
			<path class="st34" d="M138.5,78.8c0,0.5-1,0.9-2.2,0.9c-1.2,0-2.2-0.4-2.2-0.9c0-0.5,1-0.2,2.2-0.2
				C137.5,78.6,138.5,78.3,138.5,78.8z"/>
			<circle class="st47" cx="131.8" cy="73" r="0.4"/>
			<circle class="st47" cx="140.2" cy="73.1" r="0.4"/>
			<path class="st48" d="M130,71.4c0.2-0.3,0.5-0.4,0.8-0.6c0.3-0.1,0.6-0.2,0.9-0.2c0.3,0,0.6,0,0.9,0.1c0.3,0.1,0.6,0.2,0.8,0.5
				c-0.3-0.1-0.6-0.1-0.9-0.1c-0.3,0-0.6,0-0.8,0c-0.3,0-0.6,0.1-0.8,0.1C130.6,71.3,130.3,71.3,130,71.4z"/>
			<path class="st48" d="M138.3,71.3c0.2-0.3,0.5-0.4,0.8-0.6c0.3-0.1,0.6-0.2,0.9-0.2c0.3,0,0.6,0,0.9,0.1c0.3,0.1,0.6,0.2,0.8,0.5
				c-0.3-0.1-0.6-0.1-0.9-0.1c-0.3,0-0.6,0-0.8,0c-0.3,0-0.6,0.1-0.8,0.1C138.9,71.1,138.6,71.2,138.3,71.3z"/>
			<path class="st32" d="M128.7,78.7c-1.9,0.1-3.5-1.4-3.6-3.2c-0.1-1.9,1.4-3.5,3.2-3.6L128.7,78.7z"/>
			<path class="st33" d="M128.6,77.1c-1,0-1.8-0.7-1.9-1.7c0-1,0.7-1.8,1.7-1.9L128.6,77.1z"/>
			<path class="st28" d="M127.3,71.9c1.2,0.8,2,0.9,2.4,0.5c0.4-0.4,0.9-4.6,2.8-6.1c1.9-1.5,4.6-1.9,4.6-1.9s1.3,3.7,3.6,5.8
				c2.4,2.1,3.7,2.1,3.7,2.1s-0.3-10.1-8.9-10C127,62.5,127.3,71.9,127.3,71.9z"/>
			<path class="st29" d="M159.9,129.2c0.9,5.1-2.8,7.6-7.5,7.6s-27.9-2.2-27.9-2.2l13.6-7.7l10.9-0.4c0,0,3-0.5,6.2,0.5
				C158.3,128,159.9,129.2,159.9,129.2z"/>
			<linearGradient id="SVGID_22_" gradientUnits="userSpaceOnUse" x1="130.8333" y1="131.0467" x2="155.3573" y2="131.7168">
				<stop  offset="0" style="stop-color:#F0C3A8"/>
				<stop  offset="1" style="stop-color:#FFFFFF"/>
			</linearGradient>
			<path class="st58" d="M159.9,129.2c0.9,5.1-2.8,7.6-7.5,7.6s-27.9-2.2-27.9-2.2l13.6-7.7l10.9-0.4c0,0,3-0.5,6.2,0.5
				C158.3,128,159.9,129.2,159.9,129.2z"/>
			<path class="st40" d="M124.5,134.6c0,0,3,0.3,7.1,0.7c2.1-2.9,7.4-5.9,10.4-6.6c3.1-0.8,7.1-2.1,7.1-2.1l-10.9,0.4L124.5,134.6z"
				/>
			<path class="st59" d="M148.8,126.5c0,0-6.7-0.4-16.2,5.7c-9.2,5.9-15.6,7.8-23.6,5.6c1.7-5.1,3.4-7.1,5.8-9.3c0,0.1,0,0.2,0,0.2
				s9.5-1.1,19.8-3.4S148.8,126.5,148.8,126.5z"/>
		</g>
		<path class="st42" d="M171.2,62.1c0.7-0.1,1.4-0.1,1.9-0.1c0,0,0,0,0-0.1c0,0,0.1-0.1,0.3-0.3c0.5,0,1.1,0,1.7,0.1
			c4.4,0.8,5.9,4.7,5.6,9.5c1.8,0.5,2.8,2.2,2.4,4c-0.3,1.5-1.6,2.6-3.1,2.7c0.4-1.8,0.7-3.8,0.2-5.5c-1.1-4.1-3.7-1.2-6.1-7.3
			c-2,0.8-4.2,1.4-5.2,1.8c-1.2,0.4-2.1,1.6-2.7,2.4C167.1,65.9,168.6,63.2,171.2,62.1z"/>
		<path class="st49" d="M177,58.4c2.3-0.2,4.5,0.5,6.6,5.2c1.5,3.3,2.8,2.9,4,5.2c1.8,3.4-1,8.1-0.5,11.3c0.5,3.2,3.9,4,3.6,8.6
			c-0.3,4.6-2.4,6.1-1.7,9c0.7,2.9,2,5.5,0.1,8.4c-1.9,3-2.9,2.4-3.2,5.3c-0.3,2.9-3.9,3.6-4.4,0.4s1.1-4.6-0.7-7.2
			c-1.8-2.6-2.1-5.1-1.1-7.7c1-2.5-0.5-4.6-0.9-7c-0.4-2.4,1.3-5.3,1-7.6c-0.3-2.3,2-6.8,0.9-10.4c-1.4-4.6-4.9-1-7.8-11.2
			C172.8,60.8,174.5,58.7,177,58.4z"/>
		<path class="st49" d="M177.5,60.9c-1.6,2.3-6.4,4.4-8.3,5c-1.9,0.6-3.4,3-3.4,3s1.2-6.3,3.9-7.2c2.7-0.9,5.3-0.2,5.3-0.2
			L177.5,60.9z"/>
		<g class="st0">
			<path class="st5" d="M74,137c5.7-1.1,17.3,4.5,22.3,16.3c5,11.8-0.6,43-0.6,43c-1.3,0.5-4,0.5-4.7-0.1c0,0-2.4-31.1-12.7-42.1
				S67.8,138.2,74,137z"/>
			<defs>
				<filter id="Adobe_OpacityMaskFilter_10_" filterUnits="userSpaceOnUse" x="69.8" y="137.3" width="23.4" height="58.9">
					<feFlood  style="flood-color:white;flood-opacity:1" result="back"/>
					<feBlend  in="SourceGraphic" in2="back" mode="normal"/>
				</filter>
			</defs>
			<mask maskUnits="userSpaceOnUse" x="69.8" y="137.3" width="23.4" height="58.9" id="SVGID_23_">
				<g class="st60">
					<defs>
						<filter id="Adobe_OpacityMaskFilter_11_" filterUnits="userSpaceOnUse" x="69.8" y="137.3" width="23.4" height="58.9">
							<feFlood  style="flood-color:white;flood-opacity:1" result="back"/>
							<feBlend  in="SourceGraphic" in2="back" mode="normal"/>
						</filter>
					</defs>
					<mask maskUnits="userSpaceOnUse" x="69.8" y="137.3" width="23.4" height="58.9" id="SVGID_23_">
						<g class="st61">
						</g>
					</mask>
					<linearGradient id="SVGID_24_" gradientUnits="userSpaceOnUse" x1="93.1383" y1="164.9616" x2="76.2237" y2="167.9118">
						<stop  offset="0" style="stop-color:#FFFFFF"/>
						<stop  offset="1" style="stop-color:#000000"/>
					</linearGradient>
					<path class="st62" d="M72.9,137.3c-5,1.6-4.3,6.6,5.4,16.8C88.7,165,91,196.2,91,196.2l2,0c0.2-4.1,0.6-15.8-0.7-26.3
						C90.7,157.2,83.5,146.9,72.9,137.3z"/>
				</g>
			</mask>
			<linearGradient id="SVGID_25_" gradientUnits="userSpaceOnUse" x1="93.1383" y1="164.9616" x2="76.2237" y2="167.9118">
				<stop  offset="0" style="stop-color:#BCC1E8"/>
				<stop  offset="1" style="stop-color:#BCC1E8"/>
			</linearGradient>
			<path class="st63" d="M72.9,137.3c-5,1.6-4.3,6.6,5.4,16.8C88.7,165,91,196.2,91,196.2l2,0c0.2-4.1,0.6-15.8-0.7-26.3
				C90.7,157.2,83.5,146.9,72.9,137.3z"/>
		</g>
		<g class="st0">
			<path class="st5" d="M118.4,133.5c9,1.1-2.2,20.6-7.7,31.3s-9.6,29.5-9.6,41c-0.5,1-2.7,0.7-3.4,0c0,0,2.3-44.9,8.1-59.6
				C111.4,131.5,116.5,133.3,118.4,133.5z"/>
			<defs>
				<filter id="Adobe_OpacityMaskFilter_12_" filterUnits="userSpaceOnUse" x="99.6" y="133.6" width="22.2" height="72.2">
					<feFlood  style="flood-color:white;flood-opacity:1" result="back"/>
					<feBlend  in="SourceGraphic" in2="back" mode="normal"/>
				</filter>
			</defs>
			<mask maskUnits="userSpaceOnUse" x="99.6" y="133.6" width="22.2" height="72.2" id="SVGID_26_">
				<g class="st64">
					<defs>
						<filter id="Adobe_OpacityMaskFilter_13_" filterUnits="userSpaceOnUse" x="99.6" y="133.6" width="22.2" height="72.2">
							<feFlood  style="flood-color:white;flood-opacity:1" result="back"/>
							<feBlend  in="SourceGraphic" in2="back" mode="normal"/>
						</filter>
					</defs>
					<mask maskUnits="userSpaceOnUse" x="99.6" y="133.6" width="22.2" height="72.2" id="SVGID_26_">
						<g class="st65">
						</g>
					</mask>
					<linearGradient id="SVGID_27_" gradientUnits="userSpaceOnUse" x1="130.0751" y1="166.1462" x2="97.2034" y2="171.8796">
						<stop  offset="0" style="stop-color:#FFFFFF"/>
						<stop  offset="1" style="stop-color:#000000"/>
					</linearGradient>
					<path class="st66" d="M118.6,133.6c-6.8,11-14.2,29.3-17.2,50.8c-1.7,12.4-1.9,18.5-1.6,21.4h1.3c0-11.5,4-30.3,9.6-41
						C116.2,154.2,127.3,134.9,118.6,133.6z"/>
				</g>
			</mask>
			<linearGradient id="SVGID_28_" gradientUnits="userSpaceOnUse" x1="130.0751" y1="166.1462" x2="97.2034" y2="171.8796">
				<stop  offset="0" style="stop-color:#BCC1E8"/>
				<stop  offset="1" style="stop-color:#BCC1E8"/>
			</linearGradient>
			<path class="st67" d="M118.6,133.6c-6.8,11-14.2,29.3-17.2,50.8c-1.7,12.4-1.9,18.5-1.6,21.4h1.3c0-11.5,4-30.3,9.6-41
				C116.2,154.2,127.3,134.9,118.6,133.6z"/>
		</g>
		<g class="st0">
			<path class="st5" d="M139.4,145c5,1.5,0.5,8.5-9.9,15.1c-10.4,6.6-17.4,20.9-17.4,26.2c-0.7,0.8-2.7,0.5-3.4-0.2
				c0,0,3.4-20.9,13.6-32.2C132.6,142.5,137.5,144.4,139.4,145z"/>
			<defs>
				<filter id="Adobe_OpacityMaskFilter_14_" filterUnits="userSpaceOnUse" x="110.7" y="144.9" width="30.8" height="41.3">
					<feFlood  style="flood-color:white;flood-opacity:1" result="back"/>
					<feBlend  in="SourceGraphic" in2="back" mode="normal"/>
				</filter>
			</defs>
			<mask maskUnits="userSpaceOnUse" x="110.7" y="144.9" width="30.8" height="41.3" id="SVGID_29_">
				<g class="st68">
					<defs>
						<filter id="Adobe_OpacityMaskFilter_15_" filterUnits="userSpaceOnUse" x="110.7" y="144.9" width="30.8" height="41.3">
							<feFlood  style="flood-color:white;flood-opacity:1" result="back"/>
							<feBlend  in="SourceGraphic" in2="back" mode="normal"/>
						</filter>
					</defs>
					<mask maskUnits="userSpaceOnUse" x="110.7" y="144.9" width="30.8" height="41.3" id="SVGID_29_">
						<g class="st69">
						</g>
					</mask>
					
						<linearGradient id="SVGID_30_" gradientUnits="userSpaceOnUse" x1="-698.8088" y1="130.1663" x2="-726.2241" y2="134.948" gradientTransform="matrix(1.331 6.930000e-002 -5.380000e-002 1.0327 1085.0258 77.7688)">
						<stop  offset="0" style="stop-color:#FFFFFF"/>
						<stop  offset="1" style="stop-color:#000000"/>
					</linearGradient>
					<path class="st70" d="M139.4,145C139.4,144.9,139.4,144.9,139.4,145c-5.7,4.4-16.5,13.6-21.6,22.5c-4.7,8.2-6.6,14.8-7.2,18.8
						l1.5,0.1c0-5.2,7-19.5,17.4-26.2C140,153.5,144.4,146.4,139.4,145z"/>
				</g>
			</mask>
			
				<linearGradient id="SVGID_31_" gradientUnits="userSpaceOnUse" x1="-698.8088" y1="130.1663" x2="-726.2241" y2="134.948" gradientTransform="matrix(1.331 6.930000e-002 -5.380000e-002 1.0327 1085.0258 77.7688)">
				<stop  offset="0" style="stop-color:#BCC1E8"/>
				<stop  offset="1" style="stop-color:#BCC1E8"/>
			</linearGradient>
			<path class="st71" d="M139.4,145C139.4,144.9,139.4,144.9,139.4,145c-5.7,4.4-16.5,13.6-21.6,22.5c-4.7,8.2-6.6,14.8-7.2,18.8
				l1.5,0.1c0-5.2,7-19.5,17.4-26.2C140,153.5,144.4,146.4,139.4,145z"/>
		</g>
		<g class="st0">
			<path class="st5" d="M144.6,155.8c2.8,2.1-1.8,7.8-5.7,11.6c-3.9,3.9-5.2,11.6-5.2,11.6c-0.7,0.7-2.3,0.8-2.7,0c0,0,0-9.5,4.3-17
				C139.7,154.4,143.4,155,144.6,155.8z"/>
			<defs>
				<filter id="Adobe_OpacityMaskFilter_16_" filterUnits="userSpaceOnUse" x="131" y="155.3" width="13.5" height="23.7">
					<feFlood  style="flood-color:white;flood-opacity:1" result="back"/>
					<feBlend  in="SourceGraphic" in2="back" mode="normal"/>
				</filter>
			</defs>
			<mask maskUnits="userSpaceOnUse" x="131" y="155.3" width="13.5" height="23.7" id="SVGID_32_">
				<g class="st72">
					<defs>
						<filter id="Adobe_OpacityMaskFilter_17_" filterUnits="userSpaceOnUse" x="131" y="155.3" width="13.5" height="23.7">
							<feFlood  style="flood-color:white;flood-opacity:1" result="back"/>
							<feBlend  in="SourceGraphic" in2="back" mode="normal"/>
						</filter>
					</defs>
					<mask maskUnits="userSpaceOnUse" x="131" y="155.3" width="13.5" height="23.7" id="SVGID_32_">
						<g class="st73">
						</g>
					</mask>
					<linearGradient id="SVGID_33_" gradientUnits="userSpaceOnUse" x1="147.8971" y1="165.3658" x2="130.9439" y2="168.3227">
						<stop  offset="0" style="stop-color:#FFFFFF"/>
						<stop  offset="1" style="stop-color:#000000"/>
					</linearGradient>
					<path class="st74" d="M135.9,166.6c2.1-4.1,5.3-7.8,8.7-10.8c-1.2-0.8-4.9-1.3-9.2,6.2c-4.3,7.6-4.3,17-4.3,17h1.4
						C133,175.8,134.3,169.7,135.9,166.6z"/>
				</g>
			</mask>
			<linearGradient id="SVGID_34_" gradientUnits="userSpaceOnUse" x1="147.8971" y1="165.3658" x2="130.9439" y2="168.3227">
				<stop  offset="0" style="stop-color:#BCC1E8"/>
				<stop  offset="1" style="stop-color:#BCC1E8"/>
			</linearGradient>
			<path class="st75" d="M135.9,166.6c2.1-4.1,5.3-7.8,8.7-10.8c-1.2-0.8-4.9-1.3-9.2,6.2c-4.3,7.6-4.3,17-4.3,17h1.4
				C133,175.8,134.3,169.7,135.9,166.6z"/>
		</g>
		<g class="st0">
			<g>
				<g>
					<path class="st5" d="M193,162.2c0.7-3.4,0.2-5,0.6-9.2c0.4-4.2,2.2-4.9,2.3-8.5c0.1-3.6,0.7-7,1.4-10.7c0,0-0.9,1.6-1.4,3.2
						c-0.5,1.8-0.6,3.2-1.3,5.8c-0.7,2.6-1.6,2.4-2.3,5.7c-0.8,3.3-0.5,7-1.3,9.4c-0.8,2.4-2.9,4.2-3.3,6.8c-0.3,2.6,0.3,6,0,8.6h3
						c0-0.9,0.1-2.3,0.2-3.9C191.4,166.1,192.3,165.6,193,162.2z"/>
					<defs>
						<filter id="Adobe_OpacityMaskFilter_18_" filterUnits="userSpaceOnUse" x="187.7" y="133.7" width="9.6" height="39.5">
							<feFlood  style="flood-color:white;flood-opacity:1" result="back"/>
							<feBlend  in="SourceGraphic" in2="back" mode="normal"/>
						</filter>
					</defs>
					<mask maskUnits="userSpaceOnUse" x="187.7" y="133.7" width="9.6" height="39.5" id="SVGID_35_">
						<g class="st76">
							<defs>
								<filter id="Adobe_OpacityMaskFilter_19_" filterUnits="userSpaceOnUse" x="187.7" y="133.7" width="9.6" height="39.5">
									<feFlood  style="flood-color:white;flood-opacity:1" result="back"/>
									<feBlend  in="SourceGraphic" in2="back" mode="normal"/>
								</filter>
							</defs>
							<mask maskUnits="userSpaceOnUse" x="187.7" y="133.7" width="9.6" height="39.5" id="SVGID_35_">
								<g class="st77">
								</g>
							</mask>
							<linearGradient id="SVGID_36_" gradientUnits="userSpaceOnUse" x1="191.366" y1="170.9134" x2="192.8158" y2="143.368">
								<stop  offset="0" style="stop-color:#FFFFFF"/>
								<stop  offset="1" style="stop-color:#000000"/>
							</linearGradient>
							<path class="st78" d="M193,162.2c0.7-3.4,0.2-5,0.6-9.2c0.4-4.2,2.2-4.9,2.3-8.5c0.1-3.6,0.7-7,1.4-10.7c0,0-0.9,1.6-1.4,3.2
								c-0.5,1.8-0.6,3.2-1.3,5.8c-0.7,2.6-1.6,2.4-2.3,5.7c-0.8,3.3-0.5,7-1.3,9.4c-0.8,2.4-2.9,4.2-3.3,6.8c-0.3,2.6,0.3,6,0,8.6
								h3c0-0.9,0.1-2.3,0.2-3.9C191.4,166.1,192.3,165.6,193,162.2z"/>
						</g>
					</mask>
					<linearGradient id="SVGID_37_" gradientUnits="userSpaceOnUse" x1="191.366" y1="170.9134" x2="192.8158" y2="143.368">
						<stop  offset="0" style="stop-color:#BCC1E8"/>
						<stop  offset="1" style="stop-color:#BCC1E8"/>
					</linearGradient>
					<path class="st79" d="M193,162.2c0.7-3.4,0.2-5,0.6-9.2c0.4-4.2,2.2-4.9,2.3-8.5c0.1-3.6,0.7-7,1.4-10.7c0,0-0.9,1.6-1.4,3.2
						c-0.5,1.8-0.6,3.2-1.3,5.8c-0.7,2.6-1.6,2.4-2.3,5.7c-0.8,3.3-0.5,7-1.3,9.4c-0.8,2.4-2.9,4.2-3.3,6.8c-0.3,2.6,0.3,6,0,8.6h3
						c0-0.9,0.1-2.3,0.2-3.9C191.4,166.1,192.3,165.6,193,162.2z"/>
				</g>
				<path class="st5" d="M197.6,149.8c0.6-3.2-0.5-6.4-0.3-8.7c0.3-3.3,0-7.3,0-7.3c-0.7,3.8-1.3,7.1-1.4,10.7
					c-0.1,3.6-2,4.3-2.3,8.5c-0.4,4.2,0.2,5.8-0.6,9.2c-0.7,3.4-1.6,3.9-2,7.1c-0.2,1.6-0.2,3-0.2,3.9h4.4c0,0,0.8-1.8,0.9-5.3
					c0.1-3.5-0.9-5.1-0.7-9.9C195.7,153.3,197.1,153,197.6,149.8z"/>
			</g>
			<g>
				<g>
					<path class="st5" d="M186.3,160.1c-0.9-2.2-2.4-2.3-2.3-4.7c0.1-2.3,0.8-4.6,0.4-6.8c-0.3-1.4-0.7-3.5-1-4.7
						c-0.5,0.1-0.1,3.4,0.1,5.3c0.2,1.9-1.7,4.4-1.7,6.6c0,2.2,1.4,4,1.5,6.1c0.2,2.1-1.4,3.9-1.4,6.7s1.3,4.6,1.3,4.6h4.5
						c-0.2-2-1.2-4.5-1.2-6.7C186.3,163.9,187.2,162.2,186.3,160.1z"/>
					<defs>
						<filter id="Adobe_OpacityMaskFilter_20_" filterUnits="userSpaceOnUse" x="181.7" y="143.9" width="5.9" height="29.3">
							<feFlood  style="flood-color:white;flood-opacity:1" result="back"/>
							<feBlend  in="SourceGraphic" in2="back" mode="normal"/>
						</filter>
					</defs>
					<mask maskUnits="userSpaceOnUse" x="181.7" y="143.9" width="5.9" height="29.3" id="SVGID_38_">
						<g class="st80">
							<defs>
								<filter id="Adobe_OpacityMaskFilter_21_" filterUnits="userSpaceOnUse" x="181.7" y="143.9" width="5.9" height="29.3">
									<feFlood  style="flood-color:white;flood-opacity:1" result="back"/>
									<feBlend  in="SourceGraphic" in2="back" mode="normal"/>
								</filter>
							</defs>
							<mask maskUnits="userSpaceOnUse" x="181.7" y="143.9" width="5.9" height="29.3" id="SVGID_38_">
								<g class="st81">
								</g>
							</mask>
							<linearGradient id="SVGID_39_" gradientUnits="userSpaceOnUse" x1="184.3264" y1="171.4456" x2="185.3901" y2="151.2352">
								<stop  offset="0" style="stop-color:#FFFFFF"/>
								<stop  offset="1" style="stop-color:#000000"/>
							</linearGradient>
							<path class="st82" d="M186.3,160.1c-0.9-2.2-2.4-2.3-2.3-4.7c0.1-2.3,0.8-4.6,0.4-6.8c-0.3-1.4-0.7-3.5-1-4.7
								c-0.5,0.1-0.1,3.4,0.1,5.3c0.2,1.9-1.7,4.4-1.7,6.6c0,2.2,1.4,4,1.5,6.1c0.2,2.1-1.4,3.9-1.4,6.7s1.3,4.6,1.3,4.6h4.5
								c-0.2-2-1.2-4.5-1.2-6.7C186.3,163.9,187.2,162.2,186.3,160.1z"/>
						</g>
					</mask>
					<linearGradient id="SVGID_40_" gradientUnits="userSpaceOnUse" x1="184.3264" y1="171.4456" x2="185.3901" y2="151.2352">
						<stop  offset="0" style="stop-color:#BCC1E8"/>
						<stop  offset="1" style="stop-color:#BCC1E8"/>
					</linearGradient>
					<path class="st83" d="M186.3,160.1c-0.9-2.2-2.4-2.3-2.3-4.7c0.1-2.3,0.8-4.6,0.4-6.8c-0.3-1.4-0.7-3.5-1-4.7
						c-0.5,0.1-0.1,3.4,0.1,5.3c0.2,1.9-1.7,4.4-1.7,6.6c0,2.2,1.4,4,1.5,6.1c0.2,2.1-1.4,3.9-1.4,6.7s1.3,4.6,1.3,4.6h4.5
						c-0.2-2-1.2-4.5-1.2-6.7C186.3,163.9,187.2,162.2,186.3,160.1z"/>
				</g>
				<path class="st5" d="M192.5,165.7c-1.1-1.4-2.9-2.1-2.8-4.2c0.1-2.1-0.1-3.9-1.4-5.1c-1.4-1.1-2.5-2.4-2.4-4
					c0.1-1.7,0.1-3.5-0.8-4.7c-0.8-1.2-1.3-3.9-1.8-3.8c0,0,0,0,0,0c0.3,1.2,0.8,3.3,1,4.7c0.4,2.2-0.3,4.4-0.4,6.8
					c-0.1,2.3,1.4,2.5,2.3,4.7c0.9,2.2,0,3.8,0.1,6.4c0.1,2.2,1.1,4.7,1.2,6.7h5.2C192.9,173.2,193.6,167.2,192.5,165.7z"/>
			</g>
		</g>
		<g class="st0">
			<g>
				<path class="st5" d="M175,166.5c-0.9-1.4-2.9-2.9-2.3-5.4c0.6-2.5,1-4.9,0-6.5c-1-1.6-2.3-4-2.3-7s-0.3-5.2-1-6.4
					c-0.7-1.2-1.5-5.1-2.1-6.1c-0.6-1-1.5-5.9-2.1-6.8c-0.1-0.1-0.1-0.1-0.2-0.1c0.2,2.1,0.5,5.5,0.7,7.6c0.4,3.4-0.5,5-0.5,7.1
					s2,4.8,2,7.4s-2,4.9-2,7.8s1.7,4.1,2.5,6.8c0.6,2.1-0.1,4.9-1,7.5h7.6C174.2,172.5,175.9,167.9,175,166.5z"/>
				<g>
					<path class="st5" d="M167.6,164.9c-0.7-2.7-2.5-3.9-2.5-6.8s2-5.2,2-7.8s-2-5.3-2-7.4s0.9-3.7,0.5-7.1
						c-0.2-2.1-0.5-5.5-0.7-7.6c-0.5,0.3-0.9,4.6-0.9,6.9c0,2.6-2.4,4.5-2.4,7.1c0,2.6,0.8,7.1-0.3,10.3c-1.1,3.1-3.4,3.6-3.4,8.3
						c0,4.7,2.2,7.8,1.2,11.7h7.4C167.4,169.8,168.2,167,167.6,164.9z"/>
					<defs>
						<filter id="Adobe_OpacityMaskFilter_22_" filterUnits="userSpaceOnUse" x="158" y="128.2" width="9.8" height="44.3">
							<feFlood  style="flood-color:white;flood-opacity:1" result="back"/>
							<feBlend  in="SourceGraphic" in2="back" mode="normal"/>
						</filter>
					</defs>
					<mask maskUnits="userSpaceOnUse" x="158" y="128.2" width="9.8" height="44.3" id="SVGID_41_">
						<g class="st84">
							<defs>
								<filter id="Adobe_OpacityMaskFilter_23_" filterUnits="userSpaceOnUse" x="158" y="128.2" width="9.8" height="44.3">
									<feFlood  style="flood-color:white;flood-opacity:1" result="back"/>
									<feBlend  in="SourceGraphic" in2="back" mode="normal"/>
								</filter>
							</defs>
							<mask maskUnits="userSpaceOnUse" x="158" y="128.2" width="9.8" height="44.3" id="SVGID_41_">
								<g class="st85">
								</g>
							</mask>
							<linearGradient id="SVGID_42_" gradientUnits="userSpaceOnUse" x1="162.5596" y1="169.9008" x2="164.1776" y2="139.1579">
								<stop  offset="0" style="stop-color:#FFFFFF"/>
								<stop  offset="1" style="stop-color:#000000"/>
							</linearGradient>
							<path class="st86" d="M167.6,164.9c-0.7-2.7-2.5-3.9-2.5-6.8s2-5.2,2-7.8s-2-5.3-2-7.4s0.9-3.7,0.5-7.1
								c-0.2-2.1-0.5-5.5-0.7-7.6c-0.5,0.3-0.9,4.6-0.9,6.9c0,2.6-2.4,4.5-2.4,7.1c0,2.6,0.8,7.1-0.3,10.3c-1.1,3.1-3.4,3.6-3.4,8.3
								c0,4.7,2.2,7.8,1.2,11.7h7.4C167.4,169.8,168.2,167,167.6,164.9z"/>
						</g>
					</mask>
					<linearGradient id="SVGID_43_" gradientUnits="userSpaceOnUse" x1="162.5596" y1="169.9008" x2="164.1776" y2="139.1579">
						<stop  offset="0" style="stop-color:#BCC1E8"/>
						<stop  offset="1" style="stop-color:#BCC1E8"/>
					</linearGradient>
					<path class="st87" d="M167.6,164.9c-0.7-2.7-2.5-3.9-2.5-6.8s2-5.2,2-7.8s-2-5.3-2-7.4s0.9-3.7,0.5-7.1
						c-0.2-2.1-0.5-5.5-0.7-7.6c-0.5,0.3-0.9,4.6-0.9,6.9c0,2.6-2.4,4.5-2.4,7.1c0,2.6,0.8,7.1-0.3,10.3c-1.1,3.1-3.4,3.6-3.4,8.3
						c0,4.7,2.2,7.8,1.2,11.7h7.4C167.4,169.8,168.2,167,167.6,164.9z"/>
				</g>
			</g>
			<g>
				<g>
					<path class="st5" d="M174.8,156.2c-0.2-2.5,1.7-3.6,2.2-5.9c0.4-1.8-0.3-5-0.8-7.3c-0.7,0.2,0,5.9,0,7.3c0.1,1.4-2,2.5-2.6,5.1
						c-0.6,2.5,1.1,4.2-0.1,6.9c-1.2,2.7-3,5.5-2.8,10.2h2.9c0.2-3.2,1.7-5.2,2.5-8.2C176.9,160.9,174.9,158.6,174.8,156.2z"/>
					<defs>
						<filter id="Adobe_OpacityMaskFilter_24_" filterUnits="userSpaceOnUse" x="170.7" y="143" width="6.4" height="29.5">
							<feFlood  style="flood-color:white;flood-opacity:1" result="back"/>
							<feBlend  in="SourceGraphic" in2="back" mode="normal"/>
						</filter>
					</defs>
					<mask maskUnits="userSpaceOnUse" x="170.7" y="143" width="6.4" height="29.5" id="SVGID_44_">
						<g class="st88">
							<defs>
								<filter id="Adobe_OpacityMaskFilter_25_" filterUnits="userSpaceOnUse" x="170.7" y="143" width="6.4" height="29.5">
									<feFlood  style="flood-color:white;flood-opacity:1" result="back"/>
									<feBlend  in="SourceGraphic" in2="back" mode="normal"/>
								</filter>
							</defs>
							<mask maskUnits="userSpaceOnUse" x="170.7" y="143" width="6.4" height="29.5" id="SVGID_44_">
								<g class="st89">
								</g>
							</mask>
							<linearGradient id="SVGID_45_" gradientUnits="userSpaceOnUse" x1="173.2914" y1="170.7773" x2="174.3723" y2="150.2393">
								<stop  offset="0" style="stop-color:#FFFFFF"/>
								<stop  offset="1" style="stop-color:#000000"/>
							</linearGradient>
							<path class="st90" d="M174.8,156.2c-0.2-2.5,1.7-3.6,2.2-5.9c0.4-1.8-0.3-5-0.8-7.3c-0.7,0.2,0,5.9,0,7.3
								c0.1,1.4-2,2.5-2.6,5.1c-0.6,2.5,1.1,4.2-0.1,6.9c-1.2,2.7-3,5.5-2.8,10.2h2.9c0.2-3.2,1.7-5.2,2.5-8.2
								C176.9,160.9,174.9,158.6,174.8,156.2z"/>
						</g>
					</mask>
					<linearGradient id="SVGID_46_" gradientUnits="userSpaceOnUse" x1="173.2914" y1="170.7773" x2="174.3723" y2="150.2393">
						<stop  offset="0" style="stop-color:#BCC1E8"/>
						<stop  offset="1" style="stop-color:#BCC1E8"/>
					</linearGradient>
					<path class="st91" d="M174.8,156.2c-0.2-2.5,1.7-3.6,2.2-5.9c0.4-1.8-0.3-5-0.8-7.3c-0.7,0.2,0,5.9,0,7.3
						c0.1,1.4-2,2.5-2.6,5.1c-0.6,2.5,1.1,4.2-0.1,6.9c-1.2,2.7-3,5.5-2.8,10.2h2.9c0.2-3.2,1.7-5.2,2.5-8.2
						C176.9,160.9,174.9,158.6,174.8,156.2z"/>
				</g>
				<path class="st5" d="M176.9,157.2c-1-3.2,0.7-4.2,0.9-6.9c0.1-2.7-0.9-7.4-1.6-7.3c0,0,0,0,0,0c0.5,2.3,1.1,5.4,0.8,7.3
					c-0.4,2.3-2.3,3.4-2.2,5.9c0.2,2.5,2.2,4.8,1.3,8.1c-0.8,3-2.3,5.1-2.5,8.2h4.3c0,0-0.3-2.4,0.1-5.4
					C178.4,164,177.9,160.4,176.9,157.2z"/>
			</g>
		</g>
		<g class="st0">
			<g>
				<g>
					<path class="st5" d="M222.2,122.2c-7.4,1.3-1.5,11.6,5,17c5.7,4.8,11.9,15.2,13.4,23.8c0.9,5.1-0.1,11.1-0.1,11.1l2.6,0
						c0,0,2.5-21.9-3.1-35.6C234.3,124.8,227.5,121.3,222.2,122.2z"/>
					<defs>
						<filter id="Adobe_OpacityMaskFilter_26_" filterUnits="userSpaceOnUse" x="218.8" y="122.1" width="24.9" height="52.1">
							<feFlood  style="flood-color:white;flood-opacity:1" result="back"/>
							<feBlend  in="SourceGraphic" in2="back" mode="normal"/>
						</filter>
					</defs>
					<mask maskUnits="userSpaceOnUse" x="218.8" y="122.1" width="24.9" height="52.1" id="SVGID_47_">
						<g class="st92">
							<defs>
								<filter id="Adobe_OpacityMaskFilter_27_" filterUnits="userSpaceOnUse" x="218.8" y="122.1" width="24.9" height="52.1">
									<feFlood  style="flood-color:white;flood-opacity:1" result="back"/>
									<feBlend  in="SourceGraphic" in2="back" mode="normal"/>
								</filter>
							</defs>
							<mask maskUnits="userSpaceOnUse" x="218.8" y="122.1" width="24.9" height="52.1" id="SVGID_47_">
								<g class="st93">
								</g>
							</mask>
							
								<linearGradient id="SVGID_48_" gradientUnits="userSpaceOnUse" x1="-13872.5498" y1="-436.0206" x2="-13881.5176" y2="-444.3382" gradientTransform="matrix(-0.9967 -8.090000e-002 -8.090000e-002 0.9967 -13633.6162 -536.5956)">
								<stop  offset="0" style="stop-color:#FFFFFF"/>
								<stop  offset="1" style="stop-color:#000000"/>
							</linearGradient>
							<path class="st94" d="M222.2,122.2c-7.4,1.3-1.5,11.6,5,17c5.7,4.8,11.9,15.2,13.4,23.8c0.9,5.1-0.1,11.1-0.1,11.1l2.6,0
								c0,0,2.5-21.9-3.1-35.6C234.3,124.8,227.5,121.3,222.2,122.2z"/>
						</g>
					</mask>
					
						<linearGradient id="SVGID_49_" gradientUnits="userSpaceOnUse" x1="-13872.5498" y1="-436.0206" x2="-13881.5176" y2="-444.3382" gradientTransform="matrix(-0.9967 -8.090000e-002 -8.090000e-002 0.9967 -13633.6162 -536.5956)">
						<stop  offset="0" style="stop-color:#BCC1E8"/>
						<stop  offset="1" style="stop-color:#BCC1E8"/>
					</linearGradient>
					<path class="st95" d="M222.2,122.2c-7.4,1.3-1.5,11.6,5,17c5.7,4.8,11.9,15.2,13.4,23.8c0.9,5.1-0.1,11.1-0.1,11.1l2.6,0
						c0,0,2.5-21.9-3.1-35.6C234.3,124.8,227.5,121.3,222.2,122.2z"/>
				</g>
				<g>
					<path class="st5" d="M227.2,139.3c-6-5.1-11.6-14.4-6.3-16.7l0.3,0.1c11.6,11.9,17.8,21.8,20.1,34.4
						c1.9,10.9,1.1,16.1,0.8,17.1l-1.6,0c0,0,1-5.9,0.1-11C239.1,154.5,232.9,144.1,227.2,139.3z"/>
					<defs>
						<filter id="Adobe_OpacityMaskFilter_28_" filterUnits="userSpaceOnUse" x="218.8" y="122.6" width="23.7" height="51.5">
							<feFlood  style="flood-color:white;flood-opacity:1" result="back"/>
							<feBlend  in="SourceGraphic" in2="back" mode="normal"/>
						</filter>
					</defs>
					<mask maskUnits="userSpaceOnUse" x="218.8" y="122.6" width="23.7" height="51.5" id="SVGID_50_">
						<g class="st96">
							<defs>
								<filter id="Adobe_OpacityMaskFilter_29_" filterUnits="userSpaceOnUse" x="218.8" y="122.6" width="23.7" height="51.5">
									<feFlood  style="flood-color:white;flood-opacity:1" result="back"/>
									<feBlend  in="SourceGraphic" in2="back" mode="normal"/>
								</filter>
							</defs>
							<mask maskUnits="userSpaceOnUse" x="218.8" y="122.6" width="23.7" height="51.5" id="SVGID_50_">
								<g class="st97">
								</g>
							</mask>
							
								<linearGradient id="SVGID_51_" gradientUnits="userSpaceOnUse" x1="-13874.1318" y1="-443.1479" x2="-13868.7588" y2="-459.7316" gradientTransform="matrix(-0.9967 -8.090000e-002 -8.090000e-002 0.9967 -13633.6162 -536.5956)">
								<stop  offset="0" style="stop-color:#FFFFFF"/>
								<stop  offset="1" style="stop-color:#000000"/>
							</linearGradient>
							<path class="st98" d="M227.2,139.3c-6-5.1-11.6-14.4-6.3-16.7l0.3,0.1c11.6,11.9,17.8,21.8,20.1,34.4
								c1.9,10.9,1.1,16.1,0.8,17.1l-1.6,0c0,0,1-5.9,0.1-11C239.1,154.5,232.9,144.1,227.2,139.3z"/>
						</g>
					</mask>
					
						<linearGradient id="SVGID_52_" gradientUnits="userSpaceOnUse" x1="-13874.1318" y1="-443.1479" x2="-13868.7588" y2="-459.7316" gradientTransform="matrix(-0.9967 -8.090000e-002 -8.090000e-002 0.9967 -13633.6162 -536.5956)">
						<stop  offset="0" style="stop-color:#BCC1E8"/>
						<stop  offset="1" style="stop-color:#BCC1E8"/>
					</linearGradient>
					<path class="st99" d="M227.2,139.3c-6-5.1-11.6-14.4-6.3-16.7l0.3,0.1c11.6,11.9,17.8,21.8,20.1,34.4
						c1.9,10.9,1.1,16.1,0.8,17.1l-1.6,0c0,0,1-5.9,0.1-11C239.1,154.5,232.9,144.1,227.2,139.3z"/>
				</g>
			</g>
			<g>
				<g>
					<path class="st5" d="M245.7,174.1c0.9-12.2,7.6-21.7,18.7-28.8s15.8,4,9.7,9.1c-6.2,5.1-17.2,8-22.1,14.1
						c-2.5,3-2.9,5.7-2.9,5.7L245.7,174.1z"/>
					<defs>
						<filter id="Adobe_OpacityMaskFilter_30_" filterUnits="userSpaceOnUse" x="245.7" y="143" width="31.1" height="31.2">
							<feFlood  style="flood-color:white;flood-opacity:1" result="back"/>
							<feBlend  in="SourceGraphic" in2="back" mode="normal"/>
						</filter>
					</defs>
					<mask maskUnits="userSpaceOnUse" x="245.7" y="143" width="31.1" height="31.2" id="SVGID_53_">
						<g class="st100">
							<defs>
								<filter id="Adobe_OpacityMaskFilter_31_" filterUnits="userSpaceOnUse" x="245.7" y="143" width="31.1" height="31.2">
									<feFlood  style="flood-color:white;flood-opacity:1" result="back"/>
									<feBlend  in="SourceGraphic" in2="back" mode="normal"/>
								</filter>
							</defs>
							<mask maskUnits="userSpaceOnUse" x="245.7" y="143" width="31.1" height="31.2" id="SVGID_53_">
								<g class="st101">
								</g>
							</mask>
							
								<linearGradient id="SVGID_54_" gradientUnits="userSpaceOnUse" x1="-14205.0449" y1="158.2707" x2="-14201.6025" y2="151.8513" gradientTransform="matrix(-1 0 0 1 -13945.0303 0)">
								<stop  offset="0" style="stop-color:#FFFFFF"/>
								<stop  offset="1" style="stop-color:#000000"/>
							</linearGradient>
							<path class="st102" d="M245.7,174.1c0.9-12.2,7.6-21.7,18.7-28.8s15.8,4,9.7,9.1c-6.2,5.1-17.2,8-22.1,14.1
								c-2.5,3-2.9,5.7-2.9,5.7L245.7,174.1z"/>
						</g>
					</mask>
					
						<linearGradient id="SVGID_55_" gradientUnits="userSpaceOnUse" x1="-14205.0449" y1="158.2707" x2="-14201.6025" y2="151.8513" gradientTransform="matrix(-1 0 0 1 -13945.0303 0)">
						<stop  offset="0" style="stop-color:#BCC1E8"/>
						<stop  offset="1" style="stop-color:#BCC1E8"/>
					</linearGradient>
					<path class="st103" d="M245.7,174.1c0.9-12.2,7.6-21.7,18.7-28.8s15.8,4,9.7,9.1c-6.2,5.1-17.2,8-22.1,14.1
						c-2.5,3-2.9,5.7-2.9,5.7L245.7,174.1z"/>
				</g>
				<g>
					<path class="st5" d="M276.6,147c-8.8,3-18.2,7.8-22.8,13.1c-2.3,2.7-5,8.4-7.1,14c0.7,0.1,2.4,0,2.5,0c1-2.6,1.9-4.5,2.8-5.6
						c5-6.1,16-9.1,22.1-14.1C276.6,152.4,277.3,149.4,276.6,147z"/>
					<defs>
						<filter id="Adobe_OpacityMaskFilter_32_" filterUnits="userSpaceOnUse" x="246.7" y="147" width="30.1" height="27.2">
							<feFlood  style="flood-color:white;flood-opacity:1" result="back"/>
							<feBlend  in="SourceGraphic" in2="back" mode="normal"/>
						</filter>
					</defs>
					<mask maskUnits="userSpaceOnUse" x="246.7" y="147" width="30.1" height="27.2" id="SVGID_56_">
						<g class="st104">
							<defs>
								<filter id="Adobe_OpacityMaskFilter_33_" filterUnits="userSpaceOnUse" x="246.7" y="147" width="30.1" height="27.2">
									<feFlood  style="flood-color:white;flood-opacity:1" result="back"/>
									<feBlend  in="SourceGraphic" in2="back" mode="normal"/>
								</filter>
							</defs>
							<mask maskUnits="userSpaceOnUse" x="246.7" y="147" width="30.1" height="27.2" id="SVGID_56_">
								<g class="st105">
								</g>
							</mask>
							<linearGradient id="SVGID_57_" gradientUnits="userSpaceOnUse" x1="261.8842" y1="161.3526" x2="269.0671" y2="147.9573">
								<stop  offset="0" style="stop-color:#FFFFFF"/>
								<stop  offset="1" style="stop-color:#000000"/>
							</linearGradient>
							<path class="st106" d="M276.6,147c-8.8,3-18.2,7.8-22.8,13.1c-2.3,2.7-5,8.4-7.1,14c0.7,0.1,2.4,0,2.5,0
								c1-2.6,1.9-4.5,2.8-5.6c5-6.1,16-9.1,22.1-14.1C276.6,152.4,277.3,149.4,276.6,147z"/>
						</g>
					</mask>
					<linearGradient id="SVGID_58_" gradientUnits="userSpaceOnUse" x1="261.8842" y1="161.3526" x2="269.0671" y2="147.9573">
						<stop  offset="0" style="stop-color:#BCC1E8"/>
						<stop  offset="1" style="stop-color:#BCC1E8"/>
					</linearGradient>
					<path class="st107" d="M276.6,147c-8.8,3-18.2,7.8-22.8,13.1c-2.3,2.7-5,8.4-7.1,14c0.7,0.1,2.4,0,2.5,0c1-2.6,1.9-4.5,2.8-5.6
						c5-6.1,16-9.1,22.1-14.1C276.6,152.4,277.3,149.4,276.6,147z"/>
				</g>
			</g>
			<g>
				<g>
					<path class="st5" d="M233.4,174.2c0,0-4.9-15.3-3.8-19.3c1.1-4,1.2-10.4-4.4-15.4c-5.5-5.1-12.6-6-15.3-4.7s-2.8,6.7,2.1,12
						c4.9,5.3,12.8,13,14.1,16.5c1.3,3.5,4.2,10.9,4.2,10.9H233.4z"/>
					<defs>
						<filter id="Adobe_OpacityMaskFilter_34_" filterUnits="userSpaceOnUse" x="208.1" y="134.2" width="25.3" height="39.9">
							<feFlood  style="flood-color:white;flood-opacity:1" result="back"/>
							<feBlend  in="SourceGraphic" in2="back" mode="normal"/>
						</filter>
					</defs>
					<mask maskUnits="userSpaceOnUse" x="208.1" y="134.2" width="25.3" height="39.9" id="SVGID_59_">
						<g class="st108">
							<defs>
								<filter id="Adobe_OpacityMaskFilter_35_" filterUnits="userSpaceOnUse" x="208.1" y="134.2" width="25.3" height="39.9">
									<feFlood  style="flood-color:white;flood-opacity:1" result="back"/>
									<feBlend  in="SourceGraphic" in2="back" mode="normal"/>
								</filter>
							</defs>
							<mask maskUnits="userSpaceOnUse" x="208.1" y="134.2" width="25.3" height="39.9" id="SVGID_59_">
								<g class="st109">
								</g>
							</mask>
							
								<linearGradient id="SVGID_60_" gradientUnits="userSpaceOnUse" x1="-13841.6865" y1="156.4538" x2="-13849.3066" y2="149.3863" gradientTransform="matrix(-1 0 0 1 -13622.3076 0)">
								<stop  offset="0" style="stop-color:#FFFFFF"/>
								<stop  offset="1" style="stop-color:#000000"/>
							</linearGradient>
							<path class="st110" d="M233.4,174.2c0,0-4.9-15.3-3.8-19.3c1.1-4,1.2-10.4-4.4-15.4c-5.5-5.1-12.6-6-15.3-4.7
								s-2.8,6.7,2.1,12c4.9,5.3,12.8,13,14.1,16.5c1.3,3.5,4.2,10.9,4.2,10.9H233.4z"/>
						</g>
					</mask>
					
						<linearGradient id="SVGID_61_" gradientUnits="userSpaceOnUse" x1="-13841.6865" y1="156.4538" x2="-13849.3066" y2="149.3863" gradientTransform="matrix(-1 0 0 1 -13622.3076 0)">
						<stop  offset="0" style="stop-color:#BCC1E8"/>
						<stop  offset="1" style="stop-color:#BCC1E8"/>
					</linearGradient>
					<path class="st111" d="M233.4,174.2c0,0-4.9-15.3-3.8-19.3c1.1-4,1.2-10.4-4.4-15.4c-5.5-5.1-12.6-6-15.3-4.7s-2.8,6.7,2.1,12
						c4.9,5.3,12.8,13,14.1,16.5c1.3,3.5,4.2,10.9,4.2,10.9H233.4z"/>
				</g>
				<g>
					<path class="st5" d="M213.1,134.2c3.2,5.6,6.2,12,8.5,16.3c2.4,4.5,7.3,17.2,7.3,17.2l-1.6-1.2c-0.5-1.2-0.9-2.3-1.3-3.2
						c-1.3-3.5-9.2-11.1-14.1-16.5c-4.9-5.3-4.7-10.8-2.1-12C210.6,134.3,211.7,134.2,213.1,134.2z"/>
					<defs>
						<filter id="Adobe_OpacityMaskFilter_36_" filterUnits="userSpaceOnUse" x="208.1" y="134.2" width="20.9" height="33.5">
							<feFlood  style="flood-color:white;flood-opacity:1" result="back"/>
							<feBlend  in="SourceGraphic" in2="back" mode="normal"/>
						</filter>
					</defs>
					<mask maskUnits="userSpaceOnUse" x="208.1" y="134.2" width="20.9" height="33.5" id="SVGID_62_">
						<g class="st112">
							<defs>
								<filter id="Adobe_OpacityMaskFilter_37_" filterUnits="userSpaceOnUse" x="208.1" y="134.2" width="20.9" height="33.5">
									<feFlood  style="flood-color:white;flood-opacity:1" result="back"/>
									<feBlend  in="SourceGraphic" in2="back" mode="normal"/>
								</filter>
							</defs>
							<mask maskUnits="userSpaceOnUse" x="208.1" y="134.2" width="20.9" height="33.5" id="SVGID_62_">
								<g class="st113">
								</g>
							</mask>
							
								<linearGradient id="SVGID_63_" gradientUnits="userSpaceOnUse" x1="-13841.0381" y1="150.6326" x2="-13842.3721" y2="137.6645" gradientTransform="matrix(-1 0 0 1 -13622.3076 0)">
								<stop  offset="0" style="stop-color:#FFFFFF"/>
								<stop  offset="1" style="stop-color:#000000"/>
							</linearGradient>
							<path class="st114" d="M213.1,134.2c3.2,5.6,6.2,12,8.5,16.3c2.4,4.5,7.3,17.2,7.3,17.2l-1.6-1.2c-0.5-1.2-0.9-2.3-1.3-3.2
								c-1.3-3.5-9.2-11.1-14.1-16.5c-4.9-5.3-4.7-10.8-2.1-12C210.6,134.3,211.7,134.2,213.1,134.2z"/>
						</g>
					</mask>
					
						<linearGradient id="SVGID_64_" gradientUnits="userSpaceOnUse" x1="-13841.0381" y1="150.6326" x2="-13842.3721" y2="137.6645" gradientTransform="matrix(-1 0 0 1 -13622.3076 0)">
						<stop  offset="0" style="stop-color:#BCC1E8"/>
						<stop  offset="1" style="stop-color:#BCC1E8"/>
					</linearGradient>
					<path class="st115" d="M213.1,134.2c3.2,5.6,6.2,12,8.5,16.3c2.4,4.5,7.3,17.2,7.3,17.2l-1.6-1.2c-0.5-1.2-0.9-2.3-1.3-3.2
						c-1.3-3.5-9.2-11.1-14.1-16.5c-4.9-5.3-4.7-10.8-2.1-12C210.6,134.3,211.7,134.2,213.1,134.2z"/>
				</g>
			</g>
			<g>
				<path class="st5" d="M226.8,174.2c0,0-2.6-11.2-10.2-18.5c-7.6-7.3-14.1-9-15.2-7.4c-1.2,1.6,21.7,25.9,21.7,25.9L226.8,174.2z"
					/>
				<defs>
					<filter id="Adobe_OpacityMaskFilter_38_" filterUnits="userSpaceOnUse" x="201.3" y="147.8" width="25.5" height="26.4">
						<feFlood  style="flood-color:white;flood-opacity:1" result="back"/>
						<feBlend  in="SourceGraphic" in2="back" mode="normal"/>
					</filter>
				</defs>
				<mask maskUnits="userSpaceOnUse" x="201.3" y="147.8" width="25.5" height="26.4" id="SVGID_65_">
					<g class="st116">
						<defs>
							<filter id="Adobe_OpacityMaskFilter_39_" filterUnits="userSpaceOnUse" x="201.3" y="147.8" width="25.5" height="26.4">
								<feFlood  style="flood-color:white;flood-opacity:1" result="back"/>
								<feBlend  in="SourceGraphic" in2="back" mode="normal"/>
							</filter>
						</defs>
						<mask maskUnits="userSpaceOnUse" x="201.3" y="147.8" width="25.5" height="26.4" id="SVGID_65_">
							<g class="st117">
							</g>
						</mask>
						
							<linearGradient id="SVGID_66_" gradientUnits="userSpaceOnUse" x1="-862.201" y1="3496.1467" x2="-855.5215" y2="3493.7107" gradientTransform="matrix(0.8859 -0.4639 0.4639 0.8859 -645.4543 -3334.334)">
							<stop  offset="0" style="stop-color:#FFFFFF"/>
							<stop  offset="1" style="stop-color:#000000"/>
						</linearGradient>
						<path class="st118" d="M226.8,174.2c0,0-2.6-11.2-10.2-18.5c-7.6-7.3-14.1-9-15.2-7.4c-1.2,1.6,21.7,25.9,21.7,25.9
							L226.8,174.2z"/>
					</g>
				</mask>
				
					<linearGradient id="SVGID_67_" gradientUnits="userSpaceOnUse" x1="-862.201" y1="3496.1467" x2="-855.5215" y2="3493.7107" gradientTransform="matrix(0.8859 -0.4639 0.4639 0.8859 -645.4543 -3334.334)">
					<stop  offset="0" style="stop-color:#BCC1E8"/>
					<stop  offset="1" style="stop-color:#BCC1E8"/>
				</linearGradient>
				<path class="st119" d="M226.8,174.2c0,0-2.6-11.2-10.2-18.5c-7.6-7.3-14.1-9-15.2-7.4c-1.2,1.6,21.7,25.9,21.7,25.9L226.8,174.2
					z"/>
			</g>
		</g>
	</g>
	<path class="st120" d="M52.3,25.8c-1.2,0-2.2-1-2.2-2.2c0-1.2,1-2.2,2.2-2.2c0.1,0,0.1,0,0.2,0c0.4-1.3,1.6-2.2,3.1-2.2
		c1.4,0,2.6,0.9,3.1,2.2c0.1,0,0.2,0,0.3,0c0.3,0,0.7,0.1,1,0.2c0.5-0.9,1.4-1.5,2.5-1.5c1.5,0,2.8,1.2,2.8,2.8
		c0,1.5-1.2,2.8-2.8,2.8H52.3z"/>
	<path class="st120" d="M39.1,60.4c2.5,0,4.5-2,4.5-4.5s-2-4.5-4.5-4.5c-0.5,0-1.1,0.1-1.5,0.3c-0.8-3-3.5-5.2-6.8-5.2
		c-3.1,0-5.8,2.1-6.7,4.9c-0.7-0.4-1.6-0.7-2.5-0.7c-2.7,0-4.9,2.2-4.9,4.9c0,2.7,2.2,4.9,4.9,4.9H39.1z"/>
	<path class="st120" d="M267.4,49.3c2.1,0,3.8-1.7,3.8-3.8c0-2.1-1.7-3.8-3.8-3.8c-0.5,0-0.9,0.1-1.3,0.2c-0.7-2.5-2.9-4.3-5.6-4.3
		c-2.6,0-4.8,1.7-5.6,4.1c-0.6-0.4-1.3-0.6-2.1-0.6c-2.2,0-4.1,1.8-4.1,4.1c0,2.2,1.8,4.1,4.1,4.1H267.4z"/>
	<g>
		<g>
			
				<rect x="150.7" y="12.8" transform="matrix(-0.9482 0.3175 -0.3175 -0.9482 323.1297 7.3346)" class="st39" width="20.6" height="34.5"/>
			
				<rect x="168.4" y="38.9" transform="matrix(-0.9482 0.3175 -0.3175 -0.9482 345.6944 25.0897)" class="st5" width="4.9" height="3.7"/>
			
				<rect x="161.2" y="33.4" transform="matrix(-0.9483 0.3175 -0.3175 -0.9483 327.2383 23.2848)" class="st121" width="1" height="9.9"/>
			
				<rect x="158.7" y="34.2" transform="matrix(-0.9483 0.3175 -0.3175 -0.9483 322.6248 25.7141)" class="st121" width="1" height="9.9"/>
			
				<rect x="156.1" y="35.1" transform="matrix(-0.9482 0.3175 -0.3175 -0.9482 317.8754 28.2118)" class="st121" width="1" height="9.9"/>
			
				<rect x="163.3" y="13.6" transform="matrix(-0.9482 0.3175 -0.3175 -0.9482 324.9727 -15.9081)" class="st121" width="1" height="9.9"/>
			
				<rect x="160.8" y="14.4" transform="matrix(-0.9482 0.3175 -0.3175 -0.9482 320.3593 -13.4787)" class="st121" width="1" height="9.9"/>
		</g>
		<g>
			<path class="st56" d="M114.3,25.6c0,0-5.8-5.2-7.6-3.3c-2.2,2.3,3.4,4.9,3.4,4.9s-5.9-2.4-6.3,0.4c-0.4,2.8,5.1,2.5,5.1,2.5
				s-4.9,1.2-3.9,3.8c0.8,2,4.7,0.4,6.8-0.6c0.8-0.4,1.8-0.4,2.7,0.1c2.1,1.2,6.8,3.4,12.6,3c8-0.5,9.7-3.4,12.3-4
				c2.6-0.5,5.2,0.1,7.9-0.4c2.7-0.4,3.8-3.8,0.7-5.5c-2.5-1.3-9-2.6-17.9-2.5S114.3,25.6,114.3,25.6z"/>
			<polygon class="st44" points="148.3,30 149.3,28 152.4,30.3 148.6,31.5 			"/>
			<circle cx="146" cy="29.2" r="1.1"/>
			<path class="st122" d="M119.9,29.9c0,0-0.4-10.2-0.2-15.3c0.1-5.1,1.3-6.6,2.2-6c0.9,0.7,1.9,8.8,1.9,8.8s-0.5-11.2,1.7-11.2
				s2.6,10.3,2.6,10.3s-0.1-9,1.8-9c1.9,0,2.8,7.8,3.8,13.6c1,5.8,1,8.7,1,8.7s-2.5,1.7-7,1.6C123.1,31.2,119.9,29.9,119.9,29.9z"/>
			<polygon class="st40" points="148.3,30 152.4,30.3 148.6,31.5 			"/>
		</g>
	</g>
</g>
<path class="st123" d="M2.6,171.4h274.8c0.5,0,0.9-0.4,0.9-0.9c0-0.5-0.4-0.9-0.9-0.9H2.6c-0.5,0-0.9,0.4-0.9,0.9
	C1.7,171,2.1,171.4,2.6,171.4z"/>
</svg>
