<?xml version="1.0" encoding="utf-8"?>
<!-- Generator: Adobe Illustrator 19.2.1, SVG Export Plug-In . SVG Version: 6.00 Build 0)  -->
<svg version="1.1" id="Layer_1" xmlns="http://www.w3.org/2000/svg" xmlns:xlink="http://www.w3.org/1999/xlink" x="0px" y="0px"
	 viewBox="0 0 270.4 176.8" style="enable-background:new 0 0 270.4 176.8;" xml:space="preserve">
<style type="text/css">
	.st0{fill:#46ACC3;}
	.st1{fill:#F29D7E;}
	.st2{opacity:0.7;fill:#CBC7FF;}
	.st3{fill:#2B7894;}
	.st4{fill:#035E80;}
	.st5{fill:#32997E;}
	.st6{opacity:9.000000e-002;fill:#F9FFA1;}
	.st7{fill:#BCE1E9;}
	.st8{fill:url(#SVGID_1_);}
	.st9{fill:#FCFBE9;}
	.st10{opacity:0.72;fill:url(#SVGID_2_);}
	.st11{fill:#FFFFFF;}
	.st12{fill:url(#SVGID_3_);}
	.st13{fill:url(#SVGID_4_);}
	.st14{fill:#FCC14A;}
	.st15{fill:#337D98;}
	.st16{fill:#7AC4B2;}
	.st17{fill:#E85F5B;}
	.st18{fill:url(#SVGID_5_);}
	.st19{fill:#9C5F2D;}
	.st20{fill:#D28D54;}
	.st21{fill:#60423A;}
	.st22{fill:#7ABA8E;}
	.st23{fill:#41B093;}
	.st24{opacity:0.49;fill:#7AC4B2;}
	.st25{fill:#597A86;}
	.st26{fill:#F2F2F2;}
	.st27{fill:#184657;}
	.st28{fill:#FAF8DC;}
	.st29{opacity:0.72;fill:url(#SVGID_6_);}
	.st30{opacity:0.72;fill:url(#SVGID_7_);}
	.st31{fill:url(#SVGID_8_);}
	.st32{opacity:0.21;fill:#FFFFFF;}
	.st33{fill:#99A3A6;}
	.st34{fill:url(#SVGID_9_);}
	.st35{opacity:0.58;fill:#CBC7FF;}
	.st36{fill:#CBC7FF;}
	.st37{fill:#ED6D53;}
	.st38{fill:#BD422A;}
	.st39{fill:#C3B9DD;}
	.st40{fill:#FDD98F;}
	.st41{opacity:0.26;fill:#CBC7FF;}
	.st42{fill:#495A60;}
	.st43{opacity:0.4;fill:#FFFFFF;}
	.st44{fill:#0D232B;}
	.st45{fill:#FDFCEF;}
	.st46{opacity:0.72;fill:url(#SVGID_10_);}
	.st47{fill:url(#SVGID_11_);}
	.st48{fill:#F18A75;}
	.st49{fill:#F18974;}
	.st50{opacity:0.67;fill:#FFFFFF;}
	.st51{fill:#2E7996;}
	.st52{opacity:0.72;fill:url(#SVGID_12_);}
	.st53{opacity:0.72;fill:url(#SVGID_13_);}
	.st54{opacity:0.49;fill:url(#SVGID_14_);}
	.st55{fill:#265161;}
	.st56{fill:url(#SVGID_15_);}
</style>
<title>travel-1</title>
<g>
	<ellipse class="st0" cx="140.6" cy="52.7" rx="48.9" ry="51.2"/>
	<ellipse class="st0" cx="186" cy="108.2" rx="76.3" ry="68.4"/>
	<path class="st1" d="M204.6,90.7c0,0,2.9,8.9,4.6,11.2c1.7,2.3,4.5,2.6,7,1.6l-2.6-4.8l-1,0.3l-4.9-8.5L204.6,90.7z"/>
	<path class="st2" d="M204.6,90.7c0,0,2.9,8.9,4.6,11.2c1.7,2.3,4.5,2.6,7,1.6l-2.6-4.8l-1,0.3l-4.9-8.5L204.6,90.7z"/>
	<g>
		<path class="st3" d="M183.6,127.3c-1.2-1.8,8.1-19,10.3-19c0.8,0,1.8,0.5,6.1,8.1c5.2,9.1,8.3,14.8-1.5,9.6
			c6,6.3,11.6,16.4,10.5,17.8c-0.4,0.5-2-0.3-5.2-1.9c-5.8-2.9-2.7-2.6,2.6,6.2c9.7,16.1,5.3,15.6-11.3,6.8
			c-16.9,10.3-20.7,10.4-13-3.9c6.1-11.3,7.7-9.7,0.6-7.2c-4.9,1.7-6.1,1.8,1-9.5c2.3-3.6,4.4-6.4,5.9-8.4
			C185.3,128.4,184.1,127.9,183.6,127.3z"/>
		<path class="st4" d="M194.5,110.8c0.9,4.1-0.7,9.6,0.5,15.7c2.6,12.3-0.7,12.7,1.9,26c0.9,4.7,1.4,16.9,1.6,21.7
			c-1.6,1.7-5.7,0.7-6.9-0.1c0.3-5,1-16.5,0.6-21.4c-1.2-14.6,2.3-12.8,0.8-26.8c-0.3-3.5,0.5-6.5,1.1-11
			C194.7,110.4,194,110.9,194.5,110.8z"/>
	</g>
	<g>
		<path class="st5" d="M124.7,156.4c1,0.8,1.6,2.2,1.3,3.6c0,0,0,0,0,0c-0.6,4,1.8,8,5.5,8.8c0,0,0.1,0,0.1,0c0.4,0.1,0.7,0.5,0.6,1
			l0,0c-0.3,1.9-0.1,3.7,0.5,5.4h51.1c0.2-2,0.1-3.9-0.1-5.8c-0.5-3.5,0.5-6.9,2.7-9.4c1.4-1.6,2.5-3.8,2.8-6.2c0.5-3-0.2-6-1.5-8.4
			c-1-1.9-1.1-4.2-0.2-6.1c0.8-1.6,1.3-3.3,1.6-5.2c0.8-5.1-0.7-10.2-3.5-13.9c-1.5-2-2-4.6-1.3-7c0.2-0.6,0.3-1.2,0.4-1.8
			c0.7-4.5-1.1-8.9-4.3-11.5c-1.8-1.5-2.6-4.2-1.7-6.4c0.4-1.1,0.8-2.2,1-3.3c1.1-7.2-3.3-14.1-9.7-15.5l0,0
			c-0.9-0.2-1.6-1.2-1.4-2.3c0,0,0-0.1,0-0.1c1.4-9.2-4.3-18.1-12.6-19.7c-7.8-1.5-15.5,4.5-16.8,13.2c-0.3,2.1-0.3,4.2,0.1,6.1
			c0.8,4.4-1.1,8.7-4.7,10.5c-6.2,3-10.9,9.3-12.1,17.4c-0.8,5.1,0,10.2,1.9,14.6c1.7,3.9,0.9,8.5-1.9,11.3
			c-2.7,2.7-4.7,6.5-5.3,10.9C116,144.5,119.2,152.1,124.7,156.4z"/>
		<path class="st6" d="M126,164.1C126,164.1,126,164.1,126,164.1c-0.4,3.6,2.5,6.9,6.5,7.4c0,0,0.1,0,0.1,0c0.5,0,0.8,0.4,0.7,0.8
			l0,0c-0.1,1,0,2,0.2,2.9h56.4c0-0.1,0-0.2,0-0.3c0.3-2.3,0.1-4.5-0.4-6.6c-0.8-3,0.1-6.2,2.3-8.5c1.5-1.5,2.4-3.5,2.7-5.7
			c0.3-2.7-0.6-5.3-2.2-7.3c-1.3-1.6-1.5-3.6-0.6-5.3c0.8-1.4,1.2-3,1.4-4.7c0.5-4.6-1.4-8.9-4.8-12c-1.8-1.6-2.5-3.9-1.9-6.1
			c0.2-0.5,0.3-1,0.3-1.6c0.4-4-1.8-7.8-5.5-9.8c-2.1-1.2-3.1-3.5-2.2-5.5c0.4-1,0.7-2,0.8-3c0.7-6.4-4.5-12.2-11.6-13l0,0
			c-1-0.1-1.8-1-1.7-1.9c0,0,0-0.1,0-0.1c0.9-8.2-5.9-15.7-15.1-16.5c-8.6-0.8-16.6,5.1-17.4,12.9c-0.2,1.9,0,3.7,0.5,5.4
			c1.2,3.8-0.6,7.8-4.4,9.6c-6.5,3.1-11.3,9-12,16.3c-0.5,4.6,0.7,9,3,12.8c2.1,3.3,1.5,7.4-1.3,10.1c-2.8,2.6-4.7,6.1-5.1,10
			c-0.8,7,3.2,13.5,9.6,16.9C125.4,161.7,126.1,162.9,126,164.1z"/>
	</g>
	<path class="st7" d="M69.1,45.9c2.4,0,4.4-2,4.4-4.4s-2-4.4-4.4-4.4c-0.5,0-1,0.1-1.5,0.3c-0.8-2.9-3.4-5-6.5-5c-3,0-5.6,2-6.4,4.7
		c-0.7-0.4-1.5-0.7-2.4-0.7c-2.6,0-4.7,2.1-4.7,4.7c0,2.6,2.1,4.7,4.7,4.7H69.1z"/>
	<g>
		<path class="st5" d="M33.5,158.5c1,0.8,1.5,2.1,1.3,3.4c0,0,0,0,0,0c-0.6,3.8,1.7,7.5,5.1,8.3c0,0,0.1,0,0.1,0
			c0.4,0.1,0.7,0.5,0.6,0.9l0,0c-0.3,1.8-0.1,3.6,0.4,5.2h48c0.2-1.9,0.1-3.7-0.1-5.5c-0.4-3.3,0.5-6.6,2.5-8.9
			c1.4-1.5,2.3-3.6,2.7-5.9c0.4-2.9-0.1-5.7-1.4-8c-1-1.8-1.1-4-0.2-5.7c0.7-1.5,1.3-3.2,1.5-4.9c0.7-4.9-0.6-9.7-3.3-13.2
			c-1.4-1.9-1.9-4.4-1.2-6.6c0.2-0.5,0.3-1.1,0.4-1.7c0.6-4.3-1.1-8.5-4.1-10.9c-1.7-1.4-2.4-3.9-1.6-6.1c0.4-1,0.7-2.1,0.9-3.2
			c1-6.8-3.1-13.4-9.1-14.7l0,0c-0.9-0.2-1.5-1.2-1.3-2.2c0,0,0-0.1,0-0.1C76,70,70.7,61.5,62.9,60c-7.3-1.4-14.5,4.3-15.8,12.5
			c-0.3,2-0.3,4,0.1,5.8c0.8,4.1-1.1,8.3-4.4,10c-5.8,2.9-10.2,8.9-11.4,16.5c-0.7,4.9,0,9.7,1.8,13.8c1.6,3.7,0.8,8.1-1.8,10.7
			c-2.6,2.6-4.4,6.2-5,10.3C25.4,147.2,28.3,154.4,33.5,158.5z"/>
		<path class="st6" d="M89.6,165.8C89.6,165.8,89.6,165.8,89.6,165.8c0.3,3.5-2.2,6.6-5.6,7c0,0-0.1,0-0.1,0c-0.4,0-0.7,0.4-0.6,0.8
			l0,0c0.1,1,0,1.9-0.2,2.8H34.5c0-0.1,0-0.2,0-0.3c-0.2-2.1-0.1-4.3,0.4-6.3c0.7-2.9-0.1-5.9-2-8.1c-1.3-1.5-2.1-3.3-2.3-5.4
			c-0.3-2.6,0.5-5,1.9-7c1.1-1.5,1.3-3.4,0.5-5.1c-0.6-1.4-1.1-2.9-1.2-4.5c-0.4-4.4,1.2-8.5,4.1-11.4c1.5-1.5,2.2-3.7,1.6-5.8
			c-0.1-0.5-0.2-1-0.3-1.5c-0.4-3.8,1.6-7.4,4.7-9.3c1.8-1.1,2.7-3.3,1.9-5.3c-0.3-0.9-0.6-1.9-0.7-2.8c-0.6-6.1,3.9-11.6,10-12.4
			l0,0c0.9-0.1,1.6-0.9,1.5-1.8c0,0,0-0.1,0-0.1c-0.8-7.8,5.1-14.9,13-15.6c7.4-0.7,14.3,4.9,15,12.2c0.2,1.8,0,3.5-0.4,5.1
			c-1,3.6,0.5,7.4,3.8,9.1c5.6,3,9.7,8.6,10.4,15.4c0.4,4.3-0.6,8.5-2.6,12.1c-1.8,3.1-1.3,7.1,1.1,9.6c2.4,2.5,4,5.8,4.4,9.5
			c0.6,6.6-2.8,12.8-8.3,16C90.1,163.5,89.5,164.6,89.6,165.8z"/>
	</g>
	<g>
		<linearGradient id="SVGID_1_" gradientUnits="userSpaceOnUse" x1="106.8795" y1="49.7375" x2="106.8795" y2="41.9779">
			<stop  offset="0" style="stop-color:#D6B88D"/>
			<stop  offset="1" style="stop-color:#E6E5CE"/>
		</linearGradient>
		<path class="st8" d="M67,45.8c0-2.5,2.1-4.5,4.5-4.5h75.3v22.9H67V45.8z"/>
		<path class="st9" d="M67,45.8v129.3h90.3V50.3H71.6C69.1,50.3,67,48.3,67,45.8z"/>
		<linearGradient id="SVGID_2_" gradientUnits="userSpaceOnUse" x1="67.412" y1="110.4783" x2="68.9197" y2="110.4783">
			<stop  offset="0" style="stop-color:#CBC7FF"/>
			<stop  offset="1" style="stop-color:#FFFFFF"/>
		</linearGradient>
		<path class="st10" d="M67,45.8v129.3h4.6V50.3C69.1,50.3,67,48.3,67,45.8z"/>
		<path class="st11" d="M157.3,50.6H71.5c-2.7,0-4.8-2.2-4.8-4.8c0-2.7,2.2-4.8,4.8-4.8h75.3v0.7H71.5c-2.3,0-4.2,1.9-4.2,4.2
			c0,2.3,1.9,4.2,4.2,4.2h85.8V50.6z"/>
		<linearGradient id="SVGID_3_" gradientUnits="userSpaceOnUse" x1="110.8419" y1="48.3173" x2="110.8419" y2="44.9569">
			<stop  offset="0" style="stop-color:#D6B88D"/>
			<stop  offset="1" style="stop-color:#E6E5CE"/>
		</linearGradient>
		<path class="st12" d="M74.2,47h74.5v-2.8H74.2c-0.6,0-1.1,0.5-1.1,1.1v0.5C73,46.5,73.5,47,74.2,47z"/>
		<linearGradient id="SVGID_4_" gradientUnits="userSpaceOnUse" x1="112.2075" y1="52.3594" x2="112.2075" y2="47.111">
			<stop  offset="0" style="stop-color:#D6B88D"/>
			<stop  offset="1" style="stop-color:#E6E5CE"/>
		</linearGradient>
		<polygon class="st13" points="152,50 72.4,50 72.4,45.8 73.5,47 152,47 		"/>
		<path class="st11" d="M152,47.7H75.3c-2,0-3-0.6-3-1.9c0-1.3,0.9-1.9,3-1.9h73.3v0.7H75.3c-2.3,0-2.3,0.8-2.3,1.2
			c0,0.4,0,1.2,2.3,1.2H152V47.7z"/>
	</g>
	<path class="st7" d="M96.5,22.7c-1,0-1.8-0.8-1.8-1.8c0-1,0.8-1.8,1.8-1.8c0.1,0,0.1,0,0.2,0c0.4-1.1,1.4-1.8,2.5-1.8
		c1.2,0,2.2,0.8,2.5,1.8c0.1,0,0.1,0,0.2,0c0.3,0,0.6,0.1,0.8,0.2c0.4-0.7,1.2-1.2,2-1.2c1.3,0,2.3,1,2.3,2.3c0,1.3-1,2.3-2.3,2.3
		H96.5z"/>
	<path class="st7" d="M183,32.2c2.9,0,5.2-2.3,5.2-5.2c0-2.9-2.3-5.2-5.2-5.2c-0.6,0-1.2,0.1-1.8,0.3c-0.9-3.5-4.1-6-7.8-6
		c-3.6,0-6.7,2.4-7.7,5.7c-0.8-0.5-1.8-0.8-2.9-0.8c-3.1,0-5.7,2.5-5.7,5.7s2.5,5.7,5.7,5.7H183z"/>
	<g>
		<rect x="80.4" y="85.6" class="st14" width="28" height="28.8"/>
		
			<rect x="103.7" y="85.6" transform="matrix(-1 -1.224647e-016 1.224647e-016 -1 251.962 248.5541)" class="st15" width="44.6" height="77.4"/>
		<rect x="80.4" y="118.6" class="st16" width="28" height="9.4"/>
		<rect x="80.4" y="134.1" class="st17" width="28" height="28.8"/>
		<g>
			<rect x="85.4" y="90" class="st11" width="14.9" height="0.8"/>
			<rect x="85.4" y="93.8" class="st11" width="14.9" height="0.8"/>
			<rect x="85.4" y="97.6" class="st11" width="14.9" height="0.8"/>
			<rect x="85.4" y="101.3" class="st11" width="14.9" height="0.8"/>
			<rect x="85.4" y="105.1" class="st11" width="14.9" height="0.8"/>
			<rect x="85.4" y="108.9" class="st11" width="14.9" height="0.8"/>
		</g>
		<g>
			<rect x="85.4" y="138.5" class="st11" width="18.7" height="0.8"/>
			<rect x="85.4" y="142.3" class="st11" width="18.7" height="0.8"/>
			<rect x="85.4" y="146.1" class="st11" width="18.7" height="0.8"/>
			<rect x="85.4" y="149.8" class="st11" width="18.7" height="0.8"/>
			<rect x="85.4" y="153.6" class="st11" width="18.7" height="0.8"/>
			<rect x="85.4" y="157.4" class="st11" width="18.7" height="0.8"/>
		</g>
	</g>
	<g>
		
			<linearGradient id="SVGID_5_" gradientUnits="userSpaceOnUse" x1="2745.9128" y1="170.5228" x2="2759.9307" y2="170.5228" gradientTransform="matrix(-1 0 0 1 2831.9067 0)">
			<stop  offset="3.766030e-003" style="stop-color:#D6925A"/>
			<stop  offset="0.3296" style="stop-color:#C37B40"/>
			<stop  offset="1" style="stop-color:#804B1F"/>
		</linearGradient>
		<path class="st18" d="M81.4,176.5h-4.8c-1.7,0-3.2-1.3-3.4-3l-1.2-9h14l-1.2,9C84.6,175.2,83.1,176.5,81.4,176.5z"/>
		<g>
			<path class="st19" d="M77.2,165.1c-0.2,0-0.2-0.2,0-0.2C77.4,164.8,77.4,165.1,77.2,165.1z"/>
			<path class="st19" d="M75.7,165.1c0.2-0.2,0.6,0.2,0,0.2C75.6,165.3,75.6,165.2,75.7,165.1z"/>
			<path class="st19" d="M72.6,165.2c0,0.1,0.1,0.1,0,0.1c0,0,0,0,0,0c0,0.1-0.2,0.2-0.3,0C72.1,164.9,72.6,164.7,72.6,165.2z"/>
			<path class="st19" d="M84.9,164.7c0.1,0.1,0,0.4-0.1,0.3C84.5,164.7,84.6,164.4,84.9,164.7z"/>
			<path class="st19" d="M85.3,164.6c0-0.1,0.2-0.1,0.2,0.1C85.6,164.8,85.2,165,85.3,164.6z"/>
			<path class="st19" d="M81.6,164.5h0.3C81.9,164.7,81.7,164.7,81.6,164.5z"/>
			<path class="st19" d="M78.6,164.5c0.2,0,0.2,0,0.2,0C78.9,164.7,78.7,164.7,78.6,164.5z"/>
			<path class="st19" d="M80.1,174.2c0.1-0.1,0.3,0.1,0.2,0.3C80.2,175.1,79.6,174.5,80.1,174.2z"/>
			<path class="st19" d="M80.1,173.1c-0.1-0.1,0-0.3,0.1-0.3c0.1-0.1,0.3,0.1,0.1,0.2c0,0,0,0,0,0C80.4,173.2,80.2,173.3,80.1,173.1
				z"/>
			<path class="st19" d="M79.7,174.4c0,0.1-0.2,0.1-0.2,0C79.2,174.1,79.8,173.7,79.7,174.4z"/>
			<path class="st19" d="M78.8,171.9c0,0.1,0.2,0.1,0.2,0.3c0,0.2-0.3,0.2-0.4-0.2C78.5,171.9,78.7,171.8,78.8,171.9z"/>
			<path class="st19" d="M79.7,171.3c0,0.3-0.4,0.1-0.2-0.1C79.6,171.1,79.7,171.2,79.7,171.3z"/>
			<path class="st19" d="M79,170.6c0-0.1,0.1,0,0.1-0.1c0.1-0.1,0.3,0.1,0.3,0.3C79.2,171.6,78.7,171,79,170.6z"/>
			<path class="st19" d="M77.9,170.9c0-0.1,0.3-0.2,0.3,0C78.2,171.2,77.9,171.2,77.9,170.9z"/>
			<path class="st19" d="M77.1,172.9c-0.1,0.3-0.3,0.1-0.3,0C77,172.5,77.3,172.6,77.1,172.9z"/>
			<path class="st19" d="M78.2,175.1c0,0.2-0.2,0.2-0.2,0.3c0,0.2-0.2,0.2-0.2,0c0-0.2,0.1-0.3,0.2-0.4
				C78,174.9,78.2,175,78.2,175.1z"/>
			<path class="st19" d="M75.7,170.8c0.2,0,0.2,0.2,0,0.2C75.5,171,75.5,170.8,75.7,170.8z"/>
			<path class="st19" d="M81.2,173.6c0.1-0.1,0.3,0,0.2,0.2C81.3,174.2,80.9,173.7,81.2,173.6z"/>
			<path class="st19" d="M82.2,174.5c-0.1,0.4-0.6,0.2-0.4-0.4C81.9,173.8,82.4,173.7,82.2,174.5z"/>
			<path class="st19" d="M81.3,175.4c0.1-0.2,0.3,0.1,0.1,0.3C81.3,175.9,81.1,175.4,81.3,175.4z"/>
			<path class="st19" d="M81.2,176.4c0.1,0,0.2,0.1-0.1,0.1C81.1,176.4,81.1,176.4,81.2,176.4z"/>
			<path class="st19" d="M79.9,175.4c0.2,0,0.2,0.2,0,0.2C79.8,175.7,79.8,175.4,79.9,175.4z"/>
			<path class="st19" d="M84.1,174.8C84.1,174.8,84.1,174.7,84.1,174.8C84.1,174.7,84.3,174.5,84.1,174.8z"/>
			<path class="st19" d="M82.9,172.4c-0.1,0-0.2-0.3-0.1-0.3C82.9,171.8,83.1,172.6,82.9,172.4z"/>
			<path class="st19" d="M84.6,170.9c0,0.1-0.1,0.1-0.2-0.1C84.4,170.6,84.7,170.7,84.6,170.9z"/>
			<path class="st19" d="M82.4,168c-0.1-0.2,0.3,0.1,0.3,0.2c0.1,0.2-0.1,0.5-0.2,0.3C82.3,168.6,82,168,82.4,168z"/>
			<path class="st19" d="M81.9,169.7c0.1,0.3-0.3,0.2-0.3-0.1C81.6,169.4,81.9,169.4,81.9,169.7z"/>
			<path class="st19" d="M81.6,171.4c0,0.1-0.1,0.1-0.2,0c-0.2,0.3-0.4-0.1-0.3-0.3C81.1,170.6,81.7,171,81.6,171.4z"/>
			<path class="st19" d="M84.1,167.6c0.1-0.2,0.5,0.1,0.3,0.3C84.4,168.2,83.9,167.9,84.1,167.6z"/>
			<path class="st19" d="M85.4,167.6c0.1,0,0.1,0.4-0.1,0.1C85.2,167.7,85.3,167.5,85.4,167.6z"/>
			<path class="st19" d="M85,168.2c0.2-0.2,0.3,0.4,0.1,0.4C84.9,168.6,84.7,168.2,85,168.2z"/>
			<path class="st19" d="M84.2,168.3c0,0.1,0,0.2-0.1,0.1C83.9,168.4,84.1,168.2,84.2,168.3z"/>
			<path class="st19" d="M82.7,166.4c-0.4,0-0.3-0.7,0-0.4C82.7,166,82.8,166.4,82.7,166.4z"/>
			<path class="st19" d="M80.4,166.2c0,0-0.1-0.2,0.1-0.2C80.8,166,80.4,166.4,80.4,166.2z"/>
			<path class="st19" d="M80.5,167c0.2-0.1,0.3,0.4,0.1,0.4C80.4,167.6,80.2,167.2,80.5,167z"/>
			<path class="st19" d="M79.6,169.4c-0.1-0.2,0-0.2,0.1-0.2C79.9,169.2,79.7,169.5,79.6,169.4z"/>
			<path class="st19" d="M78.8,168.9c0-0.2,0.3-0.1,0.4,0.1C79.3,169.3,78.8,169.4,78.8,168.9z"/>
			<path class="st19" d="M79.3,168.5c0-0.1,0.2-0.1,0.2,0.1C79.6,168.8,79.3,168.6,79.3,168.5z"/>
			<path class="st19" d="M74.2,174.1c0.3-0.1,0.6,0.1,0.6,0.1c0.2,0.2,0,0.5-0.2,0.2c-0.1,0-0.2,0-0.2-0.1
				C74.1,174.3,74.1,174.1,74.2,174.1z"/>
			<path class="st19" d="M73.5,173.2c0.5,0.6-0.1,0.5-0.1,0.3C73.1,173.3,73.4,173.1,73.5,173.2z"/>
			<path class="st19" d="M74.2,173.6c0.1,0,0,0.4-0.2,0.1C74,173.6,74.1,173.5,74.2,173.6z"/>
			<path class="st19" d="M76.3,173.4c0.2,0.2,0,0.5-0.2,0.1C76.1,173.4,76.2,173.3,76.3,173.4z"/>
			<path class="st19" d="M74.4,169.2c-0.1-0.1-0.1-0.3,0-0.4c0.1-0.4,0.5,0.2,0.3,0.4C74.7,169.4,74.4,169.3,74.4,169.2z"/>
			<path class="st19" d="M73.5,167.9c-0.1,0.1-0.2,0-0.2-0.1c-0.1,0-0.1-0.1-0.1-0.2C73.2,167.3,73.7,167.6,73.5,167.9z"/>
			<path class="st19" d="M77.8,166.7c0.1-0.2,0.4,0.1,0.2,0.4C77.9,167.2,77.6,166.8,77.8,166.7z"/>
			<path class="st19" d="M76.2,166.7c0.1,0.1,0,0.2-0.1,0.1c-0.1,0-0.1-0.1-0.1-0.1C75.9,166.5,76.3,166.5,76.2,166.7z"/>
			<path class="st19" d="M77,167c0-0.1,0.1-0.1,0.2,0C77.7,167.2,76.9,167.9,77,167z"/>
			<path class="st19" d="M77,166.6c0,0.1-0.1,0-0.2-0.1c-0.1,0-0.1-0.1-0.1-0.2C76.8,166,77.2,166.3,77,166.6z"/>
			<path class="st19" d="M77.5,166.4c-0.1,0-0.2-0.2-0.1-0.2C77.6,166.1,77.7,166.4,77.5,166.4z"/>
			<path class="st19" d="M72.3,166.8c0,0,0,0.5-0.1-0.2C72.3,166.6,72.3,166.7,72.3,166.8z"/>
			<path class="st19" d="M74.3,166.7c0.1,0.3-0.3,0.3-0.3,0.1C73.9,166.6,74.2,166.4,74.3,166.7z"/>
			<path class="st19" d="M73.4,166.9c0,0.2-0.3,0-0.2-0.1C73.2,166.7,73.4,166.7,73.4,166.9z"/>
			<path class="st19" d="M76.1,165.3c0.1-0.2,0.3-0.2,0.3-0.1c0,0,0,0,0,0.1h0C76.4,165.6,76.1,165.6,76.1,165.3z"/>
			<path class="st19" d="M75.9,165.3c0,0-0.1,0-0.2,0H75.9z"/>
			<path class="st19" d="M73,165.3C73,165.3,73.1,165.3,73,165.3L73,165.3c0.1,0,0.1,0,0.1,0.1c0.1,0.1-0.1,0.2-0.2,0.1
				C72.9,165.4,72.9,165.3,73,165.3z"/>
			<path class="st19" d="M85.1,165.3c0,0,0.1-0.1,0.1-0.1c0.1-0.1,0.1-0.1,0.2,0c0.1,0.1,0.1,0.1,0,0.1c0.1,0,0.2,0.1,0,0.3
				C85.3,165.7,85,165.5,85.1,165.3z"/>
		</g>
		<circle class="st20" cx="79" cy="163.9" r="7"/>
		<circle class="st21" cx="79" cy="163.9" r="6.1"/>
		<path class="st22" d="M80.7,153.3c0.1,0,0,0.2,1.5-3.2c0.1-0.1-0.1-0.2-0.2-0.1C80.5,153.3,80.4,153.3,80.7,153.3z"/>
		<path class="st22" d="M81.6,153.7c3.4-3.4,3.3-3.2,3.1-3.3c-0.1-0.1,0-0.2-3.3,3.1C81.3,153.7,81.5,153.9,81.6,153.7z"/>
		<path class="st22" d="M82.3,154.6c2.9-1.8,2.9-1.7,2.8-1.9c-0.1-0.1,0-0.1-2.9,1.7C82,154.5,82.2,154.7,82.3,154.6z"/>
		<path class="st23" d="M81.9,164.5l0.9-7.6c0.3-2.2-1.5-4.2-3.7-4.2c-2.2,0-4,1.9-3.7,4.2l0.9,7.6C77.4,167.1,80.7,167,81.9,164.5z
			"/>
		<path class="st24" d="M78.3,164.6c-0.5-9.3-0.4-8.9-0.7-8.9c-0.3,0-0.2-0.3,0.2,8.9C77.9,164.9,78.3,164.9,78.3,164.6z"/>
		<path class="st24" d="M79.9,164.8c0.3,0,0.2,0.4,0.7-8.9c0-0.3-0.4-0.3-0.4,0C79.6,165.1,79.5,164.8,79.9,164.8z"/>
	</g>
	<path class="st25" d="M0.8,176.8h260.5c0.5,0,0.8-0.4,0.8-0.8c0-0.5-0.4-0.8-0.8-0.8H0.8c-0.5,0-0.8,0.4-0.8,0.8
		C0,176.4,0.4,176.8,0.8,176.8z"/>
	<path class="st2" d="M172.2,131.4l-0.6-0.1l0.7-7.6c0.1-0.7-0.6-1.4-1.3-1.4h-30.5c-0.2-0.8-0.6-2.7-0.6-2.7
		c0.2-0.2-0.1-0.5-0.1-0.5s0,0.1,0,0.1l-0.1-0.4c0.2-0.2-0.1-0.5-0.1-0.5c0,0,0,0-0.1,0c-0.8-3.9-1.7-8.3-2.5-12.1c0,0,0,0,0,0l0,0
		c0,0,0.6-4.3,0.3-5.8c-0.3-1.6-1.1-2.4-1.6-2.9c-0.1-0.1-0.4-0.3-0.6-0.5c-1.5-7.7-2.8-15.5-3.4-18.2c-0.8-3.8-4.7-3.6-5.5-1.2
		c-0.4,0.6-0.5,1.4-0.2,2.4c0.1,0.4,0.3,0.9,0.4,1.4c-1.1-0.4-2.1,0-3.4-0.3c-2.1-0.5-1.4-1.3-3-2.4c-1.6-1.2-3.4-0.9-5.2-0.8
		c-1.8,0.1-2.5,0.6-4.1-0.3c-1.6-1-2-1.6-4.1-1.9c-2.1-0.3-1.4,0.8-3.8,0.2c-1.4-0.3-2.5,1.5-1.7,3.4c0.1,0.2,0.2,0.3,0.3,0.5l0,0
		c0,0,0,0,0,0c0.1,0.1,0.1,0.1,0.2,0.2c0,0,0,0,0,0c0.1,0.1,0.1,0.1,0.2,0.2c0,0,0,0,0,0c0.1,0.1,0.2,0.1,0.2,0.2c0,0,0,0,0,0
		c0.1,0.1,0.2,0.1,0.2,0.1c0,0,0,0,0.1,0c0.1,0.1,0.2,0.1,0.3,0.1c0,0,0,0,0.1,0c0.1,0,0.2,0.1,0.3,0.1c0,0,0,0,0,0
		c0.1,0,0.2,0.1,0.3,0.1c0,0,0.1,0,0.1,0c0.1,0,0.2,0.1,0.4,0.1c1.4,0.3,2.3,0.8,3.2,1.9c0.8,1.2,2.2,2.1,3.4,2.1c0.2,0,0.3,0,0.5,0
		c0.2,0,0.5,0.1,0.7,0.1c0.2,0.1,0.5,0.1,0.7,0.3c0.2,0.1,0.3,0.2,0.5,0.3c0.5,0.3,1.1,0.7,1.7,1.4c1.6,1.7,2.3,2,4.2,2
		c1.5,0,2.3,0,2.5,0c-0.3,1.5-0.9,4.9-1.2,5.5c-0.1,0.1-0.2,0.2-0.3,0.3l0,0c-0.3,0.2-0.7,0.3-1.2,0.5c-0.1-0.1-0.1-0.2-0.2-0.3
		c0,0-1.7,0.6-3.4,1.6c-1.1,0.7-1.5,2.6-1.3,6.4c0.2,3.3,0.3,6.6,0.3,6.6s0,0,0.1,0c-3.6,5.2-7.6,5.5-10.9,15.2
		c-2.1,6.1-6.6,11.8-6.6,11.8s5.2,7.5,13.2,6.4c0.3,0,0.6-0.1,0.8-0.1c0.6,7.3,2.7,20,3.3,23.2c0.5,2.7,0.3,5.2,0.2,6.4c0,0,0,0,0,0
		c-0.2,1.3-0.6,2.6-0.4,2.7c0.2,0.1,3-0.1,4.2-0.2c0.3,0,0.5-0.3,0.4-0.6c-0.1-0.4-0.1-1.1-0.2-1.6c0-0.3-0.1-0.6-0.2-1
		c0,0,0-1.4-0.3-7.7c-0.3-4.8-0.6-14.9-0.8-19.5c1.1,0.4,2.2,0.9,3.5,1.3c0,0.8,0,1.6,0.1,2.4c0.2,5.4,1.3,13.4,2.1,17.1
		c0,0.1,0.1,0.3,0.1,0.4h-2.3c0.3,0.8,1.4,2.5,2.9,4.3c0,0.7,0,1.2,0,1.7c0,1-0.1,1.5-0.1,1.5l0.7,1.9h0.7l-0.3-1.8
		c0.8,0.1,1.9,0.3,2.6,0.7c0.1,0.1,0.2,0.1,0.3,0.2c0.3,0.3,0.7,0.5,1,0.7h0.8c1,0.2,1.9,0.3,2.5,0.3c0.3,0,0.4-0.1,0.4-0.3h46.3
		c2-1.5,6-6.6,5.9-9.1h-15.5l0.7-7.8l0.9,0.2c0.8,0.1,1.5,0.2,2.3,0.2c5.6,0,10.3-4,10.7-9.8l0.3-3.4
		C183.8,138.9,178.8,132.6,172.2,131.4z M128.7,122.3c-0.4-1.7-0.9-3.3-1.3-4.6c3.6,1.3,7,1.8,8.7,2.6c0.4,0.2,0.9,0.3,1.2,0.4
		c0,0,0.3,1.2,0.4,1.6H128.7z M124.7,97.2C124.7,97.2,124.7,97.2,124.7,97.2c0-0.1,0-0.2,0-0.2l0,0c0-0.5,0.3-1.8,0.5-3.1
		c0-0.1,0.2-1,0.3-1.3c1.3,0.1,2.3-0.9,2.7-2.4c0,0,0-0.1,0-0.1c0.1-0.2,0.1-0.3,0.1-0.5c0.1-0.4,0.2-0.7,0.2-1.1
		c1.3,4.4,2.7,9.4,3.7,13.1c0.4,1.4,0.9,3.4,1.5,5.8c-0.2,0.4-0.3,1-0.4,1.7c-1.3-3-4.3-9.5-5.7-10.3l-2.8-1.6c0,0,0,0.2-0.1,0.4
		C124.7,97.4,124.7,97.3,124.7,97.2z M124.2,111.2c0-0.2,1.2-4,2.3-4.8c0.4-0.3,0.7-0.6,0.9-0.9c1.5,3.1,3.9,7.4,5.5,8.1
		c1.1,0.5,2,0.1,2.5-0.7c0.4,1.4,0.8,2.9,1.1,4.3c-1.3-0.2-3.1-0.5-4.8-1.2c-2-0.9-4.8-2.3-6.6-3.3
		C124.6,111.8,124.3,111.3,124.2,111.2z M126.8,166.1c-0.1-4.2-0.2-12-0.2-16.9c0,0,0,0,0,0c0-0.4,0-0.8,0-1.1c0-0.3,0-0.6,0-0.9
		c0.3,0,0.5,0,0.8,0c0.9-0.1,1.8-0.2,2.5-0.4l6,19.4H126.8z M178.6,144.6l-0.3,3.4c-0.3,4-3.9,6.6-8,5.9l-0.8-0.2l1.6-17.9l0.6,0.1
		C175.9,136.7,178.9,140.6,178.6,144.6z"/>
	<path class="st26" d="M176.4,123l1-1.9c0.7-1.3-0.2-2.7-1.1-3.6c-1-0.9-4.1-2.6-5.4-2.9c-1.3-0.3-2.8,0.1-3.6,1.1
		c-0.9,1-2.7,4.8-2.9,5.4c-0.2,0.7-0.4,1.3-0.2,1.9c1.8,0.1,3.6,0.2,5.6,0.2C172.1,123.3,174.3,123.2,176.4,123z"/>
	<g>
		<path class="st17" d="M80.5,79V60.6c0-0.4,0.6-0.4,0.6,0V79C81.1,79.4,80.5,79.4,80.5,79z M84.4,60.4l7.5,10.6V60.6
			c0-0.4,0.6-0.4,0.6,0V72c0,0.3-0.4,0.4-0.6,0.2l-8-11.4C83.7,60.5,84.2,60.1,84.4,60.4z M92.2,79.2l-7.4-10.7V79
			c0,0.4-0.6,0.4-0.6,0V67.5c0-0.3,0.4-0.4,0.6-0.2l8,11.4C93,79.1,92.5,79.5,92.2,79.2z M95.5,79V60.6c0-0.4,0.6-0.4,0.6,0V79
			C96.1,79.4,95.5,79.4,95.5,79z"/>
		<path class="st17" d="M110.4,79c0,0.2-0.1,0.3-0.3,0.3h-9.5c-0.2,0-0.3-0.1-0.3-0.3V60.6c0-0.2,0.1-0.3,0.3-0.3h9.5
			c0.2,0,0.3,0.1,0.3,0.3c0,0.2-0.1,0.3-0.3,0.3h-9.2v17.8h9.2C110.2,78.7,110.4,78.8,110.4,79z M110.4,64.3c0,0.2-0.1,0.3-0.3,0.3
			h-5.6v3.1h3.8c0.2,0,0.3,0.2,0.3,0.3c0,0.2-0.1,0.3-0.3,0.3h-4.1c-0.2,0-0.3-0.2-0.3-0.3v-3.7c0-0.2,0.1-0.3,0.3-0.3h5.8
			C110.2,64,110.4,64.1,110.4,64.3z M108.7,71.6c0,0.2-0.1,0.3-0.3,0.3h-3.8V75h5.6c0.2,0,0.3,0.1,0.3,0.3c0,0.2-0.1,0.3-0.3,0.3
			h-5.8c-0.2,0-0.3-0.1-0.3-0.3v-3.7c0-0.2,0.1-0.3,0.3-0.3h4.1C108.5,71.3,108.7,71.4,108.7,71.6z"/>
		<path class="st17" d="M134.6,60.5c0.2,0.1,0.2,0.2,0.2,0.4l-7.6,18.6c-0.1,0.2-0.2,0.2-0.4,0.2c-0.1,0-0.2-0.1-0.2-0.2l-3.3-8.1
			l-3.3,8.1c-0.1,0.2-0.2,0.2-0.4,0.2c-0.1,0-0.2-0.1-0.2-0.2L112,60.9c-0.1-0.2,0-0.3,0.2-0.4c0.1-0.1,0.3,0,0.4,0.2l7.3,17.9
			l3.3-8c0.1-0.2,0.5-0.3,0.6,0l3.3,8l7.3-17.9C134.3,60.5,134.4,60.4,134.6,60.5z M116.1,60.5c0.2-0.1,0.4,0,0.4,0.2l3.3,8l3.3-8
			c0.1-0.2,0.2-0.3,0.4-0.2c0.1,0.1,0.2,0.1,0.2,0.2l3.3,8l3.3-8c0.1-0.2,0.2-0.3,0.4-0.2c0.2,0.1,0.3,0.2,0.2,0.4l-3.6,8.7
			c-0.1,0.2-0.5,0.2-0.6,0l-3.3-8.1l-3.3,8.1c-0.1,0.2-0.5,0.2-0.6,0l-3.5-8.7C115.9,60.7,116,60.6,116.1,60.5z"/>
		<path class="st17" d="M136.6,77.5c3,1.5,7.1,2,9.4-0.3c1.7-1.8,2.1-5-0.1-7c-2.5-2.4-5.7-1.9-5.9-4.2c-0.1-1.2,0.9-2.1,2.1-2.1
			c1.2-0.1,2.4,0.2,3.9,0.8c0.4,0.2,0.1,0.7-0.2,0.5c-0.9-0.4-2.5-0.8-3.7-0.7c-0.8,0.1-1.5,0.6-1.4,1.4c0,0.4,0.2,0.8,0.6,1.1
			c1.2,0.9,6.8,1.8,6.8,6.5s-4.1,6.7-8.8,5.6c-0.9-0.2-1.9-0.5-2.9-1.1C136,77.8,136.3,77.3,136.6,77.5z M146.3,61.5
			c-2.8-1-5.9-1.3-7.9,0.9c-1.6,1.8-2.1,5,0.2,7c2.5,2.2,5.7,1.7,5.8,4.1c0.1,1.2-1,2.1-2.2,2.1c-1.6,0.1-3.7-0.3-5.3-1.5
			c-0.3-0.2,0-0.7,0.3-0.5c1.6,1.1,4.9,2.1,6.2,0.9c0.6-0.6,0.5-1.5-0.1-2c-1.2-1-6.8-1.7-6.8-6.5c0-4,3.1-6.4,7.3-5.8
			c0.7,0.1,1.6,0.3,2.9,0.7C146.9,61.1,146.7,61.7,146.3,61.5z"/>
	</g>
	<g>
		<path class="st1" d="M123.9,144.7c-1.1,4.1-0.7,16.1-0.2,20.9c0.5,4.8-0.2,7.8-0.2,7.8s2.5,0.1,3.6,0.7s3.2,1,4.2,1
			c1,0,0.6-0.7-0.3-1.4c-0.9-0.7-3-3.1-3.1-5.1c-0.1-2,2.2-23.7,2.2-23.7L123.9,144.7z"/>
		<path class="st27" d="M130.8,173.7c-0.3-0.3-0.9-0.8-1.4-1.4c-0.7,0.5-2.1,1.1-2.9,0.9c-1.1-0.2-1.7-0.9-2.9-1.3
			c-0.1,1-0.2,1.5-0.2,1.5s2.6,0,3.6,0.7c1.6,1.1,3.5,1.1,4.5,1.1C132.4,175.3,131.7,174.4,130.8,173.7z"/>
		<polygon class="st27" points="123.4,173.4 123.9,175.3 124.6,175.3 124.5,173.2 		"/>
		<path class="st2" d="M129.5,149.2c0.4-4.1,0.2-7.1,0.2-7.1H124c0,1.9-0.7,4.5-0.7,7.3C125,149.8,127.7,149.7,129.5,149.2z"/>
		<path class="st1" d="M114.3,141.5c-0.4,6.8,0.4,21.3,0.7,24.7c0.3,3.7-0.6,7.1-0.6,7.1c2.9,2,4.4,1.9,4-1.3c0,0,0.1-1.4,0.5-7.7
			c0.3-6.3,1.5-21.7,1.5-21.7L114.3,141.5z"/>
		<path class="st27" d="M114.5,172.5c-0.3,1.2-0.9,2.5-0.7,2.7c0.2,0.1,3-0.1,4.2-0.2c0.3,0,0.5-0.3,0.5-0.6c0-0.6,0-1.7-0.1-2.1
			c0,0-0.6,0.8-2,0.9C115,173.2,114.5,172.5,114.5,172.5z"/>
		<path class="st2" d="M114.3,146.9c2-0.3,4.1,0.4,5.6,1.1c0.2-3.1,0.4-6.1,0.4-6.1l-5.9-0.6C114.3,143.2,114.3,145.1,114.3,146.9z"
			/>
		<path class="st17" d="M121.3,110c-4.2,5.2-8.2,5.5-12.6,15.1c-2.8,6.1-7.9,11.7-7.9,11.7s4.4,7.5,12.5,6.4
			c4.8-0.7,8.8,4.4,17.1,3.9c5.1-0.3,6.9-3.1,6.9-3.1s-0.8-3.1-1.4-6.6c-0.7-4.1-0.6-6.7-1.4-14.1c-0.8-7.6-3.5-12.1-3.5-12.1
			L121.3,110z"/>
	</g>
	<g>
		<g>
			<path class="st28" d="M185.5,167.2c-0.1,2.3-4.3,7-6.3,8.3h-46.3c-2.8-1.8-5.9-6.9-6.3-8.3H185.5z"/>
			<linearGradient id="SVGID_6_" gradientUnits="userSpaceOnUse" x1="156.0676" y1="175.0903" x2="156.0676" y2="169.5444">
				<stop  offset="0" style="stop-color:#CBC7FF"/>
				<stop  offset="1" style="stop-color:#FFFFFF"/>
			</linearGradient>
			<path class="st29" d="M185.5,167.2c-0.1,2.3-4.3,7-6.3,8.3h-46.3c-2.8-1.8-5.9-6.9-6.3-8.3H185.5z"/>
			<path class="st28" d="M178.1,135.3l-0.5-0.1l1.4-7c0.1-0.7-0.4-1.3-1-1.3h-43.7c-0.7,0-1.2,0.6-1,1.3l7.8,39h30.2l1.4-7.1
				l0.8,0.1h0c0.7,0.1,1.4,0.2,2.1,0.2c5.2,0,9.9-3.7,10.9-9l0.6-3.2C188.1,142.2,184.1,136.4,178.1,135.3z M182.7,147.4l-0.6,3.2
				c-0.7,3.7-4.3,6.1-7.9,5.4l-0.7-0.1l3.3-16.5l0.6,0.1C181,140.2,183.4,143.7,182.7,147.4z"/>
			<linearGradient id="SVGID_7_" gradientUnits="userSpaceOnUse" x1="138.3061" y1="147.0773" x2="156.0115" y2="147.0773">
				<stop  offset="0" style="stop-color:#B9AEF0"/>
				<stop  offset="1" style="stop-color:#FFFFFF"/>
			</linearGradient>
			<path class="st30" d="M178.1,135.3l-0.5-0.1l1.4-7c0.1-0.7-0.4-1.3-1-1.3h-43.7c-0.7,0-1.2,0.6-1,1.3l7.8,39h30.2l1.4-7.1
				l0.8,0.1h0c0.7,0.1,1.4,0.2,2.1,0.2c5.2,0,9.9-3.7,10.9-9l0.6-3.2C188.1,142.2,184.1,136.4,178.1,135.3z M182.7,147.4l-0.6,3.2
				c-0.7,3.7-4.3,6.1-7.9,5.4l-0.7-0.1l3.3-16.5l0.6,0.1C181,140.2,183.4,143.7,182.7,147.4z"/>
		</g>
		<circle class="st11" cx="156.1" cy="127.2" r="22.9"/>
		<circle class="st2" cx="156.1" cy="127.2" r="20.2"/>
		<linearGradient id="SVGID_8_" gradientUnits="userSpaceOnUse" x1="156.0804" y1="146.752" x2="156.0804" y2="113.0786">
			<stop  offset="0" style="stop-color:#996B5A"/>
			<stop  offset="1" style="stop-color:#5A3C37"/>
		</linearGradient>
		<path class="st31" d="M156.1,112.7c-10.2,0-18.6,7.6-20,17.4c1.4,9.8,9.8,17.4,20,17.4c10.2,0,18.6-7.6,20-17.4
			C174.7,120.3,166.3,112.7,156.1,112.7z"/>
	</g>
	<path class="st32" d="M144.8,129.9c-0.8,5.3,2.9,11.2,9.7,12.2c6.8,1,12.5-4.6,12.7-9.6l-10.9,0.1c0,0-3,2.3-6,1
		c-2.6-1.1-3.2-3.8-3.2-3.8L144.8,129.9z"/>
	<g>
		<path class="st1" d="M136.1,98.9c1.4,0.8,3.6,7.3,4.6,10.3c1.7-5.7,3.4-0.9,3.4-0.9s-1.2,7.1-4.5,5.4c-2.3-1.1-5.7-11.2-5.7-11.2
			L135,99L136.1,98.9z"/>
		<path class="st2" d="M136.1,98.9c1.4,0.8,3.6,7.3,4.6,10.3c1.7-5.7,3.4-0.9,3.4-0.9s-1.2,7.1-4.5,5.4c-2.3-1.1-5.7-11.2-5.7-11.2
			L135,99L136.1,98.9z"/>
		<g>
			<path class="st11" d="M147.1,129.8c0,0.2-0.2,0.3-0.3,0.3l-1.7-0.7c0,0-3.4-21.6-4.4-28.2c-1-6.6-3.1-17.4-3.8-21.4
				c-0.8-4,5.1-5.3,5.5-0.7c0.3,3.2,0.9,13.1,1.7,21.8C145,109.7,147.1,129.8,147.1,129.8z"/>
			<path class="st33" d="M146.8,130.1l-2-0.2c0,0-3.4-21.6-4.4-28.2c-1-6.6-3.1-17.4-3.8-21.4c-0.8-4,5.1-5.3,5.5-0.7
				c0.3,3.2,0.9,13.1,1.7,21.8C144.7,110.2,146.8,130.1,146.8,130.1z"/>
		</g>
		<path class="st2" d="M144.1,97.9c-0.5-0.5-2-1.1-2.4-0.8c-0.3,0.3,1.3,0.8,1.3,0.8s-2-0.7-2.2-0.2s1.8,0.8,1.8,0.8
			s-1.5-0.5-1.7-0.1c-0.1,0.4,1.3,0.6,1.3,0.6s-1.3-0.2-1.3,0.2c0,0.4,2.8,2.5,2.8,2.5l0.6,5.6c0,0,1.2-5,1.1-6.6
			C145.4,99.2,144.6,98.3,144.1,97.9z"/>
		<path class="st1" d="M144.4,97.7c-0.4-0.5-2-1.2-2.3-0.9c-0.3,0.3,1.3,0.9,1.3,0.9s-1.9-0.8-2.2-0.3c-0.2,0.4,1.7,0.9,1.7,0.9
			s-1.5-0.5-1.6-0.1c-0.1,0.4,1.3,0.6,1.3,0.6s-1.3-0.3-1.3,0.1c0,0.4,3,2.8,3,2.8l0.5,4.7c0,0,1.1-4.2,1-5.8
			C145.6,99,144.8,98.2,144.4,97.7z"/>
		<g>
			<path class="st1" d="M129.7,104c1.5,0.6,3.4-0.7,4.1-0.2c0.5-0.7,0.7-1.4,1-2.2c0.2-0.4,0-1.1-0.2-1.8c-0.1-0.7-0.5-1.3-1-1.7
				c-0.3-0.2-0.4-0.4-0.3-1c0.2-1.1,1.9-6.6,1.9-6.6l-4.2-1.8c0,0-1.6,5.5-2.1,6.2c-0.5,0.7-1.6,0.7-3.8,1.2
				c0.3,1.5-0.7,5.7-1.5,7.1C125.9,102.9,127.8,103.2,129.7,104z"/>
			
				<linearGradient id="SVGID_9_" gradientUnits="userSpaceOnUse" x1="-4918.4785" y1="-13323.416" x2="-4919.4067" y2="-13312.9736" gradientTransform="matrix(0.5852 0.2654 -0.2654 0.5852 -524.0945 9192.6221)">
				<stop  offset="0" style="stop-color:#F0C3A8"/>
				<stop  offset="1" style="stop-color:#FFFFFF"/>
			</linearGradient>
			<path class="st34" d="M133.3,97.4c0-0.1,0-0.2,0-0.3c0.2-1.1,1.9-6.6,1.9-6.6l-4.2-1.8c0,0-1.6,5.5-2.1,6.2
				c-0.1,0.1-0.2,0.2-0.3,0.3L133.3,97.4z"/>
			<path class="st35" d="M132.4,93.2c0.3,0.2,1.4,0.8,1.8,0.8c0.5-1.7,1-3.4,1-3.4l-3.4-1.5C131.1,90.8,131.4,92.5,132.4,93.2z"/>
		</g>
		<g>
			<path class="st27" d="M111.7,79.6c-0.6-1.9,0.8-3.7,2.1-3.4c2.4,0.6,1.8-0.5,3.9-0.2c2.1,0.3,2.4,0.9,3.9,1.9
				c1.5,0.9,2.3,0.5,4.1,0.3c1.8-0.1,3.6-0.4,5.1,0.8c1.5,1.2,0.7,1.9,2.7,2.4c1.9,0.5,3.4-0.7,4.8,1.6c1.3,2.1,0.9,3.7-0.5,5.1
				c-1.4,1.4-6.9,1.5-6.9,1.5s-0.7-0.1-2.6,0c-1.9,0.1-2.6-0.3-4-2c-1.4-1.7-2.6-2-3.8-2.1c-1.2-0.1-2.5-1-3.2-2.1
				c-0.7-1.2-1.6-1.7-3-1.9C113,81.1,111.9,80.3,111.7,79.6z"/>
			<path class="st36" d="M135.8,87.8l-4.4-1.7c-1.9-1.2-1.8-2.2-3.3-2.2c-1.5,0-3.1,0-4-0.6c-0.9-0.6-1.6-2.2-3.2-2.5
				c-1.6-0.3-2.8,0.4-4.1-0.2s-1.6-1.3-3.2-1.2c-0.6,0-1.2,0.3-1.7,0.7c0.4,0.6,1.3,1.1,2.4,1.3c1.4,0.3,2.3,0.8,3,1.9
				c0.7,1.2,2,2,3.2,2.1c1.2,0.1,2.4,0.4,3.8,2.1c1.4,1.7,2.1,2,4,2c1.9-0.1,2.6,0,2.6,0s2.4,0,4.4-0.4L135.8,87.8z"/>
			
				<ellipse transform="matrix(0.3165 -0.9486 0.9486 0.3165 7.0459 185.4312)" class="st37" cx="132.2" cy="87.8" rx="1.6" ry="1.6"/>
			
				<ellipse transform="matrix(0.3165 -0.9486 0.9486 0.3165 7.0461 185.4314)" class="st38" cx="132.2" cy="87.8" rx="0.8" ry="0.8"/>
			<path class="st1" d="M137.8,89.7c-0.7,2.1-2.1,3.5-3.9,2.9c-1.5-0.5-2.3-2.7-1.7-4.8c0.6-2.1,2-3.6,4.1-2.9
				C139.4,86,138.5,87.6,137.8,89.7z"/>
			<g>
				<path class="st39" d="M134.1,86.8c0.3,0,0.6,0,0.9,0.1c0.3,0.1,0.6,0.2,0.8,0.4c0,0,0,0,0,0c0,0,0,0,0,0l0,0
					c-0.3-0.1-0.6-0.3-0.8-0.3c-0.1,0-0.3-0.1-0.4-0.1C134.4,86.8,134.2,86.8,134.1,86.8C134.1,86.8,134,86.8,134.1,86.8
					C134.1,86.8,134.1,86.8,134.1,86.8z"/>
			</g>
			<g>
				<path class="st39" d="M138.3,88c-0.1,0-0.2-0.1-0.3-0.1c-0.3-0.1-0.6-0.2-0.9-0.2c0,0,0,0,0,0c0,0,0,0,0,0c0.2,0,0.3,0,0.5,0.1
					c0.1,0,0.3,0.1,0.4,0.1c0.1,0,0.2,0.1,0.3,0.1C138.3,88.1,138.3,88,138.3,88z"/>
			</g>
			<ellipse transform="matrix(0.3165 -0.9486 0.9486 0.3165 8.788 187.866)" cx="134.8" cy="87.8" rx="0.2" ry="0.2"/>
			<ellipse transform="matrix(0.3165 -0.9486 0.9486 0.3165 9.861 191.2467)" cx="137.6" cy="88.8" rx="0.2" ry="0.2"/>
			<path class="st37" d="M137.9,89.5C137.8,89.5,137.8,89.5,137.9,89.5c-0.4-0.1-0.8,0.1-0.9,0.4c-0.1,0.3,0.1,0.7,0.4,0.9
				c0.2-0.3,0.3-0.7,0.5-1.1C137.8,89.6,137.8,89.6,137.9,89.5z"/>
			<ellipse transform="matrix(0.3165 -0.9486 0.9486 0.3165 7.3893 188.1734)" class="st37" cx="134.3" cy="89" rx="0.7" ry="0.7"/>
			<path class="st36" d="M138.4,87.4c0.2-1.1-0.8-2.3-0.8-2.3l-3.2-0.3l-3.5,2.1l-0.3,0.8c2.8,1.4,4.1-2.5,5.7-2.3
				C137,86.5,138.2,87.3,138.4,87.4z"/>
			<path class="st37" d="M136.6,88.3l0.2,1.2c0,0.1-0.1,0.3-0.2,0.2l-0.6-0.2L136.6,88.3z"/>
			<path class="st11" d="M136.6,90.6c-0.1,0.3-0.6,0.4-1,0.2c-0.5-0.2-0.8-0.5-0.7-0.8c0.1-0.3,0.4,0.1,0.9,0.2
				C136.3,90.4,136.7,90.3,136.6,90.6z"/>
			
				<ellipse transform="matrix(0.3165 -0.9486 0.9486 0.3165 5.698 185.5604)" class="st11" cx="131.6" cy="88.8" rx="0.1" ry="0.1"/>
			<path class="st27" d="M140.1,84.6c-0.2-1.5-1.9-2.2-3.4-1.4c-1.9-0.4-2.8,0.7-2.8,0.7l-3.8,3.1c2.8,1.4,4.5-1.8,5.5-1.9
				c0.4,0,0.9,0,1.2,0C137.6,87.1,140.4,86.4,140.1,84.6z"/>
		</g>
		<path class="st40" d="M127.1,95.5c0,0-1.8,0.5-3.6,1.6c-1.2,0.7-1.7,2.6-2,6.3c-0.2,3.3-0.4,6.6-0.4,6.6s3.1,1.7,5.4,2.1
			c3.5,0.6,4.6-0.8,4.6-0.8s1.6-4,2.8-4.8c1.2-0.8,1.7-1.9,1.4-3.6c-0.3-1.2,0.7-4.1,0.7-4.1l-2.7-1.6c0,0-0.9,3.7-3,5.8
			C130.4,103,129,98.9,127.1,95.5z"/>
		<path class="st2" d="M143.5,121.3c1.7,0.1,2.2,0,2.4-0.2c0.2-0.1,0.3-0.4,0.3-0.4l-0.2-2l-2,0.2l-0.6,1.5L143.5,121.3z"/>
		<path class="st1" d="M146,119.2c0,0,0.1,0.2-0.4,0.2c-0.5,0-1.2-0.2-1.2-0.2s0.5,0.1,1.2-0.1c0.7-0.2,0.3-0.6,0.3-0.6
			c-2,0.4-2.9-0.5-2.9-0.5s-0.2-0.2,0-0.2l-0.1,0c0-0.2-0.2-0.4-0.2-0.6c-1.2-0.2-3.1-0.5-4.7-1.2c-2.4-1.2-6-3.1-7.4-4
			c-1.4-0.9-2.2-7.2-2.8-9.9c-0.6-2.7-2-5.4-4.1-4.4c-3.4,1.7,0.6,11.2,2,14.4c1.4,3.2,2.9,3.7,6.7,5.3c3.8,1.5,7.6,2.1,9.5,3
			c1.9,0.8,3.4,0.4,3.7,0.3c0.3-0.1,0.1-0.5,0.1-0.5c0.2-0.1,0-0.4,0-0.4C146.3,119.6,146,119.2,146,119.2z"/>
	</g>
	<path class="st41" d="M165.7,118.3c-0.7,1.3-1.3,2.6-1.4,3c-0.2,0.7-0.4,1.3-0.2,1.9c1.8,0.1,3.6,0.2,5.6,0.2
		c2.4,0,4.6-0.1,6.7-0.3l1-1.9c0.2-0.3,0.2-0.6,0.2-0.9L165.7,118.3z"/>
	<g>
		<path class="st42" d="M202.2,176.1c-0.8,0-1.4-0.6-1.4-1.4l0,0c-0.3-9.3-8.3-17.1-18.2-17.8l-44.9-3c-0.8-0.1-1.4-0.7-1.3-1.5
			c0.1-0.8,0.7-1.4,1.5-1.3l44.9,3c5.5,0.4,10.7,2.7,14.6,6.5c3.9,3.8,6.1,8.8,6.3,14.1l0,0C203.7,175.4,203,176,202.2,176.1
			C202.2,176.1,202.2,176.1,202.2,176.1z"/>
		<path class="st42" d="M215.1,167.1c-0.1,0-0.3,0-0.4-0.1l-43.4-12.1c-9.6-2.7-19.7,2-23.1,10.7l0,0c-0.3,0.7-1.1,1.1-1.9,0.8
			c-0.7-0.3-1.1-1.1-0.8-1.9l0,0c1.9-4.9,5.7-8.9,10.6-11.2c4.9-2.3,10.6-2.8,15.9-1.3l43.4,12.1c0.8,0.2,1.2,1,1,1.8
			C216.3,166.7,215.7,167.1,215.1,167.1z"/>
		<path class="st43" d="M152.4,159.6c1.6-3.4,3.2-6.9,4.9-10.3c-4.2-0.7-8.4-1.2-11.5-1.4c-1.4-0.1-2.6,1-2.9,2.5
			c-0.6,3.2-1.4,8.1-1.2,11.5c0.1,1.3,1,2.5,2.2,2.8c1.5,0.4,3.3,0.9,5.4,1.3C150.3,163.8,151.4,161.7,152.4,159.6z"/>
		<path class="st43" d="M172.7,155.4c0.2-1.5-0.6-2.8-1.9-3.2c-1.9-0.6-4.4-1.2-7-1.7c-1.9,3.9-7.2,15.1-8.1,16.7
			c4.1,0.7,8.1,1.2,11.1,1.4c1.3,0.1,2.5-0.7,3-1.9C171.1,163.5,172.3,158.7,172.7,155.4z"/>
		<path class="st43" d="M201.2,156.8c-6-1.2-13-2.3-17.6-2.5c-1.4-0.1-2.6,1-2.9,2.5c-0.6,3.2-1.4,8.1-1.2,11.5
			c0.1,1.3,1,2.5,2.2,2.8c3.2,0.9,7.8,1.8,12.4,2.6C196.6,168.1,199,162.6,201.2,156.8z"/>
		<path class="st44" d="M166.9,170c-0.1,0-0.2,0-0.3,0c-6.5-0.5-17.5-2.3-23.1-3.9c-1.8-0.5-3.1-2.2-3.2-4.1
			c-0.2-3.8,0.7-9.1,1.2-11.9c0.4-2.2,2.3-3.7,4.4-3.6c6.8,0.3,18.9,2.4,25.3,4.4c2,0.6,3.2,2.5,2.9,4.7c-0.4,3.5-1.7,8.4-3,11.6
			C170.4,168.8,168.7,170,166.9,170z M145.7,149.2c-0.7,0-1.3,0.5-1.4,1.3c-0.5,2.7-1.4,7.7-1.2,11.2c0,0.7,0.5,1.4,1.2,1.6
			c5.4,1.6,16.2,3.4,22.6,3.8c0.7,0,1.4-0.4,1.7-1.1c1.2-3,2.4-7.6,2.8-10.9c0.1-0.8-0.3-1.5-1-1.7
			C164.1,151.6,152.4,149.6,145.7,149.2C145.7,149.2,145.7,149.2,145.7,149.2z"/>
		<path class="st44" d="M204.7,176.5c-0.1,0-0.2,0-0.3,0c-6.5-0.5-17.5-2.3-23.1-3.9c-1.8-0.5-3.1-2.2-3.2-4.1
			c-0.2-3.8,0.7-9.1,1.2-11.9c0.4-2.2,2.3-3.7,4.4-3.6c6.8,0.3,18.9,2.4,25.3,4.4c2,0.6,3.2,2.5,2.9,4.7c-0.4,3.5-1.7,8.4-3,11.6
			C208.2,175.3,206.5,176.5,204.7,176.5z M183.5,155.7c-0.7,0-1.3,0.5-1.4,1.3c-0.5,2.7-1.4,7.7-1.2,11.2c0,0.7,0.5,1.4,1.2,1.6
			c5.4,1.6,16.2,3.4,22.6,3.8c0.7,0,1.4-0.4,1.7-1.1c1.2-3,2.4-7.6,2.8-10.9c0.1-0.8-0.3-1.5-1-1.7
			C201.9,158.1,190.2,156.1,183.5,155.7C183.5,155.7,183.5,155.7,183.5,155.7z"/>
		<path class="st44" d="M180.6,157c-1.6-0.7-5.9-1.4-7.3-1.3L173,153c1.9-0.2,6.7,0.6,8.7,1.5L180.6,157z"/>
	</g>
	<g>
		<path class="st17" d="M126.7,41.1H126c-0.1,0-0.1-0.1-0.1-0.1v-3.5c0-0.1,0.1-0.1,0.1-0.1c0.1,0,0.1,0.1,0.1,0.1v3.4h0.6
			c0.1,0,0.1,0.1,0.1,0.1C126.9,41.1,126.8,41.1,126.7,41.1z"/>
		<path class="st17" d="M127.8,41.1h-0.7c-0.1,0-0.1-0.1-0.1-0.1v-3.5c0-0.1,0.1-0.1,0.1-0.1s0.1,0.1,0.1,0.1v3.4h0.6
			c0.1,0,0.1,0.1,0.1,0.1C128,41.1,127.9,41.1,127.8,41.1z"/>
		<path class="st28" d="M120.6,32.8c0,0-3.6-2.2-4.3-1c-0.9,1.4,2.2,2.2,2.2,2.2s-3.3-0.7-3.3,0.8c0.1,1.5,2.9,0.8,2.9,0.8
			s-2.5,1.1-1.7,2.4c0.6,1,2.5-0.2,3.5-1c0.4-0.3,0.9-0.4,1.4-0.2c1.2,0.4,3.7,1.6,6.6,0.6c2.5-0.9,3.2-2.9,4-4.2
			c0.8-1.2,1.7-2.3,3.1-2.7c1.5-0.5,2-1.3,0.4-2.4c-1-0.7-3.3-1.6-7.9,1.7C123.8,32.7,120.6,32.8,120.6,32.8z"/>
		<polygon class="st14" points="135.5,29.6 136.1,28.5 137.7,29.8 135.7,30.4 		"/>
		
			<ellipse transform="matrix(2.496101e-002 -0.9997 0.9997 2.496101e-002 101.9202 162.622)" cx="134.3" cy="29.1" rx="0.5" ry="0.5"/>
		<path class="st45" d="M129.1,32.8c0.3,1.3-0.4,2.6-1.6,3c-0.9,0.3-1.8,0.6-2.5,0.8c-1.5,0.4-2,0.2-1.9-0.1
			c0.1-0.3,2.4-1.3,2.4-1.3s-3.2,1.1-3.4,0.5s2.8-1.7,2.8-1.7s-2.6,0.8-2.8,0.3c-0.2-0.5,2-1.5,3.6-2.3c1.6-0.8,2.6-1.6,2.6-1.6
			S128.7,31.5,129.1,32.8C129.1,32.8,129.1,32.8,129.1,32.8z"/>
		<polygon class="st2" points="135.5,29.6 137.7,29.8 135.7,30.4 		"/>
	</g>
	<path class="st2" d="M73.4,122.1c3.1,2.8,4,6.2,1.2,7.8c-2.7,1.5-5.1,0.4-6.3,3.9l0.5,41.3l-1.9,0.1v-52.2L73.4,122.1z"/>
	<g>
		<g>
			<path class="st1" d="M33.4,163.1c-1.8,4.9-4.2,8.5-4.9,11c-0.6,2-2.4,0.5-5.1,0.9c-3,0.5-5.1-0.1-5-0.8c0.1-0.7,5.8-1.2,7-3.2
				c1.1-1.9,3.3-9.5,3.3-9.5L33.4,163.1z"/>
			<path class="st17" d="M26,173.6c-0.8,0.1-1.8-0.3-2.5-1.1c-2.1,0.9-5,1.3-5.1,1.8c-0.1,0.7,2.1,1.3,5,0.8
				c2.6-0.4,4.5,1.1,5.1-0.9c0.1-0.2,0.2-0.5,0.3-0.8C27.7,173.1,26.7,173.5,26,173.6z"/>
			<path class="st44" d="M23.5,174.7c-2.8,0.5-4.8,0-5-0.6c-0.1,0.1-0.1,0.1-0.1,0.2c-0.1,0.7,2.1,1.3,5,0.8c2.6-0.4,4.4,1,5-0.8
				C27.7,175.6,25.9,174.3,23.5,174.7z"/>
		</g>
		<path class="st2" d="M33.4,163.1c-1.8,4.9-4.2,8.5-4.9,11c-0.6,2-2.4,0.5-5.1,0.9c-3,0.5-5.1-0.1-5-0.8c0.1-0.7,5.8-1.2,7-3.2
			c1.1-1.9,3.3-9.5,3.3-9.5L33.4,163.1z"/>
		<path class="st1" d="M18.9,170.4c-4.7,2.3-9,3.2-11.2,4.5c-1.8,1-1.6-1.4-4.3-2.6c-2.7-1.2-3.2-4.1-2.7-4.5
			c0.5-0.4,4.4,3.5,6.5,2.9c2.1-0.6,9.3-4.7,9.3-4.7L18.9,170.4z"/>
		<path class="st1" d="M57.7,142.3c0,0,1.2-0.5,3-0.2c1.8,0.3,2.4,1.5,2.4,1.5s-2.7,9.6-6.4,10.3c-3.7,0.8-11.1-2.1-14.1-2.8
			c-3-0.7-4.5-1.1-4.5-1.1s-0.5,0.6-0.9,0.5c-0.4,0-0.4-0.2-0.4-0.2s-0.2,0.2-0.5,0.3c-0.3,0-0.4-0.2-0.4-0.2s-0.5,0.3-0.7,0.3
			c-0.3-0.1-0.2-0.4-0.2-0.4s-0.3,0.1-0.5-0.4c-0.2-0.5,0.6-2.7,2.1-3.5c1.5-0.7,7.6,0.4,10.8,1c3.2,0.6,7.8,2,7.8,2
			S57,145.2,57.7,142.3z"/>
		
			<linearGradient id="SVGID_10_" gradientUnits="userSpaceOnUse" x1="-833.4053" y1="-1011.8876" x2="-816.4469" y2="-1013.7277" gradientTransform="matrix(0.9549 0.2968 -0.2968 0.9549 536.2906 1358.6992)">
			<stop  offset="0" style="stop-color:#F0C3A8"/>
			<stop  offset="1" style="stop-color:#FFFFFF"/>
		</linearGradient>
		<path class="st46" d="M57.7,142.3c0,0,1.2-0.5,3-0.2c1.8,0.3,2.4,1.5,2.4,1.5s-2.7,9.6-6.4,10.3c-3.7,0.8-11.1-2.1-14.1-2.8
			c-3-0.7-4.5-1.1-4.5-1.1s-0.5,0.6-0.9,0.5c-0.4,0-0.4-0.2-0.4-0.2s-0.2,0.2-0.5,0.3c-0.3,0-0.4-0.2-0.4-0.2s-0.5,0.3-0.7,0.3
			c-0.3-0.1-0.2-0.4-0.2-0.4s-0.3,0.1-0.5-0.4c-0.2-0.5,0.6-2.7,2.1-3.5c1.5-0.7,7.6,0.4,10.8,1c3.2,0.6,7.8,2,7.8,2
			S57,145.2,57.7,142.3z"/>
		<path class="st44" d="M57.3,161.6c-0.2-0.3-13.2-13-19.8-12.9c-6.7,0.1-10.2,14.7-10.2,14.7l5.7,1.9l5.7-8l12.3,15.5L57.3,161.6z"
			/>
		<path class="st1" d="M63.8,137.7c0,1.4-1.1,2.8-3,3.2c-2.1,0.4-3.7,1.4-4.4,0.4c0.3-0.3,0.8-2.6,0.7-3.1c-0.2-1.4-3.2-8.1-3.2-8.1
			l4.8-2c0,0,2.8,6.7,3.4,7.7C62.4,136.3,63.2,137.3,63.8,137.7z"/>
		
			<linearGradient id="SVGID_11_" gradientUnits="userSpaceOnUse" x1="-471.0635" y1="1424.7377" x2="-471.8254" y2="1433.3092" gradientTransform="matrix(-0.9273 0.3744 0.3744 0.9273 -914.0801 -1014.9246)">
			<stop  offset="0" style="stop-color:#F0C3A8"/>
			<stop  offset="1" style="stop-color:#FFFFFF"/>
		</linearGradient>
		<path class="st47" d="M57.2,138.6c0-0.1,0-0.2,0-0.3c-0.2-1.4-3.2-8.1-3.2-8.1l4.8-2c0,0,2.8,6.7,3.4,7.7c0.1,0.2,0.2,0.3,0.4,0.4
			L57.2,138.6z"/>
		<path class="st27" d="M66.6,159.8c0,0-0.7,10.9-5.2,14.2c-5.9,4.4-16-3.1-16-3.1l4.3-6.9c0,0,2.5,0.1,7.8-5.5
			C63.4,159.3,66.6,159.8,66.6,159.8z"/>
		<path class="st35" d="M58.3,131.3c0.1,1.1,0.7,4.2-1.7,5.3c-0.5-1.2-1-2.5-1.5-3.5L58.3,131.3z"/>
		<path class="st16" d="M56.3,140.9c-2,4.8-3,6-2.8,7.5c0.2,1,0.6,1.7,1.1,2.2c1,0.9,0.7,1.9,1,3.1l-0.4,4.4c0,0,2.6,2,6.3,2.7
			c3.6,0.7,5.7-0.1,5.7-0.1s1.1-13.8-0.2-17.8c-1.6-4.7-4.3-6.4-4.3-6.4C60.6,137.1,57.5,140,56.3,140.9z"/>
		<path class="st2" d="M59.2,142.9c0-0.1,0-0.1,0-0.1C59.2,142.8,59.2,142.9,59.2,142.9z"/>
		<path class="st2" d="M65,143.5c-0.1,1.5-0.2,3.3-0.2,3.3l-5.7,0.2c0,0-0.1-3.3,0.1-4c-0.2,0.5-0.6,3.2-1,4.4
			c-0.5,1.6-1.3,3.9-2.5,6.4l-0.3,2.2c-0.1,0-10.1,3.4-10.2,3.5c-0.4,0.8,0.8,3.7,0.8,3.7s10.1-0.6,13.1-1.4
			C65.4,160,65,143.5,65,143.5z"/>
		<g>
			<path class="st17" d="M55.5,124.4c0.1-1.2-0.3-2.7,1.4-3.9c1.2-0.9,2.7-0.4,3.6,0.2c1,0.7,1-1.2,2.7-2.1c1.7-0.8,3.1,0.2,3.7,1
				c0.6,0.8,1.4-1.1,3.1-0.8c2,0.4,1.6,2.3,2.2,3.2c0.8,1.3,2.5,1.4,1.5,3.9c-1,2.5-3.2,1.9-4.1,1.4s-1.7-0.1-2.2,0.8
				c-0.5,0.9-2.6,1.2-3.3,0c-0.7-1.3-0.7-1.8-1.5-2.1c-0.8-0.3-1.2,0.5-2.3,0.2c-1.1-0.3-0.4-2.1-1.7-2c-1,0.1-1.5,1.1-1.5,1.1
				L55.5,124.4z"/>
			<path class="st36" d="M69.6,123.7c-0.6,1.1-2.6,1.4-3-0.1c-0.4-1.5-1.5-2-2.5-1.6c-1.1,0.4-2.4,1.8-2.9,1.1
				c-0.5-0.7-1.3-1.3-2.8-1.3c-1.4,0-2,1.4-2.5,2.6c0,0,0,0.1,0,0.2l1.3,0.6c0,0,0.5-1.1,1.5-1.1c1.2-0.1,0.6,1.7,1.7,2
				c1.1,0.3,1.5-0.5,2.3-0.2c0.8,0.3,0.8,0.9,1.5,2.1c0.7,1.3,2.8,0.9,3.3,0c0.5-0.9,1.4-1.3,2.2-0.8c0.8,0.5,3.1,1.1,4.1-1.4
				c0,0,0,0,0,0C72.9,122.2,70.2,122.7,69.6,123.7z"/>
			<path class="st1" d="M51.5,132.5c1.4,2.3,2.9,4.7,5.4,2.7c1.2-1,1.9-3.4,0.6-5.8c-1.3-2.4-2.2-4.1-5.1-2.8
				c-2.7,1.2-2.6,3.4-1,5.5C51.4,132.2,51.4,132.4,51.5,132.5z"/>
			<ellipse transform="matrix(0.8855 -0.4646 0.4646 0.8855 -55.198 39.3803)" cx="52.3" cy="131.7" rx="0.2" ry="0.2"/>
			
				<ellipse transform="matrix(0.8855 -0.4646 0.4646 0.8855 -55.2075 40.388)" class="st37" cx="54.3" cy="132.2" rx="0.8" ry="0.8"/>
			<path class="st48" d="M51.3,132l-0.2,1.4c0,0.2,0.1,0.3,0.3,0.3l0.7-0.2L51.3,132z"/>
			<path class="st39" d="M52.7,130.3c-0.1,0-0.3,0.1-0.4,0.1c-0.1,0-0.3,0.1-0.4,0.1c-0.1,0.1-0.2,0.1-0.4,0.2
				c-0.1,0.1-0.2,0.2-0.3,0.3l0,0c0,0,0,0,0,0c0,0,0,0,0,0c0.1-0.1,0.2-0.2,0.3-0.3c0.1-0.1,0.2-0.2,0.4-0.2
				c0.1-0.1,0.3-0.1,0.4-0.1c0.1,0,0.1,0,0.2,0C52.5,130.2,52.6,130.2,52.7,130.3C52.7,130.2,52.7,130.2,52.7,130.3
				C52.7,130.2,52.7,130.3,52.7,130.3z"/>
			<path class="st37" d="M53.6,133.5c-0.2,0-0.3,0.1-0.5,0.3c-0.2,0.2-0.4,0.4-0.5,0.5c0.1,0.1,0.2,0.3,0.3,0.4
				c0.1,0,0.3-0.2,0.3-0.3C53.8,133.8,53.8,133.5,53.6,133.5z"/>
			<path class="st2" d="M57.5,129.4c-1.3-2.4-2.2-4.1-5.1-2.8c-1.4,0.6-2,1.5-2.1,2.5c0,0,0.1,0,0.1,0c0.2-0.1,0.9-0.4,1.6-0.6
				c1.3-0.5,1.8,0.4,2.7,1c0.7,0.4,1.3,0,1.3,0l1.7,1.3c0.1,0,0.2,0,0.3,0.1C57.9,130.3,57.7,129.8,57.5,129.4z"/>
			<path class="st17" d="M50.4,128.6c-0.2,0-0.8-0.2-1-1c-0.1-0.7,0.4-2.2,2.1-2.3c1.1-0.1,1.4-0.9,2.6-1.2c3-0.7,4.4,0.8,6,3.4
				c0.8,1.3-0.5,3.4-0.5,3.4c-0.4,0.2-1.7-0.2-2.2-0.3l-1.6-1.4c0,0-0.5,0.6-1.2,0.1c-0.9-0.7-1.4-1.7-2.8-1.4
				C51.2,128.2,50.6,128.6,50.4,128.6z"/>
			<g>
				<path class="st49" d="M57.1,131.9c1-0.5,1.4-1.6,0.9-2.6c-0.5-1-1.6-1.4-2.6-0.9L57.1,131.9z"/>
				<path class="st37" d="M56.7,131.1c0.5-0.2,0.7-0.8,0.5-1.3c-0.2-0.5-0.8-0.7-1.3-0.5L56.7,131.1z"/>
			</g>
		</g>
		<rect x="36.6" y="146" transform="matrix(0.866 -0.5 0.5 0.866 -71.7123 39.0752)" class="st17" width="0.9" height="14.6"/>
		<path class="st1" d="M62,146.1c-1.8,0.1-2.9,0.9-2.9,0.9c0.1,2.9-2,8.3-2,8.3s-3.2,1.5-6.4,2c-3.2,0.5-9,2-10.9,1.9
			c0,0-0.3-1.5-0.8-1.1c-0.5,1.4-0.1,3.6,2,3.8c0.8,0,4.7-0.2,6.6-0.2c3-0.1,8.4-1.1,11.8-2.8c3.4-1.7,5.2-11.9,5.2-11.9
			S63.8,145.9,62,146.1z"/>
		<path class="st2" d="M62,146.4c1.6-0.2,2.6,0.6,2.7,0.7c0-0.3,0-0.2,0-0.2s-1-1.1-2.8-0.8c-1.8,0.2-2.8,1-2.8,1c0,0.1,0,0.3,0,0.4
			C59.2,147.4,60.2,146.7,62,146.4z"/>
		<path class="st1" d="M42.5,159c-0.3-0.5-1.6-1.2-2.2-1.2c0,0,0.3,0.9,0.7,1.1c0.4,0.2,0.6,0.6,0.6,0.6L42.5,159z"/>
		<path class="st27" d="M55.8,174.9c-6.2-1.4-25.2-7.4-25.2-7.4s-8.2,2.1-12,3.2l-3-4.5c0,0,7.5-5.1,14.5-5.8
			c8-0.9,29.2,3.9,29.2,3.9L55.8,174.9z"/>
		<path class="st17" d="M5.5,172.7c-1.1-0.9-1.6-2-1.5-2.9c-1.6-1-3-2.2-3.4-2c-0.5,0.4-0.1,3.3,2.7,4.5c2.7,1.2,2.5,3.6,4.3,2.6
			c0.3-0.2,0.7-0.4,1.1-0.5C8,173.4,6.5,173.5,5.5,172.7z"/>
		<g>
			<path class="st44" d="M3.7,172.1c-2.5-1.1-3.1-3.6-2.8-4.4c-0.1,0-0.2,0-0.2,0c-0.5,0.4-0.1,3.3,2.7,4.5c2.7,1.2,2.5,3.6,4.3,2.6
				c0,0,0,0,0,0C6.2,175.5,6.2,173.2,3.7,172.1z"/>
			<path class="st44" d="M8.2,174.5c0.2-0.1,0.4-0.2,0.6-0.3c0,0,0,0,0,0C8.6,174.4,8.4,174.5,8.2,174.5z"/>
		</g>
	</g>
	<g>
		<path class="st50" d="M265,66.2c-1-6.1-1.5-10.3-5.2-15.3c-0.6,4.6-0.6,9.3,0.3,15.5c0.9,6.1,1.9,11.5,3.9,15.7
			C265.9,78.3,265.9,71.3,265,66.2z"/>
		<path class="st51" d="M220.1,52.4c-14.1,2.4-16.7,4.4-23.8,8.5c-7.1,4.1-14.3,5.4-14.3,5.4s-0.4-0.9-1.1-1
			c-0.6-0.1-1.1,0.7-1.1,0.7s-4.3-2-6.1-0.7c-1.7,1.3-1,5.7,0.2,13.9c1.2,8.2,1.8,12.6,3.9,13.3c2.1,0.7,5.6-2.5,5.6-2.5
			s0.7,0.7,1.3,0.4c0.6-0.3,0.7-1.3,0.7-1.3s7.3-0.9,15.3,1c8,1.9,11.1,3,25.3,1.2c7.7-1,17.5-2.4,25.7-3.9
			c6.9-1.2,10.4-1.6,13.9-3.5c4.9-2.7,4-12.8,2.9-18.9c-0.8-6.1-2.9-16-8.3-17.2c-3.9-0.8-7.4-0.1-14.3,0.7
			C237.6,49.6,227.8,51.1,220.1,52.4z M175.6,80.4l-0.4-2.7c-0.6-3.7-1.3-8.7-0.4-9.4c0.1,0,0.1-0.1,0.3-0.1l3.2,21.2
			c-0.1,0-0.2,0-0.3,0C176.9,89.1,176.2,84.1,175.6,80.4z M180.9,88.5l-3-20.1c0.5,0.1,1,0.3,1.4,0.5l0.3,0.1l2.8,18.5l-0.2,0.2
			C181.8,87.9,181.3,88.2,180.9,88.5z M180.7,67.4c0.3-0.1,0.4,0.6,0.4,0.6l3,19.9c0,0,0.2,0.6-0.2,0.7c-0.4,0.1-0.4-0.5-0.4-0.5
			l-3-20.1C180.5,68,180.4,67.5,180.7,67.4z M243,50.6c1.1-0.1,2.1-0.3,3.1-0.4c4.8-0.6,8-1,11-0.4c3.1,0.7,5.7,5.9,6.9,14.4
			c0.1,0.5,0.2,1.6,0.2,1.6c0.1,0.5,0.2,1,0.2,1.5c1.3,8.5,0.4,14.2-2.4,15.8c-2.7,1.5-5.9,2-10.6,2.9c-0.9,0.2-2,0.3-3.1,0.5
			c-10.2,1.8-18.3,2.9-22.6,3.4c-12.9,1.7-20.3-0.9-24.2-2c-8.1-2.1-16-0.2-16.3-0.2l-0.1,0l-3-19.9l0.1,0c0.3-0.1,8.4-0.7,15.5-5.2
			c5.4-3.4,9.8-6.6,22.7-8.8C224.7,53.2,232.8,51.8,243,50.6z M263.6,83.5c0,0,3.7-5.1,1.5-18.2c-1.7-10.4-3.7-14.5-7.8-16.7
			c0,0,4.4-0.1,6.2,2.9c1.8,3,3.2,7.9,4.1,13.7c0.9,5.8,1,11.7-0.3,14.9C266,83.2,263.6,83.5,263.6,83.5z"/>
		<g>
			<path class="st11" d="M174.8,79.7c-3,0.4-6.6,0.8-11.4,12.5c-4.9,11.7,2.5,10.4-1.6,18.1c-3.8,7.1-5.5,22.3-5.5,22.3
				c1.7,2.8,8,3.1,10.9-0.1c0,0,3.7-23.5-0.2-32.2c-3-6.6,4.9-9.5,9.8-10.4L174.8,79.7z"/>
			<path class="st2" d="M171,80.8c-0.5,3.3-1.6,10-1.8,12c1.9-1.3,4.5-2.2,6.7-2.7L174,79.8C173.1,80,172.1,80.2,171,80.8z"/>
			<path class="st11" d="M219.1,71.5c0.1,0.8-1.1,1-1.3,0.2l-0.1,0c0.1,0.8-1.1,1-1.3,0.2l-4.7,0.9c0.1,0.8-1.1,1-1.3,0.2l-0.3,0.1
				c0.1,0.8-1.1,1-1.3,0.2l-0.1,0c0,0.7-1.1,0.9-1.3,0.2l-3.2,0.6c0.1,0.8-1.1,1-1.3,0.2L174,79.8c1.2,7.8,1.8,12.1,3.8,12.8
				c2.1,0.7,5.6-2.5,5.6-2.5s0.7,0.7,1.3,0.4c0.6-0.3,0.7-1.3,0.7-1.3s7.3-0.9,15.3,1c8,1.9,11.1,3,25.3,1.2
				c7.7-1,17.5-2.4,25.7-3.9c6.9-1.2,10.4-1.6,13.9-3.5c4.9-2.7,4-12.8,2.9-18.9c-0.1-0.9-0.2-1.8-0.4-2.7L219.1,71.5z"/>
			<linearGradient id="SVGID_12_" gradientUnits="userSpaceOnUse" x1="221.6774" y1="89.5987" x2="221.6774" y2="78.6194">
				<stop  offset="0" style="stop-color:#CBC7FF"/>
				<stop  offset="1" style="stop-color:#FFFFFF"/>
			</linearGradient>
			<path class="st52" d="M219.1,71.5c0.1,0.8-1.1,1-1.3,0.2l-0.1,0c0.1,0.8-1.1,1-1.3,0.2l-4.7,0.9c0.1,0.8-1.1,1-1.3,0.2l-0.3,0.1
				c0.1,0.8-1.1,1-1.3,0.2l-0.1,0c0,0.7-1.1,0.9-1.3,0.2l-3.2,0.6c0.1,0.8-1.1,1-1.3,0.2L174,79.8c1.2,7.8,1.8,12.1,3.8,12.8
				c2.1,0.7,5.6-2.5,5.6-2.5s0.7,0.7,1.3,0.4c0.6-0.3,0.7-1.3,0.7-1.3s7.3-0.9,15.3,1c8,1.9,11.1,3,25.3,1.2
				c7.7-1,17.5-2.4,25.7-3.9c6.9-1.2,10.4-1.6,13.9-3.5c4.9-2.7,4-12.8,2.9-18.9c-0.1-0.9-0.2-1.8-0.4-2.7L219.1,71.5z"/>
			<g>
				<path class="st11" d="M210.9,72.1c0.5-0.1,0.9,0.2,1,0.7c0.1,0.5-0.2,0.9-0.7,1c-0.5,0.1-0.9-0.2-1-0.7
					C210.1,72.6,210.4,72.1,210.9,72.1z M210.4,73c0.1,0.3,0.4,0.6,0.7,0.5c0.3-0.1,0.6-0.4,0.5-0.7s-0.4-0.6-0.7-0.5
					C210.6,72.3,210.3,72.6,210.4,73z"/>
				<path class="st11" d="M216.9,70.9c0.5-0.1,0.9,0.2,1,0.7c0.1,0.5-0.2,0.9-0.7,1c-0.5,0.1-0.9-0.2-1-0.7
					C216.1,71.4,216.4,71,216.9,70.9z M216.4,71.9c0.1,0.3,0.4,0.6,0.7,0.5c0.3-0.1,0.6-0.4,0.5-0.7c-0.1-0.3-0.4-0.6-0.7-0.5
					C216.6,71.2,216.3,71.5,216.4,71.9z"/>
				<path class="st11" d="M218.3,70.7c0.5-0.1,0.9,0.2,1,0.7c0.1,0.5-0.2,0.9-0.7,1c-0.5,0.1-0.9-0.2-1-0.7
					C217.5,71.2,217.8,70.8,218.3,70.7z M217.8,71.6c0.1,0.3,0.4,0.6,0.7,0.5c0.3-0.1,0.6-0.4,0.5-0.7c-0.1-0.3-0.4-0.6-0.7-0.5
					C218,71,217.8,71.3,217.8,71.6z"/>
				<path class="st11" d="M209.3,72.3c0.5-0.1,0.9,0.2,1,0.7c0.1,0.5-0.2,0.9-0.7,1c-0.5,0.1-0.9-0.2-1-0.7
					C208.5,72.8,208.8,72.4,209.3,72.3z M208.8,73.2c0.1,0.3,0.4,0.6,0.7,0.5c0.3-0.1,0.6-0.4,0.5-0.7s-0.4-0.6-0.7-0.5
					C209,72.6,208.7,72.9,208.8,73.2z"/>
				<path class="st11" d="M203.3,73.5c0.5-0.1,0.9,0.2,1,0.7c0.1,0.5-0.2,0.9-0.7,1c-0.5,0.1-0.9-0.2-1-0.7
					C202.5,74,202.8,73.5,203.3,73.5z M202.8,74.4c0.1,0.3,0.4,0.6,0.7,0.5c0.3-0.1,0.6-0.4,0.5-0.7c-0.1-0.3-0.4-0.6-0.7-0.5
					C203,73.7,202.8,74.1,202.8,74.4z"/>
				<path class="st11" d="M207.8,72.5c0.5-0.1,0.9,0.2,1,0.7c0.1,0.5-0.2,0.9-0.7,1c-0.5,0.1-0.9-0.2-1-0.7
					C207,73,207.3,72.6,207.8,72.5z M207.3,73.4c0.1,0.3,0.4,0.6,0.7,0.5c0.3-0.1,0.6-0.4,0.5-0.7c-0.1-0.3-0.4-0.6-0.7-0.5
					C207.5,72.8,207.3,73.1,207.3,73.4z"/>
			</g>
			
				<linearGradient id="SVGID_13_" gradientUnits="userSpaceOnUse" x1="116.1157" y1="42.3492" x2="116.1157" y2="36.3105" gradientTransform="matrix(0.9998 2.060000e-002 -2.060000e-002 0.9998 47.9765 61.5769)">
				<stop  offset="0" style="stop-color:#CBC7FF"/>
				<stop  offset="1" style="stop-color:#FFFFFF"/>
			</linearGradient>
			<path class="st53" d="M164.3,94.2c-0.1,2.8,2.3,8.4-1.5,13.8c0,0,0.9-2.4-0.4-5.1c-1.4-3-0.5-7.8,0.9-10.5
				C164.5,90,164.3,92.1,164.3,94.2z"/>
			<linearGradient id="SVGID_14_" gradientUnits="userSpaceOnUse" x1="161.4158" y1="133.5785" x2="169.0467" y2="111.4566">
				<stop  offset="0" style="stop-color:#CBC7FF"/>
				<stop  offset="1" style="stop-color:#FFFFFF"/>
			</linearGradient>
			<path class="st54" d="M157.7,133.9c0,0,2-11.7,5.2-16.6c3.2-4.9,2.9-7.1,3.8-7.6c0.8-0.5,1.1,16.7-0.4,23.7
				C163.8,135.2,159.7,135.2,157.7,133.9z"/>
		</g>
		<path class="st11" d="M199.1,64.6c1.7-1.1,3.5-2.1,5.4-3.1c0.5-0.2,0.9-0.4,1.4-0.7c0.5-0.2,0.9-0.4,1.4-0.6
			c1-0.4,1.9-0.8,2.9-1.1c3.9-1.3,8-2.2,12-3c4.1-0.7,8.1-1.4,12.2-1.9c4.1-0.5,8.2-1,12.3-1.3c-4.1,0.7-22.3,3.7-24.3,4
			c-2,0.4-4,0.8-6,1.2c-2,0.4-4,1-5.9,1.5c-2,0.6-3.9,1.3-5.7,2.1C202.7,62.7,200.9,63.6,199.1,64.6z"/>
	</g>
	<path class="st2" d="M218,80.7c0.7-2.2,4.4-3.8,6.8-1.9c2.4,1.9,3.7,12.4,3.7,12.4l-12.9,1.4c0,0,3.6-1,4.1-3.7
		c0.5-2.7-1.1-1.9-1.6-3.6C217.6,83.6,217.6,81.7,218,80.7z"/>
	<g>
		<g>
			<path class="st23" d="M225.5,172.8c0,0,0.5,1.5,0.3,1.9c-0.3,0.4-0.8,0.3-4,0.3c-3.2,0-6.7,0.4-6.8-0.2c-0.2-0.6,0.9-0.7,2.5-1.2
				c1.6-0.5,2.1-1.2,2.1-1.2L225.5,172.8z"/>
			<path class="st27" d="M215.1,174.5c0.6,0.4,3.8,0.1,6.8,0.1c3.2,0,3.7,0.1,4-0.3c0,0,0,0,0,0c0,0.2,0,0.4-0.1,0.5
				c-0.3,0.4-0.8,0.3-4,0.3c-3.2,0-6.7,0.4-6.8-0.2C214.9,174.7,215,174.6,215.1,174.5z"/>
		</g>
		<g>
			<path class="st23" d="M248.2,171.5c0,0,0.8,1.3,0.6,1.8c-0.2,0.5-0.8,0.1-3.8,1.2c-2.5,0.9-6.8,0.8-7.1,0.4
				c-0.6-0.9,1-0.5,2.5-1.2c1.5-0.7,1.8-1.6,1.8-1.6L248.2,171.5z"/>
			<path class="st27" d="M237.9,174.3c0.7,0.4,4.6,0.4,7-0.4c3-1.1,3.6-0.7,3.8-1.2c0,0,0-0.1,0-0.1c0.1,0.3,0.1,0.5,0.1,0.7
				c-0.2,0.5-0.8,0.1-3.8,1.2c-2.5,0.9-6.8,0.8-7.1,0.4C237.8,174.5,237.8,174.4,237.9,174.3z"/>
		</g>
		<path class="st27" d="M228.3,115.1c-3,10.7-6,21.1-7.5,34.6c-1.6,13.5-1.7,23-1.7,23c1.4,0.5,5.7,0.5,7.1,0.2
			c0,0,1.4-14.5,2.6-22.1c1.2-7.6,9.4-35,9.4-35L228.3,115.1z"/>
		<path class="st55" d="M242,111.3c4.6,7.8,2.1,15.1,2,30.9c-0.1,15,4.5,29.1,4.5,29.1c-1.5,0.7-4.5,2.3-6.6,1.8
			c0,0-5.1-15.2-6.2-27.1c-1.2-13.7-1.5-26.2-1.5-26.2L228,115L242,111.3z"/>
		<g>
			<path class="st1" d="M231.6,94.3c-1.6,2.3-5.2,2.5-6,2.3c-1.4-0.5-1.6-0.8-2.3-2c2.1-2.4,2.3-2.2,2.1-3.4c-0.2-1.3-3.4-7-3.4-7
				l5.2-2.4c0,0,3,5.7,3.6,6.6c0.4,0.5,2,1.2,2.8,1.7C233.3,91.8,232.5,92.9,231.6,94.3z"/>
			
				<linearGradient id="SVGID_15_" gradientUnits="userSpaceOnUse" x1="5567.3447" y1="228.6423" x2="5566.645" y2="236.5131" gradientTransform="matrix(-0.9552 0.4558 0.4306 0.9025 5443.8364 -2660.4236)">
				<stop  offset="0" style="stop-color:#F0C3A8"/>
				<stop  offset="1" style="stop-color:#FFFFFF"/>
			</linearGradient>
			<path class="st56" d="M225.4,91.5c0-0.1,0-0.2,0-0.3c-0.2-1.3-3.4-7-3.4-7l5.2-2.4c0,0,3,5.7,3.6,6.6c0.1,0.1,0.2,0.3,0.4,0.3
				L225.4,91.5z"/>
			<path class="st35" d="M224.6,87.8c-0.2,0.1-0.4,0.2-0.6,0.3c-1-2-2-3.9-2-3.9l3.7-1.7C226.5,84.7,226.3,86.9,224.6,87.8z"/>
			<path class="st1" d="M219.6,83.3c0.8,2.5,2.4,4.2,4.7,3.5c1.8-0.6,2.7-3.1,1.9-5.5s-2.1-4.3-4.7-3.5
				C218.5,78.7,218.8,80.8,219.6,83.3z"/>
			<path class="st44" d="M226.8,76.7c1,1.1,2.3,2.1,0.7,5.8l-1.9,0l0.1-4.1L226.8,76.7z"/>
			<ellipse transform="matrix(0.9532 -0.3022 0.3022 0.9532 -14.4836 70.5676)" cx="220.8" cy="82.1" rx="0.3" ry="0.3"/>
			<path class="st37" d="M225.2,83.3c1-0.3,1.5-1.3,1.2-2.3c-0.3-1-1.3-1.5-2.3-1.2L225.2,83.3z"/>
			<path class="st38" d="M224.9,82.5c0.5-0.2,0.8-0.7,0.6-1.2c-0.2-0.5-0.7-0.8-1.2-0.6L224.9,82.5z"/>
			
				<ellipse transform="matrix(0.9532 -0.3022 0.3022 0.9532 -14.7558 70.9925)" class="st37" cx="222" cy="83.2" rx="0.8" ry="0.8"/>
			<path class="st37" d="M219.6,82.3L219,84c-0.1,0.2,0.1,0.4,0.3,0.4l1-0.1L219.6,82.3z"/>
			<path class="st44" d="M224.2,80.3l0.5,1.4l-0.5,0.2c-0.1-0.4-0.4-1.2-0.6-1.4L224.2,80.3z"/>
			<path class="st44" d="M219.2,79.7c-1.8-0.3-2.7-3.4-0.6-3.2c2.7,0.2,4.1-1.1,5.6-1c1.3,0.1,3.5,1.2,3.3,3.3
				c-0.1,2.1-2.8,2-3.6,1.9c-1-0.1-1.8-1.1-2.5-2.3C221.4,78.4,220.5,78.3,219.2,79.7z"/>
			<path class="st44" d="M221.5,81.1c-0.3,0.1-0.6,0.1-0.8,0.2c-0.1,0-0.3,0-0.4,0.1c-0.1,0-0.1,0-0.2,0l-0.2,0.1c0,0,0,0,0,0
				c0,0,0,0,0,0c0,0,0,0-0.1,0c0,0,0-0.1,0-0.1c0,0,0.1,0,0.1,0c0,0,0,0-0.1,0c0,0,0,0,0,0c0,0,0,0,0,0c0,0,0,0,0,0c0,0,0,0,0,0l0,0
				l0,0c0,0,0.1,0,0.1-0.1c0.1,0,0.1-0.1,0.2-0.1c0.1-0.1,0.3-0.1,0.4-0.1c0.3,0,0.6-0.1,0.9,0C221.6,80.9,221.6,81,221.5,81.1
				C221.6,81.1,221.6,81.1,221.5,81.1z"/>
			<path class="st44" d="M220.1,84.5c0,0,0,3.4,1.2,3.4c1.8,0.1,3.5-1.4,4.1-1.8c0.5-0.4-0.4-3.2-0.4-3.2l-0.4-1.3l-0.5,0.2
				c0,0,0.3,1.7-1,2.2C222.8,84.2,221.4,83.9,220.1,84.5z"/>
			<path class="st11" d="M220.4,85.1c-0.1,0-0.1,0-0.2,0.1c0,0.1,0,0.3,0,0.5c0.1,0,0.2,0,0.3-0.1c0.4-0.1,0.7-0.4,0.6-0.7
				C221.1,84.7,220.8,84.9,220.4,85.1z"/>
		</g>
		<path class="st17" d="M225.4,91.4c0,0-4.3,0.4-7.4,3.7c-3.3,3.4-4.7,3.6-4.7,3.6l2.7,6.2c0,0,3-1.4,6.1-3c0,0,4,5.5,4.8,9.4
			c0.7,3.9,0.7,5.2,0.7,5.2s2.9,0.3,8.3-0.8c5.4-1.2,7.2-3.3,7.2-3.3s-2.3-16.6-6.5-20.7c-3.4-3.3-5.8-3.1-5.8-3.1s-0.7,2.1-2.8,2.7
			C226,91.9,225.4,91.4,225.4,91.4z"/>
		<path class="st2" d="M230.7,93.1c-1.9,1.4-3.9,6.9-6.4,8.2c-2.5,1.3-1.8,1-1.8,1l-0.3-0.4l-6.1,3l-2.7-6.2l4.3-2.3l6.1,4
			c0,0,2.1-1.7,3.7-3.7C229,94.7,230.7,93.1,230.7,93.1z"/>
		<path class="st1" d="M224.4,101.3l3,4.7c0,0-3.6,2.4-7,1.9c-3.4-0.4-7-14.7-7-14.7s-0.3-1.3,1.2-1.9c1.5-0.6,1.3-1.9,1.3-1.9
			s0-0.2,0.2-0.3c0.2-0.1,0.6,0.4,0.3,1.2c0,0,0.4-0.7,0.2-1.4c-0.2-0.7,0.5-0.6,0.6-0.1c0.1,0.6-0.3,1.9-0.3,1.9s0.7-1,0.6-1.5
			c0-0.5,0.4-0.4,0.5,0c0,0.3,0,1.2-0.5,1.7c0,0,0.6-0.5,0.6-0.8c0.1-0.3,0.3-0.5,0.4-0.3c0.1,0.2,0.1,1.2-1,2c-1.1,0.9-1.3,1-1.3,1
			l5.4,10L224.4,101.3z"/>
		<path class="st2" d="M235.3,100.1c0,0-4.5,5.5-6.7,7.2l-1.1-1.3l-2,1c0,0,0.9,1.5,1.3,3.3c0.4,1.7,0.8,3.7,0.8,3.7
			s2.2-1.4,4.4-5.5C234.5,103.8,235.3,100.1,235.3,100.1z"/>
	</g>
</g>
</svg>
