<?xml version="1.0" standalone="no"?>
<!DOCTYPE svg PUBLIC "-//W3C//DTD SVG 1.1//EN" "http://www.w3.org/Graphics/SVG/1.1/DTD/svg11.dtd" >
<svg xmlns="http://www.w3.org/2000/svg">
<metadata>Generated by IcoMoon</metadata>
<defs>
<font id="UkieFont" horiz-adv-x="1024">
<font-face units-per-em="1024" ascent="960" descent="-64" />
<missing-glyph horiz-adv-x="1024" />
<glyph unicode="&#x20;" horiz-adv-x="512" d="" />
<glyph unicode="&#xe900;" glyph-name="arrow-down" d="M1024 383.572c0 35.349-28.652 64-64 64-16.311 0-31.188-6.112-42.489-16.156l-0.012 0.020-341.876-292.396v756.94c0 35.346-28.652 64-64 64s-64-28.654-64-64v-756.8l-341.14 292.244c-11.301 10.041-26.176 16.149-42.484 16.149-35.348 0-64-28.651-64-64 0-19.915 9.1-37.71 23.371-49.445h-0.002l444.030-380.34c1.733-1.659 3.556-3.223 5.467-4.681l0.277-0.238 0.011 0.012c10.709-8.069 24.030-12.855 38.471-12.855 14.436 0 27.749 4.782 38.459 12.848v0l0.018 0.014c2.059 1.552 4.016 3.234 5.872 5.017l444.121 379.806c14.572 11.724 23.906 29.698 23.906 49.861z" />
<glyph unicode="&#xe901;" glyph-name="arrow-left" d="M447.573 960c35.348 0 64-28.652 64-64 0-16.311-6.112-31.188-16.156-42.489l0.018-0.012-292.395-341.876h756.939c35.348 0 64-28.652 64-64 0-35.349-28.652-64-64-64h-756.798l292.244-341.141c10.041-11.3 16.149-26.178 16.149-42.482 0-35.348-28.652-64-64-64-19.918 0-37.71 9.1-49.447 23.371l-0.002-0.004-380.341 444.030c-1.659 1.735-3.223 3.556-4.681 5.467l-0.238 0.274 0.012 0.011c-8.069 10.709-12.855 24.032-12.855 38.475 0 14.436 4.782 27.751 12.844 38.459v0l0.014 0.018c1.552 2.059 3.234 4.012 5.017 5.868l379.808 444.124c11.73 14.574 29.705 23.908 49.868 23.908z" />
<glyph unicode="&#xe902;" glyph-name="arrow-right" d="M576.427 960c-35.348 0-64-28.652-64-64 0-16.311 6.112-31.188 16.156-42.489l-0.016-0.012 292.393-341.876h-756.939c-35.348 0-64-28.652-64-64 0-35.349 28.652-64 64-64h756.798l-292.244-341.141c-10.041-11.3-16.149-26.178-16.149-42.482 0-35.348 28.652-64 64-64 19.918 0 37.71 9.1 49.445 23.371l0.002-0.004 380.34 444.032c1.659 1.737 3.223 3.556 4.681 5.465l0.238 0.277-0.012 0.011c8.069 10.708 12.855 24.030 12.855 38.473 0 14.436-4.782 27.751-12.846 38.459v0l-0.014 0.018c-1.552 2.059-3.234 4.012-5.017 5.868l-379.803 444.123c-11.73 14.574-29.705 23.908-49.868 23.908z" />
<glyph unicode="&#xe903;" glyph-name="arrows-alt" d="M1024.222 896.388c0 35.348-28.652 64-64 64h-256c-35.348 0-64-28.652-64-64s28.652-64 64-64h101.508l-293.897-293.943-293.563 293.612h101.508c35.348 0 64 28.652 64 64s-28.652 64-64 64h-256c-35.348 0-64-28.652-64-64 0-0.299 0.018-0.592 0.023-0.891h-0.023v-256c0-35.348 28.652-64 64-64s64 28.652 64 64v102.48l293.625-293.648-293.621-293.668v102.059c0 35.351-28.652 64.004-64 64.004-35.346 0-64-28.652-64-64.004v-255.996h0.011c0-0.149-0.011-0.299-0.011-0.448 0-35.348 28.652-64 63.998-64v0 0l256 0.004c35.346 0 63.998 28.652 64 64-0.002 35.348-28.652 63.996-64.002 64h-101.531l293.588 293.611 293.918-293.945h-101.529c-35.349-0.004-64-28.652-64.002-64 0.002-35.348 28.654-64 64-64l256.002-0.004c35.344 0 63.996 28.652 63.996 64 0 0.153-0.011 0.299-0.011 0.448h0.011v255.996c0 35.351-28.652 64-64 64s-64-28.649-64-64v-102.059l-293.956 294 293.957 293.98v-102.482c0-35.348 28.652-64 64-64s64 28.652 64 64v256h-0.023c0.004 0.299 0.023 0.594 0.023 0.892z" />
<glyph unicode="&#xe904;" glyph-name="arrow-up" d="M1024 512.427c0-35.348-28.652-64-64-64-16.311 0-31.188 6.112-42.489 16.156l-0.012-0.018-341.876 292.395v-756.939c0-35.348-28.652-64-64-64s-64 28.652-64 64v756.798l-341.14-292.244c-11.301-10.041-26.176-16.149-42.484-16.149-35.348 0-64 28.652-64 64 0 19.918 9.1 37.71 23.371 49.447l-0.002 0.002 444.030 380.341c1.733 1.659 3.556 3.223 5.467 4.681l0.277 0.238 0.011-0.012c10.709 8.069 24.030 12.855 38.471 12.855 14.436 0 27.751-4.782 38.459-12.844v0l0.018-0.014c2.059-1.552 4.014-3.234 5.87-5.017l444.124-379.81c14.571-11.728 23.904-29.703 23.904-49.867z" />
<glyph unicode="&#xe905;" glyph-name="circle-big" d="M512 960c-282.77 0-512-229.232-512-512 0-282.772 229.23-512 512-512s512 229.228 512 512c0 282.768-229.23 512-512 512zM512 64c-212.078 0-384 171.922-384 384 0 212.075 171.922 384 384 384s384-171.925 384-384c0-212.078-171.922-384-384-384z" />
<glyph unicode="&#xe906;" glyph-name="search-big" d="M576.482 960.724c-246.892 0-447.029-200.601-447.029-448.071 0-100.667 33.12-193.572 89.031-268.377l-199.71-200.224c-24.526-25.031-24.384-65.195 0.453-90.036 24.839-24.841 65.003-24.983 90.034-0.455l0.005-0.004 0.215 0.215c0.084 0.084 0.172 0.16 0.258 0.244 0.092 0.094 0.176 0.19 0.268 0.281l198.907 199.381c74.601-55.956 167.223-89.093 267.57-89.093 246.889 0 447.026 200.601 447.026 448.064 0.002 247.472-200.139 448.075-447.028 448.075zM576.482 192.656c-176.736 0-320 143.264-320 319.998 0 176.738 143.266 320.002 320 320.002 176.731 0 320-143.264 320-320.002 0-176.734-143.266-319.998-320-319.998z" />
<glyph unicode="&#xe907;" glyph-name="check" d="M1015.236 863.998l-0.011 0.005c14.126 24.473 10.743 56.292-10.19 77.225-24.997 24.994-65.518 24.994-90.51 0-3.975-3.973-7.308-8.341-10.021-12.976l-0.004 0.004-470.315-823.756-323.554 323.104c-0.382 0.404-0.752 0.809-1.148 1.205-0.416 0.416-0.85 0.809-1.275 1.216l-0.434 0.43-0.011-0.011c-25.097 23.333-64.359 22.795-88.789-1.636-24.996-24.994-24.996-65.515 0-90.51l384-383.527c24.996-24.994 65.516-24.994 90.508 0 3.604 3.602 6.67 7.536 9.232 11.691l0.018-0.009 0.233 0.407c0.651 1.074 1.278 2.158 1.861 3.262l510.409 893.876z" />
<glyph unicode="&#xe908;" glyph-name="close" d="M1001.876 48.284l0.014 0.014-399.463 399.6 402.83 402.844c24.992 24.996 24.994 65.518 0 90.514-24.9 24.901-65.204 24.987-90.215 0.274l-0.007 0.005-0.229-0.229c-0.018-0.018-0.037-0.034-0.052-0.052-0.018-0.018-0.036-0.037-0.052-0.053l-402.706-402.839-402.697 402.836c-0.020 0.018-0.036 0.037-0.050 0.053-0.016 0.016-0.037 0.034-0.053 0.052l-0.229 0.229-0.005-0.005c-25.013 24.713-65.317 24.628-90.217-0.274-24.994-24.997-24.992-65.518 0-90.516l402.82-402.839-399.44-399.607c-1.113-0.969-2.208-1.963-3.268-3.024-24.992-24.994-24.992-65.516 0-90.512 24.994-24.997 65.511-24.997 90.501 0 0.375 0.372 0.724 0.761 1.086 1.143l401.554 401.568 401.559-401.575c0.361-0.382 0.711-0.773 1.083-1.145 24.992-24.996 65.515-24.996 90.503 0 24.992 25.001 24.992 65.522 0 90.514-1.060 1.060-2.153 2.055-3.268 3.024z" />
<glyph unicode="&#xe909;" glyph-name="download" d="M285.092 329.228l-0.062-0.091 190.203-126.082c0.86-0.601 1.735-1.179 2.617-1.735l0.551-0.364 0.011 0.014c20.441-12.535 46.38-12.53 66.816 0.020l0.021-0.034 1.202 0.796c0.391 0.254 0.779 0.51 1.164 0.773l190.978 126.649c3.785 2.436 7.374 5.296 10.688 8.61 24.988 24.996 24.988 65.516 0 90.51-22.903 22.912-58.841 24.804-83.918 5.708l-0.011 0.016-89.63-59.426v521.406c0 16.379-6.247 32.757-18.738 45.255-24.983 24.996-65.49 24.996-90.476 0-12.498-12.505-18.743-28.894-18.736-45.284v-521.342l-87.881 58.203c-25.125 20.434-62.132 18.948-85.531-4.459-24.987-24.996-24.987-65.516 0-90.51 3.324-3.324 6.932-6.197 10.732-8.635zM1005.262 302.148c-24.987 24.996-65.492 24.996-90.476 0-12.716-12.724-18.946-29.472-18.716-46.146h-0.021v-192l-767.374-0.002-0.722 192h-0.021c0.229 16.674-6 33.42-18.718 46.144-24.983 24.996-65.49 24.996-90.476 0-12.716-12.724-18.946-29.47-18.716-46.144h-0.020l0.983-261.333h0.235c1.209-14.558 7.369-28.782 18.503-39.924 12.244-12.247 28.213-18.476 44.258-18.72v-0.023h0.91c0.048 0 0.096 0 0.146 0l894.992 0.002c16.373 0 32.747 6.249 45.239 18.745 11.136 11.143 17.296 25.365 18.501 39.924h0.233v261.332h-0.021c0.229 16.674-5.998 33.422-18.716 46.146z" />
<glyph unicode="&#xe90a;" glyph-name="facebook" d="M767.774 959.78l-132.692 0.22c-149.074 0-245.419-98.916-245.419-252.011v-116.194h-133.417c-11.518 0-20.853-9.342-20.853-20.889v-168.347c0-11.538 9.335-20.878 20.853-20.878h133.417v-424.802c0-11.534 9.335-20.878 20.864-20.878h174.075c11.518 0 20.853 9.355 20.853 20.878v424.8h155.996c11.538 0 20.873 9.34 20.873 20.878l0.062 168.347c0 5.545-2.203 10.852-6.112 14.773-3.909 3.911-9.23 6.117-14.764 6.117h-156.057v98.5c0 47.344 11.28 71.376 72.905 71.376l89.392 0.032c11.518 0 20.852 9.364 20.852 20.889v156.32c0.005 11.504-9.332 20.85-20.828 20.868z" />
<glyph unicode="&#xe90b;" glyph-name="google-plus" horiz-adv-x="1613" d="M513.061-64.59c-283.479 0-513.061 229.108-513.061 512s229.582 512 513.061 512c138.588 0 254.080-50.292 343.673-134.112l-139.291-133.413c-37.797 36.324-104.292 78.932-204.384 78.932-174.987 0-317.776-144.592-317.776-323.406 0-178.816 142.789-323.404 317.776-323.404 202.985 0 279.278 145.988 291.177 220.724h-291.175v176.023h484.363c4.9-25.847 8.4-51.689 8.4-85.218-0.002-292.672-196.686-500.124-492.763-500.124zM1612.676 374.066h-146.288v-145.982h-146.988v145.982h-146.29v146.686h146.29v145.988h146.988v-145.988h146.288v-146.686z" />
<glyph unicode="&#xe90c;" glyph-name="link" d="M768.005 448.002c-48.066 0-93.033-13.259-131.46-36.304l-160.809 160.924c23.013 38.409 36.256 83.346 36.256 131.38 0 141.385-114.613 256-255.996 256s-255.996-114.617-255.996-256.002 114.613-256 255.996-256c46.981 0 90.999 12.668 128.846 34.757l161.883-161.98c-22.060-37.829-34.713-81.822-34.713-128.779 0-141.385 114.613-256 255.995-256s255.993 114.62 255.993 256.005c0 141.381-114.612 255.998-255.995 255.998zM255.996 576c-70.692 0-127.998 57.307-127.998 128s57.307 128 127.998 128 127.998-57.307 127.998-128c0-12.052-1.701-23.7-4.814-34.756l-74.827 74.878c-1.748 1.979-3.616 3.849-5.593 5.596l-0.002 0.002c-11.289 9.984-26.117 16.055-42.372 16.055-35.346 0-64-28.652-64-64 0-18.208 7.618-34.629 19.824-46.283l75.484-75.531c-10.139-2.583-20.757-3.963-31.7-3.963zM768.005 64.004c-70.693 0-127.998 57.305-127.998 128 0 10.875 1.369 21.431 3.92 31.515l74.704-74.747c11.726-13.275 28.86-21.657 47.964-21.657 35.346 0 63.998 28.656 63.998 64 0 18.711-8.032 35.545-20.832 47.246l-76.716 76.772c11.116 3.148 22.832 4.871 34.956 4.871 70.69 0 127.998-57.308 127.998-128 0.002-70.695-57.305-128-127.995-128z" />
<glyph unicode="&#xe90d;" glyph-name="location" d="M831.538 198.5c79.18 80.795 128.018 191.435 128.018 313.5 0 247.424-200.576 448-448 448-247.426 0-448-200.576-448-448 0-124.444 50.761-237.013 132.686-318.187l-0.023-0.036 220.745-216.004c23.3-25.548 56.809-41.611 94.075-41.76v-0.014c0.076 0 0.149 0.007 0.226 0.007 0.098 0 0.194-0.007 0.292-0.007v0.014c37.271 0.149 71.292 16.212 94.594 41.76l0.004-0.004 213.26 208.809c3.668 3.472 7.275 7.006 10.825 10.601l1.317 1.292-0.018 0.027zM560.944 105.924l-3.028-3.388c-11.659-12.254-28.11-22.535-46.357-22.535h-0.004c-18.247 0-34.697 10.281-46.354 22.535l-3.028 3.388c-8.933 10.827-188.341 192.951-196.009 200.736-46.555 55.577-74.61 127.173-74.61 205.34 0 176.732 143.268 319.998 320 319.998 176.729 0 320-143.266 320-319.998 0-74.018-25.143-142.156-67.337-196.37 0 0.002-194.146-198.644-203.275-209.707zM511.557 703.998c-106.037 0-192-85.961-192-192s85.963-192 192-192 192 85.963 192 192-85.963 192-192 192zM511.557 447.998c-35.346 0-64 28.654-64 64s28.654 64 64 64c35.346 0 64-28.654 64-64s-28.654-64-64-64z" />
<glyph unicode="&#xe90e;" glyph-name="mail" d="M1023.998 767.916c0.052 16.444-6.192 32.907-18.741 45.454-13.803 13.804-32.338 19.968-50.382 18.524h-885.742c-18.043 1.444-36.581-4.722-50.384-18.524-12.496-12.498-18.745-28.876-18.745-45.255h-0.004v-640c0-16.382 6.249-32.761 18.745-45.253 12.496-12.496 28.876-18.745 45.255-18.745v-0.219l896 0.219c16.379 0 32.757 6.247 45.253 18.743 12.51 12.507 18.759 28.914 18.745 45.305v639.751zM512.121 468.124l-275.051 235.772h549.929l-274.878-235.772zM127.998 629.301l337.764-289.509c0.331-0.343 0.645-0.7 0.987-1.038 24.839-24.843 65.001-24.985 90.037-0.457l0.005-0.004 339.209 290.951v-437.346h-768.002v437.403z" />
<glyph unicode="&#xe90f;" glyph-name="mail-open" d="M1013.141 675.148c-2.357 3.508-5.058 6.764-8.043 9.733-0.032 0.030-0.057 0.062-0.087 0.092-0.037 0.036-0.073 0.060-0.11 0.094-3.708 3.652-7.86 6.85-12.368 9.516l0.005 0.012-443.143 253.328c-10.521 7.591-23.431 12.075-37.396 12.075-11.78 0-22.804-3.196-32.284-8.745l-0.007 0.012-446.764-255.833c-19.424-10.804-32.629-31.417-32.924-55.148-0.004-0.048-0.018-0.096-0.018-0.144h-0.002v-639.931c0-16.379 6.251-32.756 18.745-45.25 12.496-12.494 28.876-18.743 45.255-18.743v-0.219l896.004 0.219c16.379 0 32.757 6.247 45.253 18.741 12.51 12.51 18.757 28.912 18.743 45.303v639.68c0.037 12.407-3.655 24.583-10.859 35.205zM510.768 455.431l-318.693 183.728 320.128 183.234 319.399-182.814-320.834-184.148zM128 63.988v463.406l350.196-200.916c9.479-5.548 20.507-8.743 32.284-8.743 12.197 0 23.596 3.413 33.298 9.337l0.002-0.004 351.198 201.34 1.024-464.42-768.002-0.002z" />
<glyph unicode="&#xe910;" glyph-name="menu" d="M63.644 384.427h895.959c35.346 0 64 28.652 64 64s-28.654 64-64 64h-895.959c-35.348 0-64-28.652-64-64s28.654-64 64-64zM63.644 704h895.959c35.346 0 64 28.652 64 64s-28.654 64-64 64h-895.959c-35.348 0-64-28.652-64-64s28.654-64 64-64zM959.979 192h-895.957c-35.348 0-64-28.652-64-64s28.654-64 64-64h895.959c35.346 0 64 28.652 64 64s-28.656 64-64.002 64z" />
<glyph unicode="&#xe911;" glyph-name="pencil" d="M767.088 896.889c-0.476 34.935-28.928 63.111-63.977 63.111-0.075 0-0.148-0.005-0.222-0.005v0.005l-382.222-0.005c-35.093-0.119-63.525-28.482-63.767-63.548h-0.011v-640.889c0-15.799 5.737-30.249 15.223-41.412l189.296-252.156c0.149-0.199 0.299-0.4 0.448-0.597l0.055-0.075 0.004 0.002c11.685-15.381 30.167-25.319 50.976-25.319 21.223 0 40.023 10.336 51.668 26.244l0.155-0.119 188.382 253.927c8.764 10.951 14.018 24.834 14.018 39.952v640.885h-0.025zM513.006 106.313l-112.123 149.244h224.252l-112.13-149.244zM639.113 383.556h-254.224v448.444h254.224v-448.444z" />
<glyph unicode="&#xe912;" glyph-name="phone" d="M896.043 0.444l0.011 1.778-0.112 896-0.011-1.778c-0.242 35.141-28.789 63.556-63.988 63.556h-640c-35.346 0-64-28.654-64-64v1.778l0.112-896 0.002-1.778c0-35.348 28.654-64 64-64h640c35.348 0 64 28.652 64 64-0.004 0.149-0.014 0.295-0.014 0.444zM767.943 320.889h-512v511.111h512v-511.111zM255.941 191.111h512l0.112-127.111h-512l-0.112 127.111z" />
<glyph unicode="&#xe913;" glyph-name="phone-tube-left" d="M191.908 255.778v-256.444h0.018c0.359-35.038 28.857-63.33 63.982-63.33l512.185-0.004c35.047 0.004 63.495 28.178 63.975 63.111h0.023l0.002 896.889c0 35.346-28.652 64-64 64h-512.183c-35.348 0-64-28.654-64-64v-256.444c0-35.349 28.652-64.002 64-64h192.185v-256h-191.813c-35.273 0-63.877-28.535-63.995-63.778h-0.379zM704.092 64h-384.185v127.556h192.185c35.346 0 63.998 28.652 64 64l-0.004 384c0.002 35.348-28.651 64-63.998 64h-192.181v128.444h384.183v-768z" />
<glyph unicode="&#xe914;" glyph-name="phone-tube-right" d="M831.714 255.778c-0.117 35.243-28.722 63.778-63.995 63.778h-191.813v256h192.185c35.348-0.002 64 28.651 64 64v256.444c0 35.346-28.652 64-64 64h-512.183c-35.348 0-64-28.654-64-64v0l0.002-896.889h0.023c0.48-34.933 28.928-63.108 63.975-63.111l512.185 0.004c35.125 0 63.623 28.292 63.982 63.33h0.018v256.444h-0.379zM319.908 832h384.183v-128.444h-192.183c-35.348 0-64-28.652-63.998-64l-0.004-384c0.002-35.348 28.654-64 64-64h192.185v-127.556h-384.183v768z" />
<glyph unicode="&#xe915;" glyph-name="search" d="M641.111 960c-211.468 0-382.889-171.436-382.889-382.928 0-82.626 26.165-159.138 70.658-221.701l-310.562-310.645c-24.571-25.020-24.428-65.163 0.453-89.993 24.884-24.828 65.116-24.974 90.19-0.455l0.005-0.007 0.215 0.215c0.084 0.085 0.172 0.165 0.26 0.247 0.092 0.094 0.176 0.187 0.268 0.281l309.739 309.787c62.553-44.489 139.054-70.654 221.662-70.654 211.47 0 382.889 171.44 382.889 382.926 0 211.492-171.419 382.928-382.889 382.928zM641.111 320.308c-141.63 0-256.446 114.56-256.446 255.876 0 141.321 114.814 255.879 256.446 255.879 141.634 0 256.448-114.558 256.448-255.879 0-141.316-114.814-255.876-256.448-255.876z" />
<glyph unicode="&#xe916;" glyph-name="shop-cart" d="M893.628 365.858l0.018-0.004 0.137 0.549c0.183 0.667 0.343 1.34 0.503 2.018l127.348 510.35c1.531 5.483 2.366 11.257 2.366 17.228 0 35.346-28.652 64-64 64-29.061 0-53.58-19.374-61.388-45.906l-0.014 0.004-0.108-0.432c-0.455-1.584-0.864-3.186-1.2-4.818l-19.333-77.737h-813.956c-35.348 0-64-28.654-64-64 0-7.406 1.273-14.512 3.588-21.127l-0.007-0.002 126.171-377.719c6.695-28.183 32.014-49.152 62.249-49.152h109.207c-97.36-9.308-173.504-91.312-173.504-191.111 0-106.037 85.963-192 192-192s192 85.963 192 192c0 99.799-76.144 181.803-173.502 191.111h347.301c-97.36-9.308-173.504-91.312-173.504-191.111 0-106.037 85.963-192 192-192s192 85.963 192 192c0 99.799-76.144 181.803-173.504 191.111h109.506c29.367 0 54.096 19.785 61.628 46.747zM383.703 128c0-35.344-28.654-64-64-64s-64 28.656-64 64c0 35.348 28.654 64 64 64s64-28.652 64-64zM767.998 128c0-35.344-28.656-64-64-64-35.348 0-64 28.656-64 64 0 35.348 28.652 64 64 64 35.344 0 64-28.652 64-64zM782.645 447.931l-544.558-0.756-85.266 255.74 692.869-1.52-63.045-253.465z" />
<glyph unicode="&#xe917;" glyph-name="circle-small" d="M512 832c-212.078 0-384-171.924-384-384 0-212.078 171.922-384 384-384s384 171.922 384 384c0 212.076-171.922 384-384 384zM512 192c-141.383 0-256 114.615-256 256 0 141.383 114.617 256 256 256 141.385 0 256-114.617 256-256 0-141.385-114.615-256-256-256z" />
<glyph unicode="&#xe918;" glyph-name="twitter" d="M1024 766.196c-37.678-16.74-78.167-28.055-120.658-33.145 43.371 26.052 76.683 67.3 92.368 116.455-40.599-24.124-85.55-41.641-133.406-51.079-38.322 40.908-92.923 66.468-153.353 66.468-116.020 0-210.084-94.24-210.084-210.484 0-16.498 1.86-32.562 5.444-47.97-174.599 8.782-329.403 92.58-433.019 219.931-18.084-31.086-28.446-67.246-28.446-105.822 0-73.028 37.090-137.456 93.46-175.204-34.437 1.093-66.83 10.562-95.152 26.329-0.021-0.878-0.021-1.76-0.021-2.647 0-101.984 72.418-187.060 168.523-206.4-17.627-4.809-36.188-7.387-55.349-7.387-13.536 0-26.697 1.321-39.527 3.788 26.738-83.625 104.322-144.489 196.254-146.185-71.9-56.462-162.485-90.108-260.916-90.108-16.958 0-33.682 0.994-50.117 2.948 92.971-59.735 203.401-94.576 322.041-94.576 386.423 0 597.735 320.743 597.735 598.898 0 9.125-0.208 18.203-0.608 27.232 41.051 29.68 76.667 66.75 104.832 108.958z" />
<glyph unicode="&#xe919;" glyph-name="circle-dot" d="M512 832c-212.078 0-384-171.925-384-384 0-212.080 171.922-384 384-384s384 171.92 384 384c0 212.075-171.922 384-384 384zM512 192c-141.381 0-256 114.615-256 256 0 141.383 114.619 256 256 256 141.385 0 256-114.617 256-256 0-141.385-114.615-256-256-256zM640 448c0-70.692-57.308-128-128-128s-128 57.308-128 128c0 70.692 57.308 128 128 128s128-57.308 128-128z" />
<glyph unicode="&#xe91a;" glyph-name="file" d="M1002.334 686.555l-252.066 252.775c-11.652 12.181-28.066 19.783-46.268 19.783l-640 0.443c-35.348 0-64-28.619-64-63.918v-895.721c0-35.301 28.652-63.916 64-63.916l896-0.443c35.349 0.002 64 28.617 64 63.916v639.166c0 19.084-8.386 36.206-21.666 47.915zM128 831.648l448.002-0.222v-256.635c0-0.025-0.002-0.044-0.002-0.069 0-35.301 28.652-63.916 64-63.916h255.998v-447.372l-767.998 0.356v767.86zM695.856 638.64v174.229l173.831-174.229h-173.831z" />
<glyph unicode="&#xe91b;" glyph-name="file-text" d="M320.002 447.417h383.998c35.348 0 64 28.615 64 63.916 0 35.298-28.652 63.916-64 63.916-0.012 0-0.023 0-0.036 0h-383.963c-35.348 0-64-28.62-64-63.916 0-35.301 28.652-63.916 64-63.916zM704.002 319.25h-383.998c-35.348 0-64-28.62-64-63.916 0-35.301 28.652-63.916 64-63.916h383.998c35.348 0 64 28.615 64 63.916 0 35.298-28.652 63.916-64 63.916zM1002.334 687.001l-249.995 250.697c-11.733 13.502-29.031 22.053-48.34 22.053-0.382 0-0.757-0.021-1.138-0.028l-638.862 0.277c-35.346 0-64-28.619-64-63.918v-895.721c0-35.301 28.654-63.916 64-63.916l896-0.443c35.349 0.002 64 28.617 64 63.916v639.164c0 19.088-8.386 36.208-21.666 47.918zM128 831.522l549.506 0.185 218.492-218.994v-548.836l-767.998 0.356v767.289z" />
<glyph unicode="&#xe91c;" glyph-name="basket" d="M832 703.723l-640.631-0.016c-35.054-0.34-63.369-28.823-63.369-63.929 0-4.235 0.421-8.368 1.209-12.373l-0.007-0.002 0.076-0.382c0.014-0.073 0.028-0.148 0.043-0.222l127.751-638.471c0.132-0.72 0.274-1.44 0.43-2.151l0.132-0.661 0.020 0.004c6.526-28.267 31.79-49.367 62.030-49.513v-0.005h384.316c30.708 0 56.354 21.614 62.556 50.441l0.014-0.002 0.076 0.393c0.037 0.185 0.076 0.368 0.112 0.555l127.463 637.282-0.036 0.007c1.173 4.844 1.813 9.897 1.813 15.102 0 35.317-28.652 63.945-64 63.945zM651.518 63.888h-279.068l-102.388 511.945h483.849l-102.393-511.945zM191.371 832.126v-0.016h640.629c35.348 0 64 28.629 64 63.945s-28.652 63.945-64 63.945l-640.629-0.016c-35.056-0.34-63.371-28.825-63.371-63.929s28.315-63.588 63.371-63.929z" />
<glyph unicode="&#xe91d;" glyph-name="pencil-tilted" d="M1024 639.39c0 19.173-8.459 36.364-21.836 48.085l0.012 0.012-251.964 252.78c-0.588 0.615-1.189 1.218-1.803 1.808l-0.014 0.014c-11.508 11.081-27.148 17.909-44.395 17.909s-32.887-6.828-44.396-17.909v0l-0.002-0.002c-0.587-0.565-1.161-1.141-1.726-1.728l-637.497-637.868c-12.532-11.671-20.379-28.302-20.379-46.77v-255.778c0-35.316 28.654-63.945 64-63.945h256c17.673 0 33.673 7.156 45.255 18.729v0l639.136 638.622c12.082 11.63 19.609 27.952 19.609 46.039zM128 228.704l164.958-164.816h-164.958v164.816zM218.107 319.538l485.808 486.212 165.817-166.38-485.956-485.36-165.669 165.529z" />
<glyph unicode="&#xe91e;" glyph-name="shopping-basket" d="M1024 512.37c0 35.346-31.1 64-69.467 64l-186.091-0.014v191.348c0 35.346-28.652 64-64 64h-384c-35.346 0-64-28.654-64-64v-191.392l-192.411-0.016c-35.365 0-64.032-28.654-64.032-64 0-7.406 1.273-14.512 3.589-21.127l-0.007-0.002 126.233-377.719c6.699-28.185 32.032-49.152 62.281-49.152l623.5 0.076c32.818 0 60.3 20.969 67.568 49.152l136.937 377.719c2.517 6.615 3.899 13.721 3.899 21.127zM384.444 703.703h255.996v-127.36l-255.996-0.021v127.381zM765.943 193.447l-528.075-0.076-84.848 255.815 704.971 0.075-92.048-255.813z" />
<glyph unicode="&#xe91f;" glyph-name="gear" d="M944 448.444c0 31.584-22.887 57.806-52.974 63.035-4.5 26.66-11.726 52.395-21.42 76.889 16.229 11.609 26.816 30.599 26.816 52.075 0 35.348-28.652 64-63.998 64-10.402 0-20.215-2.498-28.9-6.901-12.836 14.905-26.802 28.807-41.756 41.589 4.254 8.565 6.658 18.212 6.658 28.423 0 35.346-28.652 64-63.998 64-21.447 0-40.418-10.562-52.032-26.759-24.453 9.577-50.132 16.697-76.729 21.104-4.759 30.647-31.255 54.101-63.232 54.101-31.979 0-58.473-23.454-63.232-54.098-26.599-4.407-52.279-11.529-76.731-21.106-11.614 16.196-30.585 26.759-52.034 26.759-35.346 0-64-28.654-64-64 0-10.213 2.405-19.86 6.66-28.427-15.159-12.956-29.3-27.070-42.281-42.208-8.553 4.24-18.183 6.635-28.377 6.635-35.346 0-63.998-28.654-63.998-64 0-21.356 10.469-40.256 26.544-51.883-9.538-24.235-16.658-49.684-21.116-76.034-30.53-4.859-53.868-31.296-53.868-63.195 0-31.74 23.111-58.069 53.415-63.115 4.382-27.079 11.577-53.212 21.308-78.084-15.925-11.639-26.281-30.452-26.281-51.691 0-35.348 28.652-64 63.998-64 9.986 0 19.436 2.288 27.856 6.368 13.035-15.268 27.239-29.5 42.485-42.558-4.064-8.409-6.343-17.844-6.343-27.81 0-35.348 28.652-64 64-64 21.143 0 39.884 10.258 51.538 26.062 24.56-9.657 50.363-16.83 77.093-21.271 5.479-29.781 31.554-52.347 62.919-52.347 31.31 0 57.353 22.489 62.894 52.197 27.056 4.423 53.164 11.653 78.007 21.42 11.653-15.806 30.395-26.062 51.536-26.062 35.348 0 63.998 28.652 63.998 64 0 9.964-2.279 19.399-6.341 27.806 15.246 13.060 29.451 27.292 42.485 42.558 8.421-4.076 17.87-6.364 27.854-6.364 35.348 0 63.998 28.652 63.998 64 0 21.236-10.35 40.048-26.276 51.691 9.749 24.917 16.956 51.108 21.335 78.244 29.863 5.413 52.519 31.527 52.519 62.955zM512.434 703.113c141.381 0 255.993-114.615 255.993-256.002 0-141.385-114.612-255.996-255.993-255.996s-255.993 114.612-255.993 255.996c0 141.387 114.612 256.002 255.993 256.002z" />
<glyph unicode="&#xe920;" glyph-name="case" d="M1005.26 686.517c-13.803 13.822-32.34 19.995-50.382 18.549h-185.433v190.864c0.052 16.468-6.19 32.953-18.74 45.518-13.801 13.822-31.87 18.551-50.38 18.551h-375.52c-18.135 0-36.58-4.729-50.384-18.551-12.494-12.516-18.745-28.917-18.745-45.319h-0.004v-191.063h-186.539c-18.044 1.445-36.583-4.727-50.386-18.549-12.496-12.516-18.745-28.917-18.745-45.319h-0.004v-640.891c0-16.405 6.249-32.807 18.745-45.317 12.496-12.514 28.876-18.772 45.255-18.772v-0.219l896.004 0.219c16.379 0 32.757 6.254 45.253 18.768 12.51 12.524 18.757 28.955 18.743 45.371v640.642c0.052 16.468-6.19 32.953-18.74 45.518zM383.557 831.913l256-0.055-0.032-126.791h-255.968v126.846zM896.002 64.178h-768.004l0.004 511.824h768v-511.824z" />
<glyph unicode="&#xe921;" glyph-name="dots" d="M576 455.111c0-35.346-28.654-64-64-64s-64 28.654-64 64c0 35.346 28.654 64 64 64s64-28.654 64-64zM320 455.111c0-35.346-28.654-64-64-64s-64 28.654-64 64c0 35.346 28.654 64 64 64s64-28.654 64-64zM832 455.111c0-35.346-28.654-64-64-64s-64 28.654-64 64c0 35.346 28.654 64 64 64s64-28.654 64-64z" />
<glyph unicode="&#xe922;" glyph-name="search-minus" d="M576.548 960c-247.132 0-447.461-200.318-447.461-447.438 0-100.523 33.152-193.298 89.116-268l-199.9-199.938c-24.549-24.997-24.407-65.1 0.453-89.909 24.864-24.805 65.067-24.948 90.121-0.455l0.005-0.004 0.215 0.215c0.084 0.084 0.172 0.16 0.258 0.244 0.092 0.091 0.178 0.187 0.268 0.277l199.097 199.1c74.672-55.876 167.383-88.969 267.826-88.969 247.125 0.002 447.454 200.318 447.454 447.435 0.002 247.122-200.329 447.442-447.452 447.442zM576.548 193.017c-176.908 0-320.309 143.063-320.309 319.547 0 176.487 143.403 319.548 320.309 319.548 176.898 0 320.306-143.061 320.306-319.548-0.002-176.484-143.406-319.547-320.306-319.547zM706.853 578.252v0.068h-258.914c-35.38 0-64.060-28.613-64.060-63.909s28.681-63.909 64.060-63.909l258.914 0.068c34.14 1.397 61.392 29.438 61.392 63.842s-27.25 62.444-61.392 63.842z" />
<glyph unicode="&#xe923;" glyph-name="search-plus" d="M576.548 960c-247.132 0-447.461-200.318-447.461-447.438 0-100.523 33.152-193.298 89.116-268l-199.9-199.938c-24.549-24.997-24.407-65.1 0.453-89.909 24.864-24.805 65.067-24.948 90.121-0.455l0.005-0.004 0.215 0.215c0.084 0.084 0.172 0.16 0.258 0.244 0.092 0.091 0.178 0.187 0.268 0.277l199.097 199.1c74.672-55.876 167.383-88.969 267.826-88.969 247.125 0.002 447.454 200.318 447.454 447.435 0.002 247.122-200.329 447.442-447.452 447.442zM576.548 193.017c-176.908 0-320.309 143.063-320.309 319.547 0 176.487 143.403 319.548 320.309 319.548 176.898 0 320.306-143.061 320.306-319.548-0.002-176.484-143.406-319.547-320.306-319.547zM706.853 578.252v0.068h-66.882v66.882h-0.068c-1.397 34.14-29.438 61.392-63.842 61.392s-62.444-27.252-63.842-61.392h-0.068v-66.882h-64.213c-35.38 0-64.060-28.613-64.060-63.909s28.681-63.909 64.060-63.909h64.213v-64.213c0-35.38 28.615-64.060 63.909-64.060 35.296 0 63.909 28.681 63.909 64.060v64.213h66.882v0.068c34.14 1.397 61.392 29.438 61.392 63.842s-27.25 62.444-61.392 63.842z" />
<glyph unicode="&#xe924;" glyph-name="check-circle" d="M512 960c-282.77 0-512-229.23-512-512 0-282.772 229.23-512 512-512 282.772 0 512 229.228 512 512 0 282.77-229.228 512-512 512zM512.004 65.778c-212.076 0-384 171.922-384 384 0 212.076 171.924 384 384 384 212.078 0 384-171.924 384-384 0-212.078-171.922-384-384-384zM749.819 534c11.244 11.534 18.185 27.285 18.185 44.667 0 35.348-28.654 64-64 64-18.116 0-34.462-7.54-46.105-19.636l-209.941-209.906-81.468 81.508c-11.668 12.331-28.171 20.036-46.484 20.036-35.346 0-64-28.652-64-64 0-16.558 6.29-31.652 16.61-43.013v0l0.005-0.005c1.381-1.522 2.836-2.976 4.356-4.359l124.242-124.268c11.682-12.516 28.316-20.352 46.788-20.352 18.487 0 35.132 7.847 46.816 20.382l254.281 254.212c0.103 0.103 0.204 0.204 0.306 0.308l0.423 0.421-0.012 0.007z" />
<glyph unicode="&#xe925;" glyph-name="check-small" d="M749.819 531.33c11.241 11.534 18.185 27.285 18.185 44.667 0 35.348-28.654 64-64 64-18.112 0-34.462-7.54-46.105-19.636l-209.941-209.906-81.468 81.506c-11.668 12.334-28.171 20.039-46.484 20.039-35.346 0-64-28.652-64-64 0-16.556 6.29-31.652 16.61-43.012v0l0.005-0.007c1.381-1.518 2.836-2.976 4.356-4.357l124.242-124.267c11.682-12.516 28.316-20.352 46.788-20.352 18.487 0 35.132 7.847 46.816 20.382l254.281 254.206c0.103 0.105 0.204 0.204 0.306 0.308l0.423 0.421-0.012 0.007z" />
<glyph unicode="&#xe926;" glyph-name="close-circle" d="M1024 448c0 282.77-229.23 512-512 512s-512-229.23-512-512c0-282.772 229.228-512 512-512 282.77 0 512 229.228 512 512zM129.778 447.996c0 212.076 171.92 384 384 384 212.076 0 384-171.924 384-384s-171.924-384-384-384c-212.080 0-384 171.922-384 384zM748.062 302.396l0.192 0.201-145.676 144.149 146.558 147.886c0.1 0.096 0.19 0.192 0.288 0.29l0.27 0.274-0.004 0.005c11.319 11.545 18.309 27.353 18.309 44.8 0 35.346-28.652 64-64 64-15.787 0-30.228-5.728-41.387-15.202l-0.011 0.011-0.139-0.139c-2.704-2.311-5.22-4.837-7.504-7.563l-142.96-144.046-142.958 144.046c-2.288 2.725-4.8 5.252-7.508 7.563l-0.137 0.139-0.012-0.011c-11.156 9.472-25.598 15.2-41.385 15.2-35.346 0-64-28.654-64-64 0-17.447 6.992-33.255 18.311-44.8l-0.005-0.005 0.272-0.274c0.096-0.098 0.19-0.194 0.284-0.29l146.564-147.886-145.678-144.149 0.194-0.201c-12.274-11.659-19.941-28.128-19.941-46.395 0-35.348 28.654-64 64-64 19.586 0 37.102 8.805 48.843 22.663l143.157 141.708 143.157-141.708c11.74-13.858 29.257-22.663 48.843-22.663 35.348 0 64 28.652 64 64 0.004 18.267-7.666 34.736-19.938 46.396z" />
<glyph unicode="&#xe927;" glyph-name="arrow-down-circle" d="M557.093 209.717l0.585 0.583c0.263 0.258 0.526 0.514 0.784 0.779l189.31 187.881c2.725 2.288 5.252 4.798 7.563 7.504l0.139 0.139-0.011 0.011c9.474 11.159 15.202 25.6 15.202 41.388 0 35.346-28.654 64-64 64-17.447 0-33.255-6.99-44.8-18.311l-0.005 0.005-0.274-0.272c-0.098-0.096-0.194-0.188-0.29-0.286l-83.518-82.777v229.637c0 35.348-28.654 64-64 64-35.348 0-64-28.652-64-64v-229.116l-80.514 81.369-0.201-0.194c-11.66 12.276-28.128 19.943-46.396 19.943-35.348 0-64-28.652-64-64 0-19.584 8.805-37.102 22.663-48.844l183.332-185.205c11.732-13.447 28.981-21.956 48.228-21.956 17.147 0 32.704 6.757 44.194 17.737l0.011-0.014zM1024 448c0 282.77-229.23 512-512 512s-512-229.23-512-512c0-282.772 229.228-512 512-512 282.77 0 512 229.228 512 512zM129.778 447.996c0 212.076 171.92 384 384 384 212.076 0 384-171.924 384-384s-171.924-384-384-384c-212.080 0-384 171.922-384 384z" />
<glyph unicode="&#xe928;" glyph-name="arrow-left-circle" d="M273.717 493.093l0.583 0.585c0.258 0.263 0.514 0.526 0.779 0.784l187.879 189.31c2.288 2.725 4.8 5.252 7.506 7.563l0.137 0.139 0.011-0.011c11.159 9.474 25.602 15.202 41.388 15.202 35.348 0 64-28.654 64-64 0-17.447-6.99-33.255-18.311-44.8l0.005-0.005-0.272-0.274c-0.096-0.098-0.188-0.194-0.286-0.29l-82.775-83.518h229.637c35.348 0 64-28.654 64-64s-28.652-64-64-64h-229.116l81.369-80.514-0.194-0.201c12.276-11.66 19.943-28.128 19.943-46.396 0-35.348-28.652-64-64-64-19.584 0-37.102 8.805-48.844 22.663l-185.205 183.332c-13.447 11.732-21.956 28.981-21.956 48.226 0 17.147 6.757 32.704 17.737 44.194l-0.014 0.012zM0 448c0-282.77 229.228-512 512-512 282.77 0 512 229.228 512 512 0 282.768-229.23 512-512 512-282.772 0-512-229.232-512-512zM127.996 449.778c0 212.076 171.922 384 384 384 212.076 0 384-171.924 384-384 0-212.078-171.924-384-384-384-212.078 0-384 171.92-384 384z" />
<glyph unicode="&#xe929;" glyph-name="arrow-right-circle" d="M750.283 493.093l-0.583 0.585c-0.258 0.263-0.514 0.526-0.779 0.784l-187.877 189.312c-2.288 2.725-4.8 5.252-7.506 7.563l-0.137 0.139-0.011-0.011c-11.159 9.474-25.602 15.202-41.388 15.202-35.348 0-64-28.654-64-64 0-17.447 6.99-33.255 18.311-44.8l-0.005-0.005 0.272-0.274c0.096-0.098 0.188-0.194 0.286-0.29l82.773-83.52h-229.637c-35.348 0-64-28.654-64-64s28.652-64 64-64h229.116l-81.369-80.514 0.194-0.201c-12.276-11.66-19.943-28.128-19.943-46.396 0-35.348 28.652-64 64-64 19.584 0 37.102 8.805 48.844 22.663l185.205 183.332c13.447 11.732 21.956 28.981 21.956 48.226 0 17.147-6.757 32.704-17.737 44.194l0.014 0.012zM512 960c-282.77 0-512-229.232-512-512 0-282.77 229.23-512 512-512 282.772 0 512 229.228 512 512 0 282.768-229.228 512-512 512zM512.004 65.778c-212.076 0-384 171.92-384 384 0 212.076 171.924 384 384 384 212.078 0 384-171.924 384-384 0-212.080-171.922-384-384-384z" />
<glyph unicode="&#xe92a;" glyph-name="arrow-up-circle" d="M557.093 686.283l0.585-0.583c0.263-0.258 0.526-0.514 0.784-0.779l189.31-187.879c2.725-2.288 5.252-4.8 7.563-7.506l0.139-0.137-0.011-0.011c9.474-11.159 15.202-25.602 15.202-41.388 0-35.346-28.654-64-64-64-17.447 0-33.255 6.99-44.8 18.311l-0.005-0.005-0.274 0.272c-0.098 0.096-0.194 0.188-0.29 0.286l-83.518 82.775v-229.637c0-35.348-28.654-64-64-64-35.348 0-64 28.652-64 64v229.116l-80.514-81.369-0.201 0.194c-11.66-12.276-28.128-19.943-46.396-19.943-35.348 0-64 28.652-64 64 0 19.584 8.805 37.102 22.663 48.844l183.332 185.205c11.732 13.447 28.981 21.956 48.228 21.956 17.147 0 32.704-6.757 44.194-17.737l0.011 0.014zM512 960c-282.772 0-512-229.228-512-512 0-282.77 229.228-512 512-512s512 229.23 512 512c0 282.77-229.23 512-512 512zM513.778 832.004c212.076 0 384-171.924 384-384s-171.924-384-384-384c-212.080 0-384 171.924-384 384 0 212.078 171.92 384 384 384z" />
<glyph unicode="&#xe92b;" glyph-name="arrow-angle-down-small" d="M510.224 287.996c17.147 0 32.704 6.756 44.194 17.735l0.011-0.012 0.583 0.581c0.26 0.26 0.528 0.516 0.78 0.779l189.312 187.881c2.725 2.286 5.25 4.8 7.563 7.508l0.139 0.137-0.011 0.012c9.476 11.157 15.205 25.598 15.205 41.383 0 35.346-28.654 64-64 64-17.447 0-33.255-6.992-44.8-18.311l-0.005 0.005-0.274-0.272c-0.098-0.096-0.19-0.188-0.286-0.284l-147.89-146.56-144.146 145.675-0.201-0.19c-11.66 12.276-28.13 19.941-46.396 19.941-35.348 0-64-28.654-64-64 0-19.586 8.805-37.104 22.663-48.843l183.33-185.209c11.733-13.449 28.983-21.956 48.229-21.956z" />
<glyph unicode="&#xe92c;" glyph-name="arrow-angle-left-small" d="M351.998 449.774c0-17.147 6.756-32.704 17.735-44.194l-0.012-0.011 0.581-0.583c0.258-0.26 0.516-0.528 0.779-0.78l187.879-189.312c2.288-2.725 4.802-5.25 7.508-7.563l0.139-0.139 0.011 0.011c11.159-9.472 25.6-15.202 41.385-15.202 35.348 0 64 28.654 64 64 0 17.445-6.99 33.255-18.309 44.8l0.004 0.005-0.27 0.27c-0.098 0.101-0.185 0.194-0.288 0.292l-146.556 147.89 145.675 144.146-0.188 0.197c12.274 11.664 19.941 28.128 19.941 46.4 0 35.348-28.652 64-64 64-19.584 0-37.104-8.805-48.844-22.663l-185.209-183.332c-13.451-11.737-21.957-28.985-21.957-48.233z" />
<glyph unicode="&#xe92d;" glyph-name="arrow-angle-right-small" d="M672.002 449.778c0-17.147-6.756-32.704-17.735-44.194l0.012-0.011-0.581-0.583c-0.26-0.26-0.516-0.528-0.779-0.78l-187.879-189.316c-2.286-2.725-4.8-5.25-7.506-7.563l-0.139-0.139-0.011 0.011c-11.161-9.472-25.602-15.202-41.387-15.202-35.348 0-64 28.654-64 64 0 17.445 6.99 33.255 18.309 44.8l-0.004 0.005 0.27 0.272c0.098 0.1 0.19 0.192 0.288 0.29l146.562 147.89-145.68 144.146 0.194 0.199c-12.272 11.662-19.938 28.132-19.938 46.398 0 35.348 28.652 64 64 64 19.584 0 37.102-8.805 48.843-22.663l185.207-183.332c13.445-11.733 21.952-28.981 21.952-48.229z" />
<glyph unicode="&#xe92e;" glyph-name="arrow-angle-up-small" d="M461.993 586.048l-183.33-185.207c-13.858-11.737-22.663-29.257-22.663-48.841 0-35.348 28.652-64 64-64 18.267 0 34.736 7.668 46.396 19.941l0.201-0.19 144.146 145.675 147.89-146.56c0.096-0.098 0.187-0.187 0.284-0.284l0.274-0.27 0.005 0.004c11.545-11.316 27.353-18.309 44.8-18.309 35.346 0 64 28.652 64 64 0 15.785-5.73 30.226-15.204 41.381l0.011 0.014-0.139 0.135c-2.313 2.704-4.837 5.223-7.563 7.508l-189.308 187.876c-0.256 0.261-0.521 0.521-0.779 0.779l-0.583 0.581-0.011-0.014c-11.493 10.98-27.052 17.735-44.196 17.735-19.25 0-36.5-8.507-48.233-21.952z" />
<glyph unicode="&#xe92f;" glyph-name="close-small" d="M747.616 302.396l0.19 0.201-145.675 144.148 146.556 147.888c0.101 0.098 0.19 0.19 0.288 0.288l0.27 0.274-0.004 0.005c11.319 11.545 18.309 27.353 18.309 44.8 0 35.346-28.652 64-64 64-15.787 0-30.228-5.73-41.387-15.202l-0.011 0.011-0.139-0.139c-2.704-2.311-5.22-4.837-7.504-7.563l-142.96-144.044-142.958 144.044c-2.288 2.725-4.8 5.252-7.506 7.563l-0.139 0.139-0.011-0.011c-11.159 9.472-25.602 15.202-41.388 15.202-35.346 0-64-28.654-64-64 0-17.447 6.99-33.255 18.311-44.8l-0.005-0.005 0.272-0.274c0.096-0.098 0.19-0.19 0.286-0.288l146.564-147.888-145.678-144.148 0.194-0.201c-12.276-11.66-19.943-28.126-19.943-46.396 0-35.348 28.654-64 64-64 19.584 0 37.102 8.805 48.843 22.663l143.157 141.708 143.156-141.708c11.744-13.858 29.259-22.663 48.846-22.663 35.348 0 64 28.652 64 64 0.005 18.267-7.662 34.736-19.936 46.396z" />
<glyph unicode="&#xe930;" glyph-name="arrow-angle-down" d="M464.98 178.347c11.536-11.344 27.348-18.347 44.8-18.347 17.234 0 32.866 6.837 44.366 17.934l0.011-0.011 0.556 0.549c0.167 0.171 0.334 0.334 0.494 0.496l448.308 446.105c1.061 0.981 2.080 1.996 3.070 3.049l0.009 0.011c10.78 11.454 17.406 26.884 17.406 43.867 0 35.348-28.629 64-63.945 64-17.826 0-33.941-7.305-45.538-19.079l-404.617-402.574-399.182 401.275c-11.675 12.532-28.306 20.379-46.775 20.379-35.316 0-63.943-28.652-63.943-64 0-17.541 7.058-33.431 18.48-44.994l-0.007-0.004 0.238-0.24c0.012-0.014 0.025-0.025 0.036-0.037l445.572-447.721c0.155-0.164 0.313-0.32 0.469-0.476l0.19-0.187 0.002 0.005z" />
<glyph unicode="&#xe931;" glyph-name="arrow-angle-left" d="M241.902 400.981c-11.344 11.536-18.348 27.348-18.348 44.798 0 17.236 6.839 32.868 17.936 44.368l-0.012 0.011 0.551 0.553c0.165 0.167 0.329 0.334 0.494 0.498l446.105 448.308c0.98 1.056 1.998 2.076 3.049 3.065l0.009 0.009c11.458 10.786 26.885 17.41 43.87 17.41 35.348 0 64-28.629 64-63.945 0-17.826-7.305-33.941-19.081-45.538l-402.572-404.617 401.273-399.182c12.533-11.673 20.38-28.306 20.38-46.775 0-35.316-28.652-63.945-64-63.945-17.541 0-33.433 7.058-44.994 18.48l-0.005-0.007-0.238 0.238c-0.011 0.012-0.023 0.025-0.036 0.036l-447.723 445.572c-0.158 0.155-0.316 0.313-0.473 0.469l-0.19 0.19 0.005 0.005z" />
<glyph unicode="&#xe932;" glyph-name="arrow-angle-right" d="M781.209 400.050c11.344 11.547 18.348 27.371 18.348 44.839 0 17.252-6.839 32.896-17.936 44.405l0.012 0.011-0.551 0.553c-0.165 0.167-0.329 0.334-0.494 0.498l-446.105 448.699c-0.98 1.058-2 2.078-3.049 3.067l-0.009 0.009c-11.458 10.796-26.887 17.426-43.872 17.426-35.346 0-64-28.654-64-64 0-17.842 7.307-33.97 19.083-45.577l402.572-404.969-401.275-399.529c-12.533-11.682-20.38-28.329-20.38-46.814 0-35.348 28.654-64 64-64 17.543 0 33.433 7.065 44.994 18.494l0.005-0.005 0.238 0.236c0.011 0.012 0.023 0.025 0.036 0.036l447.724 445.957c0.158 0.156 0.316 0.313 0.473 0.469l0.19 0.19-0.005 0.005z" />
<glyph unicode="&#xe933;" glyph-name="arrow-angle-up" d="M464.98 717.652c11.536 11.344 27.348 18.348 44.8 18.348 17.234 0 32.866-6.839 44.366-17.936l0.011 0.012 0.556-0.551c0.167-0.165 0.334-0.329 0.494-0.494l448.308-446.107c1.061-0.98 2.080-1.995 3.070-3.049l0.009-0.009c10.78-11.454 17.406-26.884 17.406-43.867 0-35.348-28.629-64-63.945-64-17.826 0-33.941 7.305-45.538 19.079l-404.617 402.574-399.182-401.275c-11.675-12.532-28.306-20.379-46.775-20.379-35.316 0-63.943 28.652-63.943 64 0 17.541 7.058 33.431 18.48 44.994l-0.007 0.004 0.238 0.242c0.012 0.012 0.025 0.023 0.036 0.037l445.572 447.719c0.155 0.158 0.313 0.316 0.469 0.473l0.19 0.19 0.002-0.007z" />
<glyph unicode="&#xe934;" glyph-name="phone-tube-rounded" d="M648.034 318.631c-1.481 0.103-2.971 0.174-4.476 0.174h-67.557v256.055h64c106.037 0 192 85.979 192 192.041s-85.461 192.041-191.5 192.041c-18.22 0-174.997 0-192.5 0-141.385 0-256-114.64-256-256.055 0-0.274 0.005-0.548 0.011-0.82v-509.271c-0.004-0.228-0.009-0.457-0.009-0.686s0.007-0.457 0.009-0.686v-1.092h0.014c0.958-140.596 115.186-254.277 255.977-254.277 17.502 0 174.604-0.055 192.832-0.055v0 0 0 0c106.036 0.002 191.166 85.148 191.166 191.209 0 103.419-81.593 187.307-183.966 191.422zM320.011 190.028c0 0.45-0.004 0.981-0.009 1.525h0.009v511.335h-0.025c0.004 0.617 0.011 1.23 0.011 1.776 0 70.708 57.312 127.14 128.004 127.14 18.176 0 170.667 0 192 0 35.346 0 64-29.548 64-64.903s-28.654-64.014-64-64.014h-128c-35.346 0-64-28.66-64-64.014v-384.082c0-35.355 28.654-64.014 64-64.014 1.195 0 2.379 0.037 3.557 0.105v-0.105h127.938c33.721-1.794 60.505-29.387 60.505-63.57 0-35.355-28.654-64.014-64-64.014-21.339 0-173.822 0-191.998 0-70.692 0.002-127.991 56.128-127.991 126.836z" />
<glyph unicode="&#xe935;" glyph-name="eye" d="M1023.996 446.892c0 0.393-0.009 0.788-0.014 1.182 0.004 0.345 0.012 0.69 0.012 1.035 0 61.445-29.035 116.123-74.167 151.154l0.004 0.007-0.59 0.441c-1.461 1.127-2.944 2.233-4.441 3.317l-194.588 145.381c-5.41 4.27-10.933 8.398-16.572 12.38l-0.121 0.094-0.002-0.004c-62.592 44.16-139.012 70.119-221.52 70.119-82.51 0-158.926-25.959-221.516-70.119l-0.002 0.004-0.124-0.094c-5.637-3.982-11.163-8.11-16.571-12.38l-194.592-145.381c-1.497-1.084-2.978-2.19-4.441-3.317l-0.59-0.441 0.004-0.007c-45.131-35.031-74.167-89.707-74.167-151.154 0-0.395 0.009-0.786 0.014-1.18-0.004-0.345-0.012-0.69-0.012-1.036 0-61.447 29.036-116.124 74.169-151.156l-0.004-0.007 0.59-0.441c1.463-1.127 2.944-2.233 4.441-3.314l194.592-145.38c5.408-4.272 10.933-8.4 16.571-12.38l0.124-0.094 0.002 0.004c62.587-44.162 139.004-70.124 221.515-70.124s158.926 25.963 221.518 70.119v-0.004l0.123 0.094c5.639 3.98 11.163 8.108 16.572 12.38l194.588 145.381c1.497 1.079 2.98 2.185 4.441 3.314l0.59 0.441-0.004 0.007c45.134 35.035 74.169 89.71 74.169 151.159zM874.976 399.604l-220.453-163.429c-40.74-27.284-89.756-43.223-142.521-43.223-0.004 0-0.004 0-0.004 0s0 0-0.004 0c-52.764 0-101.781 15.94-142.519 43.223l-220.457 163.429c-12.811 11.586-20.884 28.274-21.010 46.846h0.053c-0.021 0.503-0.027 1.008-0.037 1.516 0.012 0.528 0.018 1.063 0.039 1.589h-0.057c0.126 18.571 8.199 35.259 21.010 46.846l220.457 163.422c40.738 27.284 89.755 43.223 142.519 43.223 0.002 0 0.002 0 0.004 0 0 0 0 0 0.004 0 52.764 0 101.781-15.94 142.519-43.223l220.455-163.422c12.809-11.588 20.882-28.274 21.008-46.848h-0.052c0.020-0.503 0.025-1.006 0.037-1.518-0.018-0.528-0.023-1.061-0.039-1.588h0.055c-0.126-18.569-8.197-35.259-21.008-46.844zM511.993 640.996c-106.037 0-191.998-85.714-191.998-191.445 0-105.735 85.961-191.445 191.998-191.445s192 85.714 192 191.445c0 105.732-85.957 191.445-192 191.445zM511.998 385.737c-35.346 0-64 28.569-64 63.815 0 35.244 28.654 63.815 64 63.815 35.348 0 64-28.571 64-63.815 0-35.246-28.652-63.815-64-63.815z" />
<glyph unicode="&#xe936;" glyph-name="loading-circle" d="M896 383.177c0 0.064-0.007 0.128-0.007 0.19 0 0.084 0.004 0.167 0.004 0.251h-0.007c-0.24 35.109-28.791 63.495-63.989 63.495s-63.749-28.386-63.989-63.495h-0.009c0-141.244-114.617-255.744-256-255.744-141.385 0-256 114.5-256 255.744 0 131.778 99.769 240.26 227.959 254.215l-15.972-15.986 0.012-0.012c-12.311-11.652-20.002-28.128-20.002-46.405 0-35.31 28.654-63.936 64-63.936 17.531 0 33.41 7.047 44.969 18.455l0.007-0.005 0.228 0.228c0.039 0.039 0.078 0.080 0.119 0.121l126.969 127.774c0.756 0.724 1.493 1.467 2.213 2.226l0.412 0.42-0.009 0.009c10.599 11.408 17.086 26.679 17.086 43.472 0 18.56-7.925 35.266-20.569 46.948l-126.121 126.080c-11.584 11.602-27.605 18.78-45.305 18.78-35.346 0-64-28.626-64-63.936 0-17.204 6.814-32.807 17.877-44.299v0 0c0.606-0.631 1.227-1.248 1.858-1.854l19.543-19.484c-200.553-12.734-359.278-179.239-359.278-382.809 0-211.867 171.922-383.618 383.998-383.618 211.737 0 383.433 171.202 383.988 382.596 0 0.196 0.014 0.386 0.014 0.581z" />
<glyph unicode="&#xe937;" glyph-name="shop-cart-u" d="M832 254.222c29.369 0 54.096 19.785 61.628 46.747l0.018-0.004 0.137 0.549c0.185 0.667 0.343 1.346 0.503 2.023l127.348 510.348c1.531 5.479 2.366 11.253 2.366 17.225 0 35.346-28.652 64-64 64-29.061 0-53.58-19.374-61.388-45.906l-0.014 0.004-0.108-0.432c-0.46-1.584-0.864-3.186-1.205-4.818l-19.328-77.737h-813.956c-35.348 0-64-28.654-64-64 0-7.406 1.273-14.512 3.588-21.127l-0.007-0.002 126.171-377.719c6.695-28.183 32.014-49.152 62.249-49.152zM782.645 383.042l-544.558-0.756-85.266 255.74 692.869-1.518-63.045-253.467zM391.556 64.889c0-35.346-28.654-64-64-64s-64 28.654-64 64c0 35.346 28.654 64 64 64s64-28.654 64-64zM775.556 64.889c0-35.346-28.654-64-64-64s-64 28.654-64 64c0 35.346 28.654 64 64 64s64-28.654 64-64z" />
<glyph unicode="&#xe938;" glyph-name="quote" d="M448.148 670.889c0 35.346-28.654 64-64 64-17.506 0-33.362-7.035-44.917-18.421l-0.004 0.004-0.094-0.098c-0.837-0.827-1.653-1.675-2.441-2.548l-215.483-224.747c-35.399-34.832-57.358-83.28-57.358-136.859 0-106.039 85.961-191.998 191.998-191.998 106.041 0 192 85.959 192 191.998 0 77.835-46.316 144.852-112.892 174.999l92.956 96.999c12.448 11.669 20.235 28.258 20.235 46.67zM255.856 288.222c-35.348 0-64 28.652-64 64 0 35.346 28.652 64 64 64s64-28.654 64-64c0-35.348-28.652-64-64-64zM846.958 528.108l92.955 96.999c12.448 11.675 20.236 28.26 20.236 46.674 0 35.346-28.656 64-64 64-17.508 0-33.362-7.035-44.917-18.421l-0.004 0.004-0.094-0.094c-0.841-0.83-1.657-1.678-2.448-2.553l-215.477-224.748c-35.399-34.832-57.358-83.28-57.358-136.859 0-106.039 85.963-191.998 192-191.998 106.041 0 192 85.959 192 191.998 0 77.835-46.316 144.853-112.892 174.999zM767.858 289.111c-35.348 0-64 28.652-64 64 0 35.346 28.652 64 64 64s64-28.654 64-64c0-35.348-28.652-64-64-64z" />
<glyph unicode="&#xe939;" glyph-name="laptop" d="M960 191.756h-52.080c12.052 2.354 23.559 8.185 32.896 17.504 12.51 12.48 18.757 28.846 18.743 45.2v513.186c0.052 16.407-6.19 32.832-18.74 45.353-13.803 13.771-31.927 19.001-50.4 19.001h-756.811c-17.916 0-36.613-5.234-50.416-19.001-12.496-12.473-18.745-28.812-18.745-45.152h-0.004v-513.435c0-16.343 6.249-32.688 18.745-45.148 9.339-9.321 20.85-15.152 32.907-17.508h-52.096c-35.346 0-64-28.597-64-63.883 0-35.273 28.654-63.874 64-63.874h896c35.348 0 64 28.601 64 63.879 0 35.28-28.652 63.877-64 63.877zM192.443 703.877h639.116v-385.829h-639.116v385.829z" />
<glyph unicode="&#xe93a;" glyph-name="copy" d="M1024.055 512.585c0 35.332-28.651 63.972-63.998 63.972h-192.002v319.417c0 35.332-28.652 63.972-64 63.972h-512c-16.215 0-31.013-6.041-42.292-15.979h-0.002l-0.016-0.016c-2.103-1.854-4.080-3.844-5.922-5.956l-123.003-123.7c-12.761-11.691-20.766-28.485-20.766-47.156v-383.833c0-35.33 28.652-63.972 64-63.972h192.002v-319.415c0-35.333 28.652-63.973 64-63.973h640c35.348 0 63.998 28.64 63.998 63.973 0 0.596-0.030 1.184-0.044 1.776h0.044v510.889zM384.057 357.847l90.516 90.766h421.484v-384.722h-512v293.956zM448.057 576.556c-16.217 0-31.015-6.039-42.293-15.977v0l-0.018-0.016c-2.101-1.854-4.078-3.844-5.92-5.956l-106.732-107.332h-165.038v293.959l90.517 90.764h421.483v-255.444h-191.998z" />
<glyph unicode="&#xe93b;" glyph-name="clock" d="M512 960c-282.77 0-512-229.232-512-512 0-282.772 229.23-512 512-512s512 229.228 512 512c0 282.768-229.23 512-512 512zM512 64c-212.078 0-384 171.922-384 384 0 212.075 171.922 384 384 384s384-171.925 384-384c0-212.078-171.922-384-384-384zM704.226 514.667c-1.371 0-2.724-0.057-4.071-0.142h-124.448v127.253c0 35.348-28.652 64-64 64-35.346 0-64-28.652-64-64 0-1.365 0.059-2.715 0.142-4.059v-184.677c-0.041-0.935-0.071-1.874-0.071-2.818 0-35.346 28.654-64 64-64 2.514 0 4.99 0.162 7.428 0.443h185.020c35.346 0 64 28.652 64 64 0 35.346-28.654 64-64 64z" />
<glyph unicode="&#xe93c;" glyph-name="bulb" d="M896 580.594h-0.066c-2.468 209.957-173.396 379.406-383.94 379.406-210.843 0-381.959-169.927-383.954-380.297h-0.041v-67.705c0.139-61.765 14.878-105.429 40.921-157.081l-0.012-0.011 0.19-0.347c3.851-7.618 7.936-15.097 12.268-22.414l160.041-292.338c31.948-61.666 96.341-103.808 170.583-103.808 0.002 0 0.002 0 0.004 0h0.002c0 0 0 0 0.004 0 74.242 0 138.633 42.142 170.581 103.806l160.039 292.338c4.334 7.317 8.418 14.796 12.268 22.414l0.19 0.347-0.012 0.011c26.043 51.653 40.78 95.316 40.924 157.081l-0.014 0.004c0.004 0.297 0.023 0.592 0.023 0.889v67.705zM584.882 128c0 0-11.41-20.324-15.861-29.042l-1.735-3.182c-11.074-18.951-31.963-31.703-55.477-31.769-23.515 0.066-44.036 12.818-55.104 31.769l-1.737 3.182c-4.45 8.718-15.861 29.042-15.861 29.042l-13.868 25.397c0.032-0.007 0.062-0.016 0.096-0.023l-21.349 39.072h216.020l-21.349-39.072c0.034 0.007 0.064 0.016 0.096 0.023l-13.868-25.397zM768.009 526.667h-0.011c0-36.516-7.684-71.223-21.465-102.652l-56.348-103.125h-356.379l-56.347 103.125c-13.781 31.429-21.467 66.137-21.467 102.652h-0.002v50.222c0 141.385 114.62 256 256.005 256s256.004-114.615 256.004-256h0.011v-50.222z" />
<glyph unicode="&#xe93d;" glyph-name="trash" d="M960 960h-896c-35.348 0-64-28.576-64-63.831 0-35.252 28.652-63.831 64-63.831h0.446l-0.004-832.315c0-16.332 6.249-32.66 18.745-45.115 12.496-12.462 28.876-18.69 45.255-18.69l767.118-0.002c16.379 0 32.757 6.228 45.253 18.688 12.51 12.469 18.757 28.825 18.743 45.166l0.443 832.267c35.348 0 64 28.58 64 63.831 0 35.255-28.652 63.831-64 63.831zM831.557 63.611h-639.116v768.727h639.116v-768.727zM320.441 255.758c0-35.252 28.652-63.831 64-63.831s64 28.58 64 63.831v383.609h-0.023c0.004 0.315 0.023 0.626 0.023 0.94 0 35.255-28.652 63.829-64 63.829s-64-28.576-64-63.829c0-0.315 0.020-0.626 0.023-0.94h-0.023v-383.609zM575.785 639.195v-383.609c0-35.252 28.652-63.829 64-63.829s64 28.578 64 63.829v383.609h-0.030c0.005 0.372 0.028 0.741 0.028 1.113 0 35.255-28.652 63.829-64 63.829s-64-28.576-64-63.829c0-0.373 0.023-0.741 0.028-1.113h-0.027z" />
<glyph unicode="&#xe93e;" glyph-name="location-arrow" d="M1017.621 868.199c4.085 8.421 6.379 17.87 6.379 27.856 0 35.316-28.651 63.945-63.998 63.945-9.54 0-18.583-2.101-26.716-5.84l-0.062 0.144-891.947-383.020c-24.124-9.161-41.276-32.464-41.276-59.783 0-29.381 19.84-54.119 46.86-61.607l-0.004-0.016 351.177-118.628 116.572-349.362c0.444-1.515 0.939-3.003 1.492-4.469l0.089-0.265 0.014 0.005c9.188-24.060 32.491-41.159 59.801-41.159 26.914 0 49.931 16.606 59.388 40.114l382.231 892.085zM508.82 401.742c-6.427 19.607-22.068 35.045-41.82 41.172l-224.862 75.771 596.61 255.792-255.394-595.129-74.533 222.395z" />
<glyph unicode="&#xe93f;" glyph-name="folder-open" d="M1020.889 429.646c0.084 0.26 0.178 0.517 0.26 0.78l0.023 0.068-0.004 0.002c1.84 5.964 2.834 12.306 2.834 18.875 0 35.348-28.651 64-63.998 64l-64.004-0.084-0.002 191.899c0 0.023 0.002 0.044 0.002 0.069 0 35.344-28.654 63.996-64 63.996l-229.653-0.524-108.012 107.396c-11.655 12.236-28.098 19.877-46.334 19.877h-378.834c-17.916 0-36.613-5.243-50.416-19.035-12.494-12.491-18.745-28.859-18.745-45.227h-0.004v-767.564c0-0.018 0-0.037 0-0.053 0.002-0.041-0.002-0.082-0.002-0.121 0-35.346 28.654-64 64-64 0 0 0 0 0.002 0v0l759.972 0.519c2.631-0.331 5.307-0.519 8.027-0.519 27.234 0 50.48 17.019 59.723 40.996l0.016-0.005 0.094 0.284c0.622 1.632 1.172 3.296 1.66 4.99l127.396 383.381zM301.275 384.505l570.802 0.718-85.87-256.725h-18.203v-0.053l-551.966-0.453 85.237 256.514zM421.774 767.979l107.084-106.526c1.333-1.449 2.725-2.841 4.185-4.162 11.36-10.286 26.423-16.556 42.955-16.556l192 0.524v-128.14l-513.067-0.674c-28.235 0-52.183-18.293-60.681-43.668l-0.007 0.004-0.368-1.111c-0.025-0.073-0.052-0.146-0.073-0.22l-65.803-198.514v498.729l293.774 0.315z" />
<glyph unicode="&#xe940;" glyph-name="flag" d="M1017.518 283.788l-119.371 287.383 117.659 293.591c5.207 9.253 8.194 19.924 8.194 31.298 0 35.312-28.654 63.94-64 63.94h-896c-35.346 0-64-28.628-64-63.941v-896.114c0-35.316 28.654-63.945 64-63.945s64 28.629 64 63.945v191.836h832.002c35.346 0 63.998 28.629 63.998 63.941 0 10.069-2.336 19.591-6.487 28.066h0.005zM128 832.117h737.758l-92.564-230.532c-0.432-1.004-0.844-2.021-1.225-3.052l-0.027-0.066c-2.548-6.896-3.941-14.35-3.941-22.132 0-8.599 1.71-16.798 4.791-24.288h-0.005l93.573-232.384h-738.361v512.453z" />
<glyph unicode="&#xe941;" glyph-name="flag-angle" d="M1008.832 534.244c9.454 11.145 15.168 25.557 15.168 41.312 0 15.71-5.68 30.089-15.090 41.221l0.005 0.004-251.060 312.88c-2.741 4.427-6.011 8.489-9.717 12.112l-0.002 0.002c-11.408 11.141-26.962 18.055-44.137 18.212v0.014h-640c-35.346 0-64-28.628-64-63.941v-896.114c0-35.316 28.654-63.945 64-63.945s64 28.629 64 63.945v191.836h571.607c1.452-0.101 2.916-0.167 4.393-0.167 20.384 0 38.528 9.531 50.249 24.364v0l254.583 318.265zM128 832.117h544.88l205.568-256.891-203.733-255.564h-546.715v512.455z" />
<glyph unicode="&#xe942;" glyph-name="folder" d="M1023.996 704.661c0 0.023 0.002 0.044 0.002 0.069 0 35.344-28.654 63.996-64 63.996h-357.653l-108.011 107.396c-11.657 12.236-28.1 19.877-46.336 19.877h-378.834c-17.916 0-36.613-5.243-50.416-19.035-12.496-12.491-18.745-28.859-18.745-45.227h-0.004v-767.564c0-16.368 6.249-32.74 18.745-45.223 12.496-12.489 28.876-18.736 45.255-18.736v-0.215l896.004 0.215c16.379 0 32.757 6.247 45.253 18.736 12.51 12.496 18.757 28.892 18.743 45.275l-0.004 640.436zM127.998 127.916v639.748l293.774 0.315 107.086-106.526c1.332-1.449 2.725-2.839 4.185-4.16v0 0c11.358-10.288 26.423-16.558 42.955-16.558h320l0.004-512.816h-768.004z" />
<glyph unicode="&#xe943;" glyph-name="desktop" d="M1004.818 940.962c-13.803 13.797-31.927 19.038-50.4 19.038h-885.696c-17.916 0-36.613-5.243-50.416-19.038-12.496-12.494-18.745-28.866-18.745-45.237h-0.004v-639.74c0-16.375 6.249-32.747 18.745-45.234 12.496-12.492 28.876-18.738 45.255-18.738v-0.219h384v-127.845h-256.002c-35.346 0-64-28.642-64-63.973s28.652-63.975 64-63.975h640c35.348 0 64 28.642 64 63.973s-28.652 63.973-64 63.973h-255.998v127.845l384.004 0.219c16.379 0 32.757 6.245 45.253 18.736 12.51 12.501 18.757 28.901 18.743 45.287v639.49c0.052 16.439-6.19 32.894-18.74 45.438zM895.559 319.74h-768.004v511.893h768.002v-511.893z" />
<glyph unicode="&#xe944;" glyph-name="user" d="M1023.934 2.583c-1.499 153.239-70.308 290.35-178.284 383.212 32.036 56.075 50.352 120.999 50.352 190.204 0 212.076-171.92 384-384 384-212.076 0-384-171.924-384-384 0-69.198 18.313-134.114 50.343-190.185-108.012-92.9-176.83-230.084-178.283-383.388-0.030-0.807-0.062-1.612-0.062-2.427 0-35.346 28.654-64 64-64h896c35.348 0 64 28.654 64 64 0 0.866-0.032 1.726-0.066 2.583zM512.002 832.889c141.387 0 256-114.615 256-256s-114.613-256-256-256c-141.383 0-256 114.615-256 256s114.617 256 256 256zM258.96 287.188c67.575-59.253 156.107-95.188 253.042-95.188s185.465 35.932 253.040 95.182c64.663-56.704 110.119-134.77 125.348-223.182h-756.773c15.227 88.414 60.681 166.482 125.344 223.188z" />
<glyph unicode="&#xe945;" glyph-name="align-center" d="M896.041 832.444c0 35.348-28.649 64-63.989 64h-640.101c-35.34 0-63.991-28.652-63.991-64s28.651-64 63.991-64h640.101c35.34 0 63.989 28.652 63.989 64zM895.948 319.556c0 35.348-28.647 64-63.989 64h-640.101c-35.34 0-63.991-28.652-63.991-64s28.651-64 63.991-64h640.101c35.339 0 63.989 28.652 63.989 64zM1023.813 575.556c0 35.348-28.647 64-63.991 64h-895.831c-35.339 0-63.991-28.652-63.991-64s28.652-64 63.991-64h895.829c35.342 0 63.993 28.652 63.993 64zM1023.815 63.556c0 35.348-28.649 64-63.991 64h-895.833c-35.339 0-63.991-28.652-63.991-64s28.652-64 63.991-64h895.831c35.34 0 63.993 28.652 63.993 64z" />
<glyph unicode="&#xe946;" glyph-name="align-justify" d="M63.989 768.444h895.829c35.34 0 63.991 28.652 63.991 64s-28.651 64-63.991 64h-895.829c-35.342 0-63.989-28.652-63.989-64s28.649-64 63.989-64zM64.178 511.556h895.831c35.339 0 63.991 28.652 63.991 64s-28.652 64-63.991 64h-895.831c-35.342 0-63.991-28.652-63.991-64s28.651-64 63.991-64zM64.178 255.556h895.831c35.339 0 63.991 28.652 63.991 64s-28.652 64-63.991 64h-895.831c-35.342 0-63.991-28.652-63.991-64s28.649-64 63.991-64zM64.178-0.444h895.831c35.339 0 63.991 28.652 63.991 64s-28.652 64-63.991 64h-895.831c-35.342 0-63.991-28.652-63.991-64s28.649-64 63.991-64z" />
<glyph unicode="&#xe947;" glyph-name="align-left" d="M63.989 768.444h640.101c35.34 0 63.991 28.652 63.991 64s-28.651 64-63.991 64h-640.101c-35.342 0-63.989-28.652-63.989-64s28.649-64 63.989-64zM65.858 255.556h640.101c35.34 0 63.991 28.652 63.991 64s-28.651 64-63.991 64h-640.101c-35.342 0-63.991-28.652-63.991-64s28.651-64 63.991-64zM64.178 511.556h895.831c35.339 0 63.991 28.652 63.991 64s-28.652 64-63.991 64h-895.831c-35.342 0-63.991-28.652-63.991-64s28.651-64 63.991-64zM64.178-0.444h895.831c35.339 0 63.991 28.652 63.991 64s-28.652 64-63.991 64h-895.831c-35.342 0-63.991-28.652-63.991-64s28.649-64 63.991-64z" />
<glyph unicode="&#xe948;" glyph-name="align-right" d="M1024 832.444c0 35.348-28.647 64-63.989 64h-640.101c-35.34 0-63.991-28.652-63.991-64s28.651-64 63.991-64h640.101c35.34 0 63.989 28.652 63.989 64zM1022.132 319.556c0 35.348-28.647 64-63.989 64h-640.101c-35.34 0-63.991-28.652-63.991-64s28.651-64 63.991-64h640.101c35.34 0 63.989 28.652 63.989 64zM1023.813 575.556c0 35.348-28.647 64-63.991 64h-895.831c-35.339 0-63.991-28.652-63.991-64s28.652-64 63.991-64h895.829c35.342 0 63.993 28.652 63.993 64zM1023.815 63.556c0 35.348-28.649 64-63.991 64h-895.833c-35.339 0-63.991-28.652-63.991-64s28.652-64 63.991-64h895.831c35.34 0 63.993 28.652 63.993 64z" />
<glyph unicode="&#xe949;" glyph-name="comment-center" d="M1005.259 941.492c-13.801 13.792-29.593 18.508-50.38 18.508h-885.746c-18.133 0-36.58-4.718-50.384-18.507-12.494-12.487-18.745-28.852-18.745-45.216h-0.004l0.475-640.795c0-16.368 6.251-32.729 18.745-45.212 12.496-12.482 28.475-18.277 44.852-18.277l224.098-0.069 170.61-227.497c1.264-1.886 2.628-3.701 4.078-5.438l0.007-0.011c11.74-14.041 29.39-22.98 49.134-22.98 22.322 0 41.963 11.42 53.415 28.729l170.16 226.896 224.427 0.581c16.377 0 32.757 6.244 45.252 18.729 12.512 12.492 18.759 28.885 18.745 45.26l0.004 639.886c0.052 16.43-6.19 32.876-18.741 45.412zM703.998 319.424c-21.225 0-40.028-10.331-51.669-26.226l-0.011 0.007-140.267-186.715-140.709 187.801c-0.041 0.055-0.082 0.108-0.123 0.164l-0.057 0.076-0.002-0.004c-11.678 15.504-30.247 25.531-51.163 25.531-1.095 0-2.185-0.028-3.268-0.084l-189.001 0.044 0.267 511.758 767.586 0.028 0.121-511.39-191.705-0.992z" />
<glyph unicode="&#xe94a;" glyph-name="comment-center-dots" d="M1005.259 941.492c-13.801 13.792-29.593 18.508-50.38 18.508h-885.746c-18.133 0-36.58-4.718-50.384-18.507-12.494-12.487-18.745-28.852-18.745-45.216h-0.004l0.475-640.795c0-16.368 6.251-32.729 18.745-45.212 12.496-12.482 28.475-18.277 44.852-18.277l224.098-0.069 170.61-227.497c1.264-1.886 2.628-3.701 4.078-5.438l0.007-0.011c11.74-14.041 29.39-22.98 49.134-22.98 22.322 0 41.963 11.42 53.415 28.729l170.16 226.896 224.427 0.581c16.377 0 32.757 6.244 45.252 18.729 12.512 12.492 18.759 28.885 18.745 45.26l0.004 639.886c0.052 16.43-6.19 32.876-18.741 45.412zM703.998 319.424c-21.225 0-40.028-10.331-51.669-26.226l-0.011 0.007-140.267-186.715-140.709 187.801c-0.041 0.055-0.082 0.108-0.123 0.164l-0.057 0.076-0.002-0.004c-11.678 15.504-30.247 25.531-51.163 25.531-1.095 0-2.185-0.028-3.268-0.084l-189.001 0.044 0.267 511.758 767.586 0.028 0.121-511.39-191.705-0.992zM572.444 559.079c0-35.346-28.654-64-64-64s-64 28.654-64 64c0 35.346 28.654 64 64 64s64-28.654 64-64zM380.444 559.079c0-35.346-28.654-64-64-64s-64 28.654-64 64c0 35.346 28.654 64 64 64s64-28.654 64-64zM764.441 558.188c0-35.346-28.654-64-64-64s-64 28.654-64 64c0 35.346 28.654 64 64 64s64-28.654 64-64z" />
<glyph unicode="&#xe94b;" glyph-name="comment" d="M1005.259 941.394c-13.801 13.788-29.593 18.503-50.38 18.503h-885.746c-18.133 0-36.58-4.716-50.384-18.503-12.494-12.484-18.745-28.844-18.745-45.205h-0.004l0.149-639.454c0-16.364 6.252-32.724 18.745-45.204 12.496-12.482 28.878-18.722 45.255-18.722v-0.22l63.849-0.181v-192.377c0-35.305 28.652-63.929 64-63.929 12.382 0 23.936 3.522 33.732 9.604l0.005-0.005 0.292 0.196c1.010 0.635 2 1.298 2.971 1.986l364.647 243.952 366.356 0.427c16.377 0 32.757 6.24 45.252 18.722 12.512 12.491 18.759 28.88 18.745 45.253l0.004 639.756c0.052 16.427-6.19 32.869-18.741 45.403zM583.088 319.685c-2.331 0.258-4.693 0.4-7.090 0.4-16.633 0-31.783-6.341-43.163-16.732l-0.002 0.002-276.836-184.601v137.403c0 35.305-28.652 63.929-64 63.929-1.081 0-2.156-0.028-3.223-0.082l-61.045 0.043 0.267 511.657 767.586 0.028 0.121-511.287-312.615-0.759z" />
<glyph unicode="&#xe94c;" glyph-name="comment-dots" d="M1005.257 941.394c-13.799 13.788-29.593 18.503-50.379 18.503h-885.748c-18.133 0-36.58-4.716-50.384-18.503-12.494-12.484-18.745-28.844-18.745-45.205h-0.002l0.149-639.454c0-16.364 6.251-32.724 18.745-45.204 12.496-12.482 28.876-18.722 45.255-18.722v-0.22l63.849-0.181v-192.377c0-35.305 28.654-63.929 64-63.929 12.382 0 23.936 3.522 33.732 9.604l0.004-0.005 0.293 0.196c1.010 0.635 2 1.298 2.971 1.986l364.647 243.952 366.356 0.427c16.375 0 32.757 6.24 45.25 18.722 12.514 12.491 18.761 28.88 18.747 45.253l0.004 639.756c0.052 16.427-6.19 32.869-18.743 45.403zM583.086 319.685c-2.331 0.258-4.692 0.4-7.090 0.4-16.631 0-31.781-6.341-43.163-16.732v0.002l-276.837-184.601v137.403c0 35.305-28.652 63.929-64 63.929-1.081 0-2.155-0.028-3.223-0.082l-61.044 0.043 0.267 511.657 767.588 0.028 0.121-511.287-312.619-0.759zM576 576.411c0-35.346-28.654-64-64-64s-64 28.654-64 64c0 35.346 28.654 64 64 64s64-28.654 64-64zM384 576.411c0-35.346-28.654-64-64-64s-64 28.654-64 64c0 35.346 28.654 64 64 64s64-28.654 64-64zM767.996 575.52c0-35.346-28.654-64-64-64s-64 28.654-64 64c0 35.346 28.654 64 64 64s64-28.654 64-64z" />
<glyph unicode="&#xe94d;" glyph-name="camera" d="M1005.26 748.724c-13.801 13.79-32.34 19.947-50.382 18.507h-186.828l-0.076 64.651c0.052 16.427-6.19 32.873-18.74 45.408-13.803 13.79-32.34 19.947-50.382 18.507h-374.132c-18.041 1.442-36.581-4.718-50.384-18.507-12.494-12.485-18.745-28.848-18.745-45.209h-0.004l0.076-64.852h-186.532c-18.041 1.442-36.58-4.718-50.384-18.507-12.494-12.485-18.745-28.848-18.745-45.211h-0.004v-639.36c0-16.364 6.251-32.727 18.745-45.207 12.496-12.485 28.876-18.727 45.255-18.727v-0.217l896.004 0.219c16.379 0 32.757 6.24 45.253 18.725 12.51 12.492 18.757 28.884 18.743 45.259v639.111c0.052 16.428-6.19 32.873-18.74 45.41zM127.701 129.23l-0.037 511.644 255.89-0.11 0.226 127.548 255.749 0.055 0.060-127.42 255.963 0.066 0.076-511.708-767.927-0.075zM511.893 583.961c-106.039 0-192-85.876-192-191.808 0-105.934 85.961-191.808 192-191.808s192 85.874 192 191.808c0 105.932-85.959 191.808-192 191.808zM511.893 328.217c-35.346 0-64 28.626-64 63.936 0 35.312 28.654 63.936 64 63.936 35.348 0 64-28.624 64-63.936 0-35.31-28.652-63.936-64-63.936z" />
<glyph unicode="&#xe94e;" glyph-name="arrow-down-small" d="M554.427 209.717l0.587 0.583c0.26 0.26 0.524 0.514 0.779 0.779l189.312 187.881c2.725 2.288 5.25 4.796 7.563 7.504l0.139 0.139-0.011 0.012c9.474 11.157 15.204 25.598 15.204 41.387 0 35.346-28.656 64-64 64-17.447 0-33.257-6.99-44.802-18.311l-0.004 0.005-0.274-0.272c-0.098-0.096-0.192-0.187-0.292-0.286l-83.516-82.777v229.637c0 35.348-28.652 64-64 64s-64-28.652-64-64v-229.116l-80.514 81.371-0.201-0.192c-11.66 12.272-28.128 19.943-46.396 19.943-35.348 0-64-28.652-64-64 0-19.584 8.805-37.102 22.663-48.844l183.332-185.209c11.732-13.445 28.981-21.956 48.228-21.956 17.147 0 32.704 6.757 44.194 17.737l0.011-0.014z" />
<glyph unicode="&#xe94f;" glyph-name="arrow-left-small" d="M273.717 490.428l0.583 0.583c0.258 0.261 0.514 0.528 0.779 0.782l187.879 189.31c2.288 2.725 4.8 5.252 7.506 7.563l0.137 0.139 0.011-0.011c11.159 9.472 25.602 15.202 41.388 15.202 35.348 0 64-28.654 64-64 0-17.445-6.99-33.255-18.311-44.8l0.005-0.005-0.272-0.27c-0.096-0.101-0.185-0.194-0.286-0.292l-82.775-83.518h229.637c35.348 0 64-28.654 64-64s-28.652-64-64-64h-229.116l81.369-80.514-0.19-0.201c12.274-11.659 19.94-28.128 19.94-46.395 0-35.348-28.652-64-64-64-19.584 0-37.102 8.805-48.844 22.663l-185.205 183.332c-13.447 11.732-21.956 28.981-21.956 48.226 0 17.148 6.757 32.704 17.737 44.192l-0.014 0.014z" />
<glyph unicode="&#xe950;" glyph-name="arrow-right-small" d="M750.279 490.427l-0.583 0.583c-0.26 0.261-0.514 0.528-0.779 0.782l-187.877 189.316c-2.288 2.725-4.8 5.252-7.506 7.563l-0.137 0.139-0.011-0.011c-11.159 9.472-25.602 15.202-41.388 15.202-35.348 0-64-28.654-64-64 0-17.447 6.99-33.255 18.311-44.8l-0.005-0.005 0.272-0.274c0.096-0.098 0.188-0.19 0.286-0.288l82.773-83.518h-229.637c-35.348 0-64-28.654-64-64s28.652-64 64-64h229.116l-81.369-80.514 0.194-0.201c-12.276-11.66-19.943-28.126-19.943-46.396 0-35.348 28.652-64 64-64 19.584 0 37.102 8.805 48.844 22.663l185.209 183.332c13.445 11.732 21.956 28.981 21.956 48.226 0 17.148-6.757 32.704-17.737 44.192l0.011 0.011z" />
<glyph unicode="&#xe951;" glyph-name="arrow-up-small" d="M554.428 686.283l0.585-0.583c0.26-0.258 0.526-0.514 0.78-0.779l189.31-187.883c2.725-2.288 5.252-4.8 7.563-7.506l0.139-0.137-0.011-0.011c9.474-11.159 15.202-25.602 15.202-41.388 0-35.346-28.654-64-64-64-17.447 0-33.255 6.99-44.8 18.311l-0.005-0.005-0.274 0.272c-0.098 0.096-0.19 0.187-0.29 0.286l-83.516 82.777v-229.637c0-35.348-28.654-64-64-64-35.348 0-64 28.652-64 64v229.118l-80.514-81.369-0.201 0.19c-11.66-12.276-28.128-19.943-46.396-19.943-35.348 0-64 28.652-64 64 0 19.586 8.805 37.102 22.663 48.846l183.332 185.207c11.732 13.445 28.981 21.956 48.228 21.956 17.147 0 32.704-6.757 44.194-17.737l0.012 0.014z" />
<glyph unicode="&#xe952;" glyph-name="heart" d="M949.008 786.638c-99.991 99.973-262.11 99.973-362.1 0-0.036-0.036-0.069-0.071-0.105-0.107l-74.935-74.924-74.677 74.667c-0.036 0.036-0.069 0.071-0.103 0.107-99.991 99.973-262.107 99.975-362.098 0-99.989-99.973-99.989-262.064 0-362.037 0.631-0.631 1.275-1.239 1.911-1.865l0.025 0.025 388.898-369.378c24.999-24.994 65.529-24.994 90.524 0 0.052 0.055 0.103 0.112 0.155 0.164l345.218 324.096c0.469 0.441 0.94 0.875 1.401 1.33 0.037 0.037 0.066 0.073 0.103 0.112l45.787 45.778c99.989 99.97 99.989 262.062-0.004 362.034zM856.597 513.223l-7.189-7.188-338.203-319.522-345.689 328.338c-49.996 49.986-49.996 131.033 0 181.019 49.996 49.988 131.054 49.988 181.049 0 0.633-0.633 1.223-1.292 1.84-1.934l0.048 0.048 118.681-118.665c24.997-24.994 65.525-24.994 90.521 0l117.94 118.875c0.619 0.642 1.207 1.301 1.838 1.934 49.995 49.988 131.056 49.988 181.049 0 49.996-49.986 49.996-131.031 0-181.019-0.631-0.633-1.294-1.223-1.936-1.838l0.052-0.048z" />
<glyph unicode="&#xe953;" glyph-name="link-u" d="M183.79 503.273c-74.98 75.086-74.98 196.82 0 271.902 74.98 75.084 196.546 75.084 271.527 0.002v0l89.899-89.993c0.206-0.213 0.402-0.434 0.612-0.644 24.994-25.028 65.518-25.028 90.51 0s24.994 65.607 0 90.635c-0.21 0.212-0.43 0.407-0.644 0.613l0.016 0.016-89.881 90.009c-0.012 0.011-0.023 0.023-0.036 0.036l-0.594 0.594-0.007-0.007c-125.019 124.51-327.154 124.309-451.911-0.62-124.967-125.14-124.967-328.034 0-453.173l90.476-90.603c0.011-0.011 0.021-0.023 0.034-0.036 24.994-25.031 65.516-25.031 90.51 0 24.994 25.028 24.994 65.607 0 90.635l-90.512 90.635zM929.829 482.688l-90.476 90.601c-0.011 0.011-0.021 0.023-0.034 0.036-24.996 25.031-65.516 25.031-90.508 0-24.996-25.028-24.996-65.605 0-90.633l90.51-90.635c74.98-75.084 74.98-196.82-0.002-271.902-74.981-75.084-196.548-75.084-271.527-0.002h-0.002l-89.899 89.991c-0.206 0.212-0.402 0.434-0.612 0.644-24.994 25.029-65.518 25.029-90.51 0-24.994-25.028-24.994-65.605 0-90.633 0.212-0.21 0.432-0.407 0.644-0.615l-0.016-0.016 89.883-90.007c0.023-0.023 0.046-0.044 0.069-0.068l0.558-0.56 0.007 0.007c125.017-124.508 327.152-124.309 451.911 0.622 124.972 125.136 124.972 328.027 0.004 453.17zM270.073 598.29c1.321-1.609 2.727-3.172 4.228-4.674 1.481-1.481 3.019-2.869 4.601-4.176l379.401-380.356c24.994-25.029 65.516-25.029 90.508 0 24.996 25.028 24.996 65.605 0 90.633l-380.788 381.042c-1.026 1.189-2.085 2.361-3.212 3.49-1.14 1.141-2.32 2.21-3.52 3.246l-0.004 0.004c-25.145 21.707-63.132 20.636-86.987-3.25-23.49-23.524-24.898-60.782-4.231-85.957v0l0.004-0.002z" />
<glyph unicode="&#xe954;" glyph-name="code" d="M0 451.996c0-17.147 6.754-32.704 17.735-44.194l-0.012-0.011 0.581-0.583c0.258-0.26 0.516-0.528 0.779-0.78l187.879-189.312c2.288-2.725 4.802-5.25 7.508-7.563l0.139-0.139 0.011 0.011c11.159-9.472 25.6-15.202 41.385-15.202 35.346 0 64 28.654 64 64 0 17.445-6.99 33.255-18.309 44.8l0.004 0.005-0.27 0.27c-0.098 0.101-0.185 0.194-0.288 0.292l-146.556 147.89 145.675 144.146-0.188 0.197c12.274 11.664 19.941 28.128 19.941 46.4 0 35.348-28.652 64-64 64-19.584 0-37.104-8.805-48.844-22.663l-185.209-183.333c-13.451-11.735-21.957-28.983-21.957-48.231zM1002.044 499.339l-185.209 183.332c-11.74 13.858-29.26 22.663-48.844 22.663-35.348 0-64-28.652-64-64 0-18.27 7.668-34.736 19.941-46.4l-0.19-0.197 145.676-144.146-146.558-147.89c-0.101-0.098-0.19-0.19-0.288-0.292l-0.27-0.27 0.004-0.005c-11.319-11.545-18.309-27.356-18.309-44.8 0-35.346 28.652-64 64-64 15.785 0 30.226 5.73 41.385 15.202l0.011-0.011 0.139 0.139c2.704 2.313 5.22 4.837 7.508 7.563l187.883 189.312c0.26 0.254 0.521 0.521 0.779 0.78l0.58 0.583-0.011 0.011c10.98 11.49 17.733 27.049 17.733 44.194-0.002 19.25-8.508 36.498-21.957 48.233zM639.152 758.988l0.044 0.228h-0.007c0.524 3.296 0.805 6.672 0.805 10.116 0 35.346-28.656 64-64 64-30.156 0-55.424-20.862-62.201-48.935h-0.007l-0.044-0.228c-0.368-1.552-128.601-642.805-128.601-642.805-0.741-3.899-1.147-7.918-1.147-12.034 0-35.348 28.654-64 64-64 28.718 0 53.020 18.916 61.124 44.969v0l0.002 0.005c1.278 4.116 129.79 647.202 130.032 648.684z" />
<glyph unicode="&#xe955;" glyph-name="comment-center-rounded" d="M1023.838 704.894c-0.571 140.523-114.436 254.311-255.008 254.793v0.012l-512.459-0.007c-140.926-0.482-256.475-114.619-256.475-255.63 0-2.585-0.044-264.969-0.044-264.969 4.91-136.663 118.859-246.43 256.599-246.976l32.343 0.011 171.184-228.011c1.264-1.886 2.629-3.701 4.078-5.438l0.007-0.011c11.737-14.032 29.38-22.965 49.116-22.965 22.316 0 41.948 11.413 53.397 28.711l170.681 227.659 31.12 0.046c137.52 0.562 250.030 110 255.257 246.379h0.032l0.185 266.395h-0.014zM895.712 439.676v0c-3.927-66.754-59.609-119.166-127.333-119.632l-62.814-0.069c-21.218 0-40.462-11.374-52.1-27.264l-0.011 0.007-140.22-186.615-140.661 187.701c-0.039 0.055-0.080 0.108-0.123 0.164l-0.055 0.076-0.004-0.004c-11.673 15.497-30.233 25.938-51.141 25.938-1.095 0-65.077 0.066-65.077 0.066-67.723 0.466-124.427 52.295-128.311 119.049 0 0 0 260.439 0 262.524 0 70.356 58.254 129.671 128.51 130.153v0.124l512.457-0.13c69.497-0.476 125.803-58.1 127.006-127.445l-0.123-264.644z" />
<glyph unicode="&#xe956;" glyph-name="wrench" d="M933.385 236.233l-0.011 0.009c99.013 99.82 98.976 260.868-0.117 360.642l0.009 0.007-45.052 45.040c-0.071 0.073-0.133 0.146-0.204 0.217-24.994 24.994-65.518 24.994-90.51 0l-136.139-136.139-90.953 90.953 136.142 136.144c24.994 24.994 24.994 65.516 0 90.51-0.071 0.071-0.146 0.135-0.217 0.206l0.005 0.005-45.052 45.036c-100.027 99.344-262.508 100.325-362.272 0.562-1.828-1.828-96.983-96.921-96.983-96.921-93.216-100.16-90.272-258.42 6.773-356.238l-129.303-128.245c-36.455-37.397-63.108-86.967-63.106-143.831 0-106.039 85.963-191.998 192-192 53.333 0 101.58 21.749 136.375 56.86l-0.002-0.012 135.636 135.63c97.675-96.876 254.684-99.031 354.866-6.245l0.021-0.021 98.094 97.831zM570.914 235.175l-90.82 90.82-226.556-226.585c-11.596-11.689-27.376-19.22-45.143-19.218-35.346 0-64 28.649-64 64 0 19.317 8.679 35.813 21.671 48.804l223.554 223.472-90.505 90.507c-47.575 48.231-51.017 125.012-6.537 174.983 0 0 93.746 93.746 95.223 95.223 49.776 49.776 132.948 50.535 182.983 1.18l0.087 0.087 0.002-0.002-137.545-137.545c-24.994-24.994-24.994-65.516 0-90.51 0.526-0.526 1.57-1.57 1.57-1.57l179.748-179.748c0.048-0.048 0.359-0.356 0.359-0.356 25.010-24.782 65.371-24.716 90.292 0.206l137.46 137.456c48.823-49.495 47.881-130.089-0.329-180.004l-96.812-96.631c-50.004-44.452-126.469-42.146-174.7 5.429z" />
<glyph unicode="&#xe957;" glyph-name="instagram" d="M1019.796 237.070c-3.996-81.931-22.647-154.535-82.597-214.482-59.948-59.95-132.553-78.601-214.482-82.597-70.608-3.996-140.548-3.33-211.152-3.33s-140.548-0.667-211.152 3.33c-81.931 3.996-154.535 22.647-214.484 82.597-59.948 59.948-78.599 132.553-82.596 214.482-4 70.604-3.333 140.544-3.333 211.152 0 70.606-0.667 140.546 3.332 211.152 3.996 81.929 22.647 154.535 82.596 214.484s132.553 78.599 214.482 82.596c70.606 3.996 140.548 3.332 211.152 3.332s140.546 0.667 211.152-3.33c81.931-3.996 154.535-22.647 214.482-82.596 59.95-59.948 78.601-132.555 82.597-214.484 3.996-70.606 3.33-140.548 3.33-211.152s0.67-140.549-3.326-211.154zM209.82 847.214c-23.314-9.326-40.631-20.649-58.617-38.633s-29.308-35.303-38.633-58.617c-26.645-67.276-20.649-227.14-20.649-301.742s-5.996-234.466 20.649-301.742c9.324-23.312 20.647-40.629 38.633-58.615 17.984-17.986 35.301-29.308 58.617-38.633 67.276-26.644 227.14-20.649 301.74-20.649s234.466-5.995 301.74 20.649c23.314 9.324 40.631 20.647 58.617 38.633 17.986 17.984 29.308 35.301 38.633 58.615 26.644 67.278 20.649 227.141 20.649 301.742s5.995 234.466-20.649 301.742c-9.324 23.314-20.647 40.631-38.633 58.617-17.984 17.984-35.301 29.308-58.617 38.633-67.276 26.644-227.14 20.649-301.74 20.649s-234.464 5.995-301.74-20.649zM511.563 185.781c-145.209 0-262.443 117.232-262.443 262.441s117.234 262.443 262.443 262.443 262.443-117.232 262.443-262.443c0-145.209-117.234-262.441-262.443-262.441zM511.563 618.743c-93.92 0-170.521-76.601-170.521-170.521s76.601-170.521 170.521-170.521 170.521 76.601 170.521 170.521-76.601 170.521-170.521 170.521zM784.661 660.041c-33.97 0-61.28 27.31-61.28 61.282s27.308 61.282 61.28 61.282c33.972 0 61.282-27.31 61.282-61.282s-27.31-61.282-61.282-61.282z" />
<glyph unicode="&#xe958;" glyph-name="dribbble2" d="M512 960c-282.88-0.041-512-229.118-512-512.041 0-282.841 229.12-511.959 512-511.959 282.876 0 512 229.118 512 511.959 0.002 282.923-229.124 512-512 512.041zM825.854 694.53c49.924-63.403 81.026-141.998 85.038-227.628-57.899 12.116-112.725 18.133-163.118 18.133v0h-0.681c-40.958 0-79.278-3.884-115.836-10.071-8.453 21.502-17.367 42.197-26.372 62.080 80.388 35.374 158.119 85.89 220.969 157.486zM512 847.447c94.121 0 180.777-33.026 249.003-87.892-52.14-62.551-121.22-108.075-196.055-140.032-52.437 101.502-103.125 173.995-137.854 218.412 27.435 6.011 55.806 9.511 84.907 9.511zM335.575 805.845c27.564-32.896 83.285-104.876 142.507-217.387-120.576-35.927-242.004-44.416-315.518-44.416-2.094 0-4.055 0-6.103 0.087h-0.089c-12.414 0-22.953 0.297-31.913 0.768 28.631 114.56 107.138 209.577 211.116 260.948zM112.512 447.959c0 1.664 0.043 3.966 0.382 5.929 11.18-0.725 25.982-0.894 43.518-0.894h0.087c80.34 0.469 220.459 7.083 362.496 52.055 7.634-16.94 15.321-34.56 22.997-52.951-94.932-31.828-169.557-82.132-224.939-132.309-53.163-48.77-89.086-96.77-110.082-128.77-58.875 69.76-94.418 158.976-94.46 256.94zM512 48.213c-88.962 0-170.88 29.696-237.143 78.932 14.080 23.083 44.16 67.968 92.587 114.009 49.534 47.785 118.016 96.768 207.445 125.908 30.293-85.118 57.982-182.828 79.013-292.268-44.112-16.894-91.982-26.58-141.902-26.58zM738.048 119.209c-20.185 99.031-45.909 188.885-73.856 268.716 26.025 3.838 53.588 5.886 81.963 5.886h1.621c47.275 0 100.011-5.929 156.375-18.855-19.372-105.817-80.937-196.825-166.103-255.748z" />
<glyph unicode="&#xe959;" glyph-name="behance" d="M924.745 676.26h-256.574v63.691h256.599v-63.691h-0.025zM497.36 415.086c16.556-25.625 24.827-56.74 24.827-93.271 0-37.771-9.328-71.66-28.304-101.593-12.073-19.81-27.061-36.546-45.070-50.014-20.284-15.58-44.299-26.26-71.906-31.972-27.694-5.716-57.669-8.604-89.961-8.604h-286.946v636.734h307.707c77.561-1.26 132.548-23.717 165.020-67.82 19.483-27.049 29.136-59.506 29.136-97.23 0-38.928-9.769-70.076-29.444-93.74-10.946-13.269-27.113-25.337-48.516-36.231 32.42-11.863 57.017-30.539 73.456-56.258zM146.942 515.335h134.825c27.707 0 50.105 5.262 67.355 15.783 17.239 10.505 25.84 29.177 25.84 55.984 0 29.618-11.39 49.276-34.222 58.738-19.627 6.574-44.74 9.959-75.209 9.959h-118.588v-140.464zM387.945 330.917c0 33.074-13.529 55.938-40.526 68.208-15.099 6.972-36.402 10.539-63.716 10.791h-136.761v-169.687h134.642c27.662 0 49.072 3.621 64.523 11.173 27.865 13.879 41.838 40.292 41.838 79.515zM1019.943 434.501c3.1-20.834 4.501-51.058 3.934-90.564h-332.295c1.831-45.836 17.668-77.89 47.698-96.236 18.108-11.5 40.068-17.118 65.778-17.118 27.113 0 49.211 6.852 66.219 20.93 9.269 7.461 17.445 17.996 24.512 31.289h121.797c-3.189-27.070-17.854-54.528-44.208-82.43-40.834-44.35-98.098-66.59-171.644-66.59-60.756 0-114.299 18.754-160.775 56.128-46.322 37.511-69.588 98.334-69.588 182.708 0 79.124 20.884 139.685 62.798 181.84 42.066 42.233 96.354 63.253 163.276 63.253 39.668 0 75.42-7.086 107.319-21.33 31.801-14.26 58.080-36.7 78.779-67.54 18.732-27.161 30.779-58.565 36.4-94.34zM900.057 422.62c-2.235 31.694-12.823 55.684-31.89 72.078-18.91 16.441-42.533 24.693-70.72 24.693-30.677 0-54.366-8.821-71.196-26.16-16.949-17.303-27.493-40.828-31.815-70.615l205.621 0.004z" />
<glyph unicode="&#xe95a;" glyph-name="dribbble" d="M512 960c-282.88-0.041-512-229.118-512-512.041 0-282.841 229.12-511.959 512-511.959 282.876 0 512 229.118 512 511.959 0.002 282.923-229.124 512-512 512.041zM825.854 694.53c49.924-63.403 81.026-141.998 85.038-227.628-57.899 12.116-112.725 18.133-163.118 18.133v0h-0.681c-40.958 0-79.278-3.884-115.836-10.071-8.453 21.502-17.367 42.197-26.372 62.080 80.388 35.374 158.119 85.89 220.969 157.486zM512 847.447c94.121 0 180.777-33.026 249.003-87.892-52.14-62.551-121.22-108.075-196.055-140.032-52.437 101.502-103.125 173.995-137.854 218.412 27.435 6.011 55.806 9.511 84.907 9.511zM335.575 805.845c27.564-32.896 83.285-104.876 142.507-217.387-120.576-35.927-242.004-44.416-315.518-44.416-2.094 0-4.055 0-6.103 0.087h-0.089c-12.414 0-22.953 0.297-31.913 0.768 28.631 114.56 107.138 209.577 211.116 260.948zM112.512 447.959c0 1.664 0.043 3.966 0.382 5.929 11.18-0.725 25.982-0.894 43.518-0.894h0.087c80.34 0.469 220.459 7.083 362.496 52.055 7.634-16.94 15.321-34.56 22.997-52.951-94.932-31.828-169.557-82.132-224.939-132.309-53.163-48.77-89.086-96.77-110.082-128.77-58.875 69.76-94.418 158.976-94.46 256.94zM512 48.213c-88.962 0-170.88 29.696-237.143 78.932 14.080 23.083 44.16 67.968 92.587 114.009 49.534 47.785 118.016 96.768 207.445 125.908 30.293-85.118 57.982-182.828 79.013-292.268-44.112-16.894-91.982-26.58-141.902-26.58zM738.048 119.209c-20.185 99.031-45.909 188.885-73.856 268.716 26.025 3.838 53.588 5.886 81.963 5.886h1.621c47.275 0 100.011-5.929 156.375-18.855-19.372-105.817-80.937-196.825-166.103-255.748z" />
<glyph unicode="&#xe95b;" glyph-name="flickr" d="M832.002 960h-640.002c-106.048 0-192-85.952-192-191.998v-640.004c0-106.046 85.952-191.998 192-191.998h640.002c106.046 0 191.998 85.954 191.998 191.998v640.004c0.002 106.046-85.952 191.998-191.998 191.998zM323.586 319.742c-71.746 0-129.86 58.112-129.86 129.858s58.112 129.856 129.86 129.856c71.744 0 129.854-58.112 129.854-129.856 0-71.746-58.112-129.858-129.854-129.858zM701.76 319.742c-71.744 0-129.854 58.112-129.854 129.858s58.11 129.856 129.854 129.856 129.858-58.112 129.858-129.856c0-71.746-58.112-129.858-129.858-129.858z" />
<glyph unicode="&#xe95c;" glyph-name="foursquare" d="M875.365 908.83c2.395 12.62-0.955 25.659-9.15 35.559-8.194 9.89-20.37 15.618-33.216 15.618h-587.026c-54.091 0-98.096-44.005-98.096-98.11v-882.766c0-17.785 10.914-33.74 27.49-40.192 5.083-1.977 10.379-2.932 15.623-2.932 11.861 0 23.467 4.9 31.797 13.984l296.009 322.933h200.028c20.709 0 38.494 14.72 42.363 35.076l56.956 299.74c0.011 0.041 0.016 0.075 0.027 0.112l57.195 300.978zM683.12 359.177h-183.292c-12.092 0-23.621-5.081-31.792-13.984l-233.913-255.191v771.895c0 6.423 5.428 11.856 11.845 11.856h534.932l-40.692-214.156h-257.227c-23.817 0-43.127-19.303-43.127-43.125 0-23.824 19.308-43.127 43.127-43.127h240.834l-40.695-214.167z" />
<glyph unicode="&#xe95d;" glyph-name="gihub" d="M956.146 692.871c-45.785 78.572-107.888 140.78-186.327 186.633-78.453 45.856-164.094 68.779-256.997 68.779-92.887 0-178.56-22.928-256.996-68.779-78.444-45.851-140.546-108.060-186.331-186.633-45.778-78.571-68.667-164.37-68.667-257.397 0-111.748 32.549-212.231 97.666-301.481 65.108-89.257 149.22-151.020 252.325-185.292 12.002-2.233 20.887-0.663 26.665 4.667 5.778 5.337 8.665 12.021 8.665 20.025 0 1.337-0.112 13.351-0.336 36.055-0.229 22.708-0.336 42.517-0.336 59.42l-15.333-2.66c-9.778-1.792-22.11-2.553-37.001-2.336-14.884 0.208-30.332 1.771-46.329 4.677-16.004 2.878-30.889 9.556-44.668 20.018-13.772 10.459-23.548 24.153-29.328 41.060l-6.667 15.365c-4.444 10.229-11.438 21.593-20.997 34.052-9.556 12.466-19.221 20.917-28.997 25.369l-4.667 3.348c-3.111 2.226-5.996 4.91-8.667 8.021-2.667 3.115-4.663 6.229-5.996 9.348-1.337 3.122-0.229 5.684 3.332 7.691 3.561 2.011 9.996 2.987 19.335 2.987l13.328-1.996c8.889-1.785 19.883-7.111 32.999-16.021 13.111-8.903 23.884-20.476 32.331-34.711 10.228-18.258 22.549-32.171 36.999-41.74 14.441-9.573 28.999-14.354 43.664-14.354 14.663 0 27.328 1.115 38 3.333 10.66 2.222 20.66 5.57 29.998 10.018 4 29.84 14.891 52.761 32.661 68.784-25.332 2.663-48.103 6.681-68.332 12.021-20.215 5.348-41.108 14.021-62.66 26.055-21.564 12.014-39.452 26.93-53.669 44.729-14.22 17.81-25.89 41.188-34.994 70.114-9.109 28.937-13.666 62.324-13.666 100.158 0 53.874 17.559 99.719 52.67 137.559-16.448 40.503-14.894 85.908 4.663 136.21 12.889 4.011 32.004 1.001 57.333-9.012 25.333-10.018 43.884-18.597 55.668-25.712 11.781-7.111 21.223-13.138 28.334-18.027 41.34 11.57 84.002 17.356 127.998 17.356s86.667-5.787 128.012-17.356l25.33 16.018c17.326 10.688 37.783 20.484 61.323 29.387 23.556 8.9 41.57 11.349 54.018 7.339 19.993-50.304 21.776-95.707 5.323-136.21 35.109-37.84 52.672-83.696 52.672-137.559 0-37.836-4.569-71.326-13.666-100.485-9.106-29.17-20.876-52.524-35.316-70.117-14.457-17.588-32.459-32.389-54.011-44.4-21.556-12.021-42.457-20.702-62.672-26.044-20.226-5.351-42.997-9.365-68.331-12.036 23.102-20.028 34.66-51.636 34.66-94.812v-140.882c0-8.004 2.779-14.684 8.336-20.025 5.557-5.33 14.329-6.9 26.332-4.663 103.12 34.27 187.23 96.032 252.336 185.289 65.099 89.253 97.662 189.737 97.662 301.483-0.025 93.012-22.928 178.805-68.683 257.376z" />
<glyph unicode="&#xe95e;" glyph-name="google" d="M521.705-64c-283.481 0-513.063 229.108-513.063 512s229.582 512 513.063 512c138.587 0 254.076-50.292 343.669-134.112l-139.292-133.415c-37.796 36.325-104.288 78.932-204.382 78.932-174.987 0-317.776-144.592-317.776-323.406 0-178.816 142.789-323.404 317.776-323.404 202.987 0 279.278 145.988 291.177 220.724h-291.172v176.023h484.361c4.9-25.847 8.4-51.689 8.4-85.218 0-292.67-196.688-500.123-492.761-500.123z" />
<glyph unicode="&#xe95f;" glyph-name="linkedin" d="M1024.092 337.314v-378.647h-219.477v353.287c0 88.75-31.744 149.317-111.186 149.317-60.647 0-96.738-40.816-112.615-80.302-5.79-14.116-7.278-33.76-7.278-53.522v-368.78h-219.55c0 0 2.956 598.354 0 660.347h219.527v-93.6c-0.443-0.7-1.022-1.456-1.442-2.133h1.442v2.133c29.17 44.93 81.257 109.115 197.845 109.115 144.446 0 252.734-94.38 252.734-297.214zM124.327 937.333c-75.109 0-124.235-49.273-124.235-114.069 0-63.385 47.705-114.153 121.321-114.153h1.468c76.56 0 124.176 50.759 124.176 114.153-1.445 64.796-47.616 114.069-122.731 114.069zM13.131-41.333h219.467v660.347h-219.467v-660.347z" />
<glyph unicode="&#xe960;" glyph-name="meetup" d="M467.82 432.964c-3.428 0-6.873 0.279-9.424 3.849 0.773 13.534 5.202 23.65 9.5 33.404 1.924 4.395 3.852 8.77 5.429 13.486l1.92 5.552 1.586-5.636c3.716-13.074 2.533-37.445-3.223-50.556l-5.788-0.1zM895.579 518.384l-1.71-1.596c-29.257-27.541-39.868-74.29-47.513-115.915 24.409 6.585 45.156 29.099 54.11 53.86 5.454 15.12 9.221 38.091-3.733 61.6l-1.154 2.052zM361.223 443.36c1.534-0.599 3.278-1.308 5.701-1.308l1.216 0.254 2.964 1.452c2.295 11.2 1.577 25.71-1.927 39.806-9.003-10.203-14.492-22.105-16.572-37.344l-0.279-2.060 4.578 0.247c1.701-0.002 2.919-0.446 4.32-1.047zM1024 177.794c0-20.171-16.377-36.521-36.576-36.521h-950.846c-20.206-0.004-36.578 16.348-36.578 36.521v540.411c0 20.176 16.372 36.523 36.578 36.523h950.846c20.199 0 36.576-16.347 36.576-36.523v-540.411zM307.54 376.373c-10.144 27.936-16.72 59.577-23.040 90.576-8.178 39.815-16.599 80.247-30.898 111.806-1.692-0.155-3.376-1.726-4.997-1.726-5.056 0-9.456-1.189-13.849-0.487-4.171 0.727-8.361-3.577-13.298-3.577-0.455 0-0.955 0-1.413 0-1.282 0-2.444 5.008-2.999 5.374-22.805-30.798-30.645-72.377-40.951-114.535-5.7 9.984-10.923 20.229-16.101 30.715-9.148 18.427-18.604 37.353-29.321 52.519-3.001 0.254-5.927 0.277-8.727 0.277-12.27 0-23.41-2.208-33.876-5.253l-0.54-28.295c-1.15-48.592-2.128-90.549 10.139-130.156 2.279-0.373 4.596-0.56 6.894-0.56 14.699 0 27.705 7.164 33.349 10.037 0.9 12.428-0.651 22.123-2.245 32.421-0.85 5.282-1.716 10.594 1.083 17.502 8.523-11.049 16.018-23.161 23.484-35.266 4.756-7.668 9.509-15.301 13.148-21.89 2.46-0.252 4.782-0.354 6.999-0.354 5.744 0 10.82 0.711 15.883 1.399 5.266 0.709 10.478 1.371 16.439 1.371l3.383-1.228c6.754 14.978 7.124 36.999 7.474 58.322 0.316 19.572 0.672 39.767 9.376 54.816 9.5-43.71 22.444-86.178 39.502-129.753 5.998 0.816 12.642 2.873 18.788 4.768 4.571 1.424 8.711 2.763 12.002 2.763 1.671-0.005 3.131-0.741 4.313-1.586zM425.321 367.232c-3.273 5.924-7.995 8.686-14.722 8.686-5.14 0-10.997-1.452-16.642-3.008-5.78-1.55-11.708-3.036-17.056-3.036-1.479 0-2.855 0.363-4.222 0.645-6.428 1.221-11.628 5.234-15.404 10.827-6.828 10.14-8.5 26.759-2.38 46.996 9.868-2.66 22.277-3.060 35.867-3.060 1.147 0 2.238 0 3.346 0 3.479 0 6.654-1.111 8.724-1.956 6.686 27.092 3.083 64.025-2.272 85.271-4.146 0.864-7.828 2.375-11.508 3.632-6.439 2.22-12.466 4.377-20.716 4.377-1.42 0-2.9 0.066-4.37-0.1-26.135-3.502-43.908-40.107-47.957-74.498-3.753-31.73 3.099-69.836 33.499-81.552 6.26-2.407 14.043-3.605 23.099-3.605 18.075 0 39.045 5.054 52.716 10.38zM529.044 374.955c-1.643 5.445-6.379 8.453-13.399 10.638-5.966-9.241-15.252-14.354-26.226-14.354-11.662 0-23.243 5.915-30.199 15.476-6.645 9.122-8.274 20.503-2.402 33.23 9.424-1.922 18.638-3.671 27.228-3.671 7.132 0 13.548 1.127 18.956 1.749-1.671 20.837 0.748 35.46 3.323 50.932 2.139 12.93 4.356 26.27 4.821 42.412-11.899 8.985-24.56 13.573-38.683 14.821-34.853-26.603-51.029-67.372-49.506-124.32 4.766-25.188 38.007-40.759 66.094-40.759 17.122-0.002 31.49 5.561 39.991 13.845zM649.781 453.038c-4.334 3.465-8.004 7.532-11.68 11.671-6.944 7.771-13.522 15.104-24.199 17.964-2.213-0.044-2.654-1.652-2.9-6.571-0.226-3.957-0.556-10.046-6.599-10.046l-4.155-0.044 0.176 1.444c1.49 17.659 0.187 37.991-1.234 60.528-1.959 31.959-4.012 61.845 1.68 88.875-7.049 8.436-17.792 12.903-38.592 12.903-0.277 0-0.523 0-0.766 0-1.724 0-3.289 5.324-3.758 6.256-10.697-32.884-5.497-68.923-0.462-108.304 2.889-22.471 5.62-43.431 2.288-63.769-4.114 0-8.288 0.516-12.334 0.832-3.589 0.304-7.132 0.683-10.311 0.683-5.966 0-9.532-1.038-11.675-3.465-2.423-2.711-3.147-7.364-3.015-12.974 8.226-5.637 22.448-6.016 36.19-6.37l8.658-1.973c0.377-12.005 1.323-23.452 2.242-34.933 1.399-16.809 2.779-34.183 2.434-53.134 3.643 0.51 6.923 0.692 10.098 0.891 6.158 0.386 11.977 0.754 18.58 1.531-0.21 13.415-0.709 26.196-1.189 38.494-0.654 17.186-1.276 33.504 0.21 51.132 6.091 1.744 13.479 2.144 20.603 2.521 11.929 0.663 24.284 1.34 29.712 5.86zM776.734 474.389c-8.556 6.985-19.156 19.049-31.244 19.049-0.953 0-1.888 0-2.732 0-1.298 0-2.402-3.307-3.001-2.702l-0.3-12.603c-0.809-34.555-1.963-82.411-35.054-93.886-3.156 20.734-4.002 43.388-4.802 63.659-0.421 10.798-0.823 20.596-0.455 27.445-3.223 1.543-6.188 3.202-9.099 4.978-8.235 4.93-15.964 9.529-28.469 11.166-4.988-59.408 1.001-98.748 17.744-116.9 6.901-7.486 15.78-11.316 26.391-11.316 7.465 0 15.924 1.831 24.334 4.804l3.202 4.916c5.977 9.143 9.888 15.202 18.82 21.977 2.277 4.073 4.713 9.084 7.18 12.992 10.93 17.509 21.266 36.236 17.486 66.421zM936.512 530.315c-18.235 10.654-34.112 15.787-48.588 15.787-18.025 0-33.646-8.085-47.78-24.772-26.599-31.356-32.144-96.64-35.964-129.511-1.598-0.692-3.353-1.223-5.132-1.733-4.612-1.367-8.956-2.663-10.622-4.812 13.975-16.18 16.732-43.602 19.401-70.092 2.089-20.45 4.178-41.58 10.174-55.948 3.335-0.722 8-1.088 14.288-1.088 2.946 0 6.044 0.089 9.124 0.089 5.202 0 10.325-0.233 14.379-1.461-9.676 24.373-13.458 57.412-10.455 105.682 39.465 9.317 74.533 37.275 91.5 72.965 10.233 21.566 18.388 55.668-0.324 94.896z" />
<glyph unicode="&#xe961;" glyph-name="odnoklassniki" d="M811.588 409.726c4.958-10.284 7.822-19.712 8.59-28.284 0.764-8.571-0.098-16.283-2.576-23.141-2.485-6.859-7.545-14.196-15.18-22.002-7.643-7.812-15.753-14.857-24.343-21.143-8.59-6.288-20.336-14.196-35.225-23.716-43.92-27.813-104.069-45.712-180.441-53.714l41.815-41.143 152.944-152.571c11.454-11.804 17.184-25.902 17.184-42.286 0-16.372-5.73-30.284-17.184-41.712l-6.875-7.433c-11.84-11.428-25.972-17.143-42.389-17.143-16.423 0-30.556 5.716-42.389 17.143-25.588 25.913-76.569 76.956-152.942 153.147l-152.942-153.147c-11.842-11.428-25.973-17.143-42.389-17.143-16.425 0-30.361 5.716-41.815 17.143l-6.875 7.433c-11.84 11.428-17.756 25.34-17.756 41.712 0 16.384 5.916 30.482 17.756 42.286l194.185 193.714c-77.527 8.002-138.050 25.9-181.584 53.714-14.892 9.518-26.635 17.428-35.228 23.716-8.592 6.284-16.711 13.332-24.345 21.143-7.643 7.806-12.7 15.143-15.179 22.002-2.489 6.857-3.348 14.569-2.578 23.141 0.761 8.572 3.625 18 8.592 28.284 3.813 7.62 9.164 14.29 16.039 20.004 6.873 5.712 14.892 9.899 24.059 12.569 9.164 2.661 19.852 2.286 32.078-1.143 12.217-3.429 24.629-10.098 37.232-20 1.906-1.527 4.772-3.627 8.592-6.288 3.812-2.667 12.028-7.337 24.629-14 12.603-6.668 25.778-12.48 39.525-17.428 13.748-4.955 31.307-9.524 52.699-13.712 21.383-4.199 42.962-6.286 64.729-6.286 34.743 0 67.97 4.855 99.671 14.572 31.691 9.712 54.604 19.328 68.74 28.853l21.764 14.286c12.604 9.902 25.006 16.571 37.232 20 12.219 3.429 22.914 3.804 32.080 1.143 9.163-2.67 17.184-6.857 24.059-12.569s12.219-12.382 16.043-20.002zM695.879 517.156c-50.795-50.668-112.084-76-183.876-76-71.799 0-133.092 25.33-183.876 76-50.793 50.661-76.185 111.616-76.185 182.857 0 71.616 25.392 132.759 76.185 183.429 50.784 50.661 112.075 76 183.876 76 71.792 0 133.081-25.339 183.876-76 50.78-50.668 76.185-111.813 76.185-183.429-0.002-71.241-25.404-132.196-76.185-182.857zM602.222 790.583c-25.017 24.948-55.090 37.429-90.22 37.429-35.14 0-65.212-12.482-90.219-37.429-25.017-24.956-37.52-55.141-37.52-90.571 0-35.052 12.503-65.052 37.52-90 25.006-24.955 55.079-37.428 90.219-37.428 35.129 0 65.202 12.475 90.22 37.428 25.003 24.948 37.518 54.948 37.518 90 0 35.429-12.516 65.616-37.518 90.571z" />
<glyph unicode="&#xe962;" glyph-name="pinterest" d="M512 960c-282.77 0-512-229.23-512-512 0-282.768 229.225-512 512-512 282.766 0 512 229.23 512 512-0.004 282.77-229.234 512-512 512zM561.644 275.883c-46.523 3.612-66.043 26.654-102.505 48.809-20.060-105.179-44.564-206.021-117.14-258.69-22.405 158.967 32.891 278.363 58.567 405.115-43.781 73.705 5.269 222.036 97.621 185.474 113.627-44.948-98.4-274.009 43.932-302.619 148.617-29.867 209.287 257.861 117.14 351.428-133.157 135.104-387.595 3.079-356.308-190.357 7.614-47.292 56.469-61.637 19.522-126.901-85.22 18.889-110.649 86.101-107.376 175.71 5.268 146.676 131.783 249.365 258.686 263.568 160.482 17.963 311.106-58.908 331.902-209.877 23.417-170.388-72.444-354.93-244.043-341.659z" />
<glyph unicode="&#xe963;" glyph-name="renren" d="M815.333 864.487c-64.894 47.579-137.115 78.084-216.661 91.438v-323.712c0-112.14 28.107-214.368 84.332-306.683 56.212-92.35 129.673-160.532 220.331-204.583 80.439 95.653 120.665 205.788 120.665 330.384 0 83.223-18.564 160.971-55.66 233.296-37.113 72.26-88.114 132.224-153.006 179.86zM340.996 325.518c56.224 92.32 84.332 194.555 84.332 306.684v323.723c-79.559-13.353-151.78-43.849-216.67-91.44-64.907-47.636-115.897-107.598-153.010-179.87-37.099-72.324-55.648-150.071-55.648-233.296 0-124.603 40.22-234.729 120.667-330.38 90.668 44.052 164.105 112.228 220.329 204.58zM598.334 143.643c-43.339 55.177-72.784 114.802-88.338 178.878-15.118-64.087-44.327-123.712-87.664-178.878-43.339-55.198-95.668-102.121-157.003-140.841 76.002-41.822 157.556-62.725 244.667-62.725 87.552 0 169.333 20.903 245.337 62.725-61.333 38.709-113.662 85.643-156.999 140.841z" />
<glyph unicode="&#xe964;" glyph-name="skype" d="M981.579 373.538c3.82 24.176 5.831 48.914 5.831 74.155 0 262.391-212.702 475.083-475.106 475.083-25.179 0-49.982-2.075-74.139-5.851-43.756 27.076-95.401 42.741-150.745 42.741-158.556 0-287.097-128.519-287.097-287.090 0-55.333 15.676-106.932 42.74-150.777-3.744-24.217-5.806-48.871-5.806-74.117 0-262.407 212.697-475.038 475.038-475.038 25.2 0 50.016 1.941 74.167 5.753 43.803-27.020 95.404-42.731 150.732-42.731 158.601 0 287.129 128.556 287.129 287.118 0.011 55.356-15.659 106.944-42.745 150.754zM737.877 231.62c-20.101-28.932-49.623-51.545-88.201-67.804-38.658-16.299-84.345-24.407-137.109-24.407-63.236 0-115.593 11.065-156.923 33.41-29.294 16-53.122 37.465-71.44 64.235-18.356 26.786-27.664 53.019-27.664 78.596 0 15.092 5.755 28.213 16.956 38.912 11.319 10.777 25.895 16.181 43.102 16.181 14.092 0 26.199-4.245 36.055-12.658 9.781-8.407 17.989-20.629 24.7-36.764 8.044-18.692 16.782-34.313 26.080-46.777 9.239-12.311 22.242-22.588 39.084-30.633 16.654-8.068 38.821-12.098 66.562-12.098 37.963 0 68.64 8.212 92.121 24.407 23.596 16.348 34.928 36.235 34.928 60.263 0 19.168-6.108 34.391-18.64 46.26-12.647 12.023-28.98 21.179-49.246 27.57-20.345 6.453-47.664 13.298-81.895 20.507-45.97 10.034-84.416 21.71-115.547 35.12-31.173 13.461-56 31.861-74.402 55.106-18.441 23.472-27.634 52.645-27.634 87.198 0 32.949 9.707 62.416 29.14 88.060 19.422 25.717 47.522 45.401 84.162 59.111 36.512 13.707 79.497 20.562 128.74 20.562 39.38 0 73.447-4.556 102.281-13.623 28.754-9.132 52.722-21.184 71.89-36.306 19.044-15.090 33.056-31.003 41.932-47.703 8.864-16.75 13.332-33.111 13.332-49.076 0-14.846-5.755-28.308-16.967-40.105-11.211-11.817-25.556-17.84-42.302-17.785-15.097 0-26.94 3.483-35.156 10.857-8 7.132-16.402 18.489-25.488 34.316-11.486 22.084-25.244 39.289-41.246 51.595-15.579 12.076-41.278 18.364-77.038 18.288-33.086 0-59.563-6.761-79.543-19.984-20.107-13.435-29.717-29.020-29.762-47.284 0.036-11.444 3.323-21.093 9.945-29.346 6.724-8.327 16.078-15.543 28.1-21.625 12.030-6.18 24.263-10.958 36.558-14.395 12.439-3.525 33.079-8.622 61.767-15.372 35.98-7.753 68.615-16.416 97.936-25.858 29.268-9.49 54.244-20.935 74.88-34.569 20.796-13.591 37.052-30.928 48.654-51.86 11.687-20.969 17.509-46.574 17.509-76.708 0.041-36.293-10.066-68.928-30.212-97.815z" />
<glyph unicode="&#xe965;" glyph-name="trumblr" d="M757.156 142.219l49.271-145.833c-9.442-14.35-32.233-27.89-68.372-40.615-36.132-12.711-72.476-19.271-109.020-19.691-42.711-0.812-81.822 4.528-117.335 16.004-35.529 11.483-64.782 26.674-87.778 45.538-23.001 18.86-42.501 40.597-58.517 65.225-16.014 24.608-27.41 49.22-34.185 73.829-6.777 24.626-10.16 48.812-10.16 72.612v334.748h-103.486v132.295c29.566 10.667 56.053 24.923 79.461 42.772 23.408 17.847 42.087 36.306 56.053 55.372 13.952 19.081 25.87 40.005 35.724 62.773 9.856 22.768 16.828 43.070 20.939 60.916 4.105 17.842 7.184 35.995 9.246 54.459 0.4 2.044 1.323 3.787 2.766 5.232 1.438 1.429 2.98 2.146 4.62 2.146h150.293v-260.903h205.113v-155.061h-205.73v-318.743c0-12.302 1.33-23.796 4.009-34.462 2.665-10.663 7.285-21.442 13.856-32.309 6.567-10.868 16.729-19.378 30.489-25.531 13.755-6.153 30.491-9.024 50.199-8.619 32.036 0.827 59.536 6.775 82.542 17.847z" />
<glyph unicode="&#xe966;" glyph-name="twoo" d="M762 725.662c-99.703 0-186.384-59.012-230.686-145.87l137.175-141.872c-0.316 3.355-0.491 6.779-0.491 10.235 0 54.672 41.794 98.972 93.396 98.972 51.575 0 93.397-44.3 93.397-98.972 0-54.667-41.815-98.978-93.397-98.978-22.556 0-43.268 8.491-59.408 22.606l-252.74 270.405c-47.564 51.465-113.883 83.412-187.234 83.412-144.704 0-262.012-124.299-262.012-277.632 0-153.335 117.307-277.632 262.011-277.632 99.742 0 186.455 59.054 230.718 145.972l-135.815 140.498c0.299-3.23 0.464-6.523 0.464-9.854 0-54.654-41.813-98.974-93.397-98.974s-93.388 44.32-93.388 98.974c0 54.676 41.804 98.996 93.388 98.996 23.275 0 44.551-9.040 60.894-23.98l252.34-270.772c47.392-49.94 112.665-80.798 184.784-80.798 144.693 0 262 124.299 262 277.634 0.002 153.323-117.316 277.632-261.998 277.632z" />
<glyph unicode="&#xe967;" glyph-name="vimeo" d="M874.96 860.528c99.076-2.601 148.636-58.795 149.129-168.732 0-7.214-0.245-14.724-0.638-22.428-4.372-93.2-73.778-220.165-208.514-380.85-138.958-168.338-256.85-252.606-353.662-253.047-60.22 0-110.226 51.531-150.356 154.645l-42.146 141.346-41.657 141.148c-30.699 102.279-63.509 153.321-98.532 153.321-7.664 0-34.238-14.921-79.868-44.661l-48.629 57.474 75.447 62.626 74.22 61.986c66.46 53.202 117.003 81.961 151.682 86.231 4.619 0.491 9.236 0.638 13.95 0.638 71.175 0 115.628-51.092 133.065-153.321 9.724-58.306 17.78-105.714 24.315-142.132 6.334-36.516 11.639-61.936 15.865-76.416 23.531-96.684 48.875-145.273 76.137-145.666 20.924 0 53.148 31.509 96.668 94.526 42.535 64.734 65.426 112.684 68.375 143.899 0.93 6.331 1.275 12.27 1.275 17.767 0 42.256-23.282 63.31-69.65 63.31-23.529 0-48.629-5.006-75.499-14.674 48.14 148.265 140.681 222.519 277.529 223.010 3.829 0 7.612 0 11.493 0z" />
<glyph unicode="&#xe968;" glyph-name="vine" d="M968.862 453.701c-18.14-4.8-36.942-8.112-56.414-9.918-93.328-8.731-172.062 18.444-223.968 101.23-31.061 49.541-39.586 105.204-36.098 162.91 1.404 23.099 5.636 45.6 17.893 65.767 11.435 18.764 27.109 31.058 50.037 31.872 32.764 1.156 55.497-19.001 64.537-58.48 11.62-50.645 3.716-100.281-10.258-149.12-1.436-4.996-4.076-15.515-4.076-15.515s6.716-7.616 11.568-12.489c33.753-33.966 75.452-41.717 120.839-38.075 7.077 0.567 16.985 1.497 16.985 1.497s4.581 11.344 6.377 16.245c24.407 66.779 34.487 135.198 27.193 206.187-10.393 101.294-64.073 189.499-193.291 202.596-115.595 11.716-211.483-41.563-251.717-151.948-23.093-63.372-24.26-128.345-12.528-193.792 19.648-109.396 71.109-198.293 169.588-255.419 9.844-5.698 9.959-10.197 5.17-19.3-40.030-76.192-87.828-146.955-145.698-210.791-24.93-27.525-24.734-27.237-48.16 2.405-117.927 149.317-182.866 321.63-219.644 506.174-10.062 50.492-18.306 101.108-24.622 152.238l-1.476 17.68-175.963 0.112 1.435-10.032c22.238-158.885 55.879-314.912 115.358-464.526 43.712-109.945 98.827-213.164 178.667-301.68 25.984-28.805 54.412-54.795 87.186-75.892 38.357-24.729 75.899-23.108 112.768 2.684 10.516 7.358 20.692 15.399 30.226 24.007 101.52 91.932 183.518 198.912 245.596 320.99 4.83 9.538 9.833 13.902 21.278 13.956 25.767 0.105 51.39 3.074 76.837 7.36 14.985 2.517 29.749 5.575 44.363 9.259v121.812h0.012z" />
</font>
</defs>
</svg>
